<?xml version="1.0" standalone="no"?>
<!DOCTYPE svg PUBLIC "-//W3C//DTD SVG 20010904//EN"
 "http://www.w3.org/TR/2001/REC-SVG-20010904/DTD/svg10.dtd">
<svg version="1.0" xmlns="http://www.w3.org/2000/svg"
 width="1088.000000pt" height="1088.000000pt" viewBox="0 0 1088.000000 1088.000000"
 preserveAspectRatio="xMidYMid meet">
<metadata>
Created by potrace 1.11, written by Peter Selinger 2001-2013
</metadata>
<g transform="translate(0.000000,1088.000000) scale(0.100000,-0.100000)"
fill="#000000" stroke="none">
<path d="M10581 9840 c-18 -27 -66 -83 -107 -124 -186 -189 -426 -325 -669
-381 -5 -1 -21 -5 -35 -8 -40 -10 -90 -17 -160 -23 -36 -3 -1917 -7 -4180 -8
-2263 -1 -4126 -6 -4140 -10 -14 -4 -38 -9 -55 -11 -16 -3 -40 -7 -52 -10 -13
-3 -33 -7 -44 -10 -67 -14 -196 -62 -274 -102 -100 -50 -255 -151 -262 -170
-3 -7 -10 -13 -15 -13 -12 0 -150 -138 -199 -200 -68 -85 -193 -302 -203 -352
-2 -7 -6 -20 -9 -28 -26 -63 -55 -168 -62 -220 -2 -14 -4 -25 -5 -25 -7 0 -13
-102 -14 -225 -1 -140 7 -250 19 -269 3 -5 7 -22 9 -38 7 -55 32 -139 61 -208
7 -16 21 -48 30 -70 9 -22 33 -69 53 -105 20 -36 35 -68 34 -72 -1 -5 2 -8 6
-8 5 0 19 -20 33 -45 33 -63 48 -90 93 -165 45 -75 69 -117 104 -180 13 -25
28 -49 32 -55 4 -5 19 -30 32 -55 14 -25 58 -101 98 -170 40 -69 84 -145 98
-170 14 -25 35 -61 46 -80 12 -19 33 -56 46 -82 14 -27 28 -48 32 -48 5 0 8
-9 8 -20 0 -11 4 -20 8 -20 5 0 17 -17 28 -37 42 -79 87 -158 94 -168 4 -5 17
-26 28 -45 10 -19 61 -107 112 -195 51 -88 101 -176 112 -195 11 -19 25 -41
30 -47 6 -7 7 -13 2 -13 -5 0 -4 -4 2 -8 10 -6 24 -29 73 -121 8 -14 17 -28
20 -31 4 -3 12 -16 18 -30 15 -29 38 -70 115 -200 31 -52 66 -113 78 -135 13
-22 31 -53 41 -70 11 -16 22 -37 26 -45 4 -8 49 -87 100 -174 51 -87 93 -160
93 -162 0 -2 17 -32 38 -66 21 -35 41 -70 45 -78 4 -8 17 -31 28 -50 12 -19
33 -55 47 -80 14 -25 33 -57 43 -72 11 -14 19 -28 19 -31 0 -3 27 -51 60 -107
33 -56 60 -103 60 -105 0 -3 62 -110 90 -155 5 -8 30 -51 55 -95 25 -44 50
-87 55 -95 33 -51 180 -313 180 -321 0 -5 3 -9 8 -9 4 0 12 -10 18 -23 21 -42
59 -112 64 -117 3 -3 11 -16 19 -30 20 -35 154 -268 219 -380 30 -52 62 -108
71 -125 9 -16 21 -33 26 -37 6 -4 6 -8 1 -8 -5 0 -1 -10 10 -23 11 -12 25 -33
32 -47 6 -14 23 -43 36 -65 14 -22 33 -56 43 -75 9 -19 30 -53 45 -76 15 -22
32 -52 38 -65 10 -25 17 -37 63 -106 15 -24 25 -43 21 -43 -4 0 0 -8 8 -17 8
-10 18 -25 22 -33 4 -8 12 -24 19 -35 7 -11 30 -51 52 -90 21 -38 41 -72 44
-75 3 -3 12 -16 20 -30 56 -100 207 -267 319 -352 31 -23 59 -46 60 -50 2 -5
9 -8 15 -8 6 0 18 -6 26 -14 31 -28 251 -136 306 -150 6 -2 17 -6 25 -9 8 -4
26 -8 40 -9 14 -2 30 -6 35 -10 6 -3 28 -9 50 -13 22 -4 49 -9 60 -12 125 -24
319 -23 490 3 74 12 237 65 330 108 93 44 237 131 243 147 2 5 8 9 12 9 22 0
218 194 263 260 17 25 36 50 42 56 5 6 19 27 30 47 11 20 23 37 27 37 5 0 8 5
8 10 0 9 59 117 107 195 7 11 16 28 19 38 3 9 10 17 15 17 5 0 9 5 9 11 0 10
61 118 242 427 26 45 48 87 48 92 0 6 5 10 10 10 6 0 10 4 10 9 0 5 56 106
125 225 69 118 125 219 125 225 0 5 4 11 8 13 4 2 26 34 48 73 21 38 54 94 72
125 18 30 35 63 39 73 3 9 9 17 14 17 5 0 9 6 9 14 0 7 9 25 20 38 10 14 16
28 13 32 -3 3 -1 6 5 6 6 0 14 10 18 22 3 12 22 45 41 75 18 29 30 53 26 53
-4 0 -3 4 2 8 14 9 111 174 122 205 3 9 9 17 13 17 5 0 13 12 19 28 6 15 15
34 20 42 15 23 88 147 201 345 57 99 107 183 112 186 6 3 9 9 9 13 -1 6 22 52
44 88 12 20 85 147 181 313 37 66 72 122 76 123 4 2 8 12 8 22 0 10 4 20 8 22
10 4 92 146 92 159 0 5 5 9 10 9 6 0 10 4 10 9 0 5 41 80 92 168 50 87 112
194 136 238 25 44 48 82 51 85 4 3 18 28 31 55 14 28 28 52 31 55 3 3 47 79
99 170 52 91 97 167 100 170 3 3 15 25 28 50 13 25 32 59 42 75 11 17 24 39
30 50 6 11 24 43 40 70 17 28 33 58 36 68 4 9 10 17 15 17 5 0 9 9 9 19 0 11
4 21 8 23 8 3 47 69 80 133 9 17 18 32 22 35 4 3 22 34 42 70 19 36 49 88 66
116 18 28 32 55 32 59 0 4 8 19 19 33 10 15 29 47 43 72 14 25 49 86 78 135
29 50 62 106 72 125 45 84 85 151 96 162 7 7 12 15 12 19 0 7 109 201 140 249
17 27 95 164 109 193 7 15 17 27 22 27 5 0 9 5 9 11 0 6 17 40 38 75 20 36 44
77 53 93 8 16 34 60 56 97 23 38 52 88 64 111 61 106 110 192 207 358 58 99
118 205 135 235 16 30 38 67 49 82 10 14 18 28 18 31 0 10 74 132 82 135 5 2
8 8 8 14 0 9 138 257 150 268 3 3 10 14 16 25 6 11 26 47 44 80 18 33 38 69
44 80 6 11 14 22 17 25 4 3 21 32 38 65 34 64 42 78 81 140 14 22 32 54 40 70
8 17 17 32 20 35 3 3 13 20 23 38 28 50 6 37 -32 -18z"/>
</g>
</svg>
