<svg width="76" height="29" viewBox="0 0 76 29" fill="none" xmlns="http://www.w3.org/2000/svg">
<g style="mix-blend-mode:luminosity" clip-path="url(#clip0)">
<path fill-rule="evenodd" clip-rule="evenodd" d="M11.8376 17.5121L11.8671 17.2451C12.1968 15.5831 11.4181 14.8708 8.96077 14.8708C6.59323 14.8708 5.54447 15.5831 5.24491 17.2451L5.18525 17.5416C4.85555 19.2042 5.93445 19.9467 8.06148 19.9467C10.2494 19.9467 11.5676 18.9367 11.8376 17.5121ZM20.1975 16.2954L23.0147 0.503157C23.0398 0.362173 23.1137 0.234516 23.2235 0.142529C23.3333 0.0505433 23.4719 8.9609e-05 23.6151 0L26.9022 0C26.9912 8.74971e-05 27.0792 0.0196595 27.1598 0.0573425C27.2405 0.0950254 27.312 0.149906 27.3692 0.218133C27.4264 0.286361 27.468 0.366281 27.491 0.452285C27.514 0.53829 27.518 0.628295 27.5025 0.715984L26.5805 5.93639C27.7191 5.10538 28.9776 4.51181 31.2854 4.51181C35.78 4.51181 37.5478 7.47969 36.9186 11.0116L35.8698 16.8293C35.1206 21.0735 32.6338 23.1218 27.0898 23.1218C21.8762 23.1218 19.4785 20.2432 20.1975 16.2954ZM31.4952 16.117L32.3342 11.457C32.6633 9.61657 31.9442 8.37037 29.517 8.37037C27.0603 8.37037 25.9211 9.61657 25.5914 11.457L24.7524 16.117C24.4227 17.9574 25.1424 19.2042 27.5991 19.2042C30.0263 19.2042 31.1655 17.9574 31.4952 16.117ZM55.3773 15.0486H43.841L43.6011 16.4732C43.3311 18.0466 43.8102 19.4712 46.6877 19.4712C49.1746 19.4712 50.3734 18.7589 50.6428 17.2753C50.6511 17.2333 50.6737 17.1954 50.7069 17.1683C50.74 17.1411 50.7815 17.1263 50.8243 17.1264H54.4177C54.4921 17.1265 54.5655 17.1426 54.633 17.1736C54.7006 17.2046 54.7606 17.2498 54.8091 17.3062C54.8575 17.3625 54.8933 17.4287 54.9138 17.5001C54.9344 17.5715 54.9393 17.6465 54.9283 17.72C54.299 21.2224 51.8115 23.1218 46.3279 23.1218C40.9039 23.1218 38.5671 20.1835 39.256 16.4141L40.2149 10.9231C41.0238 6.64868 43.5113 4.51181 49.0546 4.51181C54.3888 4.51181 56.7558 7.3905 56.0668 11.2497L55.3779 15.0486H55.3773ZM44.5299 11.2195L44.3804 12.1397H51.5421L51.7217 11.19C52.0514 9.29057 51.2727 8.16246 48.6954 8.16246C46.0283 8.16246 44.8596 9.40928 44.5299 11.2195ZM65.8655 17.8387C68.3228 17.8387 69.4614 16.5919 69.7911 14.8111L70.3607 11.5166C70.6898 9.70576 69.9707 8.48908 67.5435 8.48908C65.1163 8.48908 63.9777 9.70576 63.648 11.5166L63.0791 14.8111C62.7494 16.5919 63.4383 17.8387 65.8655 17.8387ZM67.963 4.51181C73.1773 4.51181 75.6346 7.45017 74.9149 11.457L72.9976 22.2017C72.0977 27.0991 69.3113 28.91 64.4274 28.91H63.9181C59.573 28.91 56.7558 26.743 57.2054 23.211C57.2224 23.1195 57.2708 23.0368 57.3424 22.9772C57.414 22.9177 57.5041 22.8851 57.5972 22.885H61.5505C61.3106 24.25 62.2997 25.1997 64.3972 25.1997C67.0643 25.1997 68.1727 23.983 68.4723 22.2908L68.8918 20.0648C67.7539 20.9554 66.5249 21.4598 64.1278 21.4598C59.9925 21.4598 57.8648 18.6402 58.5537 14.7521L59.2131 10.9821C59.9623 6.73788 62.4492 4.51119 67.963 4.51119V4.51181ZM13.8201 2.33986C13.9129 2.33996 14.0044 2.3612 14.0877 2.40197C14.171 2.44273 14.2439 2.50196 14.3009 2.57514C14.3579 2.64831 14.3974 2.73352 14.4166 2.82428C14.4357 2.91504 14.4339 3.00896 14.4112 3.09891L13.9567 4.90363C16.7062 5.79553 18.044 8.12556 17.5304 11.0116L16.4521 17.0667C15.7878 20.7715 13.6288 22.4951 10.2722 22.9927L9.87236 24.5766C9.8392 24.7084 9.76298 24.8254 9.65578 24.9089C9.54858 24.9925 9.41655 25.0379 9.28063 25.0379H5.69086C5.598 25.0379 5.50635 25.0167 5.4229 24.976C5.33946 24.9352 5.26642 24.876 5.20935 24.8027C5.15228 24.7294 5.11269 24.6441 5.09359 24.5532C5.07449 24.4623 5.07638 24.3683 5.09913 24.2782L5.41837 23.0142C2.12325 22.4809 0.275468 20.4424 0.659295 17.6013L0.719575 17.1855C1.13908 13.95 3.35654 12.0505 8.54065 12.0505C10.5182 12.0505 11.9865 12.3476 12.676 12.7333L12.9454 11.1605C13.2751 9.43881 12.4964 8.28118 10.2783 8.28118C8.42071 8.28118 7.07239 8.90428 6.80298 10.4771H2.48739C2.99916 6.87443 4.96565 4.927 9.19143 4.57147L9.63862 2.79996C9.67201 2.66837 9.74833 2.55168 9.85551 2.46834C9.96268 2.38501 10.0946 2.3398 10.2303 2.33986H13.8195H13.8201Z" fill="#101010"/>
</g>
<defs>
<clipPath id="clip0">
<rect width="74.4279" height="28.91" fill="white" transform="translate(0.610596)"/>
</clipPath>
</defs>
</svg>
