<?xml version="1.0" encoding="UTF-8"?>
<svg viewBox="0 0 56 56" xmlns="http://www.w3.org/2000/svg">
<path d="m29.742 21.844c0.0065-0.011 0.014-0.011 0.023 0l-0.0135 0.011-0.0095-0.011z" fill="#0124DD"/>
<path d="m16.877 26.147c0.1619-0.4895 0.3153-0.952 0.4654-1.4107 0.0185-0.056 0.056-0.0688 0.1047-0.0778 0.8103-0.1512 1.624-0.28 2.4517-0.2391 0.584 0.0274 1.1457 0.1467 1.6486 0.4603 0.6821 0.4245 0.994 1.064 1.0382 1.848 0.0258 0.4508-0.0476 0.896-0.112 1.3373-0.1338 0.8993-0.2716 1.7975-0.4009 2.6969-0.0035 0.0377-0.0172 0.0738-0.0394 0.1044-0.0223 0.0307-0.0524 0.0548-0.0872 0.0698-0.5275 0.2895-1.0998 0.448-1.6878 0.5443-0.7277 0.1261-1.4699 0.1449-2.203 0.056-0.611-0.0767-1.1805-0.2666-1.624-0.7157-0.1925-0.1971-0.3419-0.432-0.4388-0.6899s-0.1391-0.5331-0.124-0.8081c0.0151-0.2751 0.0872-0.544 0.2118-0.7897 0.1245-0.2458 0.2988-0.4629 0.5117-0.6377 0.4547-0.3741 0.9923-0.56 1.5585-0.6804 0.8573-0.1815 1.7225-0.1568 2.5883-0.0907 0.108 0.0078 0.1316-0.0252 0.1366-0.1216 0.0386-0.6753-0.3668-1.1603-1.0786-1.2908-0.4939-0.0907-0.9788-0.0123-1.4638 0.0672-0.4948 0.0815-0.9819 0.2045-1.456 0.368zm3.0285 2.0372c-0.3082-2e-3 -0.6161 0.0207-0.9207 0.0678-0.3292 0.056-0.649 0.1428-0.9144 0.3612-0.3002 0.247-0.3803 0.5785-0.3209 0.9436 0.056 0.3332 0.289 0.5157 0.5908 0.6233 0.1383 0.0486 0.2823 0.0797 0.4284 0.0924 0.5398 0.052 1.064-0.042 1.5848-0.1708 0.0353-0.0047 0.0677-0.0221 0.091-0.0491 0.0234-0.0269 0.036-0.0615 0.0355-0.0971 0.0712-0.5292 0.1417-1.0589 0.2201-1.587 0.0135-0.0913-0.0168-0.1087-0.0929-0.1232-0.232-0.0383-0.4666-0.0587-0.7017-0.0611z" fill="#114185"/>
<path d="m41.874 29.837c-0.0896 0.2722-0.168 0.5157-0.2509 0.7593-0.066 0.2-0.1366 0.3982-0.1993 0.5998-6e-3 0.0309-0.021 0.0592-0.0432 0.0816-0.0221 0.0223-0.0503 0.0376-0.0811 0.0438-0.8568 0.2285-1.7248 0.3523-2.6096 0.2408-1.008-0.1271-1.8413-0.56-2.352-1.4845-0.3142-0.5723-0.4138-1.1956-0.3713-1.8379 0.0812-1.2219 0.5903-2.235 1.5367-3.0195 0.5751-0.4771 1.2459-0.7224 1.984-0.7952 0.5091-0.0498 1.0153-0.0403 1.512 0.098 1.0114 0.28 1.6856 1.0668 1.815 2.1084 0.0744 0.5986 0 1.1866-0.0969 1.7752-0.0118 0.0733-0.0487 0.0756-0.1047 0.0756h-0.8154-3.92c-0.1053 0-0.1361 0.0257-0.1377 0.1338-0.0146 0.8803 0.4715 1.4616 1.3367 1.61 0.6395 0.112 1.2617 0.0151 1.8827-0.1204 0.3106-0.0695 0.6162-0.1593 0.915-0.2688zm-2.2848-2.4976h1.2544c0.3831 0 0.3831 0 0.3959-0.383 0.0264-0.7756-0.4479-1.2813-1.2191-1.3244-0.9223-0.0521-1.792 0.616-2.016 1.6072-0.0184 0.0823 0 0.1025 0.084 0.1019 0.499-0.0039 0.9968-0.0017 1.5008-0.0017z" fill="#114185"/>
<path d="m45.096 31.585c-0.8223-0.0055-1.6385-0.1416-2.4181-0.4032-0.0778-0.0269-0.0986-0.0493-0.0706-0.1338 0.1281-0.3879 0.2507-0.7777 0.368-1.1693 0.0291-0.0964 0.0633-0.0885 0.1405-0.0516 0.7488 0.3663 1.5945 0.4855 2.4154 0.3405 0.1925-0.0293 0.3753-0.1042 0.5331-0.2184 0.073-0.0506 0.1337-0.1169 0.1777-0.1941 0.044-0.0771 0.0701-0.1632 0.0764-0.2518 0.0064-0.0886-0.0072-0.1775-0.0398-0.2601-0.0325-0.0827-0.0832-0.1569-0.1482-0.2174-0.1424-0.1318-0.3022-0.2433-0.4749-0.3316-0.4284-0.2396-0.8641-0.4642-1.2712-0.742-1.0937-0.7487-0.9605-2.3072 0.1164-2.991 0.4772-0.3029 0.9997-0.4547 1.5546-0.5124 0.9252-0.0957 1.8195 0.0627 2.7009 0.3282 0.0807 0.0241 0.1014 0.0459 0.0706 0.1316-0.1327 0.3679-0.261 0.7381-0.3814 1.1105-0.0319 0.098-0.07 0.0907-0.1456 0.056-0.5513-0.2602-1.155-0.3904-1.7646-0.3808-0.2956 0.0073-0.584 0.056-0.8344 0.2307-0.1064 0.0679-0.1876 0.1688-0.2311 0.2872-0.0435 0.1185-0.0469 0.248-0.0097 0.3686 0.0483 0.1352 0.1393 0.251 0.2593 0.3298 0.2593 0.1949 0.5561 0.3265 0.84 0.4822 0.3474 0.1814 0.679 0.3915 0.9912 0.6283 0.9229 0.7325 0.8294 2.128-0.056 2.837-0.5712 0.4564-1.2398 0.639-1.951 0.7039-0.1787 0.0157-0.3562 0.0185-0.4475 0.023z" fill="#114185"/>
<path d="m51.138 31.584c-0.8113-0.0078-1.6164-0.1426-2.3861-0.3993-0.0891-0.0297-0.112-0.056-0.079-0.1501 0.1266-0.3796 0.2464-0.7616 0.3629-1.1446 0.028-0.093 0.056-0.1064 0.1467-0.0627 0.7456 0.3628 1.5864 0.4823 2.4035 0.3416 0.1751-0.0275 0.3429-0.09 0.4934-0.1837 0.3713-0.2369 0.4166-0.672 0.103-0.9766-0.1315-0.1182-0.2777-0.2189-0.4351-0.2997-0.448-0.2542-0.9133-0.4816-1.335-0.784-0.9728-0.7028-0.8518-1.9745-0.2571-2.6129 0.401-0.4296 0.9072-0.6603 1.4689-0.784 0.7454-0.168 1.4902-0.1277 2.2344 0.01 0.3136 0.056 0.6205 0.1412 0.9274 0.224 0.1019 0.0286 0.1389 0.0588 0.0958 0.1753-0.1294 0.3511-0.247 0.7062-0.3612 1.064-0.032 0.098-0.0639 0.112-0.1602 0.07-0.544-0.2554-1.1384-0.3853-1.7394-0.3802-0.28 5e-3 -0.5505 0.0465-0.7946 0.1932-0.2313 0.1383-0.3483 0.3394-0.3136 0.616 0.0218 0.1758 0.1277 0.2985 0.2609 0.3993 0.28 0.2122 0.602 0.3522 0.9067 0.5202 0.3472 0.1921 0.6899 0.392 0.9929 0.6502 0.8489 0.728 0.7532 2.0776-0.0986 2.772-0.4575 0.3735-0.9884 0.5673-1.5613 0.6675-0.2894 0.047-0.582 0.0719-0.8753 0.0745z" fill="#114185"/>
<path d="m28.951 29.936c-0.0285 0.168-0.1008 0.3186-0.154 0.4771-0.1013 0.3018-0.2094 0.6009-0.3096 0.9033-0.0074 0.0302-0.0242 0.0573-0.0479 0.0775-0.0238 0.0201-0.0533 0.0322-0.0843 0.0345-0.672 0.112-1.3513 0.1831-2.0339 0.1316-1.0186-0.0767-1.8922-0.448-2.4925-1.316-0.4234-0.6116-0.5729-1.3065-0.5354-2.0385 0.0627-1.2208 0.5802-2.2198 1.5338-2.9848 0.5466-0.4379 1.1895-0.653 1.8743-0.7426 0.8478-0.1201 1.7111-0.0685 2.5385 0.1518 0.1579 0.0431 0.3102 0.1036 0.4653 0.154 0.056 0.0179 0.0706 0.042 0.0499 0.103-0.1322 0.3864-0.2632 0.774-0.387 1.1632-0.0274 0.0856-0.066 0.0683-0.1215 0.0464-0.3954-0.1621-0.8141-0.2602-1.2404-0.2906-0.9223-0.0521-1.7242 0.2016-2.2999 0.9694-0.5392 0.7196-0.6227 1.9146-0.0453 2.637 0.3589 0.4481 0.8327 0.6855 1.3949 0.751 0.6065 0.0706 1.1928-0.0465 1.7718-0.2128 0.037-0.0106 0.0745-0.0179 0.112-0.0269l0.0112 0.0124z" fill="#114185"/>
<path d="m35.336 29.928c-0.1288 0.3708-0.2766 0.7376-0.3825 1.1161-0.0767 0.2761-0.2061 0.4071-0.5073 0.4374-0.84 0.084-1.68 0.1781-2.52-0.0443-1.3211-0.3511-2.1841-1.405-2.2557-2.7748-0.0784-1.4885 0.4917-2.6779 1.6906-3.5577 0.504-0.3691 1.092-0.5438 1.7058-0.6239 0.8476-0.1197 1.7105-0.0683 2.5379 0.1512 0.1534 0.042 0.3007 0.1048 0.4536 0.149 0.0801 0.0235 0.0823 0.0599 0.056 0.1299-0.1282 0.3747-0.2554 0.7493-0.3746 1.1268-0.0286 0.0901-0.0628 0.0868-0.1361 0.0588-0.5869-0.224-1.1872-0.3456-1.8206-0.28-1.0757 0.1153-1.8945 0.8265-2.1011 1.8732-0.149 0.7554-0.0123 1.4465 0.5897 1.9813 0.4799 0.4256 1.064 0.5443 1.6861 0.5079 0.439-0.0289 0.8727-0.1116 1.2914-0.2464 0.0252-0.0045 0.0476-0.0252 0.0868-0.0045z" fill="#114185"/>
<path d="m14.002 28.386-6.9759-6.9759v1.0707l5.9075 5.9075-5.1151 5.115-0.00616-0.0061-5.1117-5.1112-0.00448-0.0045 2.5094-2.5093h-1.0892l-2.5116 2.5116 0.00224 0.0022 6.2031 6.2032 0.00224-0.0023 6.1952-6.1953-0.0056-0.0056z" fill="#FE6309"/>
<path d="m7.0228 23.218v1.0707l4.0998 4.0998-3.3029 3.3028-3.3057-3.3051-0.00448-0.0045 2.5094-2.5093h-1.0892l-2.5116 2.5116 0.00224 0.0022 3.8522 3.8523 0.53872 0.5387 0.54767-0.5471 3.8376-3.8383-5.1738-5.1738z" fill="#FE6309"/>
<path d="m10.39 28.386-2.0457-2.0479-0.54432-0.5444-0.53536 0.5354-2.0563 2.0546 2.0574 2.0575 0.53872 0.5387 0.54656-0.5471 2.0446-2.0412-0.0056-0.0056zm-2.576 1.512-1.512-1.512-0.00448-0.0045 1.5081-1.5081 1.512 1.512-1.5036 1.5126z" fill="#FE6309"/>
</svg>
