<svg width="36" height="32" viewBox="0 0 36 32" fill="none" xmlns="http://www.w3.org/2000/svg">
    <path d="M20.7707 28.8046C20.7707 30.5695 19.3399 32.0001 17.5752 32.0001C15.8103 32.0001 14.3798 30.5695 14.3798 28.8046C14.3798 27.04 15.8103 25.6094 17.5752 25.6094C19.3399 25.6094 20.7707 27.04 20.7707 28.8046Z" fill="#0784FF"/>
    <path d="M30.3568 32L17.5754 30.4023L4.79376 32C3.02909 32 1.59851 30.5694 1.59851 28.8045V8.03465C1.59851 6.26977 3.02909 4.83919 4.79376 4.83919L14.3799 3.24146C16.1448 3.24146 17.5754 4.67204 17.5754 6.43692C17.5754 4.67204 19.006 3.24146 20.7709 3.24146L30.3568 4.83919C32.1217 4.83919 33.5523 6.26977 33.5523 8.03465V28.8045C33.5523 30.5694 32.1217 32 30.3568 32Z" fill="#0784FF"/>
    <path d="M2.39738 27.1931C1.95605 27.1931 1.59851 27.5507 1.59851 27.992V28.8045C1.59851 30.5694 3.02909 32 4.79398 32L15.0321 30.7201C15.631 31.5237 16.5734 31.9978 17.5754 32H17.6106L17.6144 31.9997H17.6236L17.6281 31.9995H17.63L17.6364 31.9993H17.6453L17.6494 31.9991H17.652L17.6558 31.9989H17.6624L17.6652 31.9987H17.6688L17.6716 31.9985H17.6754L17.678 31.9983H17.6818L17.6844 31.998H17.689L17.6908 31.9978L17.6971 31.9976H17.6991L17.7035 31.9974H17.7061L17.7099 31.9972L17.7129 31.997H17.7163L17.7191 31.9968L17.7229 31.9965H17.7257L17.7293 31.9963L17.7321 31.9961H17.7357L17.7385 31.9959L17.7426 31.9957L17.7449 31.9955L17.7502 31.9953H17.7517L17.7577 31.9948H17.7598L17.7639 31.9946L17.7664 31.9944L17.7705 31.9942L17.773 31.994L17.7769 31.9938L17.7797 31.9936L17.7833 31.9933H17.7861L17.7897 31.9931L17.7924 31.9929L17.7961 31.9925L17.7988 31.9923L17.8029 31.9921L17.8052 31.9919L17.8114 31.9914H17.8127L17.8178 31.991L17.8202 31.9908L17.8242 31.9906L17.8268 31.9904L17.8306 31.9899L17.8334 31.9897L17.837 31.9895L17.8398 31.9893L17.8432 31.9891L17.8462 31.9889L17.8496 31.9884L17.8524 31.9882L17.8564 31.988L17.8634 31.9874L17.8649 31.9872L17.8713 31.9865H17.873L17.8801 31.9859L17.8839 31.9855L17.8867 31.985L17.8903 31.9848L17.8931 31.9844L17.8965 31.9842L17.8995 31.984L17.9029 31.9835L17.9057 31.9831L17.9093 31.9829L17.9121 31.9825L17.9159 31.982L17.9185 31.9818L17.9229 31.9814L17.9251 31.9812L17.9308 31.9806L17.9329 31.9801L17.937 31.9797L17.9398 31.9795L17.9434 31.9791L17.946 31.9786L17.9496 31.9782L17.9524 31.978L17.956 31.9776L17.9585 31.9771L17.9624 31.9767L17.9649 31.9763L17.9688 31.9759L17.9713 31.9754L17.9752 31.975L17.9775 31.9748L17.9837 31.9739L17.9852 31.9737L17.9899 31.9731L17.9926 31.9729L17.9961 31.9725L17.999 31.972L18.0025 31.9716L18.0052 31.9712L18.0089 31.9707L18.0116 31.9703L18.015 31.9699L18.0178 31.9695L18.0212 31.9688L18.0242 31.9686L18.0276 31.968L18.0302 31.9678L18.0344 31.9671L18.0366 31.9667L18.0427 31.9658L18.0445 31.9656L18.0487 31.965L18.0577 31.9635L18.0613 31.9631L18.0641 31.9624L18.0675 31.962L18.0703 31.9616L18.0737 31.9609L18.0764 31.9605L18.0801 31.9601L18.0828 31.9597L18.0865 31.959L18.089 31.9586L18.0937 31.9577L18.0952 31.9575L18.1012 31.9565L18.1033 31.9563L18.1073 31.9554L18.1101 31.955L18.1135 31.9543L18.1163 31.9539L18.1197 31.9533L18.1225 31.9528L18.1259 31.9522L18.1287 31.9518L18.1321 31.9511L18.1349 31.9507L18.1383 31.9501L18.1408 31.9496L18.1451 31.9488L18.147 31.9484L18.1532 31.9473L18.154 31.9471L18.1617 31.9458L18.1653 31.9452L18.1679 31.9445L18.1715 31.9439L18.1743 31.9435L18.1777 31.9428L18.1805 31.9422L18.1839 31.9415L18.1867 31.9409L18.1901 31.9403L18.1926 31.9398L18.1963 31.939L18.1988 31.9386L18.2024 31.9379L18.205 31.9373L18.2108 31.9362L18.2135 31.9356L18.2169 31.9349L18.2197 31.9343L18.2231 31.9337L18.2259 31.933L18.2291 31.9324L18.2319 31.9317L18.2353 31.9311L18.238 31.9305L18.2415 31.9296L18.244 31.9292L18.2476 31.9283L18.2502 31.9277L18.2538 31.927L18.2564 31.9264L18.2604 31.9256L18.2623 31.9251L18.2683 31.9238L18.2702 31.9234L18.2745 31.9224L18.2768 31.9219L18.2805 31.9211L18.2864 31.9196L18.2894 31.9189L18.2926 31.9183L18.2954 31.9177L18.2986 31.9168L18.3016 31.9162L18.3046 31.9153L18.3073 31.9147L18.3107 31.9138L18.3191 31.9119L18.3201 31.9117L18.3252 31.9104L18.3276 31.9098L18.3314 31.9089L18.334 31.9083L18.3372 31.9074L18.3402 31.9068L18.3434 31.9059L18.3461 31.9053L18.3493 31.9044L18.3521 31.9038L18.3553 31.903L18.3583 31.9021L18.3611 31.9015L18.3675 31.8998L18.3702 31.8991L18.376 31.8976L18.3781 31.897L18.382 31.8961L18.3847 31.8953L18.3879 31.8944L18.3909 31.8936L18.3937 31.8929L18.3969 31.8921L18.3996 31.8912L18.4028 31.8904L18.4056 31.8897L18.4086 31.8887L18.4116 31.888L18.4205 31.8855L18.424 31.8846L18.4267 31.8838L18.4321 31.8823L18.447 31.878L18.4498 31.8772L18.4529 31.8763L18.4557 31.8757L18.4589 31.8746L18.4617 31.874L18.4649 31.8729L18.4677 31.872L18.4706 31.8712L18.4734 31.8703L18.4766 31.8695L18.4794 31.8686L18.4845 31.8671L18.4881 31.8661L18.4909 31.8652L18.4939 31.8644L18.4969 31.8633L18.4996 31.8624L18.5028 31.8616L18.5056 31.8607L18.5086 31.8599L18.5114 31.859L18.5261 31.8541L18.5286 31.8535L18.532 31.8524L18.5333 31.852L18.5412 31.8494L18.5433 31.8488L18.5491 31.8469L18.5521 31.8458L18.5549 31.845L18.5581 31.8439L18.5604 31.843L18.5638 31.842L18.583 31.8356C18.5873 31.8341 18.5915 31.8326 18.5956 31.8311L18.5981 31.8305L18.6013 31.8292L18.6037 31.8283L18.6071 31.8273L18.6094 31.8264L18.6129 31.8251L18.6152 31.8245L18.6184 31.8232L18.6267 31.8204L18.6299 31.8192L18.6323 31.8183L18.6357 31.817L18.6369 31.8166L18.6459 31.8134L18.6467 31.8132L18.6504 31.8119L18.6525 31.8111L18.6559 31.8098L18.658 31.8091L18.6615 31.8079L18.6638 31.807L18.6672 31.8057L18.6696 31.8049L18.673 31.8036L18.6753 31.8027L18.6785 31.8015L18.6809 31.8006L18.6843 31.7993L18.6864 31.7985C18.6911 31.7968 18.6956 31.7951 18.7 31.7934L18.7007 31.7932L18.7047 31.7917L18.7064 31.7908L18.7101 31.7895L18.712 31.7887L18.7156 31.7874L18.7175 31.7865L18.7212 31.7851L18.7233 31.7844L18.7267 31.7829L18.7288 31.7821L18.7325 31.7808L18.7339 31.7801L18.738 31.7787L18.7391 31.7782C18.7442 31.7761 18.7491 31.7742 18.7542 31.772L18.7585 31.7703L18.76 31.7699L18.7638 31.7682L18.7655 31.7676L18.7691 31.7661L18.771 31.7652L18.7747 31.7637L18.7766 31.7629L18.7804 31.7614L18.7819 31.7607L18.786 31.759L18.787 31.7586C18.7936 31.7558 18.8003 31.7531 18.8069 31.7501L18.8073 31.7499L18.8116 31.7482L18.813 31.7475L18.8169 31.7458L18.8184 31.7452L18.8222 31.7435L18.8239 31.7428L18.8278 31.7411L18.8292 31.7405L18.8331 31.7388L18.8348 31.7381L18.8386 31.7364L18.8395 31.736C18.8461 31.7332 18.8525 31.7303 18.8589 31.7275L18.86 31.7271L18.864 31.7251L18.8655 31.7245L18.8693 31.7228L18.8708 31.7222L18.8747 31.7202L18.8762 31.7196L18.8802 31.7177L18.8813 31.7173L18.8855 31.7153L18.8864 31.7149C18.8947 31.7111 18.9032 31.7072 18.9113 31.7034L18.9118 31.7032L18.9162 31.701L18.9173 31.7006L18.9216 31.6985L18.9226 31.6981L18.9267 31.6961L18.928 31.6955L18.932 31.6936L18.9331 31.6932L18.9373 31.691L18.938 31.6906C18.9463 31.6868 18.9546 31.6825 18.9629 31.6785L18.9634 31.6782L18.9678 31.6761L18.9729 31.6735L18.974 31.6731L18.9781 31.671L18.984 31.668C18.9941 31.6631 19.0039 31.658 19.0137 31.6531L19.0145 31.6527L19.0186 31.6505L19.0199 31.6499L19.0239 31.6477L19.0248 31.6473L19.0292 31.645L19.0299 31.6448L19.0346 31.6422C19.0429 31.6377 19.0512 31.6335 19.0597 31.629L19.0644 31.6264L19.0648 31.6262L19.0693 31.6237L19.07 31.6234L19.0746 31.6209L19.0749 31.6207L19.0798 31.6181C19.0932 31.6109 19.1064 31.6036 19.1196 31.5962C19.1358 31.587 19.152 31.5776 19.168 31.5682C19.548 31.3442 19.6744 30.8544 19.4503 30.4743C19.2269 30.0956 18.7393 29.9686 18.3594 30.1903C18.1218 30.3304 17.8511 30.4035 17.5754 30.4027C17.0746 30.4005 16.6043 30.1613 16.3075 29.7579C15.9632 29.3017 15.4012 29.0642 14.8341 29.1352L4.71125 30.4005C3.8625 30.3555 3.1971 29.6547 3.19624 28.8049V27.9922C3.19624 27.5507 2.83849 27.1931 2.39738 27.1931ZM22.1134 29.3656C21.6721 29.3663 21.315 29.7242 21.3156 30.1656C21.316 30.5679 21.6158 30.9071 22.0149 30.9572L26.8 31.5552L26.8021 31.5554L26.8322 31.5593L26.8392 31.5601L27.0885 31.5913L27.0932 31.5919L27.1002 31.5927L27.1025 31.593L27.1175 31.5949L27.1285 31.5964L27.1676 31.6011L27.1789 31.6026L27.3978 31.6298L27.4072 31.6311L27.4187 31.6326L27.4255 31.6335L27.4321 31.6343L27.4339 31.6345L27.6063 31.6561L27.6102 31.6565L27.7916 31.6793H27.792L27.8355 31.6846L27.8389 31.6851L27.8688 31.6889L27.8733 31.6893L27.9274 31.6961L27.9344 31.697L27.9402 31.6979L28.0052 31.706H28.0061L28.027 31.7085L28.0283 31.7087L28.0383 31.71L28.0396 31.7102L28.06 31.7128L28.0641 31.7132L28.0705 31.7141L28.0722 31.7143L28.1022 31.7179L28.1155 31.7196L28.1342 31.7219L28.1385 31.7226L28.1472 31.7236L28.1523 31.7243L28.1792 31.7277L28.1835 31.7281L28.189 31.7288L28.2069 31.7311L28.2127 31.7318L28.2255 31.7332L28.2658 31.7384L28.2724 31.7392L28.2751 31.7394L28.2903 31.7413L28.299 31.7424L28.3146 31.7445L28.3208 31.7452L28.3221 31.7454L28.3517 31.749L28.3577 31.7499L28.3598 31.7501L28.3675 31.7512L28.3843 31.7533L28.3997 31.755L28.4321 31.759L28.4408 31.7603L28.4491 31.7612L28.4621 31.7629L28.467 31.7635L28.4802 31.765L28.486 31.7659L28.5035 31.768L28.5084 31.7686L28.5468 31.7733L28.5668 31.7759L28.5679 31.7761L28.5851 31.7782L28.5905 31.7789L28.606 31.7808L28.609 31.7812L28.6269 31.7836L28.6299 31.7838L28.718 31.7949L28.7195 31.7951L28.7265 31.7959L28.7312 31.7966L28.7431 31.7981L28.7523 31.7991L28.7627 31.8004L28.7672 31.801L28.7853 31.8032L28.7915 31.804L28.8263 31.8083L28.8276 31.8085L28.9111 31.8189L28.9403 31.8226L28.9442 31.8232L28.9585 31.8249L28.9625 31.8253L28.9687 31.8262L28.9917 31.8292L28.9962 31.8296L28.999 31.83L29.009 31.8311L29.0437 31.8356L29.0508 31.8364L29.0623 31.8379L29.0706 31.839L29.0751 31.8394L29.0883 31.8411L29.11 31.8439L29.1222 31.8454L29.1294 31.8462L29.1966 31.8548H29.1977L29.2661 31.8633H29.2667L29.2989 31.8673L29.3021 31.8678L29.3079 31.8686L29.3284 31.8712L29.3305 31.8714L29.3356 31.872L29.3665 31.8759L29.3678 31.8761L29.4629 31.8878L29.4659 31.8882L29.5266 31.8959L29.5848 31.9032L29.5893 31.9038L29.5942 31.9042L29.5947 31.9044C29.7302 31.9213 29.8507 31.9364 29.9539 31.9492L29.9554 31.9494L29.9976 31.9548L29.9991 31.955L30.0038 31.9556H30.004C30.0588 31.9624 30.1076 31.9686 30.1507 31.9739H30.1509L30.263 31.9878L30.2637 31.988L30.3568 31.9997H30.3867L30.3899 31.9995H30.4031L30.408 31.9993H30.4195L30.4214 31.9991H30.4304L30.4325 31.9989H30.4381L30.4413 31.9987H30.4466L30.4492 31.9985H30.4545L30.4588 31.9983H30.4598L30.4654 31.998H30.4666L30.4707 31.9978H30.4726L30.4762 31.9976H30.4782L30.4816 31.9974H30.4837L30.4869 31.9972H30.4892L30.4922 31.997H30.4948L30.4978 31.9968H30.5001L30.5035 31.9965L30.5057 31.9963H30.5097L30.511 31.9961L30.5163 31.9959H30.5178L30.5219 31.9957L30.5236 31.9955H30.527L30.5293 31.9953L30.5325 31.9951H30.5349L30.5379 31.9948L30.5404 31.9946L30.5434 31.9944H30.5457L30.5487 31.9942L30.5511 31.994L30.5545 31.9938H30.5564L30.5607 31.9933H30.5617L30.5673 31.9931L30.5681 31.9929L30.5726 31.9927L30.5743 31.9925L30.5779 31.9923L30.5801 31.9921L30.5835 31.9919L30.5856 31.9916L30.5888 31.9914H30.5909L30.5944 31.9912L30.5965 31.991L30.5999 31.9908L30.6016 31.9906L30.6054 31.9902H30.6071L30.6116 31.9897H30.6125L30.6233 31.9889H30.6248L30.6285 31.9884L30.6308 31.9882L30.634 31.988L30.6361 31.9878L30.6396 31.9876L30.6415 31.9874L30.6449 31.9872L30.6468 31.987L30.6502 31.9865H30.6523L30.6558 31.9861L30.6615 31.9855H30.663L30.6737 31.9844H30.6749L30.6792 31.984L30.6805 31.9838L30.6845 31.9833L30.6862 31.9831L30.6901 31.9827L30.6916 31.9825L30.6952 31.9823L30.6971 31.982L30.7007 31.9816L30.7024 31.9814L30.7063 31.981L30.7078 31.9808L30.712 31.9803H30.7131L30.718 31.9797H30.7186L30.724 31.9791H30.7246L30.7293 31.9784L30.7308 31.9782L30.7346 31.9778L30.7363 31.9776L30.74 31.9771L30.7419 31.9769L30.7453 31.9765L30.7472 31.9763L30.7506 31.9759L30.7525 31.9757L30.7562 31.9752L30.7579 31.975L30.7619 31.9746L30.7632 31.9744L30.7741 31.9729L30.7792 31.9722H30.7805L30.7847 31.9716L30.7862 31.9714L30.7899 31.971L30.7916 31.9707L30.7952 31.9701L30.7971 31.9699L30.8007 31.9695L30.8022 31.9693L30.8061 31.9686L30.8078 31.9684L30.8118 31.968L30.8129 31.9678C30.8184 31.9669 30.8238 31.9663 30.8291 31.9654L30.8299 31.9652L30.8344 31.9646L30.8357 31.9644L30.8397 31.9637L30.841 31.9635L30.8451 31.9631L30.8466 31.9629L30.8502 31.9622L30.8519 31.962L30.8557 31.9614L30.8572 31.9612L30.8615 31.9605L30.8623 31.9603C30.8677 31.9594 30.8732 31.9586 30.8785 31.9575H30.8792L30.8837 31.9567L30.8888 31.9558L30.8905 31.9556L30.8941 31.955L30.896 31.9548L30.8994 31.9541L30.9011 31.9539L30.9048 31.9533L30.9067 31.9528L30.9103 31.9522L30.9118 31.952L30.9161 31.9513L30.9171 31.9511L30.9278 31.9492L30.9282 31.949L30.9329 31.9482L30.9344 31.9479L30.938 31.9473L30.9397 31.9469L30.9434 31.9462L30.9451 31.946L30.9487 31.9454L30.9504 31.945L30.9542 31.9443L30.9557 31.9441L30.9598 31.9432L30.9608 31.943L30.9655 31.9422L30.9662 31.942L30.9768 31.94L30.977 31.9398L30.982 31.939L30.9832 31.9388L30.9873 31.9379L30.9886 31.9377L30.9926 31.9369L30.9939 31.9366L30.9979 31.9358L30.999 31.9356L31.0031 31.9347L31.0043 31.9345L31.0088 31.9337L31.0095 31.9334L31.0144 31.9324H31.0148L31.0254 31.93H31.0257L31.0308 31.929L31.0314 31.9287L31.0359 31.9279L31.0372 31.9275L31.0412 31.9266L31.0423 31.9264L31.0461 31.9256L31.0478 31.9253L31.0515 31.9245L31.0529 31.9243L31.057 31.9232L31.0581 31.923L31.0625 31.9221L31.0632 31.9219L31.0683 31.9206H31.0685L31.0792 31.9183L31.0798 31.9181L31.0843 31.917L31.0854 31.9168L31.0894 31.916L31.0909 31.9155L31.0945 31.9147L31.096 31.9143L31.0996 31.9134L31.1013 31.913L31.105 31.9121L31.1065 31.9117L31.1103 31.9108L31.1116 31.9106C31.1167 31.9093 31.122 31.9081 31.1271 31.9068L31.1278 31.9066L31.1323 31.9055L31.1335 31.9051L31.1374 31.9042L31.1389 31.9038L31.1425 31.903L31.1442 31.9025L31.1478 31.9015L31.1493 31.9012L31.1529 31.9002L31.1544 31.8998L31.1585 31.8989L31.1593 31.8985L31.1642 31.8972H31.1645L31.1751 31.8944H31.1753L31.1802 31.8931L31.1811 31.8929L31.1851 31.8919L31.1866 31.8914L31.1903 31.8904L31.1917 31.8899L31.1954 31.8891L31.1969 31.8887L31.2007 31.8876L31.2022 31.8872L31.2058 31.8861L31.2071 31.8859L31.2118 31.8846L31.2122 31.8844L31.2227 31.8814H31.2231L31.2278 31.8801L31.2288 31.8797L31.2327 31.8786L31.2342 31.8782L31.2376 31.8772L31.2395 31.8767L31.2429 31.8757L31.2444 31.8752L31.2482 31.8742L31.2495 31.8737L31.2536 31.8725L31.2544 31.8723L31.2587 31.871L31.2595 31.8708C31.2647 31.8693 31.2698 31.8678 31.2749 31.8663L31.2757 31.8661L31.2798 31.8648L31.2813 31.8644L31.2851 31.8633L31.2862 31.8629L31.29 31.8618L31.2913 31.8614L31.2954 31.8601L31.2962 31.8599L31.3005 31.8586L31.3013 31.8582L31.3062 31.8569L31.3064 31.8567C31.3113 31.8552 31.3165 31.8535 31.3216 31.852L31.328 31.8499L31.3316 31.8488L31.3331 31.8482L31.3367 31.8471L31.3382 31.8467L31.3416 31.8454L31.3431 31.845L31.3467 31.8437L31.3482 31.8433L31.3519 31.842L31.3531 31.8418L31.3576 31.8403L31.358 31.8401L31.3632 31.8384H31.3634L31.3681 31.8366L31.3691 31.8364L31.3732 31.8349L31.3747 31.8345L31.3781 31.8334L31.3798 31.8328L31.3849 31.8311L31.3879 31.83L31.3898 31.8294L31.3928 31.8283L31.3947 31.8277L31.3977 31.8266L31.3996 31.826L31.4024 31.8249L31.4047 31.8241L31.4088 31.8228L31.4109 31.8219L31.4143 31.8209L31.416 31.8202L31.4192 31.8189L31.4214 31.8183L31.4239 31.8175L31.4263 31.8166L31.429 31.8155L31.4312 31.8149L31.4339 31.8138L31.4361 31.8132L31.4388 31.8121L31.441 31.8113L31.4437 31.8102L31.4459 31.8096L31.4491 31.8085L31.4506 31.8079L31.4604 31.8042L31.4619 31.8036L31.4651 31.8025L31.4672 31.8017L31.47 31.8006L31.4721 31.8L31.4749 31.7989L31.477 31.7981L31.4796 31.7972L31.4819 31.7961L31.4843 31.7953L31.4868 31.7944L31.4915 31.7927L31.4943 31.7917L31.4964 31.7908L31.4994 31.7895L31.502 31.7887L31.506 31.7872L31.5079 31.7863L31.5107 31.7853L31.5128 31.7844L31.5156 31.7836L31.5177 31.7825L31.5205 31.7816L31.5226 31.7808L31.5252 31.7797L31.5275 31.7789L31.5299 31.7778L31.5322 31.7769L31.5348 31.7759L31.5371 31.775L31.5395 31.774L31.5418 31.7731L31.5442 31.772L31.5482 31.7706L31.5512 31.7693L31.554 31.7682L31.5559 31.7674L31.5589 31.7663L31.5606 31.7654L31.5634 31.7644L31.5653 31.7635L31.5683 31.7625L31.57 31.7616L31.5727 31.7605L31.5747 31.7597L31.5776 31.7586L31.5793 31.7578L31.5821 31.7567L31.584 31.7558L31.587 31.7546L31.5883 31.7541C31.5919 31.7524 31.5953 31.7512 31.599 31.7494L31.6009 31.7488L31.6036 31.7475L31.6054 31.7469L31.6083 31.7456L31.61 31.7448L31.613 31.7435L31.6147 31.7428L31.6177 31.7416L31.6194 31.7409L31.6239 31.739L31.6271 31.7375L31.6284 31.7371L31.6318 31.7356L31.6324 31.7352C31.6382 31.7328 31.6439 31.7303 31.6497 31.7277L31.6535 31.726L31.6544 31.7256L31.658 31.7239L31.6589 31.7236L31.6625 31.7219L31.6636 31.7215L31.667 31.7198L31.668 31.7194L31.6714 31.7177L31.6723 31.7175C31.6808 31.7134 31.6896 31.7096 31.6981 31.7055H31.6983L31.7024 31.7036L31.7066 31.7015L31.7073 31.7013L31.7113 31.6993H31.7115C31.7218 31.6944 31.7318 31.6897 31.742 31.6848L31.7463 31.6827H31.7465L31.7505 31.6808L31.751 31.6806C32.1537 31.4846 32.511 31.2066 32.7997 30.8642C33.0831 30.5259 33.0383 30.0221 32.6999 29.7387C32.3629 29.4567 31.8612 29.5 31.5774 29.8353C31.2926 30.173 30.8805 30.3775 30.4391 30.4001L22.2132 29.3718C22.1801 29.3676 22.1467 29.3656 22.1134 29.3656Z" fill="#005EEE"/>
    <path d="M3.19547 3.24146H31.9538C33.7187 3.24146 35.1493 4.67204 35.1493 6.43692V25.6093C35.1493 27.374 33.7187 28.8045 31.9538 28.8045H3.19547C1.43058 28.8045 0 27.374 0 25.6093V6.43692C0 4.67204 1.43058 3.24146 3.19547 3.24146Z" fill="#B8C2FF"/>
    <path d="M32.7529 4.83911C34.0765 4.83911 35.1495 5.91215 35.1495 7.23571V24.8103C35.1495 26.1339 34.0765 27.2069 32.7529 27.2069C31.4294 27.2069 30.3563 26.1339 30.3563 24.8103V7.23571C30.3563 5.91215 31.4294 4.83911 32.7529 4.83911Z" fill="#7388FF"/>
    <path d="M17.5754 28.8045L4.47588 27.4946C2.84233 27.3313 1.59851 25.9568 1.59851 24.3151V5.1745C1.59851 3.40983 3.02909 1.97925 4.79376 1.97925C4.89994 1.97925 5.00611 1.98458 5.11186 1.99502L17.5754 3.2414V28.8045Z" fill="#DFE5FF"/>
    <path d="M17.5751 28.8045L30.6746 27.4946C32.3079 27.3313 33.552 25.9568 33.552 24.3151V5.1745C33.552 3.40983 32.1214 1.97925 30.3565 1.97925C30.2503 1.97925 30.1444 1.98458 30.0386 1.99502L17.5751 3.2414V28.8045Z" fill="#CCD4FF"/>
    <path d="M30.3579 3.24146C29.4757 3.24146 28.7604 3.95675 28.7601 4.83897C28.7601 4.83919 28.7601 4.83919 28.7601 4.83919V24.0116H22.3694C21.4872 24.0118 20.7721 24.7275 20.7723 25.6099C20.7728 26.4917 21.4876 27.2066 22.3694 27.2068H28.7601C30.525 27.2068 31.9556 25.7762 31.9556 24.0116V4.83919C31.9556 3.95675 31.2403 3.24146 30.3581 3.24146C30.3581 3.24146 30.3581 3.24146 30.3579 3.24146Z" fill="#B8C2FF"/>
    <path d="M17.5746 1.64371L7.60467 0.0327557C6.83885 -0.0629718 6.07154 0.200332 5.52574 0.746128C5.05649 1.21538 4.79297 1.85158 4.79297 2.51485V22.7492C4.79297 24.3774 6.01739 25.7453 7.63559 25.925L17.5746 27.2068V1.64371Z" fill="#EFF2FF"/>
    <path d="M17.5751 1.64372L27.545 0.0193381C28.3108 -0.0763894 29.0782 0.186701 29.6239 0.732711C30.0932 1.20175 30.3567 1.83795 30.3567 2.50143V22.4334C30.3567 24.0617 29.1323 25.4293 27.5141 25.6093L17.5751 27.207V1.64372Z" fill="#DFE5FF"/>
    <path d="M19.1728 1.6438C20.055 1.6438 20.7705 2.35909 20.7705 3.24153V25.6094C20.7705 26.4916 20.0552 27.2069 19.1728 27.2069C18.2904 27.2069 17.5751 26.4916 17.5751 25.6094V3.24153C17.5751 2.35909 18.2904 1.6438 19.1728 1.6438Z" fill="#CCD4FF"/>
    <path d="M18.3739 3.24146C18.8151 3.24146 19.1728 3.59921 19.1728 4.04032V24.8104C19.1728 25.2515 18.8151 25.6093 18.3739 25.6093C17.9328 25.6093 17.5751 25.2515 17.5751 24.8104V4.04032C17.5751 3.59921 17.9328 3.24146 18.3739 3.24146Z" fill="#A4B1FF"/>
    <path d="M22.3679 1.6438C23.2503 1.6438 23.9656 2.35909 23.9656 3.24153V16.0232C23.9656 16.9054 23.2503 17.6207 22.3681 17.6207C21.4857 17.6207 20.7704 16.9054 20.7704 16.0232V3.24153C20.7704 2.35909 21.4857 1.6438 22.3679 1.6438Z" fill="#A4B1FF"/>
    <path d="M15.1796 17.6209C15.1267 17.6209 15.0739 17.6158 15.0221 17.6051L7.03361 16.0074C6.60103 15.9208 6.32045 15.5 6.40723 15.0674C6.49379 14.6348 6.91465 14.3544 7.34723 14.441L15.3357 16.0387C15.7683 16.1253 16.0486 16.5463 15.9621 16.9787C15.8874 17.3518 15.56 17.6205 15.1796 17.6209Z" fill="#002755"/>
    <path d="M15.1796 12.8292C15.1267 12.8294 15.0739 12.8241 15.0221 12.8137L7.03361 11.2159C6.60103 11.1294 6.32045 10.7085 6.40723 10.2759C6.49379 9.84334 6.91465 9.56276 7.34723 9.64954L15.3357 11.2473C15.7683 11.3338 16.0486 11.7547 15.9621 12.1873C15.8874 12.5602 15.56 12.8288 15.1796 12.8292Z" fill="#002755"/>
    <path d="M15.1796 8.03466C15.1267 8.03466 15.0738 8.02954 15.022 8.01888L11.0277 7.22023C10.5951 7.13345 10.3147 6.71259 10.4013 6.28001C10.4825 5.85105 10.8964 5.56919 11.3253 5.65042C11.3307 5.65149 11.336 5.65255 11.3415 5.65362L15.3356 6.45249C15.7682 6.53905 16.0488 6.95991 15.962 7.39249C15.8874 7.7656 15.5599 8.03423 15.1796 8.03466Z" fill="#002755"/>
    <path d="M15.1807 22.4147C15.1278 22.4149 15.0749 22.4098 15.0231 22.3991L7.03467 20.8016C6.60208 20.7144 6.32215 20.2931 6.40935 19.8607C6.49633 19.429 6.91634 19.1491 7.34829 19.235L15.3367 20.8327C15.7691 20.9193 16.0497 21.3401 15.9631 21.7727C15.8885 22.1458 15.561 22.4145 15.1807 22.4147Z" fill="#002755"/>
    <path d="M19.9707 17.6209C19.5296 17.6205 19.1723 17.2623 19.1727 16.8212C19.1732 16.4408 19.4418 16.1133 19.8147 16.0387L27.8031 14.441C28.2357 14.3544 28.6566 14.6348 28.7431 15.0674C28.8297 15.5 28.5493 15.9208 28.1167 16.0074L20.1283 17.6051C20.0765 17.6158 20.0236 17.6209 19.9707 17.6209Z" fill="#002755"/>
    <path d="M19.9707 12.8291C19.5296 12.8287 19.1723 12.4707 19.1727 12.0294C19.1732 11.6491 19.4418 11.3216 19.8147 11.247L27.8031 9.64922C28.2357 9.56266 28.6566 9.84324 28.7433 10.2758C28.8299 10.7082 28.5493 11.1293 28.1167 11.2158L20.1283 12.8136C20.0765 12.824 20.0236 12.8293 19.9707 12.8291Z" fill="#002755"/>
    <path d="M19.9707 8.0347C19.5296 8.03427 19.1723 7.6761 19.1727 7.23498C19.1732 6.85463 19.4418 6.52715 19.8147 6.45253L27.8031 4.8548C28.2357 4.76824 28.6566 5.0486 28.7431 5.48118C28.8297 5.91377 28.5493 6.33463 28.1167 6.4214L20.1283 8.01892C20.0765 8.02958 20.0236 8.0347 19.9707 8.0347Z" fill="#002755"/>
    <path d="M19.9707 22.4147C19.5296 22.4143 19.1723 22.0563 19.1727 21.6152C19.1732 21.2348 19.4418 20.9074 19.8147 20.8327L27.8031 19.235C28.2359 19.1489 28.6564 19.4299 28.7425 19.8625C28.8284 20.2944 28.5485 20.7144 28.1167 20.8014L20.1283 22.3991C20.0765 22.4098 20.0236 22.4149 19.9707 22.4147Z" fill="#002755"/>
    <path d="M20.7705 0.0458984C21.6527 0.0458984 22.368 0.76119 22.368 1.64363V14.4253C22.368 15.3075 21.6527 16.0228 20.7705 16.0228C19.888 16.0228 19.1727 15.3075 19.1727 14.4253V1.64363C19.1727 0.761403 19.888 0.0458984 20.7705 0.0458984Z" fill="#FFD700"/>
    <path d="M9.58694 4.83919C9.58694 5.72163 8.87165 6.43692 7.98921 6.43692C7.10677 6.43692 6.39148 5.72163 6.39148 4.83919C6.39148 3.95675 7.10677 3.24146 7.98921 3.24146C8.87165 3.24146 9.58694 3.95675 9.58694 4.83919Z" fill="#002755"/>
</svg>
