<svg width="20" height="33" viewBox="0 0 20 33" fill="none" xmlns="http://www.w3.org/2000/svg">
    <path d="M19.1418 18.8819H17.4194C18.1263 18.1401 18.5608 17.1365 18.5608 16.0334V13.0839C18.5608 12.7294 18.2734 12.4421 17.919 12.4421H16.1493C13.8709 12.4421 12.0172 14.2957 12.0172 16.5741V18.8819H10.5336V11.4665C10.5336 11.112 10.2462 10.8247 9.89182 10.8247C9.53736 10.8247 9.25003 11.112 9.25003 11.4665V18.8819H7.7664V16.5741C7.7664 14.2957 5.91277 12.4421 3.63434 12.4421H1.86466C1.51027 12.4421 1.22287 12.7294 1.22287 13.0839V16.0334C1.22287 17.1365 1.65737 18.1401 2.36424 18.8819H0.641793C0.287395 18.8819 0 19.1692 0 19.5237V22.4881C0 22.8425 0.287395 23.1299 0.641793 23.1299H1.2085V27.323C1.2085 28.8499 2.39267 30.1054 3.89087 30.2194L2.70721 31.8396C2.5646 32.0347 2.54375 32.2933 2.65317 32.5088C2.7626 32.7242 2.98376 32.86 3.22539 32.86H16.5583C16.7999 32.86 17.021 32.7242 17.1305 32.5088C17.2399 32.2933 17.219 32.0347 17.0764 31.8396L15.8928 30.2194C17.391 30.1054 18.5751 28.8499 18.5751 27.323V23.1299H19.1418C19.4962 23.1299 19.7836 22.8425 19.7836 22.4881V19.5237C19.7836 19.1692 19.4962 18.8819 19.1418 18.8819ZM13.3008 16.5742C13.3008 15.0035 14.5786 13.7257 16.1493 13.7257H17.2772V16.0335C17.2772 17.6042 15.9994 18.882 14.4287 18.882H13.3008V16.5742ZM2.50646 16.0334V13.7257H3.63434C5.205 13.7257 6.48281 15.0035 6.48281 16.5741V18.8819H5.35493C3.78427 18.8819 2.50646 17.6041 2.50646 16.0334ZM1.28359 20.1655H18.5001V21.8463H1.28359V20.1655ZM4.48908 31.5764L5.4743 30.2278H14.3093L15.2946 31.5764H4.48908ZM17.2916 27.3231C17.2916 28.217 16.5643 28.9443 15.6703 28.9443H4.11331C3.21936 28.9443 2.49208 28.217 2.49208 27.3231V23.1299H17.2916V27.3231Z" fill="#101010"/>
    <path d="M9.89375 12.625C13.3983 12.625 16.2393 9.79877 16.2393 6.31248C16.2393 2.82619 13.3983 0 9.89375 0C6.38921 0 3.54822 2.82619 3.54822 6.31248C3.54822 9.79877 6.38921 12.625 9.89375 12.625Z" fill="#FCE476"/>
    <path d="M10.6147 5.77435C10.5606 5.75535 10.5088 5.73699 10.4582 5.71896V4.37639C10.5392 4.42003 10.5987 4.47035 10.6328 4.51874C10.8373 4.80838 11.2375 4.87763 11.5272 4.67329C11.8169 4.469 11.8861 4.06859 11.6818 3.77888C11.4389 3.43437 11.0119 3.14312 10.4581 3.02696C10.4564 2.67391 10.1699 2.38818 9.81642 2.38818C9.46202 2.38818 9.17462 2.67551 9.17462 3.02998V3.07067C9.12739 3.08267 9.0799 3.09544 9.03189 3.10982C8.33895 3.31744 7.81633 3.98618 7.76088 4.73605C7.70601 5.47996 8.1018 6.12515 8.81965 6.46196C8.90161 6.50041 9.02284 6.55124 9.17456 6.61105V8.28806C9.00031 8.21592 8.84821 8.1165 8.74443 7.98834C8.52134 7.71282 8.11721 7.67039 7.84181 7.89348C7.56636 8.11657 7.52387 8.52064 7.74689 8.7961C8.11631 9.25235 8.64835 9.5083 9.17636 9.62915C9.19491 9.96699 9.47396 10.2354 9.81635 10.2354C10.1428 10.2354 10.4117 9.99144 10.4522 9.676C11.3946 9.51574 12.0564 8.89603 12.1633 8.04982C12.2867 7.0741 11.6499 6.13837 10.6147 5.77435ZM9.04107 4.83065C9.04986 4.71122 9.10063 4.59332 9.17462 4.50129V5.17446C9.07566 5.0814 9.03093 4.968 9.04107 4.83065ZM10.8899 7.88899C10.8626 8.10489 10.7095 8.26623 10.4581 8.35551V7.11422C10.7934 7.32607 10.921 7.64331 10.8899 7.88899Z" fill="#101010"/>
</svg>