<svg width="29" height="40" viewBox="0 0 29 40" fill="none" xmlns="http://www.w3.org/2000/svg">
<path d="M7.03707 29.4687C6.26184 29.0404 5.78027 28.2242 5.78027 27.3385V9.62148C7.71027 8.83648 9.19003 7.70578 10.4702 5.7832H18.2297C19.5099 7.70578 20.9896 8.83648 22.9196 9.62148V27.3385C22.9196 28.2242 22.4381 29.0404 21.6627 29.4687L14.3499 33.5085L7.03707 29.4687Z" fill="#FCE476"/>
<path d="M28.0798 5.08897C24.3194 4.30655 23.3781 3.82296 21.9521 0.475077C21.8294 0.187031 21.5466 0 21.2334 0H7.46858C7.15538 0 6.87256 0.187031 6.74983 0.475077C5.32382 3.82296 4.38249 4.30655 0.622108 5.08897C0.259687 5.16437 0 5.48374 0 5.8539V27.3366C0 30.3263 1.6257 33.0816 4.24265 34.5273L13.9733 39.9026C14.0908 39.9675 14.2209 40 14.351 40C14.4811 40 14.6112 39.9675 14.7287 39.9026L24.4593 34.5273C27.0763 33.0817 28.702 30.3263 28.702 27.3366V5.85382C28.7019 5.48366 28.4422 5.16437 28.0798 5.08897ZM27.1394 27.3366C27.1394 29.7576 25.8229 31.9888 23.7038 33.1595L14.351 38.3262L4.99819 33.1595C2.87898 31.9888 1.5625 29.7576 1.5625 27.3366V6.48561C3.3314 6.09491 4.52398 5.70929 5.5014 5.0003C6.60952 4.19648 7.3167 3.04007 7.97991 1.5625H20.7221C21.3853 3.04007 22.0925 4.19648 23.2006 5.00022C24.178 5.70921 25.3706 6.09483 27.1395 6.48553V27.3366H27.1394Z" fill="#101010"/>
<path d="M19.0801 15.8555C18.735 15.5967 18.2453 15.6666 17.9863 16.0117L13.7117 21.7112L11.5259 20.0718C11.1807 19.813 10.691 19.8829 10.4321 20.2281C10.1733 20.5732 10.2432 21.0629 10.5884 21.3218L13.3992 23.4299C13.5353 23.532 13.6999 23.5862 13.868 23.5862C13.9048 23.5862 13.9417 23.5836 13.9785 23.5783C14.1836 23.549 14.3687 23.4394 14.493 23.2737L19.2363 16.9492C19.4953 16.6041 19.4253 16.1144 19.0801 15.8555Z" fill="#101010"/>
</svg>
