<svg width="23" height="31" viewBox="0 0 23 31" fill="none" xmlns="http://www.w3.org/2000/svg">
    <path d="M5.44782 22.812C4.84766 22.4805 4.47485 21.8486 4.47485 21.1629V7.44703C5.96898 6.83932 7.11456 5.96397 8.10561 4.47559H14.1127C15.1038 5.96397 16.2494 6.83932 17.7435 7.44703V21.1629C17.7435 21.8486 17.3707 22.4805 16.7705 22.812L11.1092 25.9395L5.44782 22.812Z" fill="#FCE476"/>
    <path d="M21.7383 3.93969C18.8272 3.33397 18.0984 2.95959 16.9945 0.367787C16.8995 0.144792 16.6806 0 16.4381 0H5.7819C5.53943 0 5.32048 0.144792 5.22547 0.367787C4.1215 2.95959 3.39276 3.33397 0.481613 3.93969C0.20104 3.99806 0 4.24531 0 4.53187V21.163C0 23.4775 1.25856 25.6105 3.2845 26.7297L10.8176 30.8911C10.9085 30.9414 11.0093 30.9665 11.11 30.9665C11.2107 30.9665 11.3115 30.9414 11.4024 30.8911L18.9355 26.7297C20.9614 25.6106 22.22 23.4775 22.22 21.163V4.53181C22.2199 4.24525 22.0189 3.99806 21.7383 3.93969ZM21.0103 21.163C21.0103 23.0372 19.9911 24.7646 18.3506 25.6709L11.11 29.6707L3.86942 25.6709C2.2288 24.7646 1.20963 23.0372 1.20963 21.163V5.02092C2.57905 4.71845 3.50229 4.41992 4.25898 3.87105C5.11684 3.24876 5.66432 2.35351 6.17775 1.20963H16.0423C16.5557 2.35351 17.1032 3.24876 17.961 3.87099C18.7177 4.41986 19.641 4.71839 21.0104 5.02086V21.163H21.0103Z" fill="#101010"/>
    <path d="M14.7716 12.276C14.5044 12.0756 14.1253 12.1298 13.9248 12.397L10.6156 16.8093L8.9234 15.5401C8.6562 15.3397 8.27704 15.3939 8.07666 15.6611C7.87629 15.9283 7.93042 16.3074 8.19763 16.5078L10.3737 18.1399C10.479 18.2188 10.6065 18.2608 10.7366 18.2608C10.7651 18.2608 10.7936 18.2588 10.8221 18.2547C10.9809 18.232 11.1242 18.1472 11.2204 18.0189L14.8925 13.1227C15.093 12.8555 15.0388 12.4764 14.7716 12.276Z" fill="#101010"/>
</svg>