<svg width="24" height="39" viewBox="0 0 24 39" fill="none" xmlns="http://www.w3.org/2000/svg">
<path d="M12.0012 23.9119C16.4054 23.9119 19.9757 20.3416 19.9757 15.9374C19.9757 11.5332 16.4054 7.96289 12.0012 7.96289C7.59699 7.96289 4.02669 11.5332 4.02669 15.9374C4.02669 20.3416 7.59699 23.9119 12.0012 23.9119Z" fill="#FCE476"/>
<path d="M11.3126 20.6319V20.7369C11.3126 21.1477 11.6456 21.4808 12.0565 21.4808C12.4674 21.4808 12.8005 21.1477 12.8005 20.7369V20.6886C14.4444 20.4806 15.162 19.4113 15.2833 18.4566C15.453 17.1206 14.5783 15.8364 13.1564 15.3337C13.0315 15.2895 12.9129 15.2472 12.8005 15.2067V12.8163C13.095 12.906 13.2989 13.056 13.399 13.1987C13.635 13.535 14.099 13.6163 14.4353 13.3803C14.7717 13.1443 14.853 12.6804 14.6169 12.344C14.2662 11.8441 13.6302 11.4269 12.8005 11.2918V11.1346C12.8005 10.7238 12.4674 10.3906 12.0565 10.3906C11.6456 10.3906 11.3126 10.7238 11.3126 11.1346V11.3483C11.1996 11.3734 11.0848 11.4033 10.9683 11.4384C10.0348 11.7196 9.33014 12.6265 9.25478 13.6436C9.18032 14.648 9.71513 15.5207 10.6853 15.9782C10.8229 16.0431 11.0384 16.1327 11.3126 16.2396V19.1022C10.9299 18.9879 10.5783 18.7961 10.35 18.5126C10.0923 18.1927 9.624 18.1422 9.30396 18.4C8.98399 18.6577 8.93355 19.1261 9.19133 19.446C9.73336 20.1189 10.5335 20.4789 11.3126 20.6319ZM13.8072 18.2691C13.7481 18.7351 13.3865 19.0581 12.8005 19.1811V16.7912C13.5775 17.1246 13.8696 17.778 13.8072 18.2691ZM10.7386 13.7536C10.766 13.3837 11.0064 13.0312 11.3126 12.8948V14.6289C10.8028 14.3854 10.7189 14.0189 10.7386 13.7536Z" fill="#101010"/>
<path d="M19.5646 0H4.43535C1.98966 0 0 1.98966 0 4.43535V33.6542C0 36.0999 1.98973 38.0896 4.43535 38.0896H19.5646C22.0103 38.0896 24 36.0999 24 33.6542V4.43535C24 1.98966 22.0103 0 19.5646 0V0ZM4.43535 1.48787H19.5646C21.1899 1.48787 22.5121 2.81007 22.5121 4.43535V30.4967H1.48787V4.43535C1.48787 2.81007 2.81007 1.48787 4.43535 1.48787ZM19.5646 36.6017H4.43535C2.81007 36.6017 1.48787 35.2795 1.48787 33.6542V31.9846H22.5121V33.6542C22.5121 35.2795 21.1899 36.6017 19.5646 36.6017Z" fill="#101010"/>
<path d="M12.7765 33.4023H11.2237C10.8129 33.4023 10.4798 33.7355 10.4798 34.1463C10.4798 34.5571 10.8129 34.8902 11.2237 34.8902H12.7765C13.1874 34.8902 13.5204 34.5571 13.5204 34.1463C13.5204 33.7355 13.1874 33.4023 12.7765 33.4023Z" fill="#101010"/>
</svg>
