<svg width="24" height="29" viewBox="0 0 24 29" fill="none" xmlns="http://www.w3.org/2000/svg">
    <path d="M10.847 12.3428V4.58722C10.0007 4.58722 9.31468 3.90121 9.31468 3.05493H5.55368C5.55368 3.90121 4.86767 4.58722 4.02138 4.58722C3.99214 4.58722 3.96306 4.58638 3.9342 4.58479V12.3428H10.847Z" fill="#FCE476"/>
    <path d="M3.62073 25.345V15.3978H16.5435C16.8559 15.3978 17.1093 15.1445 17.1093 14.8321C17.1093 14.5196 16.8559 14.2664 16.5435 14.2664H3.05499C2.74254 14.2664 2.48926 14.5196 2.48926 14.8321V25.9107C2.48926 26.2232 2.74254 26.4764 3.05499 26.4764H16.5435C16.8559 26.4764 17.1093 26.2232 17.1093 25.9107C17.1093 25.5983 16.8559 25.345 16.5435 25.345H3.62073Z" fill="#101010"/>
    <path d="M23.4342 17.5048H22.8043V12.3427C22.8043 12.0303 22.5509 11.777 22.2385 11.777H21.7326L23.2316 8.61597C23.5939 7.85206 23.2717 6.93676 22.5136 6.56705L14.6801 2.31668C14.6711 2.31182 14.6619 2.30718 14.6527 2.30277C14.4144 2.18973 14.1556 2.14227 13.9014 2.1572V1.54372C13.9013 0.692516 13.2088 0 12.3576 0H2.42236C1.57116 0 0.878643 0.692516 0.878643 1.54372V11.9798C0.355734 12.2642 0 12.8186 0 13.4546V27.2881C0 28.2131 0.75254 28.9656 1.67752 28.9656H22.2386C22.551 28.9656 22.8043 28.7123 22.8043 28.3999V23.2378H23.4343C23.7467 23.2378 24 22.9846 24 22.6721V18.0705C23.9999 17.7581 23.7467 17.5048 23.4342 17.5048ZM14.1568 3.32007L21.9861 7.56812C21.9951 7.57298 22.0043 7.57762 22.0135 7.58203C22.2189 7.67945 22.3068 7.92578 22.2094 8.13119L20.4805 11.7771H13.9014V3.29541C13.9857 3.27668 14.0754 3.28432 14.1568 3.32007ZM2.01011 1.54372C2.01011 1.31641 2.19505 1.13147 2.42236 1.13147H12.3576C12.585 1.13147 12.7699 1.31641 12.7699 1.54372V11.7771H2.01011V1.54372ZM21.6728 27.8342H1.67752C1.37643 27.8342 1.13147 27.5892 1.13147 27.2881V13.4546C1.13147 13.1676 1.35392 12.9317 1.63548 12.9101C1.63588 12.9101 1.63633 12.9101 1.63673 12.9101C1.64086 12.9098 1.64504 12.9095 1.64917 12.9093C1.65121 12.9092 1.6533 12.9091 1.65534 12.9091C1.658 12.9089 1.66066 12.9088 1.66332 12.9088C1.66807 12.9087 1.67282 12.9086 1.67752 12.9086H21.6728V17.5049H16.5435C16.2311 17.5049 15.9778 17.7582 15.9778 18.0706V22.6722C15.9778 22.9847 16.2311 23.238 16.5435 23.238H21.6728V27.8342ZM22.8685 22.1064H17.1092V18.6363H22.8685V22.1064H22.8685Z" fill="#101010"/>
    <path d="M19.0158 20.952H19.9348C20.2472 20.952 20.5005 20.6987 20.5005 20.3863C20.5005 20.0738 20.2472 19.8206 19.9348 19.8206H19.0158C18.7034 19.8206 18.4501 20.0738 18.4501 20.3863C18.4501 20.6987 18.7034 20.952 19.0158 20.952Z" fill="#101010"/>
</svg>