<svg width="32" height="32" viewBox="0 0 32 32" fill="none" xmlns="http://www.w3.org/2000/svg">
    <path d="M15.8322 26.0939C19.3905 26.0939 22.275 23.2093 22.275 19.6511C22.275 16.0928 19.3905 13.2083 15.8322 13.2083C12.274 13.2083 9.3894 16.0928 9.3894 19.6511C9.3894 23.2093 12.274 26.0939 15.8322 26.0939Z" fill="#FCE476"/>
    <path d="M16.8047 19.1454C16.6997 19.1082 16.6001 19.0727 16.5057 19.0387V17.0304C16.753 17.1058 16.9244 17.2317 17.0085 17.3516C17.2067 17.6341 17.5966 17.7025 17.8791 17.5041C18.1617 17.3059 18.23 16.9161 18.0317 16.6335C17.737 16.2136 17.2028 15.8631 16.5057 15.7495V15.6174C16.5057 15.2722 16.2258 14.9924 15.8807 14.9924C15.5355 14.9924 15.2557 15.2722 15.2557 15.6174V15.797C15.1607 15.8181 15.0642 15.8432 14.9663 15.8727C14.1822 16.1089 13.5902 16.8707 13.5268 17.7252C13.4643 18.5691 13.9136 19.3022 14.7287 19.6866C14.8442 19.7411 15.0253 19.8164 15.2557 19.9063V22.3111C14.9342 22.2151 14.6389 22.0541 14.447 21.8159C14.2303 21.5471 13.837 21.5047 13.5682 21.7212C13.2993 21.9377 13.257 22.3312 13.4735 22.6001C13.9289 23.1654 14.6012 23.4678 15.2557 23.5964V23.6846C15.2557 24.0297 15.5356 24.3096 15.8807 24.3096C16.2258 24.3096 16.5057 24.0297 16.5057 23.6846V23.6441C17.8868 23.4692 18.4897 22.5709 18.5915 21.7689C18.734 20.6465 17.9992 19.5677 16.8047 19.1454ZM14.7734 17.8178C14.7965 17.507 14.9983 17.2108 15.2557 17.0962V18.5532C14.8273 18.3487 14.7568 18.0407 14.7734 17.8178ZM17.3514 21.6115C17.3017 22.003 16.9979 22.2743 16.5057 22.3776V20.3698C17.1585 20.6499 17.4038 21.1989 17.3514 21.6115Z" fill="#101010"/>
    <path d="M31.0397 30.75H30.9957V28.8798C30.9957 28.5346 30.7158 28.2548 30.3707 28.2548H30.2059V25.9492C30.2059 25.604 29.9261 25.3242 29.5809 25.3242H28.8072V13.9711H29.5809C29.9261 13.9711 30.2059 13.6912 30.2059 13.3461V11.0404H30.3707C30.7158 11.0404 30.9957 10.7606 30.9957 10.4154V7.92025C30.9957 7.57506 30.7158 7.29525 30.3707 7.29525H29.0586L16.1371 0.0793125C15.9476 -0.0264375 15.717 -0.0264375 15.5276 0.0793125L2.60612 7.29519H1.294C0.948875 7.29519 0.669 7.575 0.669 7.92019V10.4154C0.669 10.7606 0.948875 11.0404 1.294 11.0404H1.45875V13.346C1.45875 13.6912 1.73862 13.971 2.08375 13.971H2.8575V25.3241H2.08375C1.73862 25.3241 1.45875 25.6039 1.45875 25.9491V28.2547H1.294C0.948875 28.2547 0.669 28.5346 0.669 28.8797V30.75H0.625C0.279875 30.75 0 31.0298 0 31.375C0 31.7202 0.279875 32 0.625 32H31.0397C31.3848 32 31.6647 31.7202 31.6647 31.375C31.6647 31.0298 31.3848 30.75 31.0397 30.75ZM28.9559 28.2548H24.4234V26.5742H28.9559V28.2548ZM8.49131 28.2548V25.9492C8.49131 25.604 8.21144 25.3242 7.86631 25.3242H7.0925V13.9711H7.86631C8.21144 13.9711 8.49131 13.6912 8.49131 13.3461V11.0404H23.1733V13.3461C23.1733 13.6912 23.4532 13.9711 23.7983 13.9711H24.5721V25.3242H23.7983C23.4532 25.3242 23.1733 25.604 23.1733 25.9492V28.2548H8.49131ZM27.5572 25.3242H25.8221V13.9711H27.5572V25.3242ZM28.9559 12.7211H24.4234V11.0404H28.9559V12.7211ZM15.8323 1.34088L26.4947 7.29525H5.16987L15.8323 1.34088ZM1.919 8.54519H29.7457V9.79037H1.919V8.54519ZM2.70875 11.0404H7.24131V12.7211H2.70875V11.0404ZM4.10744 13.9711H5.8425V25.3242H4.10744V13.9711ZM2.70875 26.5742H7.24131V28.2548H2.70875V26.5742ZM1.919 30.75V29.5048H29.7457V30.75H1.919Z" fill="#101010"/>
</svg>
