<svg width="38" height="41" viewBox="0 0 38 41" fill="none" xmlns="http://www.w3.org/2000/svg">
<path d="M9.2393 18.3823C14.342 18.3823 18.4786 14.2673 18.4786 9.19117C18.4786 4.11503 14.342 0 9.2393 0C4.13657 0 0 4.11503 0 9.19117C0 14.2673 4.13657 18.3823 9.2393 18.3823Z" fill="#FCE476"/>
<path d="M12.3961 11.704C12.5666 10.3555 11.6809 9.06031 10.2424 8.55453C10.1269 8.51391 10.0168 8.47484 9.91205 8.43734V6.14109C10.1724 6.22844 10.3535 6.36398 10.4447 6.49344C10.6935 6.84609 11.1809 6.93023 11.5335 6.68148C11.886 6.43273 11.9703 5.94531 11.7215 5.59273C11.3699 5.09445 10.737 4.67727 9.91198 4.53555V4.41406C9.91198 3.98258 9.56221 3.63281 9.13073 3.63281C8.69932 3.63281 8.34948 3.98258 8.34948 4.41406V4.59336C8.24518 4.61711 8.13948 4.64492 8.03229 4.67703C7.08299 4.96156 6.36682 5.87953 6.29073 6.90945C6.21557 7.92672 6.75901 8.81 7.7444 9.27227C7.8783 9.33508 8.08588 9.42117 8.3494 9.52375V12.2906C7.99127 12.1776 7.66534 11.9948 7.45088 11.73C7.17932 11.3947 6.68737 11.3429 6.35213 11.6145C6.01682 11.8859 5.9651 12.3779 6.23659 12.7133C6.77784 13.3817 7.57252 13.7431 8.3494 13.9003V13.9709C8.3494 14.4024 8.69924 14.7522 9.13065 14.7522C9.56213 14.7522 9.9119 14.4024 9.9119 13.9709V13.9593C11.5564 13.7394 12.2747 12.6645 12.3961 11.704ZM10.8459 11.508C10.791 11.9423 10.4564 12.2473 9.91205 12.3727V10.1042C10.6323 10.4337 10.9043 11.0459 10.8459 11.508ZM7.84909 7.02469C7.87369 6.69141 8.07994 6.37305 8.34955 6.22859V7.82891C7.99174 7.64258 7.82346 7.37227 7.84909 7.02469Z" fill="#101010"/>
<path d="M7.21133 26.0957H1.14648C0.715078 26.0957 0.365234 26.4455 0.365234 26.877V39.2204C0.365234 39.6519 0.715078 40.0016 1.14648 40.0016H7.21133C7.64273 40.0016 7.99258 39.6519 7.99258 39.2204V26.877C7.99258 26.4455 7.64273 26.0957 7.21133 26.0957ZM6.43008 38.4391H1.92773V27.6582H6.43008V38.4391Z" fill="#101010"/>
<path d="M16.9145 20.6152H10.8496C10.4181 20.6152 10.0684 20.965 10.0684 21.3965V39.2205C10.0684 39.652 10.4181 40.0018 10.8496 40.0018H16.9145C17.3459 40.0018 17.6958 39.652 17.6958 39.2205V21.3965C17.6958 20.965 17.3459 20.6152 16.9145 20.6152ZM16.1333 38.4393H11.6309V22.1777H16.1333V38.4393Z" fill="#101010"/>
<path d="M26.6177 15.1348H20.5527C20.1213 15.1348 19.7715 15.4845 19.7715 15.916V39.2208C19.7715 39.6523 20.1213 40.002 20.5527 40.002H26.6177C27.0491 40.002 27.3989 39.6523 27.3989 39.2208V15.916C27.3989 15.4845 27.0491 15.1348 26.6177 15.1348ZM25.8364 38.4395H21.334V16.6973H25.8364V38.4395Z" fill="#101010"/>
<path d="M36.3207 9.6543H30.2559C29.8245 9.6543 29.4746 10.0041 29.4746 10.4355V39.221C29.4746 39.6525 29.8245 40.0023 30.2559 40.0023H36.3207C36.7521 40.0023 37.102 39.6525 37.102 39.221V10.4355C37.102 10.0041 36.7522 9.6543 36.3207 9.6543ZM35.5395 38.4398H31.0371V11.2168H35.5395V38.4398Z" fill="#101010"/>
</svg>
