<svg width="48" height="40" viewBox="0 0 48 40" fill="none" xmlns="http://www.w3.org/2000/svg">
<path d="M42.1741 12.5557V8.48406C39.8132 8.48406 39.4496 7.34531 39.4496 4.98438H22.7461C22.7461 7.34531 22.3824 8.48406 20.0215 8.48406V12.5557C22.3824 12.5557 22.7461 13.6944 22.7461 16.0554H39.4496C39.4496 13.6944 39.8132 12.5557 42.1741 12.5557Z" fill="#FCE476"/>
<path d="M46.6986 0H15.4967C14.9829 0 14.5664 0.416483 14.5664 0.930272V20.1155C14.5664 20.6293 14.9829 21.0458 15.4967 21.0458H46.6986C47.2123 21.0458 47.6289 20.6293 47.6289 20.1155V0.930272C47.6289 0.416483 47.2123 0 46.6986 0ZM45.7684 19.1853H16.4269V1.86054H45.7684V19.1853Z" fill="#101010"/>
<path d="M46.1516 24.9461C44.6654 23.9016 42.6593 24.0828 41.3814 25.3772C41.3404 25.4187 41.3034 25.4639 41.2709 25.5124L39.2301 28.553C38.6587 27.2044 37.3312 26.257 35.7889 26.257L21.1063 26.2471H21.1056C20.8829 26.2471 20.6677 26.327 20.499 26.4722L16.8207 29.6367H14.1364V28.8191C14.1364 28.3053 13.7198 27.8888 13.2061 27.8888H9.11015V27.7615C9.11015 27.2477 8.69357 26.8313 8.17988 26.8313H0.930272C0.416483 26.8313 0 27.2477 0 27.7615V38.6716C0 39.1854 0.416483 39.6018 0.930272 39.6018H8.17988C8.69357 39.6018 9.11015 39.1854 9.11015 38.6716V38.5443H13.206C13.7197 38.5443 14.1363 38.1278 14.1363 37.614V36.755H17.2208L20.0074 39.7089C20.1833 39.8953 20.4281 40.0008 20.684 40.0008C20.6884 40.0008 20.6928 40.0007 20.6971 40.0007L39.9086 39.7312C40.2083 39.727 40.4876 39.5787 40.6589 39.3327L46.763 30.5673C46.7668 30.5618 46.7706 30.5562 46.7742 30.5508C47.3653 29.6618 47.6678 28.6423 47.6261 27.6801C47.5772 26.5508 47.0535 25.5799 46.1516 24.9461ZM7.24961 37.7413H1.86054V28.6918H7.24961V37.7413ZM12.2758 36.6837H9.11015V29.7491H12.2758V36.6837ZM45.2302 29.5127L39.405 37.8777L21.0801 38.1347L18.299 35.1865C18.1232 35.0002 17.8784 34.8946 17.6223 34.8946H14.1364V31.4972H17.1658C17.3885 31.4972 17.6037 31.4174 17.7725 31.2722L21.4505 28.108L35.7883 28.1175C36.8253 28.1175 37.6689 28.9767 37.6689 30.0329C37.6689 31.0889 36.8254 31.948 35.7883 31.948C35.7871 31.948 35.7859 31.948 35.7847 31.948H27.7583C27.5029 31.948 27.2589 32.053 27.0832 32.2383L25.1261 34.3025C24.7726 34.6754 24.7883 35.2642 25.1611 35.6177C25.3411 35.7882 25.5712 35.8728 25.801 35.8728C26.0474 35.8728 26.2934 35.7755 26.4763 35.5826L28.1582 33.8085L37.4467 33.8089H37.447C37.7569 33.8089 38.0466 33.6545 38.2194 33.3971L42.7621 26.6292C43.4006 26.0341 44.3635 25.9632 45.0817 26.4681C46.0512 27.1496 45.8905 28.5136 45.2302 29.5127Z" fill="#101010"/>
</svg>
