<svg width="381" height="306" viewBox="0 0 381 306" fill="none" xmlns="http://www.w3.org/2000/svg">
<path d="M66.0448 289.509C67.7288 288.718 67.8418 287.547 67.6801 286.174C67.5892 285.392 67.5489 284.58 67.6589 283.795C67.7591 282.992 67.0893 283.199 66.7133 283.055C65.7914 282.707 65.0341 283.347 64.205 283.668C63.9657 283.761 63.6502 283.605 63.3763 283.56C63.4458 283.407 63.4691 283.213 63.575 283.084C64.2346 282.275 64.9501 281.523 65.5733 280.69C66.6344 279.288 66.0096 277.776 66.2713 276.316C66.382 275.688 65.5161 275.399 64.8564 275.193C64.3301 275.023 64.0246 274.455 64.3593 274.059C65.1105 273.174 65.1041 272.343 65.1742 271.332C65.292 269.663 66.0785 268.058 67.4455 266.795C70.0129 264.41 71.8774 261.394 75.0918 259.583C75.6666 259.251 76.0095 258.557 76.5132 258.063C77.7689 256.842 78.8853 255.34 80.3657 254.508C82.032 253.568 82.7208 251.794 84.3542 251.032C86.072 250.22 86.4862 248.244 88.2138 247.45C88.5376 247.308 88.3729 246.32 88.0743 246.154C87.6663 245.916 87.4172 245.992 87.2693 246.438C86.9831 247.348 85.9857 246.909 85.6795 247.198C85.0575 247.761 84.766 248.583 83.8942 249.064C81.6407 250.275 79.4725 251.594 77.2483 252.856C76.9609 253.022 76.5883 253.079 76.2592 253.133C76.1115 253.151 75.8813 253.104 75.8226 253.002C75.6663 252.731 75.415 252.335 75.5352 252.153C76.2278 251.166 76.8228 250.011 77.7784 249.324C78.9031 248.539 79.2606 247.362 80.179 246.494C80.7575 245.934 80.2191 245.275 79.7784 244.785C79.4301 244.377 78.9064 244.251 78.4064 244.517C76.9572 245.286 75.5177 246.072 74.1635 246.966C72.6839 247.956 71.8903 249.587 70.1946 250.476C69.5834 250.784 69.4002 251.95 69.0092 252.717C68.9469 252.843 68.7155 253.067 68.7057 253.05C68.4337 252.891 68.111 252.762 67.9476 252.518C67.5132 251.844 67.0736 251.082 68.1698 250.404C69.5604 249.534 70.0099 247.853 71.6459 247.134C73.1199 246.486 73.6175 244.732 75.2072 243.972C76.3041 243.452 76.3555 242.565 75.4693 242.084C74.7359 241.673 74.1645 241.19 73.5709 240.631C72.5393 239.625 71.2026 239.652 69.8094 240.479C69.8361 240.486 69.8458 240.503 69.8725 240.51C69.8556 240.52 69.8218 240.539 69.8049 240.549C69.9514 240.803 70.1415 241.054 70.2107 241.33C70.2798 241.606 70.1871 241.953 70.1788 242.251C69.9068 242.092 69.5868 242.006 69.3726 241.791C69.1682 241.593 69.0555 241.32 68.9259 241.056C68.8921 241.076 68.8583 241.096 68.8414 241.105C68.8218 241.071 68.829 241.045 68.8094 241.011C68.039 241.433 67.2614 241.882 67.1593 242.798C67.0752 243.433 67.1485 244.068 67.108 244.7C67.0461 245.413 66.3102 245.973 65.6798 245.818C65.0495 245.663 64.4164 245.465 63.8244 245.22C62.4873 244.661 61.6816 244.788 60.2372 246.073C59.4078 246.822 59.9631 247.472 60.2908 248.117C59.2198 248.488 58.3013 248.341 57.5762 247.632C56.9728 247.055 56.8214 246.285 56.9866 245.4C57.1304 244.595 57.0901 243.784 57.2072 242.972C57.2519 242.698 57.5982 242.205 57.7121 242.207C59.4326 242.454 59.7567 240.868 60.2953 240.083C61.1633 238.815 61.6189 237.379 63.0159 236.324C63.6432 235.849 62.8941 235.177 62.7193 234.601C63.679 233.257 63.9738 231.62 65.1735 230.341C65.5518 229.942 65.8992 229.178 65.4604 228.574C64.7053 228.671 63.9502 228.769 63.1783 228.876C63.2297 229.004 63.2812 229.133 63.2162 229.215C62.0304 230.87 60.298 232.163 59.3406 233.979C59.1509 234.315 58.4352 234.051 58.2898 233.526C57.7941 231.691 57.4442 229.953 58.7833 227.939C61.3172 224.13 64.7948 221.175 68.2067 218.145C69.5184 216.981 71.1303 216.299 72.3338 214.792C73.3494 213.506 75.3295 212.837 76.8723 211.878C77.1668 211.686 77.5556 211.461 77.6536 211.201C78.2301 209.741 79.9991 209.486 80.8003 208.415C81.5774 207.379 82.3279 206.337 83.5225 205.986C84.959 205.585 85.1906 203.917 86.756 203.623C87.3608 203.499 87.9494 202.527 88.4087 201.879C88.9019 201.21 88.3617 200.665 88.1265 200.102C87.8202 199.376 88.1301 198.859 88.8303 198.432C91.0083 197.129 93.2227 195.851 95.3909 194.531C96.1587 194.065 97.1035 193.633 97.5264 192.96C98.2619 191.813 99.3952 191.317 100.458 190.659C103.42 188.88 106.312 186.94 109.397 185.452C112.702 183.837 114.857 180.856 118.128 179.261C118.29 179.19 118.291 178.761 118.362 178.494C118.195 178.478 117.972 178.403 117.836 178.482C117.03 178.88 116.232 179.295 115.455 179.744C109.167 183.374 102.832 186.964 96.5829 190.662C94.3933 192.062 91.9418 192.89 90.4416 195.133C90.1122 195.616 88.7553 195.452 88.0186 195.855C87.1129 196.355 86.7937 197.442 85.7528 198.02C82.0963 200.041 78.5082 202.18 74.9102 204.303C73.9974 204.83 73.4444 204.653 72.6044 204.213C71.8639 203.828 70.6356 204.199 69.6404 204.232C69.3021 205.871 67.3136 204.808 66.7837 205.881C65.9205 207.666 64.1069 208.194 62.6539 209.191C61.3264 210.092 59.7378 210.581 58.9317 212.152C58.6895 212.63 57.7857 213.017 57.1302 213.169C56.1117 213.396 54.9555 213.658 54.0246 213.451C52.2597 213.049 51.0598 213.313 50.1629 215.116C49.9518 215.532 48.8977 215.892 48.2753 215.868C47.3549 215.835 46.613 216.151 45.8425 216.573C45.5138 216.199 45.0213 216.009 44.6182 216.287C42.1003 217.899 39.124 218.873 37.2838 221.424C36.8245 222.073 35.9799 221.703 35.3567 221.522C35.0366 221.436 34.9112 221.531 34.8631 221.604C34.8871 221.567 34.9014 221.514 34.9273 221.363C35.1398 220.248 35.5 219.115 36.0326 218.086C36.3612 217.445 37.2681 217.688 37.9236 217.535C39.4766 217.18 40.8432 216.346 42.0099 215.244C42.1665 215.086 42.0752 214.732 42.0665 214.444C42.5132 214.164 42.9598 213.883 43.3896 213.613C44.5604 212.869 44.6558 212.566 44.2324 211.637C43.7796 210.658 43.4204 210.504 42.2916 210.93C41.958 211.055 41.659 211.318 41.3157 211.426C40.8078 211.561 40.3044 211.626 40.1342 210.98C39.9888 210.455 40.1563 210.042 40.6608 209.706C41.6938 208.997 43.0619 208.478 43.7064 207.564C44.6973 206.157 46.0203 205.326 47.4482 204.637C49.1224 203.828 49.6388 201.951 51.4393 201.204C52.9062 200.583 54.5564 199.811 55.5462 198.675C56.7237 197.319 58.07 196.293 59.4377 195.188C59.5801 195.083 59.4692 194.696 59.4437 194.417C56.4926 196.099 53.5246 197.79 50.5736 199.471C49.6439 200.008 48.8964 200.665 48.1496 201.479C46.5983 203.165 44.5022 204.375 42.2971 205.084C41.5161 205.332 40.6216 205.149 39.8155 205.705C37.31 207.377 34.2804 208.336 32.4624 210.965C32.1089 211.485 31.287 211.779 30.642 212.106C30.3618 212.246 29.9812 212.172 29.6495 212.183C29.7814 211.904 29.8501 211.593 30.045 211.346C31.7755 209.151 33.9876 207.4 36.1633 205.625C37.1306 204.841 38.3511 204.339 39.401 203.62C39.804 203.342 40.1068 202.852 40.3614 202.434C40.5199 202.162 40.5834 201.764 40.5142 201.488C40.4992 201.384 39.9346 201.304 39.6882 201.424C38.8617 201.788 38.0842 202.237 37.2675 202.619C37.1225 202.68 36.9091 202.622 36.766 202.57C36.7295 202.546 36.7599 202.325 36.8152 202.225C37.3459 201.31 38.4729 200.998 39.0152 199.985C39.9967 198.133 41.5852 196.629 43.625 195.79C46.7136 194.503 48.5601 191.767 51.2568 190.075C51.3751 190.007 51.3958 189.769 51.4822 189.606C51.3488 189.571 51.203 189.474 51.0652 189.509C50.729 189.59 50.3465 189.63 50.0858 189.803C46.832 191.975 42.8152 193.099 40.4097 196.428C38.8546 197.326 37.2994 198.223 35.7709 199.128C35.3355 198.726 34.8261 198.546 34.1428 198.963C33.6116 199.292 33.044 199.597 32.4933 199.893C32.3024 199.484 32.3997 199.067 32.793 198.772C33.7415 198.112 34.7557 197.526 35.7504 196.907C35.774 196.284 35.9678 195.292 35.7277 195.228C34.6413 194.908 34.264 194.02 33.5949 193.369C33.4003 193.188 32.4131 193.352 32.2279 193.616C31.6074 194.494 31.0109 195.334 29.955 195.809C27.2657 197.045 25.6818 199.494 23.3674 201.146C23.0151 201.394 23.0527 202.162 22.2642 201.851C21.905 201.697 22 200.807 22.4496 200.142C23.2358 198.966 24.1365 197.95 25.511 197.246C26.7841 196.602 27.9666 195.761 29.1029 194.879C29.4455 194.614 29.6648 193.901 29.5877 193.494C29.5355 193.208 28.907 192.939 28.4757 192.895C27.6665 192.821 26.81 192.977 25.9937 192.929C25.8265 192.913 25.5691 192.272 25.692 192.133C26.3444 191.351 27.276 190.7 27.7853 189.865C29.1067 187.703 30.9834 186.191 33.2493 185.04C33.8943 184.713 34.478 184.241 35.123 183.914C37.0073 182.961 38.3246 181.456 38.7929 179.652C39.3299 177.537 41.0063 176.185 42.2819 174.569C43.0955 173.558 44.6282 173.011 44.1866 171.349C44.0731 170.918 45.7355 171.65 45.6216 170.633C45.2065 166.947 47.9723 164.516 50.3042 161.996C51.1088 161.126 52.0592 160.351 52.878 159.427C53.7788 158.411 55.3043 157.891 56.5454 157.152C57.4654 156.598 57.7413 155.085 59.2538 155.363C59.5817 154.564 59.9193 153.783 60.2472 152.984C61.3017 153.21 61.7761 152.666 62.1957 151.792C62.4834 151.197 63.0719 150.226 63.457 150.229C64.951 150.201 65.2687 148.799 66.2784 148.284C69.0879 146.865 70.8026 144.409 72.7945 142.198C73.1221 141.829 73.0529 141.553 72.7355 141.51C72.5585 141.477 72.3621 141.41 72.2268 141.488C70.3336 142.581 68.2164 143.443 66.6493 144.866C65.2316 146.159 63.7145 147.396 62.3795 148.753C60.5505 150.621 58.2354 152.115 57.1237 154.562C56.9633 154.948 56.2721 155.234 55.7864 155.447C55.5302 155.55 55.1809 155.413 54.8901 155.378C55.4305 153.464 55.6899 151.532 57.4813 149.911C58.9327 148.6 60.5059 147.421 61.8702 146.114C63.3092 144.742 64.7757 143.534 66.483 142.548C67.2606 142.1 68.1858 141.633 68.6185 140.977C69.354 139.831 70.4509 139.31 71.5132 138.652C73.7633 137.24 76.3083 136.222 77.9002 133.904C78.2536 133.384 79.0924 133.08 79.7303 132.779C79.9429 132.679 80.2682 132.852 80.559 132.888C80.4895 133.041 80.4448 133.314 80.3337 133.356C78.8641 133.934 78.4352 135.377 77.4616 136.345C77.3219 136.494 77.3768 136.823 77.3561 137.06C77.6754 136.989 78.0338 136.985 78.3407 136.853C78.8433 136.63 79.4598 136.41 79.734 136.026C81.1959 133.874 83.5008 132.791 85.645 131.508C86.548 130.964 86.9984 130.456 86.5483 129.52C86.3769 129.145 86.6831 128.856 87.0636 128.929C87.9581 129.112 88.7241 128.76 89.4528 128.227C89.2352 127.811 88.887 127.403 88.9407 126.988C88.9872 126.6 89.4766 126.16 89.8602 125.848C90.2677 125.5 90.797 125.285 91.2437 125.004C94.9937 122.794 98.6949 120.499 102.533 118.441C103.651 117.841 104.079 116.24 105.33 116.375C106.914 116.543 106.919 114.6 108.261 114.66C109.586 114.73 110.567 113.735 111.651 113.154C113.736 112.041 115.771 110.843 117.829 109.723C118.447 109.388 119.155 108.935 119.76 108.969C120.69 109.018 120.843 108.502 121.284 107.977C121.635 107.571 122.614 108.133 122.917 107.214C123.227 106.268 124.549 107.152 124.919 106.036C125.284 104.99 126.564 104.747 127.455 104.143C128.203 103.643 128.997 103.185 129.775 102.736C131.811 101.538 133.856 100.357 135.865 99.1519C136.633 98.6861 137.73 98.3231 138.086 97.6893C139.125 95.7808 141.084 95.1914 142.747 94.2083C144.597 93.1178 146.551 92.1698 148.467 91.1542C149.758 91.6723 150.175 89.3108 151.549 90.0515C152.677 89.4679 153.891 88.993 154.887 88.2597C156.026 87.4216 157.275 87.8285 158.413 87.2618C160.145 86.3971 161.655 85.1869 163.798 85.0328C165.591 84.8996 167.131 82.8825 169.225 83.2301C171.055 82.1058 172.922 81.0056 174.733 79.8475C174.868 79.7694 174.791 79.3627 174.772 79.0575C175.067 78.8649 175.369 78.6456 175.663 78.453C175.444 77.7222 175.886 77.0832 176.581 76.9981C177.467 76.8927 177.987 76.8179 178.654 75.9818C179.191 75.3109 179.395 74.0648 180.676 73.9797C181.94 73.9043 182.038 72.6295 182.831 72.0133C184.602 70.63 185.822 68.527 188.552 68.6879C189.131 68.7147 189.818 68.0698 190.453 67.7257C191.893 66.9397 193.312 66.1199 194.745 65.3606C195.211 65.114 195.688 65.1993 196.027 65.5905C196.476 65.3536 196.952 65.124 197.372 64.8364C198.876 63.8103 200.575 63.5515 202.257 63.031C203.553 62.6212 204.588 62.6558 205.782 62.7333C207.1 62.8297 208.104 62.2272 208.764 60.9889C209.407 59.7604 210.468 59.8022 210.955 60.9195C211.139 61.3549 211.451 61.7388 211.702 62.1352C212.019 62.6063 212.528 62.6285 213.031 62.406C213.847 62.0247 214.605 61.542 215.393 61.1099C217.127 60.1314 218.768 58.9134 220.6 58.2615C222.382 57.6389 224.345 57.5655 226.207 57.3933C227.102 57.3048 227.897 57.0036 228.734 56.8137C230.923 56.2718 233.142 55.7807 235.335 55.5974C236.649 55.4928 237.634 54.8564 238.75 54.3698C239.069 54.7271 239.503 54.815 240.009 54.6361C240.514 54.4571 240.968 54.15 241.463 53.9542C241.608 53.8931 241.797 53.9868 241.965 54.0031C241.893 54.2699 241.895 54.5848 241.721 54.7527C241.483 55.0032 241.106 55.1307 240.831 55.3572C240.573 55.5738 240.38 55.8653 240.142 56.1158C240.358 56.2167 240.589 56.4217 240.797 56.3918C242.513 56.1232 244.238 55.8715 245.766 54.809C245.874 54.7238 246.107 54.8149 246.274 54.8312C246.193 55.0811 246.231 55.4201 246.058 55.588C244.773 56.7585 242 56.7576 242.536 59.4036C242.573 59.5851 242.149 59.943 241.881 60.1428C241.437 60.4668 240.963 60.74 240.487 60.9697C237.948 62.2326 235.804 64.3733 232.814 64.7003C232.58 64.7231 232.339 65.5163 232.147 65.9653C231.939 66.4241 232.095 66.6948 232.496 66.5308C233.973 65.9264 235.423 64.886 236.883 64.7202C238.647 64.5362 239.811 63.3904 241.303 62.8901C241.808 62.7112 242.24 62.7555 242.518 63.159C238.612 65.256 235.11 68.0902 230.625 69.1453C227.986 69.7665 226.266 72.1357 224.289 73.8639C223.582 74.4748 224.472 74.5706 224.838 74.6975C225.321 74.87 225.897 74.8531 226.312 75.0647C227.099 75.4903 226.364 75.7792 226.004 76.0544C225.753 76.2444 225.483 76.4006 225.222 76.5736C225.468 76.7253 225.764 77.0051 225.909 76.944C227.069 76.4547 228.339 76.0377 229.289 75.2634C230.297 74.4332 231.732 75.1615 232.491 73.9785C232.907 73.3324 233.281 73.4326 233.554 73.9064C233.681 74.1263 233.693 74.6157 233.52 74.7836C233.043 75.2846 232.427 75.6626 231.904 76.1226C231.778 76.2176 231.721 76.4311 231.722 76.5885C231.708 76.6419 231.977 76.7571 232.071 76.7252C232.891 76.3876 233.69 76.0161 234.519 75.6953C234.836 75.5802 235.468 75.4638 235.48 75.5243C235.633 76.0227 235.213 76.3103 234.773 76.5641C232.89 77.6741 231.023 78.7743 229.159 79.9181C229.041 79.9864 229.003 80.2337 228.934 80.3866C229.191 80.4413 229.519 80.658 229.688 80.5604C231.564 79.4771 233.735 79.6452 235.641 78.3413C238.632 76.2989 241.91 74.6769 245.101 72.9027C245.523 72.6587 246.454 72.4369 246.533 72.5722C247.334 73.9597 248.733 72.9486 249.821 72.9975C251.119 73.0601 252.107 72.0385 253.228 71.4816C254.035 71.0834 254.81 70.5908 255.604 70.1321C256.23 69.771 256.862 69.3833 257.527 69.0898C257.756 68.9799 258.079 69.1094 258.387 69.1348C258.311 69.4719 258.242 69.7823 258.166 70.1194C257.953 71.0772 257.093 71.4611 256.315 71.91C248.759 76.2725 241.215 80.6955 233.62 84.9904C230.737 86.6326 228.746 89.0004 226.747 91.3949C226.641 91.5238 226.635 91.7079 226.592 91.868C226.759 91.8843 226.929 91.9442 227.103 91.9338C227.261 91.9331 227.442 91.8961 227.604 91.8251C228.09 91.6124 228.573 91.3561 229.052 91.17C229.197 91.1088 229.386 91.2026 229.57 91.2091C229.534 91.3425 229.538 91.5436 229.446 91.619C228.734 92.1428 228.042 92.7004 227.264 93.1494C226.088 93.8058 227.005 94.6525 226.672 95.3638C226.61 95.49 226.094 95.4945 225.792 95.5563C225.463 95.6109 224.92 95.6083 224.834 95.771C223.85 97.5799 222.011 98.4159 220.36 99.4596C220.207 99.5474 220.231 99.9398 220.184 100.17C220.351 100.186 220.574 100.261 220.692 100.192C221.82 99.6087 222.963 98.5429 224.062 98.4949C225.98 98.3805 227.523 97.5796 229.003 96.59C231.163 95.1397 233.605 94.7228 235.967 94.013C236.792 93.7626 237.689 93.5603 238.512 93.4237C241.403 92.9274 243.97 91.9867 245.77 89.4815C246.061 89.0879 246.558 88.7782 247.005 88.4977C248.557 87.5563 250.068 86.5035 251.711 85.7579C253.439 84.9635 254.247 83.2788 255.765 82.3569C257.934 81.0374 260.168 79.7927 262.394 78.5748C262.766 78.36 263.285 78.3991 263.718 78.3295C263.489 78.597 263.316 78.9223 263.039 79.1052C261.175 80.249 259.281 81.3421 257.444 82.493C257.208 82.6297 257.144 83.0273 256.986 83.2993C257.163 83.3325 257.342 83.4093 257.497 83.365C259.008 82.8986 260.6 83.0399 262.026 82.036C263.175 81.2149 264.583 80.9209 265.966 80.5058C267.804 79.9411 269.822 79.6107 271.452 78.6472C274.424 76.8859 277.98 76.6825 280.784 74.59C282.629 74.585 284.192 73.6604 285.766 72.7964C286.486 72.4034 287.131 72.505 287.8 72.5701C288.442 72.6281 289.081 72.6425 289.72 72.6568C290.461 73.6278 291.647 72.5594 292.576 72.8803C293.256 73.1198 293.578 73.2494 293.541 74.0829C293.499 75.2582 294.127 75.527 295.099 75.1015C295.925 74.7372 296.712 74.3051 297.524 73.9942C297.696 73.9402 297.956 74.1959 298.202 74.3476C296.502 75.3066 294.876 76.6288 293.091 77.0503C291.107 77.5186 289.069 78.0865 287.026 78.2959C285.339 78.4578 283.446 78.6932 282.019 79.5396C279.781 80.8546 277.316 81.0365 275.038 82.1263C272.709 83.2454 270.127 84.082 267.532 84.4292C266.083 85.6271 263.846 85.2267 262.644 87.0487C262.307 87.5588 261.444 87.8991 260.784 88.1222C259.858 88.4312 258.766 88.2951 258.238 89.4118C256.689 89.1103 256.043 90.1378 255.392 91.2355C255.265 91.4444 254.767 91.5966 254.445 91.6246C252.13 91.6751 250.559 93.3265 248.723 94.3636C248.25 94.6369 248.37 94.8835 248.894 95.0098C249.337 95.1146 249.886 95.362 249.29 95.9313C248.603 96.5761 247.244 96.7973 247.591 98.063C246.862 98.5965 246.097 98.9485 245.185 98.7753C244.805 98.7017 244.549 98.962 244.68 99.383C244.766 99.6492 245.024 100.019 245.271 100.057C245.756 100.115 246.307 99.8198 246.791 99.8785C249.665 100.25 249.668 100.293 250.436 99.8274C252.471 98.6296 254.514 97.4051 256.54 96.1903C257.341 95.7049 257.331 95.1017 256.929 94.5219C256.409 93.739 256.377 93.0583 257.408 92.463C258.98 91.5553 260.542 90.6308 262.141 89.7303C262.259 89.662 262.623 89.7453 262.626 89.7889C262.649 90.0238 262.662 90.3993 262.527 90.4774C261.146 91.3649 259.726 92.1847 258.346 93.0722C258.186 93.1867 258.157 93.5647 258.146 93.8192C258.141 93.8895 258.418 93.978 258.578 94.0209C259.225 94.1661 259.861 94.4082 260.607 94.0224C260.793 93.9151 261.118 94.0882 261.392 94.1331C261.323 94.286 261.266 94.4995 261.14 94.5945C260.392 95.0942 259.649 95.6811 258.83 96.0187C257.406 96.6374 257.298 98.3241 255.815 98.9552C254.493 99.5154 253.22 100.318 252.084 101.199C251.273 101.825 250.736 102.767 250.076 103.577C249.994 103.669 249.949 103.943 249.986 103.967C250.129 104.02 250.352 104.094 250.487 104.016C252.57 103.017 254.914 103.017 256.937 101.601C259 100.139 261.329 99.0201 263.536 97.7683C264.331 97.3096 265.157 96.5165 265.918 96.5061C268.436 96.4959 270.213 94.771 272.308 93.8322C272.972 93.5388 273.71 92.8647 274.231 92.9473C276.298 93.2879 277.754 91.3195 279.812 91.3718C281.459 91.4136 282.831 89.6515 284.756 89.5105C286.724 89.3668 288.29 87.7857 290.095 86.9692C290.564 86.7662 291.125 86.6452 291.614 86.6335C292.786 86.6336 293.584 85.7897 294.575 85.398C295.583 84.9966 296.622 85.5472 297.642 84.7775C299.433 83.428 301.526 83.1894 303.618 83.0647C305.351 82.9438 307.234 83.1203 308.768 82.4599C310.593 81.6773 312.607 81.5747 314.237 80.6111C315.867 79.6475 317.615 79.6307 319.215 78.8877C320.534 78.2839 321.875 77.6001 322.984 76.7113C324.403 75.5766 326.144 76.1728 327.503 75.2079C329.349 73.9163 331.555 73.951 333.528 73.1508C333.706 73.0701 334.083 73.3715 334.288 73.5693C334.667 73.9142 334.435 74.5669 333.853 74.7679C333.236 74.9885 332.282 74.9754 332.035 75.3664C331.513 76.1414 330.982 76.0418 330.302 76.0736C329.796 76.0951 329.266 76.3104 329.092 76.9071C328.88 77.5936 328.467 78.2834 327.641 78.2189C326.297 78.1153 325.224 78.7568 324.172 79.4322C323.911 79.6052 323.504 80.1108 323.56 80.1687C323.902 80.6035 324.382 80.3035 324.836 80.1539C324.991 80.1097 325.311 80.1956 325.314 80.2392C325.286 80.5034 325.283 80.8886 325.107 81.0129C324.369 81.5295 323.555 81.9544 322.806 82.4541C322.688 82.5224 322.578 82.879 322.615 82.9031C322.807 83.0404 323.239 83.2422 323.28 83.1959C324.448 81.9798 326.055 82.8116 327.321 82.0361C329.209 80.8558 331.087 79.6586 332.999 81.4873C333.213 81.7021 333.982 81.3937 334.505 81.3625C336.572 81.2742 338.64 81.1859 340.693 81.151C341.638 81.1471 341.113 81.8785 340.974 82.1844C340.704 82.7693 340.219 83.297 339.832 83.8365C339.582 84.184 339.723 84.3505 340.211 84.4528C341.078 84.6285 341.871 84.7125 342.747 84.1615C344.297 83.1764 344.3 83.22 345.686 84.0212C346.094 84.2594 346.642 84.3492 347.122 84.4781C347.442 84.564 347.796 84.6304 348.109 84.7431C348.225 84.7886 348.376 84.9721 348.369 84.9988C348.131 85.2493 347.876 85.6671 347.641 85.6898C346.571 85.7886 345.951 86.2369 345.164 87.0978C343.292 89.126 346.252 88.3193 346.312 89.3221C346.357 90.0633 346.641 90.554 345.686 91.3986C345.553 91.5202 345.365 91.584 345.232 91.7057C344.993 91.9562 344.782 92.2139 344.553 92.4813C344.81 92.536 345.101 92.7286 345.297 92.6382C346.123 92.2738 346.863 91.9147 347.831 91.8744C349.272 91.8323 350.533 91.127 351.393 89.8855C351.675 89.4749 351.996 88.8606 352.413 89.3871C353.21 90.416 354.717 90.0198 355.555 90.7311C356.015 91.0976 356.396 91.7574 356.423 92.3509C356.437 93.1552 355.667 93.3061 354.895 93.4134C354.218 93.4889 353.475 93.6469 352.874 93.9716C351.772 94.5623 351.345 93.8615 350.689 93.428C350.507 93.3076 350.103 93.428 349.781 93.4559C348.772 92.5272 347.946 93.4779 347.13 94.0166C346.71 94.3042 346.83 94.5508 347.215 94.7116C347.638 94.8964 348.082 95.1587 348.314 95.5212C348.621 95.9754 348.236 96.401 347.894 96.8239C347.699 97.0719 346.789 97.6425 347.889 97.7519C348.531 97.8099 349.244 97.601 349.925 97.5692C350.605 97.5374 351.531 98.2435 351.351 98.5956C351.14 99.0107 350.779 99.3998 350.395 99.7115C349.033 100.904 348.987 101.021 349.622 102.12C349.857 102.527 350.084 102.959 350.42 103.307C350.624 103.505 351.163 103.735 351.279 103.623C353.126 102.06 354.446 103.644 355.987 103.815C356.375 103.862 356.614 103.769 356.692 103.318C356.882 102.125 358.23 103.445 358.61 102.346C359.061 100.98 359.991 102.045 360.686 101.959C361.189 101.894 361.661 101.892 362.167 101.871C362.691 102.426 363.377 102.053 364.05 102.048C364.452 102.041 364.873 102.497 365.139 102.84C365.234 102.966 364.98 103.541 364.76 103.668C363.35 104.505 361.913 105.763 360.463 105.946C358.353 106.194 356.767 107.313 355.008 108.17C354.022 108.649 353.142 109.27 352.008 109.18C351.938 109.176 351.716 109.417 351.738 109.494C351.8 109.797 351.841 110.179 352.059 110.324C352.477 110.579 352.987 110.759 353.488 110.807C354.595 110.89 354.663 111.437 354.564 112.397C354.497 113.023 355.153 113.456 356.045 113.167C356.371 113.068 356.732 113.108 357.074 113.114C356.898 113.396 356.772 113.762 356.511 113.935C355.63 114.557 354.692 114.963 355.263 116.302C355.508 116.883 354.782 117.889 354.578 118.706C354.352 119.604 353.731 119.466 353.032 119.621C351.341 120.011 349.658 120.531 348.037 121.197C347.396 121.454 345.488 122.014 347.488 122.98C347.551 123.011 347.411 123.588 347.235 123.712C346.649 124.141 345.977 124.461 345.381 124.873C345.12 125.046 344.728 125.498 344.779 125.627C345.039 126.154 345.54 125.774 345.99 125.694C346.682 125.566 346.852 126.054 346.367 126.424C345.723 126.909 345.176 127.563 345.314 128.115C345.793 129.959 344.257 131.162 343.46 132.593C343.224 133.044 342.89 133.44 342.628 133.885C342.239 134.538 342.557 134.738 343.845 134.784C344.96 134.84 344.064 135.357 343.915 135.646C343.701 136.017 342.855 136.348 343.794 136.686C344.304 136.865 344.598 137.102 344.407 137.708C343.994 138.984 343.071 139.766 341.711 139.987C341.026 140.089 340.332 139.903 340.522 141.012C340.636 141.6 340.373 142.316 340.122 142.934C339.201 145.203 339.174 145.196 341.102 145.843C341.415 145.955 341.759 146.005 342.082 146.134C342.701 146.386 342.735 147.382 342.129 147.777C341.219 148.347 340.329 149.267 339.254 149.121C337.78 148.911 337.775 150.854 336.82 150.684C334.743 150.326 333.278 152.278 331.229 152.242C330.161 152.227 328.982 153.269 327.822 153.758C326.696 154.228 325.415 153.884 324.286 154.739C323.273 155.482 321.93 155.851 321.009 156.676C319.922 157.642 318.314 157.082 317.443 158.307C317.21 158.644 317.011 158.691 316.62 158.443C316.229 158.195 315.738 157.734 315.385 157.826C314.558 158.032 313.82 158.707 312.86 158.606C311.717 158.499 310.878 159.39 309.875 159.721C309.06 159.988 308.167 159.963 307.325 160.223C306.629 160.422 306.152 160.923 305.762 161.576C305.018 162.863 303.676 163.818 302.315 163.725C300.813 163.622 299.718 165.043 298.224 164.642C297.434 164.445 296.95 165.13 296.665 165.768C296.474 166.217 296.199 166.443 295.953 166.134C294.396 164.258 292.539 165.218 290.846 166.308C289.676 167.051 288.405 166.725 287.294 167.298C285.997 167.98 284.756 168.719 283.478 169.434C282.894 169.749 282.103 168.964 281.659 169.875C281.045 171.154 280.009 171.662 278.643 171.639C277.873 171.632 277.22 171.829 276.933 172.581C276.577 173.486 275.736 173.904 274.946 174.292C274.335 174.6 273.576 174.925 272.961 174.874C271.941 174.786 272.149 176.358 270.976 176.043C270.042 175.792 270.23 177.015 269.628 177.34C269.476 177.427 269.279 177.632 269.172 177.603C267.48 177.249 266.151 178.851 264.677 178.913C262.713 178.986 261.311 180.111 259.702 180.837C259.557 180.898 259.346 180.885 259.179 180.868C257.398 180.633 256.191 181.939 254.793 182.679C253.976 184.504 252.06 185.362 250.708 186.729C246.322 191.157 243.674 193.949 239.726 195.777C238.748 196.229 237.862 196.921 236.896 197.433C236.075 197.885 235.616 198.691 234.965 199.202C232.61 201.058 230.811 203.563 227.924 204.847C226.595 205.434 225.385 206.267 224.137 207.033C222.771 207.867 221.423 208.578 220.418 210.038C219.694 211.087 218.038 211.615 216.835 212.422C216.416 212.709 216.03 213.135 215.775 213.553C214.99 214.886 213.342 215.116 212.381 216.144C211.304 217.285 210.485 218.638 209.464 219.836C209.146 220.223 208.554 220.407 208.09 220.697C207.474 221.075 206.662 221.386 206.309 221.906C205.458 223.164 204.848 224.373 203.207 222.975C202.692 222.551 201.763 223.245 201.327 223.7C200.488 224.59 199.868 225.624 198.626 226.206C196.73 227.098 195.629 228.704 194.86 230.456C194.328 231.643 193.948 232.742 192.285 232.439C190.914 234.358 188.71 235.225 186.769 236.391C185.646 237.062 184.647 237.751 184.185 238.943C182.638 239.385 182.352 241.468 181.137 241.628C179.993 241.792 179.424 242.797 178.67 242.781C177.217 242.763 177.384 244.223 176.367 244.608C175.204 245.053 174.182 245.937 173.051 246.477C171.981 247.004 171.508 247.864 170.887 248.741C170.139 249.827 168.214 249.224 167.784 250.081C167.213 251.201 165.686 250.233 165.469 251.576C165.432 251.823 164.335 251.915 163.901 252.256C163.368 252.699 162.923 253.294 162.625 253.872C162.103 254.918 161.636 255.165 160.881 254.247C160.74 254.081 160.168 254.027 159.948 254.154C158.383 255.035 156.403 255.547 155.47 257.056C154.81 258.136 152.964 257.555 152.979 259.103C151.89 259.754 150.811 260.423 149.712 261.057C148.454 261.806 147.203 262.528 145.935 263.26C140.113 266.644 134.274 270.038 128.442 273.405C127.512 273.942 126.542 274.524 125.516 274.778C124.164 275.13 122.728 275.102 121.364 275.393C119.791 275.715 119.682 277.673 118.19 278.173C117.847 278.281 117.575 278.551 117.254 278.737C113.778 280.72 110.286 282.714 106.802 284.681C106.514 284.847 106.129 284.843 105.793 284.925C105.888 284.464 105.876 283.975 106.06 283.552C106.603 282.268 108.646 282.059 108.757 280.416C108.776 280.292 109.373 280.038 109.687 280.037C112.777 279.922 114.86 277.637 117.341 276.272C118.027 275.899 118.405 274.914 118.922 274.209C119.196 273.825 119.023 273.564 118.508 273.726C117.188 274.172 115.434 273.515 114.557 274.924C113.518 276.561 111.899 277.271 110.383 278.236C109.019 279.114 107.337 279.792 106.367 280.961C105.267 282.296 103.902 283.016 102.575 283.918C101.826 284.417 101.022 284.859 100.293 285.393C99.8662 285.707 100.119 285.832 100.362 286.097C101.092 286.894 100.899 287.457 99.9448 287.444C98.8333 287.431 97.8994 287.61 96.9145 288.246C95.5336 289.133 94.0746 289.885 92.6449 290.688C92.1716 290.962 91.6983 291.235 91.2054 291.474C91.0604 291.535 90.8639 291.468 90.6968 291.452C90.7779 291.202 90.8323 290.945 90.9766 290.727C91.0558 290.591 91.3075 290.558 91.4232 290.446C91.8041 290.091 92.1485 289.712 92.5197 289.339C91.9302 289.138 91.3641 288.743 90.7611 288.753C89.7393 288.779 88.6428 288.87 87.6758 289.226C86.3318 289.708 85.8932 287.66 84.4162 288.694C84.03 288.962 83.7644 288.619 84.0386 288.235C84.1347 288.089 84.2309 287.943 84.3733 287.839C85.3574 287.045 84.8528 286.366 84.4354 285.682C83.9985 284.964 83.3163 285.11 82.657 285.491C81.5414 286.135 80.4907 286.696 79.1364 286.576C78.618 286.537 77.8412 287.143 77.3713 287.617C76.7518 288.223 76.0701 288.955 75.8267 289.705C75.34 291.204 73.8771 290.154 73.2272 290.98C72.7074 291.641 72.478 292.766 71.4313 292.671C70.6391 292.587 69.8738 292.081 69.3095 291.573C68.5044 290.842 67.6204 290.833 66.5194 290.995C65.7519 291.032 65.4336 289.817 66.0448 289.509ZM35.8304 196.928C36.7094 196.421 37.6054 195.904 38.4844 195.396C37.6054 195.904 36.7094 196.421 35.8304 196.928ZM42.7384 191.248C42.88 190.986 42.9825 190.656 43.1996 190.485C42.9825 190.656 42.9067 190.993 42.7384 191.248ZM54.2861 194.034C55.9784 192.944 58.114 192.388 59.0511 190.38C59.2254 190.37 59.4069 190.333 59.5571 190.359C59.3971 190.316 59.2254 190.37 59.0511 190.38C58.1042 192.371 55.9784 192.944 54.2861 194.034ZM74.9119 139.893C74.6095 139.955 74.3071 140.016 73.9878 140.088C74.2902 140.026 74.6095 139.955 74.9119 139.893ZM283.234 95.3071C283.132 95.3656 283.119 95.5765 283.083 95.7099C283.183 95.7652 283.273 95.8036 283.362 95.842C283.273 95.8036 283.173 95.7483 283.083 95.7099C283.119 95.5765 283.142 95.3826 283.234 95.3071ZM281.559 96.3872C281.648 96.4255 281.791 96.4783 281.804 96.5388C281.791 96.4783 281.648 96.4255 281.559 96.3872C281.457 96.4457 281.319 96.4802 281.288 96.5433C281.319 96.4802 281.474 96.436 281.559 96.3872ZM290.975 95.1692C290.823 95.257 290.654 95.3546 290.502 95.4424C290.478 95.4789 290.41 95.5179 290.386 95.5544C290.427 95.5082 290.478 95.4789 290.502 95.4424C290.664 95.3715 290.823 95.257 290.975 95.1692ZM228.579 111.002C228.579 111.002 228.569 110.986 228.579 111.002C228.25 111.057 227.904 111.121 227.585 111.193C227.904 111.121 228.25 111.057 228.579 111.002ZM119.702 177.653C119.681 177.733 119.659 177.813 119.638 177.893C119.737 177.948 119.827 177.987 119.944 178.032C119.844 177.977 119.754 177.938 119.638 177.893C119.659 177.813 119.681 177.733 119.702 177.653ZM178.065 219.442C178.027 219.532 178.006 219.612 177.958 219.685C178.098 219.694 178.258 219.737 178.392 219.773C178.241 219.747 178.098 219.694 177.958 219.685C178.006 219.612 178.027 219.532 178.065 219.442ZM90.7034 252.465C90.7826 252.329 90.845 252.202 90.9242 252.066C90.8352 252.185 90.7826 252.329 90.7034 252.465Z" fill="#FFF59B"/>
</svg>
