<svg width="51" height="40" viewBox="0 0 51 40" fill="none" xmlns="http://www.w3.org/2000/svg">
<path d="M11.8072 16.4238H17.5872V26.4331H11.8072V16.4238Z" fill="#FCE476"/>
<path d="M22.5298 11.4609H28.3099V26.4348H22.5298V11.4609Z" fill="#FCE476"/>
<path d="M33.2549 6.49414H39.035V26.4326H33.2549V6.49414Z" fill="#FCE476"/>
<path d="M49.8445 31.0416H47.283V3.03634C47.283 1.36208 45.9209 0 44.2466 0H6.59079C4.91653 0 3.55445 1.36208 3.55445 3.03634V31.0416H0.992918C0.444529 31.0416 0 31.4861 0 32.0345V36.8455C0 38.5849 1.41511 40 3.1545 40H47.6829C49.4223 40 50.8374 38.5849 50.8374 36.8455V32.0345C50.8374 31.4861 50.3928 31.0416 49.8445 31.0416ZM5.54028 3.03634C5.54028 2.45707 6.01152 1.98584 6.59079 1.98584H44.2466C44.8259 1.98584 45.2971 2.45707 45.2971 3.03634V31.0416H33.7261C32.0075 31.0416 30.5559 32.2068 30.12 33.7887H20.7175C20.2814 32.2068 18.8299 31.0416 17.1113 31.0416H5.54028V3.03634ZM48.8516 36.8454C48.8516 37.4898 48.3273 38.0141 47.6829 38.0141H3.1545C2.5101 38.0141 1.98584 37.4898 1.98584 36.8454V33.0273H17.1113C18.0786 33.0273 18.8654 33.8142 18.8654 34.7815C18.8654 35.3299 19.31 35.7744 19.8584 35.7744H30.979C31.5273 35.7744 31.972 35.3299 31.972 34.7815C31.972 33.8142 32.7589 33.0273 33.7261 33.0273H48.8516V36.8454Z" fill="#101010"/>
</svg>
