<svg width="41" height="40" viewBox="0 0 41 40" fill="none" xmlns="http://www.w3.org/2000/svg">
<path d="M13.0162 20.2964V13.3281C9.16462 13.3281 6.04224 16.448 6.04224 20.2964C6.04224 24.1449 9.16462 27.2648 13.0162 27.2648C16.8678 27.2648 19.9902 24.1449 19.9902 20.2964H13.0162Z" fill="#FCE476"/>
<path d="M15.4204 10.9238V17.8921H22.3944C22.3944 14.0437 19.272 10.9238 15.4204 10.9238Z" fill="#FCE476"/>
<path d="M40.1167 0H0.799137C0.357854 0 0 0.357774 0 0.799137V5.04024C0 5.4816 0.357854 5.83937 0.799137 5.83937H1.78919V30.3443C1.78919 31.8891 3.04559 33.1457 4.58984 33.1457H19.6588V34.2524C18.4284 34.6007 17.5245 35.7325 17.5245 37.071C17.5245 38.6861 18.8405 40 20.4579 40C22.0754 40 23.3913 38.6861 23.3913 37.071C23.3913 35.7325 22.4874 34.6007 21.257 34.2524V33.1457H36.3258C37.8701 33.1457 39.1266 31.889 39.1266 30.3443V5.83937H40.1167C40.558 5.83937 40.9158 5.4816 40.9158 5.04024V0.799137C40.9158 0.357774 40.558 0 40.1167 0ZM21.793 37.071C21.793 37.8048 21.1941 38.4017 20.4579 38.4017C19.7217 38.4017 19.1228 37.8048 19.1228 37.071C19.1228 36.3372 19.7217 35.7403 20.4579 35.7403C21.1941 35.7403 21.793 36.3372 21.793 37.071ZM37.5284 30.3443C37.5284 31.0077 36.9889 31.5474 36.3258 31.5474H4.58984C3.92688 31.5474 3.38746 31.0077 3.38746 30.3443V5.83937H37.5284V30.3443H37.5284ZM39.3175 4.2411H1.59827V1.59827H39.3175V4.2411Z" fill="#101010"/>
<path d="M25.9915 14.2037H34.1529C34.5942 14.2037 34.9521 13.846 34.9521 13.4046C34.9521 12.9632 34.5942 12.6055 34.1529 12.6055H25.9915C25.5502 12.6055 25.1924 12.9632 25.1924 13.4046C25.1924 13.846 25.5502 14.2037 25.9915 14.2037Z" fill="#101010"/>
<path d="M25.9915 17.5397H34.1529C34.5942 17.5397 34.9521 17.1819 34.9521 16.7405C34.9521 16.2992 34.5942 15.9414 34.1529 15.9414H25.9915C25.5502 15.9414 25.1924 16.2992 25.1924 16.7405C25.1924 17.1819 25.5502 17.5397 25.9915 17.5397Z" fill="#101010"/>
<path d="M23.5833 24.2565H34.1523C34.5936 24.2565 34.9514 23.8987 34.9514 23.4573C34.9514 23.016 34.5936 22.6582 34.1523 22.6582H23.5833C23.142 22.6582 22.7842 23.016 22.7842 23.4573C22.7842 23.8987 23.142 24.2565 23.5833 24.2565Z" fill="#101010"/>
</svg>
