<svg width="47" height="40" viewBox="0 0 47 40" fill="none" xmlns="http://www.w3.org/2000/svg">
<path d="M44.7769 16.0025C43.8344 14.7452 42.5512 13.7584 41.1085 13.1695C41.1558 12.7353 41.1797 12.2971 41.1797 11.8597C41.1797 5.32025 35.8947 0 29.3985 0C27.3431 0 25.3193 0.54111 23.546 1.56473C22.0032 2.45535 20.6729 3.69428 19.6692 5.17016C19.6629 5.16944 19.6566 5.16862 19.6503 5.16798C19.1292 5.08376 18.5958 5.04106 18.0645 5.04106C14.2864 5.04106 10.8847 7.15199 9.18497 10.5505C8.72481 11.4316 8.40856 12.3631 8.24085 13.3293C3.69637 13.3333 0 17.0556 0 21.6304C0 25.2455 2.29236 28.4178 5.70619 29.5296C6.44672 29.7963 7.22395 29.9316 8.01644 29.9316H20.0318V28.1146H8.01635C7.43045 28.1146 6.85664 28.0142 6.31089 27.816C6.3009 27.8124 6.29081 27.8089 6.28073 27.8057C3.61079 26.9418 1.81703 24.4602 1.81703 21.6304C1.81703 18.1043 4.62306 15.2266 8.10193 15.1479C8.12819 16.5637 8.46107 17.926 9.09267 19.1997C9.2512 19.5196 9.57291 19.7049 9.90733 19.7049C10.0429 19.7049 10.1805 19.6745 10.3102 19.6102C10.7597 19.3873 10.9435 18.8422 10.7206 18.3927C10.1876 17.3174 9.91733 16.1645 9.91733 14.9658C9.91733 10.5249 13.7199 6.91206 18.3941 6.91206C23.0681 6.91206 26.8708 10.5249 26.8708 14.9658C26.8708 15.4676 27.2776 15.8744 27.7793 15.8744C28.281 15.8744 28.6878 15.4676 28.6878 14.9658C28.6878 10.6004 25.7172 6.8878 21.6126 5.58908C23.4938 3.20678 26.3232 1.81712 29.3987 1.81712C34.893 1.81712 39.3629 6.32225 39.3629 11.8598C39.3629 12.4505 39.3116 13.0428 39.2105 13.6199C39.1312 14.0724 39.4023 14.513 39.842 14.6461C42.7017 15.5121 44.6989 18.2218 44.6989 21.2355C44.6989 25.0286 41.638 28.1147 37.8756 28.1147H30.8876V29.9317H37.8756C42.6399 29.9317 46.5159 26.0306 46.5159 21.2355C46.5158 19.3296 45.9146 17.52 44.7769 16.0025Z" fill="#101010"/>
<path d="M24.4392 40.0005C30.4347 40.0005 35.295 35.1402 35.295 29.1448C35.295 23.1493 30.4347 18.2891 24.4392 18.2891C18.4438 18.2891 13.5835 23.1493 13.5835 29.1448C13.5835 35.1402 18.4438 40.0005 24.4392 40.0005Z" fill="#FCE476"/>
<path d="M25.8528 28.4097C25.7003 28.3558 25.5555 28.304 25.4182 28.2546V25.3353C25.7778 25.4449 26.0269 25.6281 26.1492 25.8023C26.4375 26.213 27.0041 26.3123 27.4148 26.0241C27.8255 25.7358 27.9248 25.1692 27.6365 24.7585C27.2081 24.1481 26.4315 23.6386 25.4182 23.4734V23.2816C25.4182 22.7798 25.0114 22.373 24.5097 22.373C24.008 22.373 23.6012 22.7798 23.6012 23.2816V23.5426C23.4632 23.5733 23.3229 23.6098 23.1806 23.6527C22.0407 23.9961 21.1802 25.1035 21.0881 26.3456C20.9972 27.5722 21.6503 28.638 22.8351 29.1967C23.0031 29.2759 23.2664 29.3854 23.6012 29.516V33.0116C23.1338 32.8721 22.7046 32.6381 22.4257 32.2918C22.1109 31.901 21.539 31.8396 21.1482 32.1542C20.7574 32.4689 20.6958 33.0409 21.0106 33.4316C21.6726 34.2535 22.6498 34.693 23.6012 34.8799V35.0081C23.6012 35.5099 24.008 35.9166 24.5097 35.9166C25.0114 35.9166 25.4182 35.5099 25.4182 35.0081V34.9492C27.4258 34.695 28.3022 33.3892 28.4502 32.2233C28.6575 30.5917 27.5894 29.0234 25.8528 28.4097ZM22.9002 26.4799C22.9337 26.0281 23.2271 25.5975 23.6012 25.4311V27.5489C22.9787 27.2516 22.8762 26.8039 22.9002 26.4799ZM26.6477 31.9945C26.5755 32.5636 26.1338 32.958 25.4182 33.1081V30.1895C26.3672 30.5967 26.7239 31.3947 26.6477 31.9945Z" fill="#101010"/>
</svg>
