<svg width="40" height="40" viewBox="0 0 40 40" fill="none" xmlns="http://www.w3.org/2000/svg">
<path d="M20.0001 29.3342C25.1557 29.3342 29.3352 25.1548 29.3352 19.9991C29.3352 14.8435 25.1557 10.6641 20.0001 10.6641C14.8445 10.6641 10.665 14.8435 10.665 19.9991C10.665 25.1548 14.8445 29.3342 20.0001 29.3342Z" fill="#FCE476"/>
<path d="M21.2148 19.3669C21.0836 19.3205 20.9591 19.276 20.8411 19.2335V16.7232C21.1503 16.8174 21.3645 16.9748 21.4696 17.1247C21.7175 17.4779 22.2047 17.5633 22.5579 17.3154C22.9111 17.0676 22.9965 16.5803 22.7486 16.2271C22.3802 15.7022 21.7124 15.264 20.8411 15.122V14.957C20.8411 14.5256 20.4912 14.1758 20.0598 14.1758C19.6284 14.1758 19.2786 14.5256 19.2786 14.957V15.1815C19.1599 15.2079 19.0394 15.2393 18.917 15.2762C17.9367 15.5714 17.1967 16.5237 17.1176 17.5919C17.0394 18.6466 17.601 19.5631 18.6198 20.0437C18.7644 20.1118 18.9907 20.2059 19.2786 20.3182V23.3244C18.8766 23.2043 18.5075 23.0029 18.2677 22.7052C17.9969 22.3692 17.5051 22.3162 17.1691 22.5868C16.8331 22.8575 16.7801 23.3493 17.0508 23.6854C17.6201 24.3921 18.4604 24.7701 19.2786 24.9307V25.041C19.2786 25.4724 19.6284 25.8223 20.0598 25.8223C20.4912 25.8223 20.8411 25.4724 20.8411 25.041V24.9904C22.5674 24.7718 23.321 23.6489 23.4483 22.6464C23.6265 21.2434 22.708 19.8948 21.2148 19.3669ZM18.6758 17.7075C18.7046 17.3189 18.9569 16.9487 19.2786 16.8056V18.6268C18.7432 18.3711 18.6551 17.9861 18.6758 17.7075ZM21.8983 22.4495C21.8361 22.9389 21.4564 23.2781 20.8411 23.4072V20.8975C21.6571 21.2476 21.9638 21.9337 21.8983 22.4495Z" fill="#101010"/>
<path d="M34.1422 5.85781C30.3646 2.08039 25.3422 0 20 0C14.6578 0 9.63539 2.08039 5.85781 5.85781C2.08039 9.63539 0 14.6578 0 20C0 25.3422 2.08039 30.3646 5.85781 34.1422C9.63539 37.9196 14.6578 40 20 40C25.3422 40 30.3646 37.9196 34.1422 34.1422C37.9196 30.3646 40 25.3422 40 20C40 14.6578 37.9196 9.63539 34.1422 5.85781ZM38.4175 19.1362H35.2634C34.8285 11.3654 28.5629 5.12578 20.7812 4.73219V1.57883C30.3002 1.97758 37.9769 9.62797 38.4175 19.1362ZM20 33.7251C12.432 33.7251 6.27492 27.568 6.27492 20C6.27492 12.432 12.432 6.27492 20 6.27492C27.568 6.27492 33.7251 12.432 33.7251 20C33.7251 27.568 27.568 33.7251 20 33.7251ZM19.2188 1.57883V4.73219C14.304 4.98078 9.99391 7.56133 7.3757 11.3868L4.42031 10.1494C7.56172 5.19844 12.9966 1.83945 19.2188 1.57883ZM1.5625 20C1.5625 16.942 2.31078 14.0555 3.63391 11.5141L6.55141 12.7355C5.37883 14.8976 4.71242 17.3724 4.71242 20C4.71242 28.4295 11.5704 35.2876 20 35.2876C23.8918 35.2876 27.4487 33.8257 30.1502 31.4223L32.3798 33.6519C29.1051 36.6241 24.7603 38.4375 20 38.4375C9.83352 38.4375 1.5625 30.1665 1.5625 20ZM33.4917 32.554L31.2637 30.3259C33.6141 27.7641 35.1045 24.4009 35.2718 20.6988H38.4245C38.2533 25.269 36.4107 29.419 33.4917 32.554Z" fill="#101010"/>
</svg>
