<svg width="35" height="32" viewBox="0 0 35 32" fill="none" xmlns="http://www.w3.org/2000/svg">
<path d="M4.26306 12.4385H18.7699V27.6524H4.26306V12.4385Z" fill="#FCE476"/>
<path d="M32.2981 7.29855H28.4964V5.02127C28.4964 3.94128 27.6088 3.0627 26.5179 3.0627H20.754V0.676093C20.754 0.302687 20.4513 0 20.0779 0H14.538C14.1646 0 13.8619 0.302687 13.8619 0.676093V3.0627H8.15543C7.06449 3.0627 6.17692 3.94128 6.17692 5.02127V7.29855H2.31778C1.03976 7.29855 0 8.33832 0 9.6164V29.6822C0 30.9602 1.03976 32 2.31785 32H32.2982C33.5762 32 34.616 30.9602 34.616 29.6822V9.6164C34.6159 8.33832 33.5762 7.29855 32.2981 7.29855ZM19.4018 1.35219V4.71081H15.2357L15.2142 1.35219H19.4018ZM7.5291 5.02127C7.5291 4.68694 7.81009 4.41488 8.15543 4.41488H13.8619V5.3869C13.8619 5.49021 13.8851 5.58811 13.9266 5.67573C14.0228 5.93177 14.2699 6.11397 14.5596 6.11397H20.1137C20.4871 6.11397 20.7898 5.81129 20.7898 5.43788V4.41495H26.5178C26.8632 4.41495 27.1442 4.68694 27.1442 5.02134V7.29862H7.5291V5.02127ZM33.2638 29.6822C33.2638 30.2146 32.8306 30.6478 32.2981 30.6478H2.31785C1.78543 30.6478 1.35219 30.2146 1.35219 29.6822V9.6164C1.35219 9.08398 1.78536 8.65081 2.31785 8.65081H6.73077C6.77046 8.65804 6.81129 8.6619 6.85308 8.6619H27.8204C27.8622 8.6619 27.903 8.65811 27.9427 8.65081H32.2982C32.8307 8.65081 33.2638 9.08398 33.2638 9.6164V29.6822H33.2638Z" fill="#101010"/>
<path d="M14.0559 19.6848C14.4011 19.1856 14.6036 18.5801 14.6036 17.928C14.6036 16.2231 13.2193 14.8359 11.5178 14.8359C9.81634 14.8359 8.43204 16.2231 8.43204 17.928C8.43204 18.5801 8.63447 19.1856 8.97961 19.6848C8.1562 19.8014 7.52087 20.5108 7.52087 21.3658V24.5801C7.52087 24.9535 7.82356 25.2562 8.19697 25.2562H14.8385C15.2119 25.2562 15.5146 24.9535 15.5146 24.5801V21.3658C15.5146 20.5108 14.8793 19.8014 14.0559 19.6848ZM11.5177 16.1882C12.4737 16.1882 13.2513 16.9687 13.2513 17.9281C13.2513 18.8875 12.4736 19.668 11.5177 19.668C10.5619 19.668 9.78416 18.8875 9.78416 17.9281C9.78423 16.9687 10.5619 16.1882 11.5177 16.1882ZM14.1624 23.904H8.87306V21.3658C8.87306 21.1753 9.02809 21.0202 9.21868 21.0202H13.8168C14.0074 21.0202 14.1624 21.1753 14.1624 21.3658V23.904Z" fill="#101010"/>
<path d="M22.3923 17.6686H27.0572C27.4306 17.6686 27.7333 17.3659 27.7333 16.9925C27.7333 16.6191 27.4306 16.3164 27.0572 16.3164H22.3923C22.0189 16.3164 21.7162 16.6191 21.7162 16.9925C21.7162 17.3659 22.0189 17.6686 22.3923 17.6686Z" fill="#101010"/>
<path d="M29.6365 19.3701H22.3923C22.0189 19.3701 21.7162 19.6728 21.7162 20.0462C21.7162 20.4196 22.0189 20.7223 22.3923 20.7223H29.6365C30.0099 20.7223 30.3126 20.4196 30.3126 20.0462C30.3126 19.6728 30.0099 19.3701 29.6365 19.3701Z" fill="#101010"/>
<path d="M29.6365 22.4248H22.3923C22.0189 22.4248 21.7162 22.7275 21.7162 23.1009C21.7162 23.4743 22.0189 23.777 22.3923 23.777H29.6365C30.0099 23.777 30.3126 23.4743 30.3126 23.1009C30.3126 22.7275 30.0099 22.4248 29.6365 22.4248Z" fill="#101010"/>
</svg>
