<svg width="46" height="40" viewBox="0 0 46 40" fill="none" xmlns="http://www.w3.org/2000/svg">
<path d="M18.8547 9.3457C13.6055 9.3457 9.33493 13.6217 9.33493 18.8776C9.33493 24.1335 13.6055 28.4095 18.8547 28.4095C24.1038 28.4095 28.3744 24.1335 28.3744 18.8776C28.3744 13.6217 24.1039 9.3457 18.8547 9.3457ZM18.8547 24.1847C15.9274 24.1847 13.5543 21.8086 13.5543 18.8776C13.5543 15.9466 15.9274 13.5705 18.8547 13.5705C21.7819 13.5705 24.155 15.9466 24.155 18.8776C24.155 21.8086 21.782 24.1847 18.8547 24.1847Z" fill="#FCE476"/>
<path d="M44.5116 18.7759L45.7602 16.1594C45.8927 15.882 45.8734 15.556 45.7094 15.296C45.5454 15.036 45.2595 14.8782 44.9521 14.8782H38.5404C38.211 14.8782 37.9081 15.0591 37.7519 15.3492L37.4695 15.8736C36.0286 6.88707 28.2295 0 18.854 0C8.45788 0 0 8.46818 0 18.877C0 25.9313 3.88468 32.0941 9.62467 35.3339L6.49065 38.4718C6.14115 38.8218 6.1416 39.3887 6.49145 39.7382C6.66625 39.9128 6.89522 40 7.12419 40C7.35351 40 7.58293 39.9124 7.75781 39.7373L11.3128 36.1778C13.6233 37.1913 16.1742 37.754 18.854 37.754C21.5337 37.754 24.0847 37.1913 26.3953 36.1778L29.9502 39.7373C30.1251 39.9124 30.3544 40 30.5837 40C30.8127 40 31.0416 39.9127 31.2164 39.7382C31.5664 39.3887 31.5667 38.8218 31.2172 38.4718L28.0834 35.3339C33.0362 32.5384 36.6076 27.5665 37.4941 21.7237L37.752 22.2027C37.9082 22.4928 38.211 22.6737 38.5405 22.6737H44.9521C45.2595 22.6737 45.5454 22.516 45.7094 22.2559C45.8734 21.9959 45.8927 21.6699 45.7602 21.3925L44.5116 18.7759ZM18.854 35.9631C9.4454 35.9631 1.79092 28.2983 1.79092 18.877C1.79092 9.4557 9.4454 1.79092 18.854 1.79092C27.9285 1.79092 35.3713 8.92111 35.8884 17.8804H33.4551C32.9417 10.2642 26.5891 4.22487 18.8541 4.22487C10.7846 4.22487 4.21949 10.7978 4.21949 18.8771C4.21949 26.9564 10.7846 33.5292 18.8541 33.5292C26.6575 33.5292 33.0539 27.3827 33.4674 19.6714H35.8989C35.483 28.7254 27.9967 35.9631 18.854 35.9631ZM24.9698 17.8804C24.4922 14.9324 21.9315 12.6745 18.854 12.6745C15.4376 12.6745 12.6582 15.457 12.6582 18.8771C12.6582 22.2972 15.4376 25.0797 18.854 25.0797C22.0015 25.0797 24.6085 22.7178 24.9992 19.6715H31.6734C31.2623 26.3947 25.6697 31.7384 18.854 31.7384C11.772 31.7384 6.01032 25.9689 6.01032 18.8772C6.01032 11.7854 11.772 6.01588 18.854 6.01588C25.6012 6.01588 31.1498 11.2527 31.6595 17.8805H24.9698V17.8804ZM18.854 19.6714H23.1872C22.8126 21.7262 21.0121 23.2887 18.854 23.2887C16.4251 23.2887 14.4491 21.3096 14.4491 18.877C14.4491 16.4444 16.4251 14.4653 18.854 14.4653C20.9408 14.4653 22.6932 15.9262 23.1455 17.8804H18.854C18.3594 17.8804 17.9585 18.2813 17.9585 18.7758C17.9585 19.2705 18.3594 19.6714 18.854 19.6714ZM42.7113 19.1615L43.5326 20.8827H39.0753L37.9409 18.7759L39.0753 16.6692H43.5326L42.7113 18.3902C42.5949 18.6342 42.5949 18.9176 42.7113 19.1615Z" fill="#101010"/>
</svg>
