<svg width="106" height="23" viewBox="0 0 106 23" fill="none" xmlns="http://www.w3.org/2000/svg">
    <g clip-path="url(#clip0)">
    <path d="M32.3645 3.28516H26.7989C26.6215 3.28516 26.4662 3.44037 26.4662 3.61775V16.1677C26.4662 16.345 26.6215 16.5002 26.7989 16.5002H32.3867C36.7771 16.5002 39.6153 13.906 39.6153 9.8927C39.6153 5.85722 36.7771 3.28516 32.3645 3.28516ZM32.3645 12.9969H30.4575V6.76631H32.3867C34.3601 6.76631 35.5575 7.9193 35.5575 9.87051C35.5575 11.4226 34.471 12.9969 32.3645 12.9969Z" fill="#011B33"/>
    <path d="M64.3168 6.67749C62.7869 6.67749 61.5229 7.52006 60.9686 8.36263C60.5695 7.25398 59.6382 6.67749 58.219 6.67749C56.6447 6.67749 55.4695 7.47572 55.0482 8.00787V7.25398C55.0482 7.0766 54.893 6.92139 54.7156 6.92139H51.8108C51.6334 6.92139 51.4782 7.0766 51.4782 7.25398V16.1453C51.4782 16.3227 51.6334 16.4779 51.8108 16.4779H54.7156C54.893 16.4779 55.0482 16.3227 55.0482 16.1453V10.5799C55.2478 10.336 55.6913 9.82605 56.4895 9.82605C57.1991 9.82605 57.576 10.203 57.576 10.8904V16.1453C57.576 16.3227 57.7312 16.4779 57.9086 16.4779H60.8134C60.9908 16.4779 61.146 16.3227 61.146 16.1453V10.5799C61.3456 10.336 61.789 9.82605 62.6095 9.82605C63.2969 9.82605 63.696 10.2252 63.696 10.8904V16.1453C63.696 16.3227 63.8512 16.4779 64.0286 16.4779H66.9334C67.1107 16.4779 67.266 16.3227 67.266 16.1453V9.5378C67.2881 7.69744 66.2238 6.67749 64.3168 6.67749Z" fill="#011B33"/>
    <path d="M71.9669 6.92139H69.0621C68.8848 6.92139 68.7295 7.0766 68.7295 7.25398V16.1453C68.7295 16.3227 68.8848 16.4779 69.0621 16.4779H71.9669C72.1443 16.4779 72.2995 16.3227 72.2995 16.1453V7.25398C72.2995 7.0766 72.1443 6.92139 71.9669 6.92139Z" fill="#011B33"/>
    <path d="M70.5922 2.2207C69.4835 2.2207 68.5966 3.10762 68.5966 4.21627C68.5966 5.32492 69.5057 6.21183 70.5922 6.21183C71.7009 6.21183 72.5878 5.32492 72.5878 4.21627C72.61 3.12979 71.7009 2.2207 70.5922 2.2207Z" fill="#011B33"/>
    <path d="M80.6588 6.67749C78.8184 6.67749 77.7984 7.49789 77.3771 8.00787V7.25398C77.3771 7.0766 77.2219 6.92139 77.0445 6.92139H74.1398C73.9624 6.92139 73.8071 7.0766 73.8071 7.25398V16.1453C73.8071 16.3227 73.9624 16.4779 74.1398 16.4779H77.0445C77.2219 16.4779 77.3771 16.3227 77.3771 16.1453V10.5799C77.5989 10.3138 78.0423 9.82604 78.9071 9.82604C79.8384 9.82604 80.3041 10.2917 80.3041 11.2008V16.1675C80.3041 16.3449 80.4593 16.5001 80.6367 16.5001H83.5414C83.7188 16.5001 83.8741 16.3449 83.8741 16.1675V9.71518C83.8519 7.80831 82.6545 6.67749 80.6588 6.67749Z" fill="#011B33"/>
    <path d="M45.3805 6.6333C42.5866 6.6333 40.3249 8.89494 40.3249 11.6887C40.3249 14.4825 42.5866 16.7442 45.3805 16.7442C48.1744 16.7442 50.4361 14.4825 50.4361 11.6887C50.4139 8.89494 48.1522 6.6333 45.3805 6.6333ZM45.3805 13.3517C44.427 13.3517 43.6509 12.5757 43.6509 11.6222C43.6509 10.6688 44.427 9.89273 45.3805 9.89273C46.334 9.89273 47.11 10.6688 47.11 11.6222C47.0879 12.5757 46.334 13.3517 45.3805 13.3517Z" fill="#011B33"/>
    <path d="M89.9497 6.65527C87.1558 6.65527 84.8941 8.91691 84.8941 11.7107C84.8941 14.5045 87.1558 16.7662 89.9497 16.7662C92.7436 16.7662 95.0053 14.5045 95.0053 11.7107C95.0053 8.91691 92.7436 6.65527 89.9497 6.65527ZM89.9497 13.3515C88.9962 13.3515 88.2201 12.5754 88.2201 11.622C88.2201 10.6686 88.9962 9.89253 89.9497 9.89253C90.9032 9.89253 91.6792 10.6686 91.6792 11.622C91.6792 12.5754 90.9032 13.3515 89.9497 13.3515Z" fill="#011B33"/>
    <path d="M97.7992 3.83928C97.7992 3.81711 97.7992 3.81711 97.7992 3.83928C97.7992 3.81711 97.7992 3.81711 97.7992 3.81711C97.5775 2.81932 96.491 2.10979 95.4266 2.33152C94.3401 2.55325 93.6306 3.55104 93.8523 4.57099C94.0297 5.41356 94.7614 5.99006 95.6262 6.0344C95.5818 6.367 95.2714 6.67743 95.0275 6.83261C94.8501 6.92134 94.961 7.09871 94.961 7.09871L95.1827 7.4313C95.2492 7.54218 95.3379 7.60867 95.4488 7.54218C97.644 6.6109 98.021 4.7262 97.7992 3.83928Z" fill="#011B33"/>
    <path d="M100.371 9.75958C100.371 9.40481 100.815 9.2496 101.414 9.2496C102.567 9.2496 103.232 9.58219 103.964 10.07C104.03 10.1143 104.141 10.1365 104.23 10.1143C104.318 10.0922 104.407 10.0256 104.451 9.95913L105.427 8.25182C105.516 8.0966 105.471 7.89705 105.316 7.80835C104.518 7.32055 103.343 6.69971 101.281 6.69971C98.3314 6.69971 96.7571 8.09661 97.0232 10.0922C97.4888 13.5955 102.944 12.3982 102.855 13.5955C102.833 13.8616 102.345 14.0833 101.524 14.0833C100.438 14.0833 99.2184 13.5512 98.4423 13.0633C98.3758 13.019 98.2649 12.9968 98.1762 13.019C98.0875 13.0412 98.021 13.1077 97.9767 13.1742L96.8458 15.0589C96.7571 15.2141 96.8014 15.4137 96.9567 15.5024C98.0432 16.2341 99.7949 16.7219 101.325 16.7219C104.274 16.7219 105.981 15.458 105.981 13.3738C105.937 9.51567 100.394 10.713 100.371 9.75958Z" fill="#011B33"/>
    <path d="M22.3347 6.76715L16.1182 0.544938C15.8645 0.290969 15.505 0.142822 15.1456 0.142822C14.765 0.142822 14.4267 0.290969 14.173 0.544938L8.95033 5.7513L0.281164 14.4285C-0.268587 14.9788 -0.268587 15.8465 0.281164 16.3968L6.47643 22.5978C6.73019 22.8518 7.08963 23 7.44907 23C7.82966 23 8.16799 22.8518 8.4217 22.5978L16.1817 14.8307L22.2924 8.71425C22.8633 8.18517 22.8633 7.29628 22.3347 6.76715Z" fill="white"/>
    <path d="M21.8907 7.19036L15.6742 0.989312C15.3782 0.693016 14.8919 0.693016 14.5959 0.989312L7.89313 7.69829L15.1879 14.9999L21.8907 8.29091C22.1867 7.97345 22.1867 7.50783 21.8907 7.19036ZM16.4354 8.9893C16.076 9.34912 15.6319 9.51843 15.1668 9.51843C14.7016 9.51843 14.2576 9.34912 13.8981 8.9893C13.5387 8.62953 13.3695 8.18507 13.3695 7.71949C13.3695 7.25386 13.5387 6.78824 13.8981 6.44963C14.2576 6.08985 14.7016 5.92055 15.1668 5.92055C15.6319 5.92055 16.076 6.08985 16.4354 6.44963C16.7949 6.8094 16.964 7.25386 16.964 7.71949C16.964 8.18507 16.7738 8.65069 16.4354 8.9893Z" fill="#011B33"/>
    <path d="M0.746353 14.8518C0.450333 15.1481 0.450333 15.6349 0.746353 15.9312L6.94163 22.1534C7.08966 22.3016 7.27995 22.3862 7.4914 22.3862C7.6817 22.3862 7.89311 22.3016 8.04114 22.1534L14.7439 15.4444L7.4491 8.14282L0.746353 14.8518ZM6.11702 16.6508C5.75754 16.9894 5.31353 17.1799 4.84833 17.1799C4.38317 17.1799 3.918 17.0106 3.57969 16.6508C3.22023 16.291 3.05108 15.8465 3.05108 15.3809C3.05108 14.9153 3.22023 14.4497 3.57969 14.1111C3.93914 13.7513 4.38317 13.582 4.84833 13.582C5.31353 13.582 5.7787 13.7513 6.11702 14.1111C6.47646 14.4709 6.6456 14.9153 6.6456 15.3809C6.6456 15.8465 6.45531 16.291 6.11702 16.6508ZM8.84463 14.1746C9.20407 13.8148 9.64812 13.6455 10.1133 13.6455C10.5784 13.6455 11.0436 13.8148 11.3819 14.1746C11.7414 14.5343 11.9106 14.9788 11.9106 15.4444C11.9106 15.91 11.7414 16.3545 11.3819 16.7143C11.0225 17.074 10.5784 17.2433 10.1133 17.2433C9.64812 17.2433 9.20407 17.074 8.84463 16.7143C8.48515 16.3545 8.316 15.91 8.316 15.4444C8.316 15 8.48515 14.5343 8.84463 14.1746Z" fill="#011B33"/>
    </g>
    <defs>
    <clipPath id="clip0">
    <rect width="105.495" height="22.8571" fill="white" transform="translate(0.316406 0.142822)"/>
    </clipPath>
    </defs>
</svg>