<svg width="43" height="40" viewBox="0 0 43 40" fill="none" xmlns="http://www.w3.org/2000/svg">
<path d="M30.3209 0H11.9106V15.0786H19.0541L21.1158 17.1403L23.1774 15.0786H30.3209V0Z" fill="#FCE476"/>
<path d="M19.419 10.2124C19.1322 9.85826 18.6128 9.80382 18.2589 10.0904C17.9049 10.3771 17.8503 10.8964 18.1369 11.2504C18.6637 11.901 19.4307 12.259 20.1856 12.4203V12.4388C20.1856 12.8944 20.5548 13.2637 21.0104 13.2637C21.4518 13.2637 21.8122 12.9169 21.8341 12.481C23.1693 12.2775 24.11 11.4159 24.2595 10.2338C24.4296 8.88817 23.5481 7.59649 22.116 7.09293C22.0184 7.05862 21.9249 7.02546 21.8352 6.99345V4.8837C22.0308 4.96289 22.1684 5.07119 22.2422 5.17569C22.5046 5.54777 23.0193 5.63686 23.3917 5.37423C23.7639 5.1116 23.8528 4.59699 23.5902 4.22466C23.2461 3.73686 22.6329 3.32651 21.8353 3.17672V3.10999C21.8353 2.65452 21.466 2.28516 21.0105 2.28516C20.5549 2.28516 20.1856 2.65452 20.1856 3.10999V3.23577C20.0982 3.25664 20.0099 3.2804 19.9205 3.3072C18.9696 3.5921 18.2523 4.51088 18.1761 5.54134C18.1008 6.56108 18.6446 7.44612 19.6307 7.90869C19.7556 7.96725 19.9455 8.04643 20.1856 8.14038V10.7134C19.8792 10.6054 19.6044 10.4413 19.419 10.2124ZM22.6228 10.027C22.5753 10.4025 22.2944 10.6728 21.8351 10.7989V8.76404C22.4439 9.08028 22.6746 9.61765 22.6228 10.027ZM19.8212 5.66292C19.8409 5.397 19.9861 5.14179 20.1856 4.99398V6.3359C19.9228 6.16994 19.8004 5.94419 19.8212 5.66292Z" fill="#101010"/>
<path d="M42.043 21.4948L38.5735 17.2865C38.4342 17.1175 38.2333 17.0108 38.0153 16.99C37.7977 16.9693 37.58 17.0361 37.4112 17.1757L35.8852 18.4386L33.8434 17.1693C31.7695 15.8801 29.1107 16.0593 27.227 17.6154L22.7096 21.3477C21.9384 21.985 21.826 23.1296 22.4591 23.8992C22.7921 24.304 23.2118 24.6119 23.684 24.8046L20.4835 27.4486L18.5478 25.8495C19.02 25.6568 19.4397 25.3489 19.7727 24.9441C20.4058 24.1746 20.2934 23.03 19.522 22.3925L15.0046 18.6603C13.121 17.1043 10.4621 16.925 8.38822 18.2142L6.34627 19.4834L4.82025 18.2206C4.65149 18.0809 4.43407 18.0138 4.21615 18.0349C3.99806 18.0557 3.7973 18.1624 3.65798 18.3314L0.188415 22.5398C-0.100936 22.8909 -0.0515282 23.4098 0.29886 23.6999L1.59459 24.7724L1.2428 27.1754C0.955838 29.136 1.72549 31.1374 3.25159 32.3985L11.7487 39.4205C12.2007 39.7938 12.7766 39.9979 13.3613 39.9979C13.4488 39.9979 13.5366 39.9932 13.6241 39.9841C14.2874 39.9138 14.877 39.5917 15.2843 39.077C15.534 38.7614 15.6933 38.4005 15.7658 38.027C15.9854 38.0626 16.2103 38.0694 16.4339 38.0459C17.0972 37.9757 17.6869 37.6536 18.0943 37.1389C18.3208 36.8527 18.4729 36.5292 18.5532 36.1928C19.3346 36.3853 20.1835 36.2036 20.7987 35.6503C21.1077 35.3726 21.3363 35.0235 21.4696 34.6379C22.0816 35.1657 22.9123 35.3366 23.6782 35.1479C23.7586 35.4843 23.9107 35.8077 24.1372 36.094C24.5446 36.6087 25.1342 36.9308 25.7975 37.0009C26.0212 37.0247 26.2461 37.0177 26.4656 36.982C26.538 37.3555 26.6973 37.7165 26.947 38.032C27.3543 38.5468 27.944 38.869 28.6073 38.9391C28.6948 38.9483 28.7825 38.953 28.87 38.953C29.4547 38.953 30.0308 38.7489 30.4826 38.3755L38.9798 31.3535C40.5058 30.0923 41.2755 28.0909 40.9885 26.1305L40.6367 23.7274L41.9324 22.6549C42.2829 22.3649 42.3323 21.8459 42.043 21.4948ZM19.968 31.2849C19.9549 31.2741 19.9416 31.2638 19.9281 31.254L14.4627 26.7357C14.1116 26.4456 13.5917 26.4948 13.3014 26.8458C13.0112 27.197 13.0605 27.7169 13.4116 28.0071L19.1009 32.7104C19.112 32.7196 19.1233 32.7285 19.1349 32.737L19.6359 33.1525C19.8332 33.3157 19.9494 33.5573 19.9548 33.8158C19.9577 33.9533 19.9279 34.2151 19.696 34.4235C19.3981 34.6912 18.9228 34.6859 18.5903 34.4112L18.2994 34.1708L18.2993 34.1708L12.375 29.2732C12.024 28.9829 11.504 29.0322 11.2137 29.3833C10.9234 29.7344 10.9727 30.2544 11.3239 30.5446L16.6674 34.962C16.6699 34.9642 16.6723 34.9663 16.6749 34.9684C17.0193 35.253 17.0758 35.7675 16.8007 36.1151C16.6708 36.2791 16.4791 36.3821 16.2605 36.4053C16.0266 36.4299 15.7893 36.359 15.6108 36.2115L14.9221 35.6402C14.9201 35.6384 14.9179 35.6366 14.9158 35.6349C14.565 35.3449 14.0454 35.3941 13.755 35.7446C13.4646 36.0953 13.5133 36.6149 13.8637 36.9055L13.8677 36.9089C14.2097 37.194 14.265 37.7066 13.9907 38.0532C13.861 38.2172 13.6691 38.3202 13.4506 38.3434C13.2165 38.3681 12.9794 38.2971 12.7997 38.1488L4.30251 31.1269C3.21802 30.2306 2.67107 28.808 2.87505 27.4142L3.29399 24.5522C3.33572 24.2673 3.22569 23.981 3.00381 23.7974L1.9849 22.954L4.40511 20.0183L5.75173 21.1327C6.025 21.3587 6.41193 21.3849 6.71307 21.1978L9.259 19.6152C10.7304 18.7004 12.617 18.8278 13.9538 19.932L18.471 23.6641C18.5427 23.7233 18.555 23.8273 18.4986 23.8959C18.2492 24.199 17.8965 24.3866 17.5055 24.4243C17.1111 24.4616 16.7254 24.3436 16.4189 24.0906L16.4186 24.0903C16.4186 24.0903 16.4186 24.0903 16.4186 24.0903C16.0675 23.8002 15.5475 23.8497 15.2574 24.2009C14.9672 24.5521 15.0168 25.0719 15.3679 25.3621L20.9762 29.9954C21.1565 30.1444 21.2716 30.3652 21.292 30.6014C21.3111 30.8219 21.2466 31.0312 21.1102 31.1906C20.8233 31.526 20.311 31.5683 19.968 31.2849ZM38.9374 23.5073L39.3563 26.3693C39.5604 27.7631 39.0134 29.1857 37.929 30.0819L29.4318 37.1039C29.2521 37.2523 29.0146 37.323 28.7808 37.2986C28.5623 37.2755 28.3704 37.1724 28.2407 37.0083C27.9756 36.6734 28.0184 36.1837 28.3299 35.8937L32.9951 32.037C33.3462 31.7468 33.3955 31.2269 33.1052 30.8757C32.8149 30.5247 32.295 30.4753 31.9439 30.7656L27.3537 34.5604C27.3408 34.5699 27.328 34.5798 27.3154 34.5901C27.3133 34.5918 27.3112 34.5936 27.3091 34.5954L26.6216 35.1656C26.4419 35.3142 26.2046 35.3852 25.9706 35.3603C25.7521 35.3372 25.5602 35.2342 25.4305 35.0702C25.1556 34.7229 25.2116 34.2092 25.5552 33.9243L25.5562 33.9234C25.5595 33.9207 25.5628 33.9179 25.5661 33.9151L30.9073 29.4995C31.2585 29.2092 31.3077 28.6893 31.0175 28.3382C30.7272 27.9871 30.2074 27.9378 29.8563 28.2281L23.9319 33.1257C23.931 33.1264 23.9301 33.1273 23.9291 33.128L23.6409 33.3662C23.3084 33.641 22.8331 33.6463 22.5352 33.3785C22.3034 33.1702 22.2736 32.9084 22.2765 32.7709C22.2818 32.5124 22.3981 32.2707 22.5966 32.1065L23.0959 31.6924C23.1075 31.6837 23.119 31.6747 23.1303 31.6654L28.8196 26.9621C29.1707 26.6719 29.22 26.1519 28.9298 25.8008C28.6395 25.4497 28.1196 25.4003 27.7685 25.6907L22.7897 29.8068C22.6359 29.3872 22.3732 29.0101 22.0266 28.7237L21.7781 28.5184L29.2404 22.3514L30.8108 24.2562C31.1005 24.6077 31.6203 24.6578 31.9719 24.3679C32.3233 24.0781 32.3734 23.5583 32.0835 23.2068L29.9878 20.6647C29.8485 20.4958 29.6478 20.3892 29.4298 20.3683C29.2119 20.3478 28.9946 20.4141 28.8258 20.5537L25.7851 23.0676C25.4831 23.3055 25.1083 23.4157 24.7257 23.3794C24.3347 23.3417 23.9819 23.1541 23.7326 22.851C23.6761 22.7824 23.6885 22.6784 23.76 22.6193L28.2774 18.8871C29.6141 17.7829 31.5008 17.6555 32.9722 18.5702L35.5181 20.1529C35.8192 20.3401 36.2062 20.3139 36.4794 20.0878L37.8261 18.9734L40.2462 21.909L39.2273 22.7525C39.0056 22.9361 38.8957 23.2223 38.9374 23.5073Z" fill="#101010"/>
<path d="M15.0754 37.6637C14.8903 37.6637 14.7041 37.6018 14.5503 37.4746L9.23678 33.0816C8.88565 32.7914 8.83641 32.2715 9.12667 31.9203C9.41692 31.5693 9.9369 31.52 10.2879 31.8102L15.6015 36.2032C15.9526 36.4935 16.002 37.0133 15.7117 37.3645C15.5486 37.5618 15.3129 37.6637 15.0754 37.6637Z" fill="#101010"/>
</svg>
