<svg width="36" height="32" viewBox="0 0 36 32" fill="none" xmlns="http://www.w3.org/2000/svg">
<path d="M17.6002 23.4446C21.712 23.4446 25.0452 20.1114 25.0452 15.9996C25.0452 11.8879 21.712 8.55469 17.6002 8.55469C13.4885 8.55469 10.1553 11.8879 10.1553 15.9996C10.1553 20.1114 13.4885 23.4446 17.6002 23.4446Z" fill="#FCE476"/>
<path d="M18.6699 15.4442C18.5545 15.4035 18.4449 15.3643 18.341 15.3269V13.1177C18.6131 13.2006 18.8016 13.3392 18.8941 13.471C19.1123 13.7818 19.541 13.8571 19.8518 13.6388C20.1626 13.4208 20.2378 12.992 20.0196 12.6812C19.6955 12.2192 19.1078 11.8336 18.341 11.7087V11.5635C18.341 11.1838 18.0332 10.876 17.6535 10.876C17.2739 10.876 16.966 11.1838 16.966 11.5635V11.761C16.8616 11.7842 16.7555 11.8119 16.6479 11.8443C15.7852 12.1041 15.134 12.9421 15.0643 13.8821C14.9955 14.8103 15.4897 15.6169 16.3863 16.0397C16.5135 16.0997 16.7127 16.1825 16.966 16.2813V18.9266C16.6123 18.8209 16.2874 18.6439 16.0764 18.3819C15.8382 18.0863 15.4055 18.0396 15.1098 18.2778C14.8141 18.516 14.7674 18.9488 15.0057 19.2445C15.5066 19.8664 16.2461 20.199 16.9661 20.3404V20.4375C16.9661 20.8171 17.2739 21.125 17.6536 21.125C18.0333 21.125 18.3411 20.8171 18.3411 20.4375V20.3929C19.8603 20.2006 20.5234 19.2124 20.6355 18.3302C20.7922 17.0955 19.9839 15.9088 18.6699 15.4442ZM16.4355 13.984C16.4608 13.6421 16.683 13.3163 16.9659 13.1903V14.7929C16.4949 14.5679 16.4173 14.2291 16.4355 13.984ZM19.2713 18.157C19.2167 18.5876 18.8825 18.8861 18.341 18.9997V16.7912C19.0591 17.0992 19.329 17.7031 19.2713 18.157Z" fill="#101010"/>
<path d="M17.6006 3.1051C17.9802 3.1051 18.2881 2.79724 18.2881 2.4176V0.687502C18.2881 0.307863 17.9802 0 17.6006 0C17.2209 0 16.9131 0.307863 16.9131 0.687502V2.4176C16.9131 2.79731 17.2209 3.1051 17.6006 3.1051Z" fill="#101010"/>
<path d="M24.8067 5.10337C24.9828 5.10337 25.159 5.03606 25.2932 4.90152L26.5144 3.67811C26.7827 3.40943 26.7823 2.9741 26.5135 2.70584C26.2449 2.43765 25.8096 2.43785 25.5413 2.70673L24.3201 3.93014C24.0518 4.19882 24.0522 4.63415 24.321 4.90241C24.4552 5.0364 24.6309 5.10337 24.8067 5.10337Z" fill="#101010"/>
<path d="M9.90645 4.90145C10.0407 5.03599 10.2169 5.1033 10.3931 5.1033C10.5688 5.1033 10.7445 5.03634 10.8787 4.90234C11.1475 4.63415 11.1479 4.19889 10.8796 3.93008L9.65847 2.70673C9.39027 2.43799 8.95494 2.43751 8.6862 2.70584C8.41746 2.97403 8.41704 3.40929 8.68531 3.67811L9.90645 4.90145Z" fill="#101010"/>
<path d="M17.6006 28.8945C17.2209 28.8945 16.9131 29.2024 16.9131 29.582V31.3121C16.9131 31.6918 17.2209 31.9996 17.6006 31.9996C17.9802 31.9996 18.2881 31.6918 18.2881 31.3121V29.582C18.2881 29.2024 17.9802 28.8945 17.6006 28.8945Z" fill="#101010"/>
<path d="M9.90642 27.0993L8.68528 28.3227C8.41709 28.5914 8.41743 29.0267 8.68617 29.2949C8.82037 29.4289 8.9961 29.4959 9.17183 29.4959C9.34796 29.4959 9.52417 29.4286 9.65844 29.294L10.8796 28.0706C11.1478 27.8019 11.1474 27.3666 10.8787 27.0984C10.6099 26.8302 10.1747 26.8305 9.90642 27.0993Z" fill="#101010"/>
<path d="M25.2932 27.0993C25.025 26.8305 24.5898 26.8301 24.321 27.0984C24.0522 27.3666 24.0518 27.8019 24.3201 28.0707L25.5413 29.2941C25.6756 29.4286 25.8517 29.4959 26.0278 29.4959C26.2036 29.4959 26.3793 29.429 26.5135 29.295C26.7822 29.0268 26.7826 28.5914 26.5144 28.3227L25.2932 27.0993Z" fill="#101010"/>
<path d="M35.0739 15.6032C34.9985 15.4968 33.1942 12.967 30.1508 10.405C28.3563 8.89418 26.5025 7.68885 24.6409 6.82239C22.2911 5.7285 19.9222 5.17383 17.6001 5.17383C15.278 5.17383 12.9091 5.72844 10.5593 6.82232C8.69776 7.68885 6.84391 8.89418 5.0494 10.4049C2.00596 12.967 0.20161 15.4967 0.126329 15.6032C-0.0421095 15.8411 -0.0421095 16.1595 0.126329 16.3974C0.20161 16.5039 2.00596 19.0337 5.0494 21.5957C6.84391 23.1065 8.6977 24.3118 10.5593 25.1783C12.9091 26.2721 15.278 26.8268 17.6001 26.8268C19.9222 26.8268 22.2911 26.2722 24.6409 25.1783C26.5024 24.3118 28.3563 23.1064 30.1508 21.5957C33.1942 19.0336 34.9986 16.5039 35.0739 16.3974C35.2422 16.1595 35.2422 15.8412 35.0739 15.6032ZM29.2652 20.5439C26.6056 22.7828 22.4229 25.4518 17.6001 25.4518C12.7889 25.4518 8.61526 22.7949 5.96123 20.566C3.73358 18.6951 2.17007 16.8016 1.54781 16.0003C2.17027 15.1988 3.73372 13.3054 5.96123 11.4347C8.61526 9.20582 12.7889 6.5489 17.6001 6.5489C22.4113 6.5489 26.5849 9.20582 29.239 11.4347C31.4666 13.3055 33.0303 15.1992 33.6525 16.0006C33.0341 16.7978 31.4843 18.6758 29.2652 20.5439Z" fill="#101010"/>
</svg>
