<svg width="39" height="40" viewBox="0 0 39 40" fill="none" xmlns="http://www.w3.org/2000/svg">
<path d="M19.2722 39.9975C23.4082 39.9975 26.7612 36.6446 26.7612 32.5085C26.7612 28.3725 23.4082 25.0195 19.2722 25.0195C15.1361 25.0195 11.7832 28.3725 11.7832 32.5085C11.7832 36.6446 15.1361 39.9975 19.2722 39.9975Z" fill="#FCE476"/>
<path d="M20.3795 31.8655C20.2848 31.832 20.194 31.7997 20.1071 31.7684V29.7278C20.2978 29.8044 20.4321 29.9101 20.5035 30.0119C20.7513 30.3651 21.2387 30.4503 21.5917 30.2024C21.9449 29.9545 22.0302 29.4673 21.7823 29.1141C21.4542 28.6466 20.8688 28.2536 20.1071 28.1111V28.0391C20.1071 27.6077 19.7573 27.2578 19.3259 27.2578C18.8945 27.2578 18.5446 27.6077 18.5446 28.0391V28.1677C18.4598 28.188 18.3739 28.2111 18.2871 28.2373C17.3837 28.5094 16.7017 29.3859 16.6288 30.3687C16.5566 31.3419 17.0735 32.1869 18.0114 32.6292C18.1313 32.6858 18.3139 32.7622 18.5446 32.8529V35.337C18.2495 35.2334 17.9844 35.0751 17.8058 34.8534C17.535 34.5173 17.0433 34.4644 16.7072 34.735C16.3712 35.0057 16.3182 35.4975 16.5888 35.8336C17.0914 36.4575 17.8239 36.8002 18.5445 36.9541V36.98C18.5445 37.4114 18.8943 37.7612 19.3257 37.7612C19.7465 37.7612 20.0896 37.4285 20.1063 37.0118C21.3779 36.8186 22.2747 35.9964 22.418 34.8679C22.5813 33.5822 21.7431 32.3475 20.3795 31.8655ZM18.187 30.4843C18.2063 30.2235 18.3493 29.9734 18.5446 29.8312V31.1437C18.2867 30.9823 18.1665 30.7611 18.187 30.4843ZM20.8681 34.6711C20.8217 35.0359 20.5503 35.2979 20.1071 35.4189V33.4458C20.6961 33.7505 20.9186 34.2731 20.8681 34.6711Z" fill="#101010"/>
<path d="M38.4284 38.8071L20.824 10.4047C20.6816 10.1749 20.4304 10.0351 20.16 10.0351H20.054V7.19602H26.0304C26.2984 7.19602 26.5477 7.05859 26.6908 6.83203C26.834 6.60547 26.851 6.32125 26.7358 6.07922L25.5558 3.59805L26.7358 1.1168C26.851 0.874766 26.834 0.590625 26.6908 0.363984C26.5477 0.137344 26.2984 0 26.0304 0H19.2728C18.8414 0 18.4915 0.349844 18.4915 0.78125V10.035H18.3856C18.1152 10.035 17.864 10.1748 17.7215 10.4046L0.117167 38.8071C-0.0321294 39.048 -0.0392388 39.351 0.0986518 39.5988C0.236542 39.8464 0.497714 40 0.78123 40H37.7644C38.0479 40 38.3092 39.8464 38.447 39.5988C38.5848 39.351 38.5778 39.048 38.4284 38.8071ZM20.054 1.5625H24.7937L23.9852 3.2625C23.8842 3.47484 23.8842 3.72125 23.9852 3.93359L24.7937 5.63352H20.054V1.5625ZM18.8204 11.5975H19.7251L23.9648 18.4377L22.2393 20.9333L19.0215 17.2302C18.7754 16.9472 18.3629 16.8787 18.0387 17.0676L16.1565 18.1636L15.4276 17.0712L18.8204 11.5975ZM2.18459 38.4375L14.5232 18.5307L15.2649 19.6422C15.4942 19.9856 15.9511 20.0916 16.3079 19.8837L18.2663 18.7432L21.7199 22.7177C21.8687 22.8889 22.0841 22.9865 22.3096 22.9865C22.324 22.9865 22.3383 22.9861 22.3528 22.9852C22.5937 22.972 22.8151 22.848 22.9523 22.6495L24.8629 19.8864L36.361 38.4375H2.18459Z" fill="#101010"/>
</svg>
