<svg width="36" height="32" viewBox="0 0 36 32" fill="none" xmlns="http://www.w3.org/2000/svg">
<path d="M14.7451 24.5942C18.7918 24.5942 22.0723 21.3197 22.0723 17.2805C22.0723 13.2412 18.7918 9.9668 14.7451 9.9668C10.6985 9.9668 7.41797 13.2412 7.41797 17.2805C7.41797 21.3197 10.6985 24.5942 14.7451 24.5942Z" fill="#FCE476"/>
<path d="M34.7595 17.3488L35.6619 15.4636C35.7654 15.2474 35.7507 14.9931 35.6229 14.7903C35.4951 14.5875 35.2723 14.4644 35.0325 14.4644H31.6303C30.8528 14.4644 30.1189 14.8044 29.6167 15.397L29.401 15.6515C28.9041 11.1662 26.3801 7.28187 22.7666 4.93441V1.39572H26.5397C26.925 1.39572 27.2375 1.08328 27.2375 0.697858C27.2375 0.312431 26.925 0 26.5397 0H2.94908C2.56365 0 2.25122 0.312431 2.25122 0.697858C2.25122 1.08328 2.56365 1.39572 2.94908 1.39572H6.7203V4.937C2.67789 7.56485 0 12.1164 0 17.2806C0 25.3969 6.61472 32 14.7453 32C22.2831 32 28.518 26.3247 29.3871 19.0298L29.6166 19.3007C30.1188 19.8933 30.8528 20.2331 31.6302 20.2331H35.0325C35.2723 20.2331 35.4951 20.1101 35.6229 19.9072C35.7507 19.7044 35.7654 19.4502 35.6619 19.2339L34.7595 17.3488ZM8.11602 1.39572H21.3709V4.13237C19.3778 3.12745 17.1266 2.56107 14.7454 2.56107C12.3626 2.56107 10.1101 3.12815 8.11609 4.13425V1.39572H8.11602ZM14.7453 30.6043C7.38431 30.6043 1.39572 24.6273 1.39572 17.2806C1.39572 9.9338 7.38431 3.95679 14.7453 3.95679C21.8949 3.95679 27.7497 9.59534 28.0801 16.651H26.1131C25.7847 10.6757 20.8115 5.91504 14.7453 5.91504C8.46753 5.91504 3.36012 11.0136 3.36012 17.2806C3.36012 23.5475 8.46753 28.6461 14.7453 28.6461C20.7653 28.6461 25.7088 23.9578 26.1048 18.0467H28.0731C27.674 25.0383 21.8487 30.6043 14.7453 30.6043ZM19.5461 18.0467H24.7056C24.3123 23.1874 19.9953 27.2504 14.7453 27.2504C9.23713 27.2504 4.75583 22.7779 4.75583 17.2806C4.75583 11.7832 9.23706 7.31076 14.7453 7.31076C20.0417 7.31076 24.3885 11.4458 24.7151 16.651H19.5461C19.1607 16.651 18.8482 16.9634 18.8482 17.3488C18.8482 17.7342 19.1607 18.0467 19.5461 18.0467ZM33.3564 17.6502L33.9247 18.8375H31.6303C31.2638 18.8375 30.918 18.6775 30.6814 18.3983L29.792 17.3488L30.6814 16.2994C30.918 16.0202 31.2638 15.8602 31.6303 15.8602H33.9247L33.3564 17.0476C33.2651 17.2381 33.2651 17.4596 33.3564 17.6502Z" fill="#101010"/>
<path d="M15.6757 16.7942C15.5585 16.7528 15.4472 16.7131 15.3418 16.6751V14.4327C15.618 14.5169 15.8093 14.6576 15.9032 14.7914C16.1246 15.1069 16.5598 15.1831 16.8753 14.9617C17.1908 14.7403 17.2671 14.3051 17.0457 13.9896C16.7167 13.5207 16.1201 13.1293 15.3417 13.0025V12.8551C15.3417 12.4697 15.0293 12.1572 14.6439 12.1572C14.2584 12.1572 13.946 12.4697 13.946 12.8551V13.0556C13.84 13.0791 13.7323 13.1072 13.623 13.1401C12.7474 13.4039 12.0864 14.2545 12.0157 15.2086C11.9458 16.1507 12.4475 16.9694 13.3576 17.3986C13.4865 17.4595 13.6888 17.5435 13.9461 17.6439V20.329C13.5871 20.2217 13.2574 20.042 13.0431 19.7761C12.8014 19.4759 12.3621 19.4286 12.0619 19.6704C11.7617 19.9121 11.7144 20.3515 11.9561 20.6516C12.4647 21.2829 13.2152 21.6205 13.946 21.7641V21.8625C13.946 22.248 14.2584 22.5604 14.6439 22.5604C15.0293 22.5604 15.3417 22.248 15.3417 21.8625V21.8173C16.8839 21.6221 17.557 20.619 17.6708 19.7235C17.8299 18.4703 17.0095 17.2657 15.6757 16.7942ZM13.4076 15.3119C13.4334 14.9648 13.6588 14.6341 13.9461 14.5063V16.1331C13.4679 15.9047 13.3891 15.5607 13.4076 15.3119ZM16.2861 19.5478C16.2307 19.9849 15.8914 20.2879 15.3417 20.4032V18.1613C16.0707 18.4742 16.3447 19.0871 16.2861 19.5478Z" fill="#101010"/>
</svg>
