<svg width="92" height="28" viewBox="0 0 92 28" fill="none" xmlns="http://www.w3.org/2000/svg">
<g style="mix-blend-mode:luminosity" clip-path="url(#clip0)">
<path d="M32.8416 5.8291C31.5119 5.8291 30.4276 6.21781 29.6297 7.01568C28.8319 7.81355 28.4432 8.8569 28.4432 10.1867V11.271H26.5201V13.8487H28.4432V21.8478H31.4096V13.8487H33.8646V11.271H31.4096V10.1049C31.4096 9.10238 32.1461 8.42728 33.1894 8.42728C33.4145 8.42728 33.6395 8.44774 33.885 8.4682V5.89048C33.5781 5.84956 33.2303 5.8291 32.8416 5.8291Z" fill="#101010"/>
<path d="M37.8091 5.9519H34.8222V21.8479H37.8091V5.9519Z" fill="#101010"/>
<path d="M41.429 6.01328C39.9356 5.93145 39.0149 8.05908 40.1606 9.08197C40.8357 9.75713 42.0223 9.75713 42.6974 9.08197C43.0452 8.73419 43.2293 8.30456 43.2293 7.81361C43.2293 6.81113 42.4314 6.01328 41.429 6.01328ZM42.9224 11.271H39.9355V21.8479H42.9224V11.271Z" fill="#101010"/>
<path d="M49.5701 11.0664C48.0767 11.0664 46.8493 11.5779 45.8877 12.5803C44.9467 13.5828 44.4761 14.9125 44.4761 16.5697C44.4761 18.2267 44.9467 19.5565 45.8877 20.559C46.8493 21.5614 48.0767 22.0729 49.5701 22.0729C50.8999 22.0729 51.8819 21.7046 52.5571 20.9477V27.0646H55.5235V11.271H52.7206V12.3757C52.0661 11.496 51.0227 11.0664 49.5701 11.0664ZM50.0611 13.6237C51.5546 13.6237 52.5571 14.6671 52.5571 16.3241V16.8151C52.5571 18.4723 51.5546 19.5156 50.0611 19.5156C48.5268 19.5156 47.5039 18.4313 47.5039 16.5697C47.5039 14.708 48.5268 13.6237 50.0611 13.6237Z" fill="#101010"/>
<path d="M63.6077 11.0664C62.1754 11.0664 61.132 11.496 60.4775 12.3757V11.271H57.6542V27.0646H60.6414V20.9477C61.3163 21.7046 62.3189 22.0729 63.6077 22.0729C65.1214 22.0729 66.349 21.5614 67.2901 20.559C68.2516 19.5565 68.7219 18.2267 68.7219 16.5697C68.7219 14.9125 68.2516 13.5828 67.2901 12.5803C66.349 11.5779 65.1214 11.0664 63.6077 11.0664ZM63.1369 13.6237C64.6714 13.6237 65.6945 14.708 65.6945 16.5697C65.6945 18.4313 64.6714 19.5156 63.1369 19.5156C61.6435 19.5156 60.6414 18.4723 60.6414 16.8151V16.3241C60.6414 14.6671 61.6435 13.6237 63.1369 13.6237Z" fill="#101010"/>
<path d="M74.392 11.0664C73.1032 11.0664 72.0395 11.4551 71.2007 12.2325C70.3823 12.9895 69.973 13.8692 69.973 14.8512L72.9602 14.9739C72.9602 14.217 73.4718 13.5828 74.4332 13.5828C75.354 13.5828 75.8039 14.1351 75.8039 15.2194V15.6286L73.9217 15.7309C71.0984 15.8536 69.687 16.9174 69.687 18.9428C69.687 20.9681 71.0164 22.0729 73.2056 22.0729C74.3105 22.0729 75.2104 21.7046 75.9062 20.9886V21.8478H78.7905V15.3217C78.7905 12.5394 77.2565 11.0664 74.392 11.0664ZM75.8039 18.0426C75.8039 19.1269 75.0262 19.7611 73.9013 19.7611C73.0829 19.7611 72.6737 19.4338 72.6737 18.7996C72.6737 18.104 73.1852 17.7358 74.2082 17.6949L75.8039 17.5925V18.0426Z" fill="#101010"/>
<path d="M90.7742 11.271H87.4598L85.0457 17.5721L82.6113 11.271H79.3177L83.4501 20.9067L80.7494 27.0646H84.0023L90.7742 11.271Z" fill="#101010"/>
<path fillRule="evenodd" clipRule="evenodd" d="M0.43573 3.0369C0.43573 1.61577 1.51765 0.716486 2.85244 1.02833L17.3712 4.42034C18.7059 4.73217 19.7879 5.74682 19.7879 6.68908V21.0114C19.7879 21.9525 18.706 22.9683 17.3712 23.2802L2.85244 26.6721C1.51773 26.984 0.43573 26.0864 0.43573 24.6636V3.0369ZM4.54807 8.29114C4.54807 7.14366 5.49059 6.34897 6.65094 6.51579L12.9616 7.42306C14.123 7.59004 15.0644 8.465 15.0644 9.37786C15.0644 10.2905 14.1219 10.971 12.9616 10.898L6.65094 10.5011C5.48956 10.428 4.54807 9.43883 4.54807 8.29114ZM4.43615 13.8502C4.43615 12.6625 5.41176 11.7391 6.61283 11.7877L13.145 12.0518C14.3472 12.1004 15.3218 12.9054 15.3218 13.8502C15.3218 14.7949 14.3462 15.6001 13.145 15.6487L6.61283 15.9128C5.41069 15.9615 4.43615 15.0383 4.43615 13.8502ZM6.96709 21.6052C8.3031 21.4011 9.38612 20.2632 9.38612 19.0635C9.38612 17.8639 8.3031 16.9595 6.96709 17.0435C5.63111 17.1275 4.54807 18.2655 4.54807 19.5852C4.54807 20.9049 5.63111 21.8093 6.96709 21.6052Z" fill="#101010"/>
</g>
<defs>
<clipPath id="clip0">
<rect width="90.8213" height="26.0981" fill="white" transform="translate(0.43573 0.966553)"/>
</clipPath>
</defs>
</svg>
