<svg width="138" height="27" viewBox="0 0 138 27" fill="none" xmlns="http://www.w3.org/2000/svg">
<g style="mix-blend-mode:luminosity" clip-path="url(#clip0)">
<path d="M17.957 11.9573C21.2875 9.23655 28.0894 -0.567488 17.441 1.16816C12.797 1.8718 5.9951 6.37509 4.63473 11.582C3.93109 10.1747 3.13364 8.86128 2.28927 7.54782C0.975809 5.76527 -0.478379 7.17254 0.928899 8.9551C5.10056 14.0058 7.50576 20.2824 7.77766 26.8275C8.10602 23.6846 7.59002 19.8381 6.32347 16.0853C6.93329 16.2729 7.63693 16.3668 8.24675 16.3668C10.4046 19.9319 13.7351 22.981 17.441 24.3883C20.8654 25.7486 25.4156 24.9512 23.5392 19.4628C22.5541 16.4606 20.2555 13.8337 17.957 11.9573ZM18.4261 2.43471C24.3366 1.77798 18.0039 9.14274 15.9399 10.5031C14.0166 9.23655 11.5773 8.11073 9.23185 8.4391C10.9206 6.23436 15.0486 2.85689 18.4261 2.43471ZM9.18494 10.034C10.7799 9.89328 12.5155 10.7846 13.8759 11.7227C12.5624 12.3795 11.1551 12.7548 9.70094 12.8955C7.54311 12.8955 7.07402 10.2216 9.18494 10.034ZM17.3472 21.4799C14.5795 20.6824 11.9526 18.4308 10.0762 16.1791C11.6242 15.8508 13.1722 15.2409 14.5795 14.3966C15.0955 14.162 15.6115 13.7868 16.0806 13.4584C17.7224 14.9595 19.4581 16.9766 20.1148 19.2751C20.7715 21.7613 18.989 21.949 17.3472 21.4799Z" fill="#101010"/>
<path d="M40.6143 5.76464H32.5459C32.2645 5.76464 32.0299 5.99919 32.0299 6.28064H31.983V18.9462C31.983 19.2276 32.2176 19.4622 32.499 19.4622C32.7336 19.4622 32.9681 19.2276 33.015 18.9462V13.2232H39.8638C40.1452 13.2232 40.286 12.9887 40.286 12.7541C40.286 12.4727 40.0983 12.3319 39.8638 12.3319H32.9681V6.74974H40.6143C40.8958 6.74974 41.0365 6.51519 41.0365 6.28064C41.0365 6.13991 40.8958 5.95228 40.6143 5.76464ZM44.3202 5.10791H44.2733C44.0387 5.10791 43.898 5.29555 43.898 5.53009V18.8992C43.898 19.1807 44.0856 19.3683 44.3202 19.3683C44.6016 19.3683 44.7424 19.1338 44.7424 18.8992V5.62391C44.7424 5.29555 44.6016 5.10791 44.3202 5.10791ZM56.0006 9.89266C56.0006 9.6112 55.813 9.42356 55.5784 9.42356C55.2969 9.42356 55.1562 9.65811 55.1562 9.89266V15.4749C55.1562 17.3512 53.702 18.8523 51.9195 18.8054C50.0431 18.8054 48.9642 17.492 48.9642 15.428V9.89266C48.9642 9.6112 48.7766 9.42356 48.542 9.42356C48.3544 9.42356 48.1198 9.65811 48.1198 9.89266V15.5687C48.1198 17.9141 49.5271 19.6498 51.8257 19.6498C53.2329 19.6967 54.5464 18.8992 55.2031 17.5858V19.04C55.2031 19.3214 55.4377 19.4622 55.6253 19.4622C55.9068 19.4622 56.0475 19.2276 56.0475 19.04H56.0006V9.89266ZM63.7406 10.3618C63.9283 10.3618 64.1628 10.1741 64.1628 9.93957C64.1628 9.75193 63.9283 9.51738 63.7406 9.51738H60.7853V6.74974C60.7853 6.51519 60.5508 6.28064 60.3632 6.28064H60.3162C60.0817 6.28064 59.941 6.51519 59.941 6.74974V9.51738H58.909C58.6744 9.51738 58.4868 9.65811 58.4868 9.89266C58.4868 10.1272 58.6744 10.3618 58.909 10.3618H59.941V16.8352C59.941 18.6647 61.1137 19.556 62.4741 19.556C62.9432 19.556 63.4123 19.4622 63.8344 19.3214C63.9752 19.2276 64.1159 19.0869 64.1159 18.8992C64.1159 18.6647 63.9283 18.524 63.7406 18.524C63.4123 18.6178 63.037 18.6647 62.6617 18.6647C61.5359 18.6647 60.7853 18.1487 60.7853 16.7414V10.3618H63.7406ZM71.0116 10.3618C71.2461 10.3618 71.4337 10.1741 71.4337 9.93957C71.4337 9.75193 71.2461 9.51738 71.0116 9.51738H68.0563V6.74974C68.0563 6.51519 67.8686 6.28064 67.6341 6.28064H67.5872C67.3526 6.28064 67.2119 6.51519 67.2119 6.74974V9.51738H66.1799C65.9923 9.51738 65.7577 9.65811 65.7577 9.89266C65.7577 10.1272 65.9923 10.3618 66.1799 10.3618H67.2119V16.8352C67.2119 18.6647 68.3846 19.556 69.7919 19.556C70.2141 19.556 70.6832 19.4622 71.1054 19.3214C71.293 19.2276 71.3868 19.0869 71.3868 18.8992C71.3868 18.6647 71.2461 18.524 71.0116 18.524C70.6832 18.6178 70.3079 18.6647 69.9326 18.6647C68.8068 18.6647 68.0563 18.1487 68.0563 16.7414V10.3618H71.0116ZM77.4381 9.23593C74.9519 9.23593 73.0756 11.4876 73.0756 14.4429V14.4898C73.0756 17.6327 75.1396 19.6967 77.6258 19.6967C78.9392 19.7436 80.2996 19.1807 81.1909 18.1018C81.3316 18.008 81.3785 17.8672 81.3785 17.7734C81.3785 17.5389 81.144 17.3043 80.9563 17.3043L80.6749 17.3981C80.3027 17.832 79.8426 18.1819 79.325 18.4245C78.8075 18.6671 78.2442 18.7969 77.6727 18.8054C75.8432 18.8054 74.2014 17.3512 74.0138 14.912H81.3316C81.5192 14.912 81.7538 14.6774 81.7538 14.4429C81.7538 11.4876 80.0651 9.23593 77.4381 9.23593ZM73.9668 13.9738C74.1076 11.8159 75.5618 10.1272 77.3912 10.1272C79.5021 10.1272 80.628 11.9567 80.7218 13.9738H73.9668ZM88.9309 9.37666C87.2422 9.51738 85.8349 10.6901 85.2251 12.3789V9.93957C85.2251 9.75193 84.9905 9.51738 84.8029 9.51738C84.5214 9.51738 84.3807 9.65811 84.3338 9.93957V19.1338C84.3338 19.3683 84.5214 19.6029 84.756 19.6029C84.9905 19.6029 85.1782 19.4152 85.2251 19.1338V15.4749C85.2251 12.2381 86.9607 10.6901 88.9309 10.4556H88.9778C89.2593 10.4556 89.4 10.1741 89.4 9.93957C89.4 9.6112 89.2124 9.37666 88.9309 9.37666Z" fill="#101010"/>
<path d="M104.739 8.86087C104.129 8.86087 103.567 9.32996 103.426 9.98669L101.831 15.3343L100.283 9.98669C100.142 9.32996 99.5324 8.81396 98.8287 8.81396H98.688C97.9844 8.81396 97.3746 9.23614 97.2338 9.98669L95.6858 15.2405L94.1847 9.93978C93.9971 9.32996 93.4811 8.81396 92.8244 8.81396H92.7774C92.0738 8.81396 91.5578 9.42378 91.5578 10.1743L91.6516 10.878L94.044 18.2427C94.2316 18.9933 94.8415 19.5093 95.592 19.5562H95.6858C96.3895 19.5562 96.9524 19.0402 97.1869 18.2896L98.7349 13.0358L100.283 18.2896C100.471 19.0402 101.08 19.5562 101.784 19.5562H101.925C102.675 19.5562 103.285 19.0402 103.473 18.2427L105.865 10.7841L106.006 10.2212V10.1743C106.006 9.42378 105.443 8.86087 104.739 8.86087ZM111.635 8.86087C110.556 8.81396 109.524 9.0485 108.492 9.37687C108.07 9.56451 107.835 9.98669 107.835 10.5027C107.835 11.2063 108.351 11.7223 109.008 11.6754C109.102 11.6754 109.243 11.6754 109.383 11.5816C109.993 11.394 110.65 11.3002 111.307 11.3002C112.714 11.3002 113.418 11.9569 113.418 13.2234V13.3642C112.667 13.0827 111.823 12.9889 111.025 12.9889C108.727 12.9889 107.132 14.0678 107.132 16.3664C107.132 18.3835 108.68 19.5562 110.462 19.5562C111.588 19.6031 112.667 19.0871 113.418 18.2427C113.464 18.9933 114.027 19.5093 114.731 19.5093C115.482 19.5093 116.091 18.8525 116.091 18.0551V13.3642C116.138 12.1914 115.763 10.9718 115.012 10.0805C114.215 9.32996 113.136 8.86087 111.635 8.86087ZM113.464 15.6627C113.464 16.7885 112.526 17.4922 111.26 17.4453C110.368 17.4453 109.759 16.9762 109.759 16.1787V16.1318C109.759 15.2405 110.509 14.6776 111.682 14.6776C112.245 14.6776 112.902 14.8653 113.464 15.0998V15.6627ZM125.614 8.81396C125.051 8.81396 124.488 9.18923 124.347 9.84596L122.19 15.8973L120.126 9.89287C119.938 9.23614 119.422 8.81396 118.765 8.81396C118.062 8.81396 117.499 9.37687 117.405 10.1743C117.405 10.4089 117.499 10.6434 117.592 10.878L120.595 18.2427C120.782 18.9933 121.392 19.5093 122.143 19.5562H122.33C122.987 19.5093 123.644 19.0402 123.925 18.2896L126.834 10.9249L126.974 10.2212V10.1743C126.974 9.42378 126.411 8.81396 125.614 8.81396ZM132.885 8.76705C130.023 8.76705 128.053 11.2063 128.053 14.1616V14.6307C128.147 17.4922 130.493 19.6969 133.166 19.5562C134.386 19.5562 135.559 19.134 136.544 18.2896C136.825 18.0551 136.919 17.7736 136.919 17.4453V17.3984C136.919 16.7416 136.45 16.2256 135.84 16.2256C135.606 16.2256 135.371 16.2725 135.183 16.4602C134.637 16.931 133.935 17.1818 133.213 17.1638C132.041 17.2107 131.009 16.3664 130.868 15.0998H136.356C137.06 15.0529 137.623 14.3962 137.576 13.6456V13.4111C137.576 10.878 135.465 8.67323 132.885 8.76705ZM130.774 13.3642C131.009 12.0038 131.759 11.1594 132.885 11.1594C134.011 11.1594 134.761 12.0507 134.902 13.3642H130.774Z" fill="#101010" stroke="#101010" strokeWidth="0.0485304"/>
</g>
<defs>
<clipPath id="clip0">
<rect width="137.257" height="25.9408" fill="white" transform="translate(0.36615 0.933105)"/>
</clipPath>
</defs>
</svg>
