<svg width="40" height="40" viewBox="0 0 40 40" fill="none" xmlns="http://www.w3.org/2000/svg">
<g clip-path="url(#clip0)">
<path d="M5.20996 9.60547H29.7046V12.834H5.20996V9.60547Z" fill="#FCE476"/>
<path d="M35.4194 28.4464V25.027C33.4367 25.027 33.1313 24.0707 33.1313 22.0879H19.1036C19.1036 24.0706 18.7982 25.027 16.8154 25.027V28.4464C18.7982 28.4464 19.1036 29.4027 19.1036 31.3855H33.1313C33.1313 29.4027 33.4367 28.4464 35.4194 28.4464Z" fill="#FCE476"/>
<path d="M39.2188 17.9008H34.9136V8.54492C34.9136 6.91055 33.5839 5.58086 31.9495 5.58086H12.0798L10.9424 4.6107C10.801 4.49008 10.6213 4.42383 10.4355 4.42383H2.96406C1.32977 4.42383 0 5.75344 0 7.38789V29.4333C0 31.0677 1.32977 32.3973 2.96406 32.3973H12.2337V34.794C12.2337 35.2254 12.5835 35.5752 13.015 35.5752H39.2188C39.6502 35.5752 40 35.2254 40 34.794V18.682C40 18.2505 39.6502 17.9008 39.2188 17.9008ZM1.5625 7.38789C1.5625 6.615 2.19125 5.98633 2.96406 5.98633H10.1475L11.2849 6.95648C11.4263 7.07711 11.606 7.14336 11.7919 7.14336H31.9495C32.7223 7.14336 33.351 7.77211 33.351 8.54492V12.0541H1.5625V7.38789ZM2.96406 30.8348C2.19125 30.8348 1.5625 30.2061 1.5625 29.4333V13.6166H33.3511V17.9008H13.0151C12.5836 17.9008 12.2338 18.2506 12.2338 18.682V30.8349H2.96406V30.8348ZM38.4375 34.0127H13.7963V19.4633H38.4375V34.0127Z" fill="#101010"/>
</g>
<defs>
<clipPath id="clip0">
<rect width="40" height="40" fill="white"/>
</clipPath>
</defs>
</svg>
