<svg width="41" height="40" viewBox="0 0 41 40" fill="none" xmlns="http://www.w3.org/2000/svg">
<path d="M20.1872 31.8783C26.8114 31.8783 32.1813 26.5605 32.1813 20.0007C32.1813 13.4408 26.8114 8.12305 20.1872 8.12305C13.5631 8.12305 8.19312 13.4408 8.19312 20.0007C8.19312 26.5605 13.5631 31.8783 20.1872 31.8783Z" fill="#FCE476"/>
<path d="M38.1964 14.9887H37.6788C37.3044 13.704 36.7861 12.4652 36.1323 11.2925L36.4971 10.9312C36.9097 10.5227 37.1369 9.97942 37.1369 9.40129C37.1369 8.82315 36.9097 8.2798 36.4972 7.87138L32.4321 3.84559C31.5824 3.00414 30.1999 3.00414 29.3503 3.84559L28.9844 4.20804C27.7969 3.55759 26.5424 3.04223 25.2412 2.67056V2.16222C25.2412 0.969993 24.263 0 23.0607 0H17.3164C16.114 0 15.1359 0.969993 15.1359 2.16222V2.67056C13.8347 3.04231 12.5801 3.55759 11.3928 4.20804L11.0269 3.84575C10.1772 3.00406 8.79469 3.00422 7.94496 3.84559L3.87974 7.8713C3.46729 8.27988 3.24009 8.82323 3.24009 9.40137C3.24009 9.97942 3.46729 10.5228 3.87974 10.9312L4.24463 11.2925C3.59079 12.4652 3.07243 13.704 2.69808 14.9887H2.18051C0.978195 14.9887 0 15.9587 0 17.151V22.849C0 24.0412 0.978195 25.0112 2.18059 25.0112H2.69816C3.07251 26.296 3.59087 27.5348 4.24471 28.7074L3.87982 29.0687C3.46729 29.4772 3.24009 30.0204 3.24009 30.5986C3.24009 31.1767 3.46721 31.7201 3.87974 32.1286L7.94488 36.1543C8.79453 36.9958 10.177 36.9958 11.0267 36.1543L11.3926 35.7919C12.5799 36.4424 13.8346 36.9577 15.1358 37.3294V37.8378C15.1358 39.03 16.114 40 17.3163 40H23.0605C24.2629 40 25.241 39.03 25.241 37.8378V37.3294C26.5423 36.9577 27.7969 36.4424 28.9842 35.7919L29.3501 36.1543C30.1998 36.9958 31.5823 36.9958 32.4319 36.1543L36.4971 32.1286C36.9096 31.72 37.1368 31.1767 37.1367 30.5986C37.1367 30.0204 36.9095 29.4771 36.497 29.0687L36.1322 28.7074C36.7861 27.5347 37.3044 26.296 37.6787 25.0112H38.1963C39.3987 25.0112 40.3769 24.0412 40.3769 22.849V17.151C40.377 15.9587 39.3988 14.9887 38.1964 14.9887ZM38.7997 22.849C38.7997 23.1716 38.5291 23.434 38.1964 23.434H37.0766C36.7159 23.434 36.4012 23.6788 36.3123 24.0284C35.9189 25.5762 35.2988 27.0575 34.4692 28.4311C34.2809 28.7429 34.3306 29.1429 34.5893 29.3992L35.3873 30.1894C35.4984 30.2995 35.5596 30.4448 35.5596 30.5987C35.5596 30.7527 35.4984 30.898 35.3873 31.008L31.3221 35.0337C31.0844 35.2692 30.6977 35.269 30.46 35.0337L29.6689 34.2501C29.4141 33.9977 29.0208 33.9491 28.712 34.132C27.3238 34.9543 25.8264 35.569 24.2617 35.9589C23.9104 36.0465 23.6638 36.362 23.6638 36.7241V37.8379C23.6638 38.1604 23.3932 38.4229 23.0605 38.4229H17.3163C16.9836 38.4229 16.713 38.1604 16.713 37.8379V36.7241C16.713 36.362 16.4665 36.0465 16.1151 35.9589C14.5503 35.5689 13.053 34.9543 11.6648 34.132C11.5398 34.0579 11.4011 34.0218 11.2631 34.0218C11.0604 34.0218 10.8597 34.0998 10.7079 34.2501L9.9168 35.0337C9.67911 35.269 9.2923 35.269 9.05461 35.0337L4.98955 31.008C4.87844 30.898 4.81724 30.7527 4.81724 30.5987C4.81724 30.4449 4.87844 30.2995 4.98955 30.1894L5.78763 29.3992C6.04637 29.1429 6.09605 28.7429 5.90781 28.4311C5.07819 27.0575 4.45811 25.5762 4.06467 24.0284C3.97579 23.6787 3.66105 23.434 3.30034 23.434H2.18059C1.84788 23.434 1.57722 23.1716 1.57722 22.849V17.151C1.57722 16.8284 1.84788 16.5659 2.18059 16.5659H3.30034C3.66105 16.5659 3.97579 16.3211 4.06467 15.9716C4.45811 14.4237 5.07819 12.9425 5.90781 11.5689C6.09605 11.2571 6.04637 10.8571 5.78763 10.6008L4.98955 9.8105C4.87844 9.70049 4.81724 9.55522 4.81724 9.40129C4.81724 9.24735 4.87844 9.10193 4.98955 8.992L9.05469 4.96629C9.29238 4.73097 9.67919 4.73097 9.91688 4.96637L10.708 5.74985C10.9629 6.00229 11.3561 6.05095 11.6648 5.86807C13.0531 5.04578 14.5504 4.43106 16.1151 4.04109C16.4665 3.95355 16.7131 3.63795 16.7131 3.2759V2.16214C16.7131 1.8396 16.9837 1.57715 17.3164 1.57715H23.0606C23.3932 1.57715 23.6639 1.8396 23.6639 2.16214V3.27582C23.6639 3.63787 23.9104 3.95347 24.2618 4.04101C25.8264 4.43098 27.3238 5.0457 28.7121 5.86799C29.0208 6.05079 29.414 6.00213 29.6689 5.74977L30.4601 4.96629C30.6978 4.73097 31.0846 4.73097 31.3223 4.96629L35.3874 8.99208C35.4985 9.10209 35.5597 9.24743 35.5597 9.40129C35.5597 9.55514 35.4985 9.70056 35.3874 9.8105L34.5893 10.6008C34.3306 10.8571 34.2809 11.2571 34.4692 11.5689C35.2988 12.9425 35.9189 14.4237 36.3124 15.9716C36.4012 16.3212 36.716 16.5659 37.0767 16.5659H38.1964C38.5292 16.5659 38.7998 16.8284 38.7998 17.151V22.849H38.7997Z" fill="#101010"/>
<path d="M20.1884 13.6426C14.6744 13.6426 10.8551 19.324 10.6952 19.5658C10.5209 19.8296 10.5209 20.172 10.6952 20.4356C10.8551 20.6775 14.6744 26.3589 20.1884 26.3589C25.7024 26.3589 29.5217 20.6775 29.6815 20.4356C29.8559 20.1719 29.8559 19.8296 29.6815 19.5658C29.5217 19.324 25.7024 13.6426 20.1884 13.6426ZM20.1884 24.7817C16.3372 24.7817 13.2894 21.2541 12.3284 20.0008C13.2898 18.7469 16.3374 15.2198 20.1884 15.2198C24.0393 15.2198 27.0869 18.7469 28.0483 20.0008C27.0869 21.2547 24.0393 24.7817 20.1884 24.7817Z" fill="#101010"/>
<path d="M20.1878 16.5234C18.2705 16.5234 16.7107 18.0832 16.7107 20.0005C16.7107 21.9178 18.2705 23.4776 20.1878 23.4776C22.105 23.4776 23.6648 21.9178 23.6648 20.0005C23.6648 18.0832 22.105 16.5234 20.1878 16.5234ZM20.1878 21.9004C19.1402 21.9004 18.2879 21.0481 18.2879 20.0005C18.2879 18.9529 19.1402 18.1007 20.1878 18.1007C21.2354 18.1007 22.0876 18.9529 22.0876 20.0005C22.0876 21.0481 21.2354 21.9004 20.1878 21.9004Z" fill="#101010"/>
</svg>
