<svg width="33" height="32" viewBox="0 0 33 32" fill="none" xmlns="http://www.w3.org/2000/svg">
    <path d="M16.3381 0C7.3163 0 0 7.3449 0 16.4055C0 23.6524 4.68145 29.8004 11.1767 31.9715C11.9937 32.1227 12.2919 31.6161 12.2919 31.1811C12.2919 30.791 12.2776 29.7595 12.2694 28.391C7.72481 29.3816 6.76482 26.1912 6.76482 26.1912C6.02339 24.2958 4.95107 23.7913 4.95107 23.7913C3.46615 22.7741 5.06136 22.7945 5.06136 22.7945C6.7015 22.9109 7.56345 24.4857 7.56345 24.4857C9.02181 26.9919 11.3891 26.2688 12.3205 25.8481C12.4675 24.788 12.8903 24.065 13.3581 23.6544C9.73056 23.2398 5.91513 21.8325 5.91513 15.5477C5.91513 13.7564 6.5524 12.2919 7.59817 11.144C7.42864 10.7294 6.86899 9.06061 7.75749 6.80363C7.75749 6.80363 9.13006 6.36245 12.251 8.48462C13.5542 8.12106 14.9512 7.93927 16.3422 7.93314C17.7291 7.94131 19.1282 8.12106 20.4334 8.48667C23.5523 6.36449 24.9228 6.80567 24.9228 6.80567C25.8134 9.0647 25.2537 10.7314 25.0862 11.146C26.134 12.2939 26.7652 13.7584 26.7652 15.5497C26.7652 21.8509 22.9457 23.2377 19.3059 23.6442C19.8921 24.1507 20.415 25.1516 20.415 26.6814C20.415 28.8751 20.3946 30.6439 20.3946 31.1811C20.3946 31.6202 20.6887 32.1309 21.5179 31.9695C28.0029 29.7963 32.6803 23.6503 32.6803 16.4055C32.6803 7.3449 25.364 0 16.3381 0Z" fill="black"/>
</svg>
