<svg width="26" height="24" viewBox="0 0 26 24" fill="none" xmlns="http://www.w3.org/2000/svg">
<path d="M3.19751 9.32959H14.0776V20.74H3.19751V9.32959Z" fill="#D1D5FA"/>
<path d="M24.2236 5.47392H21.3723V3.76595C21.3723 2.95596 20.7066 2.29702 19.8884 2.29702H15.5655V0.507069C15.5655 0.227015 15.3385 0 15.0584 0H10.9035C10.6235 0 10.3964 0.227015 10.3964 0.507069V2.29702H6.11658C5.29837 2.29702 4.63269 2.95596 4.63269 3.76595V5.47392H1.73834C0.779822 5.47392 0 6.25374 0 7.2123V22.2616C0 23.2201 0.779822 24 1.73839 24H24.2236C25.1821 24 25.962 23.2202 25.962 22.2616V7.2123C25.962 6.25374 25.1821 5.47392 24.2236 5.47392ZM14.5514 1.01414V3.53311H11.4268L11.4106 1.01414H14.5514ZM5.64683 3.76595C5.64683 3.51521 5.85756 3.31116 6.11658 3.31116H10.3964V4.04018C10.3964 4.11766 10.4138 4.19108 10.4449 4.2568C10.5171 4.44882 10.7024 4.58548 10.9197 4.58548H15.0853C15.3653 4.58548 15.5923 4.35846 15.5923 4.07841V3.31121H19.8884C20.1474 3.31121 20.3581 3.51521 20.3581 3.766V5.47397H5.64683V3.76595ZM24.9478 22.2616C24.9478 22.6609 24.6229 22.9859 24.2236 22.9859H1.73839C1.33907 22.9859 1.01414 22.661 1.01414 22.2616V7.2123C1.01414 6.81298 1.33902 6.48811 1.73839 6.48811H5.04808C5.07784 6.49353 5.10847 6.49642 5.13981 6.49642H20.8653C20.8966 6.49642 20.9273 6.49358 20.957 6.48811H24.2236C24.623 6.48811 24.9479 6.81298 24.9479 7.2123V22.2616H24.9478Z" fill="#101010"/>
<path d="M10.5413 14.7638C10.8002 14.3894 10.952 13.9353 10.952 13.4463C10.952 12.1676 9.9138 11.1272 8.63771 11.1272C7.36162 11.1272 6.32339 12.1676 6.32339 13.4463C6.32339 13.9353 6.47521 14.3894 6.73407 14.7638C6.11651 14.8513 5.64001 15.3833 5.64001 16.0246V18.4353C5.64001 18.7154 5.86703 18.9424 6.14708 18.9424H11.1282C11.4083 18.9424 11.6353 18.7154 11.6353 18.4353V16.0246C11.6353 15.3833 11.1588 14.8513 10.5413 14.7638ZM8.63766 12.1414C9.3546 12.1414 9.93783 12.7267 9.93783 13.4463C9.93783 14.1659 9.35455 14.7513 8.63766 14.7513C7.92076 14.7513 7.33748 14.1659 7.33748 13.4463C7.33753 12.7267 7.92076 12.1414 8.63766 12.1414ZM10.6212 17.9283H6.65415V16.0246C6.65415 15.8817 6.77042 15.7654 6.91337 15.7654H10.3619C10.5049 15.7654 10.6212 15.8817 10.6212 16.0246V17.9283Z" fill="#101010"/>
<path d="M16.7938 13.2514H20.2925C20.5725 13.2514 20.7996 13.0244 20.7996 12.7444C20.7996 12.4643 20.5725 12.2373 20.2925 12.2373H16.7938C16.5138 12.2373 16.2867 12.4643 16.2867 12.7444C16.2867 13.0244 16.5138 13.2514 16.7938 13.2514Z" fill="#101010"/>
<path d="M22.227 14.5276H16.7938C16.5138 14.5276 16.2867 14.7546 16.2867 15.0347C16.2867 15.3147 16.5138 15.5417 16.7938 15.5417H22.227C22.5071 15.5417 22.7341 15.3147 22.7341 15.0347C22.7341 14.7546 22.5071 14.5276 22.227 14.5276Z" fill="#101010"/>
<path d="M22.227 16.8181H16.7938C16.5138 16.8181 16.2867 17.0451 16.2867 17.3252C16.2867 17.6052 16.5138 17.8323 16.7938 17.8323H22.227C22.5071 17.8323 22.7341 17.6052 22.7341 17.3252C22.7341 17.0451 22.5071 16.8181 22.227 16.8181Z" fill="#101010"/>
</svg>
