<svg width="44" height="40" viewBox="0 0 44 40" fill="none" xmlns="http://www.w3.org/2000/svg">
<path d="M5.32715 15.5508H23.4607V34.5682H5.32715V15.5508Z" fill="#FCE476"/>
<path d="M40.3726 9.12319H35.6205V6.27659C35.6205 4.9266 34.5111 3.82837 33.1474 3.82837H25.9425V0.845116C25.9425 0.378358 25.5642 0 25.0974 0H18.1725C17.7058 0 17.3274 0.378358 17.3274 0.845116V3.82837H10.1943C8.83061 3.82837 7.72115 4.9266 7.72115 6.27659V9.12319H2.89723C1.2997 9.12319 0 10.4229 0 12.0205V37.1027C0 38.7002 1.2997 40 2.89731 40H40.3727C41.9702 40 43.27 38.7003 43.27 37.1027V12.0205C43.2699 10.4229 41.9702 9.12319 40.3726 9.12319ZM24.2523 1.69023V5.88851H19.0447L19.0177 1.69023H24.2523ZM9.41138 6.27659C9.41138 5.85868 9.76261 5.51861 10.1943 5.51861H17.3274V6.73363C17.3274 6.86276 17.3564 6.98513 17.4082 7.09466C17.5285 7.41471 17.8373 7.64247 18.1995 7.64247H25.1421C25.6089 7.64247 25.9872 7.26411 25.9872 6.79735V5.51869H33.1473C33.579 5.51869 33.9302 5.85868 33.9302 6.27667V9.12328H9.41138V6.27659ZM41.5797 37.1027C41.5797 37.7682 41.0382 38.3098 40.3726 38.3098H2.89731C2.23178 38.3098 1.69023 37.7683 1.69023 37.1027V12.0205C1.69023 11.355 2.2317 10.8135 2.89731 10.8135H8.41346C8.46307 10.8226 8.51412 10.8274 8.56635 10.8274H34.7755C34.8277 10.8274 34.8788 10.8226 34.9284 10.8135H40.3727C41.0383 10.8135 41.5798 11.355 41.5798 12.0205V37.1027H41.5797Z" fill="#101010"/>
<path d="M17.5682 24.606C17.9996 23.982 18.2528 23.2251 18.2528 22.4101C18.2528 20.2788 16.5224 18.5449 14.3956 18.5449C12.2688 18.5449 10.5384 20.2788 10.5384 22.4101C10.5384 23.2251 10.7914 23.982 11.2228 24.606C10.1936 24.7517 9.39941 25.6385 9.39941 26.7073V30.7252C9.39941 31.1919 9.77777 31.5703 10.2445 31.5703H18.5464C19.0132 31.5703 19.3916 31.1919 19.3916 30.7252V26.7073C19.3916 25.6385 18.5974 24.7517 17.5682 24.606ZM14.3955 20.2352C15.5904 20.2352 16.5624 21.2108 16.5624 22.4101C16.5624 23.6094 15.5903 24.585 14.3955 24.585C13.2007 24.585 12.2285 23.6094 12.2285 22.4101C12.2286 21.2108 13.2007 20.2352 14.3955 20.2352ZM17.7013 29.88H11.0896V26.7073C11.0896 26.4691 11.2834 26.2753 11.5217 26.2753H17.2693C17.5075 26.2753 17.7013 26.4691 17.7013 26.7073V29.88Z" fill="#101010"/>
<path d="M27.9887 22.0848H33.8198C34.2866 22.0848 34.6649 21.7064 34.6649 21.2396C34.6649 20.7729 34.2866 20.3945 33.8198 20.3945H27.9887C27.5219 20.3945 27.1436 20.7729 27.1436 21.2396C27.1436 21.7064 27.5219 22.0848 27.9887 22.0848Z" fill="#101010"/>
<path d="M37.044 24.2129H27.9887C27.5219 24.2129 27.1436 24.5912 27.1436 25.058C27.1436 25.5248 27.5219 25.9031 27.9887 25.9031H37.044C37.5108 25.9031 37.8891 25.5248 37.8891 25.058C37.8891 24.5912 37.5108 24.2129 37.044 24.2129Z" fill="#101010"/>
<path d="M37.044 28.0312H27.9887C27.5219 28.0312 27.1436 28.4096 27.1436 28.8764C27.1436 29.3431 27.5219 29.7215 27.9887 29.7215H37.044C37.5108 29.7215 37.8891 29.3431 37.8891 28.8764C37.8891 28.4096 37.5108 28.0312 37.044 28.0312Z" fill="#101010"/>
</svg>
