<svg width="37" height="32" viewBox="0 0 37 32" fill="none" xmlns="http://www.w3.org/2000/svg">
<path d="M18.2835 14.035L23.9987 4.42969L12.9716 5.63922L14.6229 8.24918L1.19629 16.9222L3.20563 20.0981L16.6323 11.4251L18.2835 14.035Z" fill="#FCE476"/>
<path d="M35.2351 3.5856L36.0107 0.899056C36.072 0.686486 36.0299 0.457517 35.8969 0.280775C35.764 0.103962 35.5556 0 35.3344 0H27.9983C27.6095 0 27.2944 0.315194 27.2944 0.703872V11.9463H25.1909C24.8021 11.9463 24.487 12.2615 24.487 12.6502V15.5616H22.5394C22.1506 15.5616 21.8355 15.8767 21.8355 16.2654V19.9705H11.6216C11.2329 19.9705 10.9178 20.2857 10.9178 20.6744V24.3795H0.703872C0.315124 24.3795 0 24.6947 0 25.0833V31.2961C0 31.6848 0.315124 32 0.703872 32H33.4572C33.846 32 34.1611 31.6848 34.1611 31.2961V16.2654C34.1611 15.8768 33.846 15.5616 33.4572 15.5616H31.5097V12.6502C31.5097 12.2615 31.1946 11.9463 30.8058 11.9463H28.7022V7.17126H35.3344C35.5556 7.17126 35.764 7.0673 35.8969 6.89049C36.0299 6.71374 36.072 6.4847 36.0107 6.27221L35.2351 3.5856ZM1.40774 25.7871H10.9178V30.5922H1.40774V25.7871ZM12.3255 21.3782H21.8355V30.5921H12.3255V21.3782ZM32.7534 30.5922H23.2433V16.9693H32.7533V30.5922H32.7534ZM30.1019 15.5616H25.8948V13.3541H30.1019V15.5616ZM33.8263 3.78085L34.3986 5.76352H28.7021V1.40774H34.3986L33.8263 3.39041C33.7895 3.51795 33.7895 3.65324 33.8263 3.78085Z" fill="#101010"/>
</svg>
