<svg width="32" height="32" viewBox="0 0 32 32" fill="none" xmlns="http://www.w3.org/2000/svg">
<path d="M13.8933 16.0002C13.8933 14.8452 14.8296 13.9089 15.9846 13.9089V4.06152C9.39102 4.06152 4.0459 9.40665 4.0459 16.0002V16.0018C4.04677 22.5946 9.39159 27.9389 15.9846 27.9389V18.0915C14.8296 18.0915 13.8933 17.1552 13.8933 16.0002Z" fill="#FCE476"/>
<path d="M15.9847 3.43652C15.6396 3.43652 15.3597 3.7164 15.3597 4.06152V13.3565C14.1622 13.6396 13.2684 14.7175 13.2684 16.0002C13.2684 16.3458 13.3334 16.6766 13.4516 16.981L8.78425 20.9388C8.521 21.1621 8.48856 21.5565 8.71181 21.8198C8.83544 21.9655 9.0115 22.0405 9.18881 22.0405C9.33169 22.0405 9.47525 21.9918 9.59275 21.8922L14.1649 18.0151C14.4987 18.3169 14.9076 18.5371 15.3598 18.644V27.939C15.3598 28.2841 15.6396 28.564 15.9848 28.564C22.9124 28.564 28.5485 22.9279 28.5485 16.0002C28.5485 9.07252 22.9124 3.43652 15.9847 3.43652ZM14.5184 16.0003C14.5184 15.1918 15.1762 14.534 15.9847 14.534C16.7932 14.534 17.451 15.1917 17.451 16.0003C17.451 16.8088 16.7932 17.4666 15.9847 17.4666C15.1762 17.4666 14.5184 16.8088 14.5184 16.0003ZM16.6097 27.297V18.644C17.6065 18.4084 18.3927 17.6221 18.6284 16.6255L21.6195 16.6268H21.6198C21.9649 16.6268 22.2446 16.3471 22.2448 16.0021C22.245 15.657 21.9653 15.377 21.6201 15.3768L18.6286 15.3755C18.393 14.3786 17.6066 13.5921 16.6098 13.3566V4.70359C22.5586 5.02921 27.2986 9.97165 27.2986 16.0003C27.2986 22.0289 22.5585 26.9713 16.6097 27.297Z" fill="#101010"/>
<path d="M27.3137 4.68625C24.2917 1.66431 20.2738 0 16 0C11.7262 0 7.70831 1.66431 4.68631 4.68625C1.66425 7.70831 0 11.7262 0 16C0 20.2738 1.66425 24.2917 4.68631 27.3137C7.70831 30.3357 11.7262 32 16 32C20.2738 32 24.2917 30.3357 27.3137 27.3137C30.3357 24.2917 32 20.2738 32 16C32 11.7262 30.3357 7.70831 27.3137 4.68625ZM16 30.75C7.86681 30.75 1.25 24.1332 1.25 16C1.25 7.86681 7.86681 1.25 16 1.25C24.1332 1.25 30.75 7.86681 30.75 16C30.75 24.1332 24.1332 30.75 16 30.75Z" fill="#101010"/>
</svg>
