<svg width="44" height="40" viewBox="0 0 44 40" fill="none" xmlns="http://www.w3.org/2000/svg">
<path d="M13.7248 17.492C14.7004 15.1385 13.5833 12.4397 11.2298 11.4642C8.87622 10.4886 6.17747 11.6057 5.20193 13.9593C4.22638 16.3128 5.34346 19.0115 7.697 19.9871C10.0505 20.9626 12.7493 19.8455 13.7248 17.492Z" fill="#FCE476"/>
<path d="M9.31786 16.9974C9.17506 16.9974 9.03125 16.9614 8.90057 16.8873L8.10676 16.4377C7.69947 16.2071 7.55633 15.69 7.78692 15.2827C8.01752 14.8755 8.53464 14.7322 8.94193 14.963L9.17481 15.0948L9.86337 14.4063C10.1943 14.0755 10.7308 14.0755 11.0618 14.4063C11.3928 14.7372 11.3928 15.2738 11.0618 15.6048L9.91735 16.7492C9.75422 16.9123 9.53727 16.9974 9.31786 16.9974Z" fill="#101010"/>
<path d="M9.45864 34.552C12.0058 34.552 14.0706 32.4872 14.0706 29.9401C14.0706 27.393 12.0058 25.3281 9.45864 25.3281C6.91152 25.3281 4.84668 27.393 4.84668 29.9401C4.84668 32.4872 6.91152 34.552 9.45864 34.552Z" fill="#FCE476"/>
<path d="M9.31786 31.2163C9.17506 31.2163 9.03125 31.1803 8.90057 31.1062L8.10676 30.6566C7.69947 30.426 7.55633 29.9089 7.78692 29.5016C8.01752 29.0943 8.53464 28.9511 8.94193 29.1819L9.17481 29.3137L9.86337 28.6251C10.1943 28.2942 10.7309 28.2942 11.0618 28.6251C11.3928 28.956 11.3929 29.4926 11.0619 29.8236L9.91752 30.9681C9.75422 31.1312 9.53727 31.2163 9.31786 31.2163Z" fill="#101010"/>
<path d="M41.3569 0H36.4578C35.3368 0 34.4248 0.912036 34.4248 2.03297V33.013C34.4248 33.0135 34.4248 33.3015 34.549 33.4547L38.1781 39.5843C38.3307 39.8419 38.6079 40 38.9074 40C39.2068 40 39.4841 39.8419 39.6366 39.5843L43.2658 33.4547C43.3701 33.2943 43.3899 33.0135 43.3899 33.013V2.03297C43.3898 0.912036 42.4778 0 41.3569 0ZM36.1197 32.1656V7.03391H38.0599V32.1656H36.1197ZM39.7547 7.03391H41.6949V32.1656H39.7547V7.03391ZM36.1197 2.03297C36.1197 1.84661 36.2714 1.69492 36.4578 1.69492H41.3569C41.5433 1.69492 41.6949 1.84661 41.6949 2.03297V5.33899H36.1197V2.03297ZM38.9073 37.4892L36.7588 33.8605H41.0557L38.9073 37.4892Z" fill="#101010"/>
<path d="M27.5873 16.1348H17.199C16.731 16.1348 16.3516 16.5142 16.3516 16.9822C16.3516 17.4502 16.731 17.8297 17.199 17.8297H27.5873C28.0554 17.8297 28.4348 17.4502 28.4348 16.9822C28.4348 16.5143 28.0554 16.1348 27.5873 16.1348Z" fill="#101010"/>
<path d="M17.199 12.7539C16.731 12.7539 16.3516 13.1334 16.3516 13.6014C16.3516 14.0694 16.731 14.4488 17.199 14.4488H23.9523C24.4203 14.4488 24.7997 14.0694 24.7997 13.6014C24.7997 13.1334 24.4203 12.7539 23.9523 12.7539H17.199Z" fill="#101010"/>
<path d="M27.5873 30.3535H17.199C16.731 30.3535 16.3516 30.733 16.3516 31.201C16.3516 31.6689 16.731 32.0484 17.199 32.0484H27.5873C28.0554 32.0484 28.4348 31.6689 28.4348 31.201C28.4348 30.7329 28.0554 30.3535 27.5873 30.3535Z" fill="#101010"/>
<path d="M17.199 28.6676H23.9523C24.4203 28.6676 24.7997 28.2881 24.7997 27.8201C24.7997 27.3521 24.4203 26.9727 23.9523 26.9727H17.199C16.731 26.9727 16.3516 27.3521 16.3516 27.8201C16.3516 28.2881 16.731 28.6676 17.199 28.6676Z" fill="#101010"/>
<path d="M30.1718 0.0429688H2.2606C1.01407 0.0429688 0 1.05704 0 2.30357V37.6977C0 38.9442 1.01407 39.9583 2.2606 39.9583H30.1718C31.4183 39.9583 32.4324 38.9442 32.4324 37.6977V2.30357C32.4324 1.05704 31.4182 0.0429688 30.1718 0.0429688ZM30.7374 37.6977C30.7374 38.0097 30.4837 38.2634 30.1718 38.2634H2.2606C1.94865 38.2634 1.69492 38.0097 1.69492 37.6977V2.30357C1.69492 1.99162 1.94865 1.73789 2.2606 1.73789H30.1718C30.4837 1.73789 30.7374 1.99162 30.7374 2.30357V37.6977Z" fill="#101010"/>
<path d="M25.6907 6.66582C25.6907 6.19785 25.3113 5.81836 24.8432 5.81836H7.58867C7.12062 5.81836 6.74121 6.19785 6.74121 6.66582C6.74121 7.13379 7.12062 7.51328 7.58867 7.51328H24.8432C25.3113 7.51328 25.6907 7.13387 25.6907 6.66582Z" fill="#101010"/>
</svg>
