<svg width="80" height="56" viewBox="0 0 80 56" fill="none" xmlns="http://www.w3.org/2000/svg">
<path d="M46.9282 23.8537V33.342H44.1766V31.9563C43.8957 32.4378 43.488 32.8328 42.9979 33.0984C42.4907 33.3652 41.9246 33.5004 41.3516 33.4916C40.1663 33.4916 39.2804 33.1608 38.694 32.4991C38.1076 31.8375 37.8151 30.8393 37.8163 29.5047V23.8537H40.6385V29.5612C40.6385 30.7089 41.1311 31.2827 42.1164 31.2827C42.7022 31.2827 43.1763 31.0833 43.5388 30.6844C43.9013 30.2856 44.0822 29.7616 44.0816 29.1125V23.8537H46.9282ZM57.7185 19.5264V33.342H54.9301V31.9384C54.6412 32.4262 54.2197 32.8219 53.7147 33.0795C53.1647 33.3604 52.5542 33.5019 51.9367 33.4916C51.1659 33.5043 50.409 33.2857 49.7636 32.8641C49.1126 32.4289 48.5972 31.8193 48.2763 31.1049C47.9207 30.3523 47.7429 29.4884 47.7429 28.5132C47.7429 27.538 47.9207 26.6803 48.2763 25.9403C48.5967 25.2385 49.109 24.6417 49.7542 24.2188C50.4064 23.8074 51.1649 23.5965 51.9358 23.612C52.5398 23.6046 53.1367 23.7427 53.6761 24.0146C54.1786 24.2633 54.6003 24.6491 54.8925 25.1275V19.5264H57.7185ZM54.3732 30.6186C54.7495 30.1388 54.9377 29.4489 54.9377 28.549C54.9377 27.6628 54.7473 26.9798 54.3666 26.5C53.9859 26.0203 53.4529 25.7801 52.7674 25.7794C52.0681 25.7794 51.5253 26.0165 51.139 26.4906C50.7526 26.9648 50.5595 27.6383 50.5595 28.5113C50.5595 29.4094 50.7526 30.1049 51.139 30.5979C51.5253 31.0908 52.0681 31.3373 52.7674 31.3373C53.4616 31.3385 53.9969 31.099 54.3732 30.6186ZM68.5087 23.8537V33.342H65.7194V31.9384C65.4305 32.4265 65.0086 32.8223 64.503 33.0795C63.9532 33.3596 63.343 33.5005 62.726 33.4897C61.9557 33.5105 61.1967 33.3019 60.5452 32.8904C59.8938 32.4788 59.3794 31.8829 59.0675 31.1783C58.7119 30.4364 58.5341 29.5787 58.5341 28.6054C58.5341 27.6321 58.7119 26.7647 59.0675 26.0033C59.3865 25.2856 59.9021 24.6727 60.5548 24.2357C61.2 23.8157 61.9562 23.5985 62.726 23.612C63.3453 23.602 63.957 23.7503 64.503 24.0428C65.0071 24.3107 65.4279 24.712 65.7194 25.2028V23.8537H68.5087ZM65.1587 30.627C65.535 30.1529 65.7232 29.4668 65.7232 28.5687C65.7232 27.6706 65.535 26.9808 65.1587 26.4991C64.7824 26.0181 64.2459 25.7779 63.5491 25.7785C62.8524 25.7791 62.3096 26.029 61.9207 26.5283C61.5344 27.03 61.3409 27.7227 61.3403 28.6063C61.3397 29.49 61.53 30.1667 61.9113 30.6364C62.292 31.1037 62.8379 31.3376 63.5491 31.3382C64.2472 31.3389 64.7837 31.1021 65.1587 30.628V30.627ZM37.2415 33.4756H33.7354L29.9631 29.1736V33.4756H27.1014V19.5264H29.9631V27.9977L33.5642 23.8857H36.995L32.9198 28.4953L37.2415 33.4756ZM19.2613 33.4803L13.7693 27.1586L16.7683 33.4803H14.6893L11.63 27.0353L12.9019 33.4803H11.6244L10.3516 27.0259V33.4803H9.85018V19.5264H10.3516V26.4878L11.6423 19.5264H12.916L11.6197 26.5179L14.7382 19.5264H16.7947L13.6884 26.4925L19.329 19.5264H22.552L16.7175 26.7333L22.5792 33.4803H19.2613Z" fill="#41276D"/>
<path d="M70.879 33.3273C71.7347 33.3273 72.4284 32.6336 72.4284 31.7779C72.4284 30.9222 71.7347 30.2285 70.879 30.2285C70.0233 30.2285 69.3296 30.9222 69.3296 31.7779C69.3296 32.6336 70.0233 33.3273 70.879 33.3273Z" fill="#41276D"/>
</svg>
