<svg width="44" height="60" viewBox="0 0 44 60" fill="none" xmlns="http://www.w3.org/2000/svg">
    <path d="M25.1605 14.8398H14.8379V18.0656H25.1605V14.8398Z" fill="#FCE476"/>
    <path d="M39.3537 29.6758H25.1602V32.9015H39.3537V29.6758Z" fill="#FCE476"/>
    <path d="M14.8381 29.6758H0.644531V32.9015H14.8381V29.6758Z" fill="#FCE476"/>
    <path d="M25.8064 34.1936V33.5484H40V27.911L34.8388 26.3233V20.2156C34.8388 17.4944 33.7246 10.9685 30.9678 10.9685C28.211 10.9685 27.0969 17.4944 27.0969 20.2156V20.5421L25.8066 19.1085V13.5484C25.8064 9.69158 24.0793 0 20 0C15.9207 0 14.1936 9.69158 14.1936 13.5484V19.1071L12.9033 20.5407V20.2142C12.9033 17.4937 11.7891 10.9678 9.03233 10.9678C6.27554 10.9678 5.16137 17.4937 5.16137 20.2149V26.3226L0 27.9103V33.5484H14.1936V34.1936C14.1936 35.2529 14.8362 36.1639 15.751 36.5607C15.0891 37.3974 13.5387 38.7097 10.3226 38.7097V40C14.7968 40 16.6052 37.7246 17.1651 36.7743H22.8349C23.3948 37.7246 25.2032 40 29.6774 40V38.7097C26.4613 38.7097 24.9109 37.3974 24.2491 36.5607C25.1638 36.1639 25.8064 35.2528 25.8064 34.1936ZM28.387 20.2148C28.387 16.9278 29.7212 12.2581 30.9677 12.2581C32.2142 12.2581 33.5484 16.9278 33.5484 20.2148V25.9258L31.6129 25.3303V20H30.3226V24.1251L28.3871 21.9749L28.387 20.2148ZM30.6071 26.3703L38.7096 28.8631V32.2579H25.8064V21.036L30.6071 26.3703ZM20 1.29027C21.1432 1.29027 22.2033 2.93096 23.0083 5.16123H16.9917C17.7967 2.93096 18.8568 1.29027 20 1.29027ZM16.5729 6.45164H19.3549V12.2581H20.6452V6.45164H23.4272C24.1027 8.76191 24.5162 11.4342 24.5162 13.5484V14.1936H15.484V13.5484C15.4838 11.4342 15.8975 8.76191 16.5729 6.45164ZM6.45164 20.2148C6.45164 16.9278 7.78584 12.2581 9.03233 12.2581C10.2788 12.2581 11.613 16.9278 11.613 20.2148V21.9749L9.67754 24.1251V20H8.38726V25.3303L6.45178 25.9258V20.2148H6.45164ZM1.29041 32.2581V28.8633L9.39293 26.3704L14.1936 21.0362V32.2582H1.29041V32.2581ZM23.2258 35.4838H20.6451V32.2581H19.3548V35.4838H16.7741C16.0625 35.4838 15.4838 34.9051 15.4838 34.1936V15.4838H19.3548V18.0645H20.6451V15.4838H24.516V34.1934C24.516 34.9051 23.9373 35.4838 23.2258 35.4838Z" fill="#101010"/>
    <path d="M20.6457 27.0977H19.3555V28.3879H20.6457V27.0977Z" fill="#101010"/>
    <path d="M20.6457 29.6758H19.3555V30.9661H20.6457V29.6758Z" fill="#101010"/>
</svg>