<svg width="34" height="40" viewBox="0 0 34 40" fill="none" xmlns="http://www.w3.org/2000/svg">
<path d="M7.98975 18.6914V35.7838H4.21857V18.6914H7.98975Z" fill="#FCE476"/>
<path d="M18.6367 18.6914V35.7838H14.8655V18.6914H18.6367Z" fill="#FCE476"/>
<path d="M29.2827 18.6914V35.7837H25.5115V18.6914H29.2827Z" fill="#FCE476"/>
<path d="M6.10473 9.08984C4.53012 9.08984 3.24902 10.3709 3.24902 11.9455C3.24902 13.5202 4.53004 14.8013 6.10473 14.8013C7.67941 14.8013 8.96051 13.5202 8.96051 11.9455C8.96051 10.3709 7.67949 9.08984 6.10473 9.08984ZM6.10473 13.2388C5.39168 13.2388 4.81152 12.6586 4.81152 11.9455C4.81152 11.2324 5.39168 10.6523 6.10473 10.6523C6.81785 10.6523 7.39801 11.2325 7.39801 11.9455C7.39801 12.6586 6.81785 13.2388 6.10473 13.2388Z" fill="#101010"/>
<path d="M4.21875 5.97656H7.98992C8.42133 5.97656 8.77117 5.6268 8.77117 5.19531C8.77117 4.76383 8.42133 4.41406 7.98992 4.41406H4.21875C3.78734 4.41406 3.4375 4.76383 3.4375 5.19531C3.4375 5.6268 3.78727 5.97656 4.21875 5.97656Z" fill="#101010"/>
<path d="M16.7502 9.08984C15.1756 9.08984 13.8945 10.3709 13.8945 11.9455C13.8945 13.5202 15.1755 14.8013 16.7502 14.8013C18.3249 14.8013 19.6059 13.5202 19.6059 11.9455C19.6059 10.3709 18.3248 9.08984 16.7502 9.08984ZM16.7502 13.2388C16.0372 13.2388 15.457 12.6586 15.457 11.9455C15.457 11.2324 16.0372 10.6523 16.7502 10.6523C17.4633 10.6523 18.0434 11.2325 18.0434 11.9455C18.0434 12.6586 17.4633 13.2388 16.7502 13.2388Z" fill="#101010"/>
<path d="M14.8647 5.97656H18.6359C19.0673 5.97656 19.4172 5.6268 19.4172 5.19531C19.4172 4.76383 19.0673 4.41406 18.6359 4.41406H14.8647C14.4333 4.41406 14.0835 4.76383 14.0835 5.19531C14.0835 5.6268 14.4333 5.97656 14.8647 5.97656Z" fill="#101010"/>
<path d="M31.3445 0H23.4488C22.9265 0 22.447 0.186641 22.0735 0.496641C21.7 0.186641 21.2205 0 20.6983 0H12.8027C12.2805 0 11.801 0.186641 11.4274 0.496641C11.0539 0.186641 10.5745 0 10.0522 0H2.15648C0.967422 0 0 0.967422 0 2.15656V37.8435C0 39.0327 0.967422 40 2.15648 40H10.0521C10.5744 40 11.0538 39.8134 11.4274 39.5034C11.8009 39.8134 12.2804 40 12.8027 40H20.6983C21.2205 40 21.6999 39.8134 22.0735 39.5034C22.447 39.8134 22.9266 40 23.4488 40H31.3444C32.5334 40 33.5009 39.0326 33.5009 37.8435V2.15656C33.5009 0.967422 32.5334 0 31.3445 0V0ZM10.0522 38.4375H2.15648C1.82898 38.4375 1.5625 38.171 1.5625 37.8435V2.15656C1.5625 1.82906 1.82891 1.5625 2.15648 1.5625H10.0521C10.3796 1.5625 10.6462 1.82898 10.6462 2.15656V37.8435C10.6462 38.171 10.3797 38.4375 10.0522 38.4375ZM20.6983 38.4375H12.8027C12.4752 38.4375 12.2087 38.171 12.2087 37.8435V2.15656C12.2087 1.82906 12.4751 1.5625 12.8027 1.5625H20.6983C21.0258 1.5625 21.2923 1.82898 21.2923 2.15656V37.8435C21.2923 38.171 21.0259 38.4375 20.6983 38.4375ZM31.9384 37.8435C31.9384 38.171 31.672 38.4375 31.3444 38.4375H23.4488C23.1213 38.4375 22.8547 38.171 22.8547 37.8435V2.15656C22.8547 1.82906 23.1212 1.5625 23.4488 1.5625H31.3444C31.6719 1.5625 31.9384 1.82898 31.9384 2.15656V37.8435Z" fill="#101010"/>
<path d="M27.3968 9.08984C25.8221 9.08984 24.541 10.3709 24.541 11.9455C24.541 13.5202 25.822 14.8013 27.3968 14.8013C28.9714 14.8013 30.2525 13.5202 30.2525 11.9455C30.2524 10.3709 28.9714 9.08984 27.3968 9.08984ZM27.3968 13.2388C26.6837 13.2388 26.1035 12.6586 26.1035 11.9455C26.1035 11.2324 26.6837 10.6523 27.3968 10.6523C28.1098 10.6523 28.69 11.2325 28.69 11.9455C28.6899 12.6586 28.1098 13.2388 27.3968 13.2388Z" fill="#101010"/>
<path d="M25.5112 5.97656H29.2824C29.7138 5.97656 30.0637 5.6268 30.0637 5.19531C30.0637 4.76383 29.7138 4.41406 29.2824 4.41406H25.5112C25.0798 4.41406 24.73 4.76383 24.73 5.19531C24.73 5.6268 25.0797 5.97656 25.5112 5.97656Z" fill="#101010"/>
</svg>
