<svg viewBox="0 0 34 28" xmlns="http://www.w3.org/2000/svg">
    <path d="m18.438 25.685 14.795-25.624v-0.02149c-0.7791 1.1528-2.0983 1.9113-3.5932 1.9113h-25.021c-2.3918 0-4.3337 1.942-4.3337 4.3339 0 0.79577 0.21488 1.5417 0.58987 2.1829l9.9419 17.217c0.7342 1.3508 2.1659 2.2688 3.8104 2.2688 1.6443 0 3.0762-0.918 3.8104-2.2688z" clipRule="evenodd" fill="#007499" fillRule="evenodd"/>
    <path d="m5.8509 17.086c-0.35753-0.63-0.5617-1.3584-0.5617-2.134 0-2.3918 1.9419-4.3337 4.3338-4.3337h2.5021l-3.696-6.3988c-0.73421-1.3509-2.1659-2.2687-3.8103-2.2687-2.3919 0-4.3337 1.9419-4.3337 4.3338 0 0.79573 0.215 1.5417 0.58987 2.183l4.976 8.6185z" clipRule="evenodd" fill="#007499" fillRule="evenodd"/>
    <path d="m15.822 17.022-3.6973-6.4038h-2.5083c-2.3919 0-4.3276 1.9418-4.3276 4.3337 0 0.7989 0.21657 1.5474 0.59421 2.1904l4.9334 8.5422c-0.3337-0.6141-0.5233-1.3176-0.5233-2.0651 0-2.3918 1.9419-4.3337 4.3338-4.3337h5.0042c-1.6444 0-3.0761-0.9178-3.8104-2.2688l0.0013 0.0051z" clipRule="evenodd" fill="#00ACE6" fillRule="evenodd"/>
    <path d="m18.438 25.685 4.8999-8.4861c-0.7605 1.251-2.1363 2.0873-3.706 2.0873h-5.0042c-2.3919 0-4.3338 1.9419-4.3338 4.3338 0 2.3918 1.9419 4.3337 4.3338 4.3337 1.6444 0 3.0761-0.9178 3.8103-2.2687z" clipRule="evenodd" fill="#66D9FF" fillRule="evenodd"/>
    <path d="m23.404 17.087c-0.7451 1.3131-2.1558 2.1997-3.7721 2.1997-1.6444 0-3.0761-0.9178-3.8104-2.2687l-3.696-6.3988h12.51c1.5696 0 2.9456-0.83626 3.7059-2.0873l-4.9379 8.5551z" clipRule="evenodd" fill="#00BFFF" fillRule="evenodd"/>
    <path d="m8.3248 4.0385c-0.76046-1.251-2.1363-2.0873-3.706-2.0873h10.008c1.5697 0 2.9455 0.8363 3.706 2.0873l2.5212 4.3642c0.7426 1.322 2.1583 2.216 3.7812 2.216h-12.51l-3.8003-6.5802z" clipRule="evenodd" fill="#0086B3" fillRule="evenodd"/>
    <path d="m14.627 1.9514c1.5696 0 2.9454 0.83636 3.7059 2.0873l2.5213 4.3644c0.7426 1.3219 2.1582 2.216 3.7811 2.216 1.5697 0 2.9456-0.83639 3.7061-2.0873l4.8914-8.4701v-0.02149c-0.7792 1.1528-2.0983 1.9113-3.5932 1.9113h-15.013z" clipRule="evenodd" fill="#09c" fillRule="evenodd"/>
</svg>