<svg width="45" height="41" viewBox="0 0 45 41" fill="none" xmlns="http://www.w3.org/2000/svg">
<path d="M31.1736 20.6191C35.6053 20.6191 39.198 17.0265 39.198 12.5947C39.198 8.16296 35.6053 4.57031 31.1736 4.57031C26.7418 4.57031 23.1492 8.16296 23.1492 12.5947C23.1492 17.0265 26.7418 20.6191 31.1736 20.6191Z" fill="#FCE476"/>
<path d="M31.1737 25.19C38.1187 25.19 43.7688 19.5399 43.7688 12.5951C43.7688 5.6501 38.1187 0 31.1737 0C24.2288 0 18.5787 5.6501 18.5787 12.5951C18.5787 19.5399 24.2288 25.19 31.1737 25.19ZM31.1737 1.69284C37.1852 1.69284 42.0759 6.58354 42.0759 12.5951C42.0759 18.6065 37.1852 23.4972 31.1737 23.4972C25.1623 23.4972 20.2715 18.6065 20.2715 12.5951C20.2715 6.58354 25.1622 1.69284 31.1737 1.69284Z" fill="#101010"/>
<path d="M29.7523 14.7081C29.459 14.3441 28.9262 14.2868 28.5621 14.58C28.1981 14.8732 28.1408 15.4061 28.434 15.7701C28.9006 16.3493 29.5695 16.6784 30.2358 16.8361C30.2713 17.2709 30.6354 17.6127 31.0794 17.6127C31.5023 17.6127 31.8528 17.3025 31.9157 16.8971C33.1078 16.6843 33.9443 15.8906 34.0815 14.8101C34.241 13.5549 33.4268 12.3512 32.1017 11.8828C32.0413 11.8615 31.9828 11.8407 31.9258 11.8203V10.1896C31.9963 10.2345 32.0489 10.2836 32.0822 10.331C32.3505 10.7137 32.8784 10.8064 33.2613 10.5377C33.6439 10.2692 33.7364 9.74131 33.4679 9.35865C33.16 8.91978 32.6224 8.54744 31.9253 8.39407C31.9102 7.93979 31.5373 7.57617 31.0794 7.57617C30.6119 7.57617 30.233 7.95511 30.233 8.42259V8.45095C30.181 8.46457 30.1287 8.47922 30.076 8.49513C29.1875 8.76285 28.5169 9.62341 28.4454 10.588C28.3743 11.5466 28.8816 12.378 29.8025 12.8122C29.9028 12.8596 30.0495 12.9216 30.2329 12.9946V15.058C30.0388 14.9707 29.8702 14.8544 29.7523 14.7081ZM32.4022 14.5968C32.3707 14.8447 32.2028 15.0341 31.9258 15.1463V13.676C32.2976 13.9372 32.439 14.3073 32.4022 14.5968ZM30.1338 10.7132C30.1418 10.604 30.178 10.4958 30.233 10.4014V11.0633C30.1564 10.964 30.1237 10.8478 30.1338 10.7132Z" fill="#101010"/>
<path d="M44.1579 28.7907C44.1134 27.7632 43.6369 26.8797 42.8163 26.3031C41.464 25.3526 39.6388 25.5177 38.4761 26.6954C38.4388 26.7331 38.4051 26.7743 38.3756 26.8184L36.5187 29.5849C35.9988 28.3578 34.791 27.4958 33.3877 27.4958L20.0285 27.4869H20.0279C19.8253 27.4869 19.6295 27.5595 19.476 27.6916L16.1292 30.5709H13.6869V29.827C13.6869 29.3595 13.3079 28.9805 12.8405 28.9805H9.11369V28.8647C9.11369 28.3973 8.73466 28.0183 8.26727 28.0183H1.67113C1.20365 28.0183 0.824707 28.3973 0.824707 28.8647V38.7914C0.824707 39.2589 1.20365 39.6378 1.67113 39.6378H8.26727C8.73466 39.6378 9.11369 39.2589 9.11369 38.7914V38.6756H12.8404C13.3078 38.6756 13.6868 38.2966 13.6868 37.8292V37.0476H16.4933L19.0286 39.7352C19.1887 39.9048 19.4115 40.0008 19.6443 40.0008C19.6483 40.0008 19.6523 40.0008 19.6563 40.0007L37.136 39.7555C37.4087 39.7517 37.6629 39.6167 37.8187 39.3929L43.3726 31.4176C43.3761 31.4126 43.3795 31.4076 43.3828 31.4026C43.9206 30.5938 44.1958 29.6662 44.1579 28.7907ZM7.42085 37.945H2.51755V29.7112H7.42085V37.945ZM11.994 36.9828H9.11369V30.6734H11.994V36.9828ZM41.978 30.458L36.6778 38.069L20.0047 38.3029L17.4743 35.6204C17.3143 35.4509 17.0916 35.3548 16.8586 35.3548H13.6869V32.2637H16.4433C16.6459 32.2637 16.8417 32.1911 16.9952 32.059L20.3417 29.18L33.3871 29.1888C34.3306 29.1888 35.0983 29.9705 35.0983 30.9314C35.0983 31.8923 34.3307 32.674 33.3871 32.674C33.3849 32.674 33.3827 32.6741 33.3805 32.6741H26.081C25.8488 32.6741 25.6267 32.7695 25.4668 32.9381L23.6861 34.8163C23.3644 35.1556 23.3787 35.6913 23.718 36.0129C23.8817 36.1681 24.0911 36.2451 24.3001 36.2451C24.5244 36.2451 24.7482 36.1566 24.9146 35.981L26.4449 34.3669L34.8961 34.3672H34.8964C35.1784 34.3672 35.442 34.2267 35.5992 33.9925L39.7324 27.8347C40.3133 27.2934 41.1895 27.2287 41.8429 27.6881C42.725 28.308 42.5787 29.5491 41.978 30.458Z" fill="#101010"/>
</svg>
