<svg width="36" height="32" viewBox="0 0 36 32" fill="none" xmlns="http://www.w3.org/2000/svg">
<path d="M16.6051 5.52692H22.9862C23.3693 5.52692 23.6799 5.21638 23.6799 4.83328C23.6799 4.45019 23.3693 4.13965 22.9862 4.13965H16.6051C16.222 4.13965 15.9115 4.45019 15.9115 4.83328C15.9115 5.21638 16.222 5.52692 16.6051 5.52692Z" fill="#101010"/>
<path d="M18.9784 22.2984C19.3615 22.2984 19.672 21.9879 19.672 21.6048C19.672 21.2217 19.3615 20.9111 18.9784 20.9111H12.5973C12.2142 20.9111 11.9037 21.2217 11.9037 21.6048C11.9037 21.9879 12.2142 22.2984 12.5973 22.2984H18.9784Z" fill="#101010"/>
<path d="M33.9999 27.2238V0.693635C33.9999 0.31054 33.6893 0 33.3063 0H30.4741C30.091 0 29.7805 0.31054 29.7805 0.693635V4.1394H25.0874C24.7043 4.1394 24.3937 4.44994 24.3937 4.83304C24.3937 5.21613 24.7043 5.52667 25.0874 5.52667H29.7805V12.5255H24.7819C24.5747 12.5255 24.3887 12.6164 24.2617 12.7604C24.1346 12.6164 23.9486 12.5255 23.7414 12.5255H18.0035C17.8261 12.5255 17.6642 12.5922 17.5415 12.7018C17.4189 12.5922 17.257 12.5255 17.0796 12.5255H12.5975C12.2144 12.5255 11.9039 12.8361 11.9039 13.2191C11.9039 13.6022 12.2144 13.9128 12.5975 13.9128H17.0796C17.257 13.9128 17.4188 13.8461 17.5415 13.7365C17.6642 13.8461 17.8261 13.9128 18.0035 13.9128H23.7414C23.9486 13.9128 24.1346 13.8219 24.2617 13.6779C24.3887 13.8219 24.5747 13.9128 24.7819 13.9128H29.7805V20.9116H24.7819C24.3988 20.9116 24.0883 21.2222 24.0883 21.6053C24.0883 21.9884 24.3988 22.2989 24.7819 22.2989H29.7805V27.2068H5.73358V22.2989H10.4961C10.8792 22.2989 11.1897 21.9884 11.1897 21.6053C11.1897 21.2222 10.8792 20.9116 10.4961 20.9116H5.73358V13.9128H10.4961C10.8792 13.9128 11.1897 13.6022 11.1897 13.2191C11.1897 12.8361 10.8792 12.5255 10.4961 12.5255H5.73358V5.52667H10.8016C11.1846 5.52667 11.4952 5.21613 11.4952 4.83304C11.4952 4.44994 11.1846 4.1394 10.8016 4.1394H5.73358V0.693635C5.73358 0.31054 5.42304 0 5.03995 0H2.20784C1.82474 0 1.5142 0.31054 1.5142 0.693635V27.2238C0.659716 27.3434 0 28.079 0 28.9659V31.3064C0 31.6895 0.31054 32 0.693635 32H34.8205C35.2036 32 35.5141 31.6895 35.5141 31.3064V28.9659C35.5141 28.079 34.8544 27.3434 33.9999 27.2238ZM31.1678 1.38727H32.6126V27.2068H31.1678V1.38727ZM2.90147 1.38727H4.34631V27.2068H2.90147V1.38727ZM34.1268 30.6127H1.38727V28.9659C1.38727 28.7609 1.55409 28.594 1.75913 28.594H33.755C33.96 28.594 34.1268 28.7609 34.1268 28.9659V30.6127Z" fill="#101010"/>
<path d="M11.4209 7.64829C10.3793 7.64829 9.53479 6.80386 9.53479 5.76223V3.90266C9.53479 2.86103 10.3792 2.0166 11.4209 2.0166C12.4625 2.0166 13.3069 2.86103 13.3069 3.90266V5.76223C13.307 6.80386 12.4626 7.64829 11.4209 7.64829Z" fill="#FCE476"/>
<path d="M15.1924 7.64829C14.1508 7.64829 13.3063 6.80386 13.3063 5.76223V3.90266C13.3063 2.86103 14.1507 2.0166 15.1923 2.0166C16.234 2.0166 17.0784 2.86103 17.0784 3.90266V5.76223C17.0785 6.80386 16.234 7.64829 15.1924 7.64829Z" fill="#FCE476"/>
<path d="M24.1715 7.64829C23.1298 7.64829 22.2854 6.80386 22.2854 5.76223V3.90266C22.2854 2.86103 23.1298 2.0166 24.1715 2.0166C25.2131 2.0166 26.0575 2.86103 26.0575 3.90266V5.76223C26.0575 6.80386 25.2131 7.64829 24.1715 7.64829Z" fill="#FCE476"/>
<path d="M11.4207 16.036C10.379 16.036 9.53455 15.1916 9.53455 14.1499V12.2904C9.53455 11.2487 10.379 10.4043 11.4206 10.4043C12.4622 10.4043 13.3067 11.2487 13.3067 12.2904V14.1499C13.3067 15.1916 12.4623 16.036 11.4207 16.036Z" fill="#FCE476"/>
<path d="M17.7962 16.036C16.7546 16.036 15.9102 15.1916 15.9102 14.1499V12.2904C15.9102 11.2487 16.7546 10.4043 17.7962 10.4043C18.8378 10.4043 19.6823 11.2487 19.6823 12.2904V14.1499C19.6823 15.1916 18.8378 16.036 17.7962 16.036Z" fill="#FCE476"/>
<path d="M24.1712 16.036C23.1296 16.036 22.2852 15.1916 22.2852 14.1499V12.2904C22.2852 11.2487 23.1296 10.4043 24.1712 10.4043C25.2128 10.4043 26.0573 11.2487 26.0573 12.2904V14.1499C26.0573 15.1916 25.2128 16.036 24.1712 16.036Z" fill="#FCE476"/>
<path d="M24.1712 18.7891C25.2128 18.7891 26.0573 19.6335 26.0573 20.6751V22.5347C26.0573 23.5763 25.2128 24.4208 24.1712 24.4208C23.1296 24.4208 22.2852 23.5763 22.2852 22.5347V20.6751C22.2851 19.6335 23.1295 18.7891 24.1712 18.7891Z" fill="#FCE476"/>
<path d="M20.4004 18.7891C21.442 18.7891 22.2865 19.6335 22.2865 20.6751V22.5347C22.2865 23.5763 21.4421 24.4208 20.4005 24.4208C19.3588 24.4208 18.5144 23.5763 18.5144 22.5347V20.6751C18.5143 19.6335 19.3587 18.7891 20.4004 18.7891Z" fill="#FCE476"/>
<path d="M11.4205 18.7891C12.4622 18.7891 13.3067 19.6335 13.3067 20.6751V22.5347C13.3067 23.5763 12.4622 24.4208 11.4206 24.4208C10.379 24.4208 9.53455 23.5763 9.53455 22.5347V20.6751C9.53441 19.6335 10.3788 18.7891 11.4205 18.7891Z" fill="#FCE476"/>
</svg>
