<svg width="51" height="40" viewBox="0 0 51 40" fill="none" xmlns="http://www.w3.org/2000/svg">
<path d="M40.734 0H46.5419V29.9701H50.0477L43.638 40L37.2283 29.9701H40.734V0Z" fill="#FCE476"/>
<path d="M23.2761 15.562C22.9381 15.1425 22.3241 15.0764 21.9046 15.4144C21.485 15.7523 21.4189 16.3664 21.7569 16.7859C22.304 17.465 23.0899 17.8495 23.8716 18.0324C23.9067 18.5391 24.3289 18.9393 24.8446 18.9393C25.3361 18.9393 25.7426 18.5758 25.8101 18.103C27.2063 17.8581 28.1865 16.9315 28.3468 15.669C28.5326 14.2058 27.5829 12.8022 26.0371 12.2558C25.9624 12.2294 25.8901 12.2037 25.8199 12.1786V10.2262C25.9178 10.2843 25.9895 10.3492 26.0334 10.4117C26.3428 10.8527 26.9511 10.9593 27.3922 10.6498C27.8332 10.3404 27.9398 9.73202 27.6303 9.29103C27.2697 8.77717 26.6385 8.34165 25.8196 8.16461C25.8091 7.63505 25.3766 7.20898 24.8445 7.20898C24.3058 7.20898 23.8691 7.64568 23.8691 8.18441V8.23055C23.8043 8.24732 23.739 8.26556 23.6733 8.28537C22.6383 8.59711 21.8572 9.59975 21.7739 10.7235C21.691 11.8399 22.2822 12.8084 23.355 13.3144C23.4745 13.3706 23.6497 13.4447 23.8691 13.5319V15.9868C23.6293 15.8824 23.4206 15.7414 23.2761 15.562ZM26.4116 15.4233C26.373 15.7272 26.1641 15.9573 25.8201 16.0897V14.3102C26.281 14.6211 26.4562 15.0721 26.4116 15.4233ZM23.7195 10.8679C23.7307 10.7181 23.7862 10.5697 23.8693 10.446V11.326C23.7555 11.199 23.7062 11.0472 23.7195 10.8679Z" fill="#101010"/>
<path d="M33.252 27.1962H18.0891V22.745C18.0891 22.2062 17.6524 21.7695 17.1137 21.7695H0.975424C0.436697 21.7695 0 22.2062 0 22.745V39.0251C0 39.5638 0.436697 40.0005 0.975424 40.0005H33.252C33.7907 40.0005 34.2274 39.5638 34.2274 39.0251V28.1716C34.2274 27.6329 33.7907 27.1962 33.252 27.1962ZM32.2766 32.6229H18.0891V29.1471H32.2766V32.6229ZM1.95085 29.1471H16.1383V32.6229H1.95085V29.1471ZM1.95085 23.7204H16.1383V27.1962H1.95085V23.7204ZM1.95085 34.5737H16.1383V38.0497H1.95085V34.5737ZM32.2766 38.0497H18.0891V34.5737H32.2766V38.0497Z" fill="#101010"/>
<path d="M24.9549 22.3475C30.0683 22.3475 34.2283 18.1875 34.2283 13.0741C34.2283 7.96077 30.0683 3.80078 24.9549 3.80078C19.8416 3.80078 15.6816 7.96077 15.6816 13.0741C15.6816 18.1875 19.8415 22.3475 24.9549 22.3475ZM24.9549 5.75163C28.9926 5.75163 32.2774 9.03647 32.2774 13.0741C32.2774 17.1118 28.9926 20.3966 24.9549 20.3966C20.9172 20.3966 17.6325 17.1118 17.6325 13.0741C17.6325 9.03647 20.9172 5.75163 24.9549 5.75163Z" fill="#101010"/>
</svg>
