<svg width="24" height="27" viewBox="0 0 24 27" fill="none" xmlns="http://www.w3.org/2000/svg">
    <path d="M8.29761 13.9167H23.4798V16.8055H8.29761V13.9167Z" fill="#FCE476"/>
    <path d="M8.92779 23.3398H7.84282C7.55572 23.3398 7.323 23.5726 7.323 23.8597C7.323 24.1467 7.55572 24.3795 7.84282 24.3795H8.92779C9.21488 24.3795 9.44761 24.1467 9.44761 23.8597C9.44761 23.5726 9.21488 23.3398 8.92779 23.3398Z" fill="#101010"/>
    <path d="M20.9424 8.86157H16.9396C16.6525 8.86157 16.4198 9.09435 16.4198 9.38139V11.5865C16.4198 11.8735 16.6525 12.1063 16.9396 12.1063H20.9424C21.2295 12.1063 21.4622 11.8735 21.4622 11.5865V9.38139C21.4622 9.0943 21.2295 8.86157 20.9424 8.86157ZM20.4226 11.0666H17.4594V9.90121H20.4226V11.0666Z" fill="#101010"/>
    <path d="M20.9413 6.45581H14.8582C14.5711 6.45581 14.3384 6.68859 14.3384 6.97563C14.3384 7.26268 14.5711 7.49545 14.8582 7.49545H20.9413C21.2284 7.49545 21.4612 7.26268 21.4612 6.97563C21.4612 6.68859 21.2284 6.45581 20.9413 6.45581Z" fill="#101010"/>
    <path d="M22.4741 3.761H16.7699V3.09917C16.7699 1.39026 15.3796 0 13.6707 0H3.09922C1.39031 0 0 1.39026 0 3.09917V23.5156C0 25.2245 1.39031 26.6148 3.09917 26.6148H13.6707C15.3796 26.6148 16.7698 25.2245 16.7698 23.5156V19.4894H22.4741C23.3155 19.4894 24 18.8048 24 17.9634V5.28694C24.0001 4.44556 23.3156 3.761 22.4741 3.761ZM13.6707 25.5752H3.09922C1.96357 25.5752 1.03969 24.6513 1.03969 23.5156V22.349H15.7302V23.5156C15.7302 24.6513 14.8063 25.5752 13.6707 25.5752ZM15.7302 21.3094H1.03964V3.09917C1.03964 1.96352 1.96357 1.03964 3.09922 1.03964H13.6707C14.8064 1.03964 15.7302 1.96352 15.7302 3.09917V3.76095H8.29805C8.01095 3.76095 7.77823 3.99373 7.77823 4.28077V18.9695C7.77823 19.2565 8.01095 19.4893 8.29805 19.4893H15.7302V21.3094ZM8.81787 7.55762C9.77657 7.79122 10.4904 8.6573 10.4904 9.6869C10.4904 10.7165 9.77657 11.5826 8.81787 11.8162V7.55762ZM22.9605 17.9634C22.9605 18.2315 22.7423 18.4497 22.4742 18.4497H8.81787V12.8762C10.3537 12.6272 11.53 11.2918 11.53 9.68685C11.53 8.08211 10.3541 6.7469 8.81787 6.49765V4.80064H22.4741C22.7423 4.80064 22.9604 5.01881 22.9604 5.28694V17.9634H22.9605Z" fill="#101010"/>
</svg>