<svg width="121" height="23" viewBox="0 0 121 23" fill="none" xmlns="http://www.w3.org/2000/svg">
    <g clip-path="url(#clip0)">
    <path d="M32.4925 18.6789V22.9998H29.7825V8.93355H32.4925V9.60653C33.2996 9.08177 34.2398 8.79865 35.2025 8.79053C38.2798 8.79053 40.5426 11.237 40.5426 14.1518C40.5426 17.0665 38.3009 19.513 35.2025 19.513C34.2357 19.5146 33.291 19.2239 32.4925 18.6789ZM32.4925 12.869V15.3562C32.7063 15.8114 33.0385 16.2007 33.4543 16.4834C33.8702 16.7661 34.3544 16.9318 34.8563 16.9632C35.3582 16.9945 35.8593 16.8904 36.3071 16.6616C36.7549 16.4329 37.133 16.0879 37.4018 15.6629C37.6706 15.2379 37.8201 14.7485 37.8348 14.2458C37.8495 13.7432 37.7289 13.2458 37.4854 12.8058C37.2419 12.3658 36.8846 11.9994 36.451 11.7448C36.0173 11.4903 35.5231 11.357 35.0203 11.359C34.5004 11.3516 33.9887 11.489 33.5423 11.7556C33.0959 12.0223 32.7324 12.4078 32.4925 12.869Z" fill="#011B33"/>
    <path d="M42.0105 6.09884C42.0017 5.8937 42.0349 5.68892 42.1081 5.49709C42.1813 5.30526 42.293 5.13043 42.4362 4.98335C42.5795 4.83628 42.7513 4.72006 42.9412 4.64184C43.131 4.56363 43.3349 4.52508 43.5402 4.52856C43.7483 4.52494 43.955 4.56295 44.1483 4.64034C44.3415 4.71773 44.5173 4.83294 44.6654 4.97922C44.8135 5.12549 44.9309 5.29988 45.0107 5.49215C45.0905 5.68441 45.131 5.89068 45.13 6.09884C45.1256 6.51748 44.9562 6.91746 44.6584 7.21181C44.3607 7.50615 43.9588 7.67104 43.5402 7.67062C43.336 7.66967 43.134 7.62806 42.9461 7.54821C42.7582 7.46836 42.5881 7.35187 42.4457 7.20554C42.3033 7.05922 42.1915 6.88599 42.1168 6.69598C42.042 6.50596 42.0059 6.30296 42.0105 6.09884ZM42.1746 8.93377H44.9268V19.3506H42.1746V8.93377Z" fill="#011B33"/>
    <path d="M46.5558 14.1127C46.5503 13.4116 46.685 12.7164 46.952 12.0681C47.219 11.4198 47.6129 10.8315 48.1106 10.3376C48.6082 9.8437 49.1996 9.4543 49.8499 9.19225C50.5002 8.93021 51.1964 8.80081 51.8974 8.81167C52.856 8.81215 53.7994 9.05009 54.6435 9.50422V8.93361H57.3355V18.7588C57.3355 21.4688 54.9898 22.9382 52.0555 22.9382C50.139 22.9382 48.3037 22.3676 47.1008 21.4326L48.2224 19.4965C49.3656 20.2289 50.6979 20.6114 52.0555 20.5971C53.951 20.5971 54.5427 19.8443 54.624 18.6203C53.8075 19.1425 52.8606 19.4248 51.8914 19.4348C48.7719 19.4318 46.5558 17.1087 46.5558 14.1127ZM54.6435 15.2735V12.9504C54.4158 12.4657 54.0557 12.0553 53.6047 11.7665C53.1537 11.4777 52.6302 11.3224 52.0947 11.3184C51.7249 11.3148 51.358 11.3844 51.0152 11.523C50.6724 11.6617 50.3603 11.8668 50.097 12.1265C49.8337 12.3861 49.6243 12.6953 49.4809 13.0362C49.3374 13.377 49.2628 13.7429 49.2612 14.1127C49.2612 15.7221 50.4837 16.8437 52.0751 16.8437C52.6091 16.8576 53.1357 16.7168 53.5914 16.4382C54.0471 16.1596 54.4125 15.7551 54.6435 15.2735Z" fill="#011B33"/>
    <path d="M58.9689 14.1127C58.9634 13.4116 59.0981 12.7164 59.3652 12.0681C59.6322 11.4198 60.0261 10.8315 60.5237 10.3376C61.0214 9.8437 61.6128 9.4543 62.2631 9.19225C62.9134 8.93021 63.6096 8.80081 64.3106 8.81167C65.2711 8.81134 66.2167 9.0493 67.0627 9.50422V8.93361H69.7531V18.7588C69.7531 21.4688 67.409 22.9382 64.4747 22.9382C62.5581 22.9382 60.7229 22.3676 59.52 21.4326L60.6416 19.4965C61.7847 20.2291 63.117 20.6117 64.4747 20.5971C66.3702 20.5971 66.9619 19.8443 67.0432 18.6203C66.2266 19.1423 65.2798 19.4245 64.3106 19.4348C61.1911 19.4318 58.9689 17.1087 58.9689 14.1127ZM67.0627 15.2735V12.9504C66.8349 12.4658 66.4747 12.0555 66.0237 11.7667C65.5727 11.478 65.0493 11.3226 64.5138 11.3184C64.1441 11.3148 63.7772 11.3844 63.4344 11.523C63.0915 11.6617 62.7795 11.8668 62.5162 12.1265C62.2529 12.3861 62.0435 12.6953 61.9001 13.0362C61.7566 13.377 61.682 13.7429 61.6804 14.1127C61.6804 15.7221 62.9029 16.8437 64.4943 16.8437C65.0282 16.8575 65.5547 16.7165 66.0104 16.4379C66.4661 16.1593 66.8316 15.7549 67.0627 15.2735Z" fill="#011B33"/>
    <path d="M73.7067 8.93359L76.4393 15.8847L79.2516 8.93359H82.1121L76.1126 22.9999H73.5652L75.0707 19.2496L70.6911 8.93359H73.7067Z" fill="#011B33"/>
    <path d="M81.5927 8.93359H84.5074L87.1632 15.9675L89.7934 8.93359H92.6539L88.4745 19.3504H85.7329L81.5927 8.93359Z" fill="#011B33"/>
    <path d="M92.8466 14.0705C92.8466 11.1362 94.9454 8.70923 98.2275 8.70923C101.266 8.70923 103.574 10.9931 103.629 13.9937C103.65 14.2517 103.65 14.511 103.629 14.769H95.4151C95.4964 16.2369 96.9026 17.1945 98.4111 17.1945C99.6547 17.1945 100.388 16.8482 101.245 16.1406L102.734 17.7109C101.529 18.974 100.325 19.5657 98.4111 19.5657C94.8852 19.5552 92.8466 16.925 92.8466 14.0705ZM95.5566 12.8269H100.817C100.552 11.8498 99.6126 10.9931 98.1868 10.9931C96.5352 10.9931 95.8427 11.8287 95.5566 12.8269Z" fill="#011B33"/>
    <path d="M104.198 18.2303L105.531 16.0684C106.727 16.8655 108.129 17.2975 109.566 17.3119C110.933 17.3119 111.625 16.9657 111.625 16.3755C111.625 15.9871 111.299 15.7025 110.606 15.5595L107.746 14.9482C105.647 14.4966 104.688 13.5014 104.688 11.8709C104.688 10.138 106.156 8.6897 109.194 8.6897C111.028 8.6897 112.657 9.22115 113.78 9.9137L112.536 11.9929C111.619 11.5036 110.397 10.9736 109.111 10.9736C107.95 10.9736 107.277 11.2597 107.277 11.7881C107.277 12.1359 107.523 12.3602 108.194 12.4822L110.603 12.9338C113.212 13.4427 114.216 14.605 114.216 16.1753C114.216 18.4336 111.958 19.6199 109.486 19.6199C107.629 19.6558 105.798 19.1747 104.198 18.2303Z" fill="#011B33"/>
    <path d="M114.758 8.93366H116.308V6.05958L119.017 4.30713V8.93366H120.607V11.2989H119.019V19.352H116.309V11.2989H114.757V8.93366H114.758Z" fill="#011B33"/>
    <path d="M22.9966 10.6093C22.9514 9.94811 22.843 9.29273 22.6729 8.65214C21.8976 5.79161 20.264 3.54083 17.7739 1.93441C16.2054 0.914335 14.4038 0.308792 12.5376 0.174434C11.7536 0.117168 10.9658 0.138351 10.1859 0.237667C9.3644 0.346406 8.55685 0.542742 7.77708 0.823323C5.70065 1.57233 3.88843 2.91191 2.56331 4.67731C1.23819 6.4427 0.457975 8.55692 0.318624 10.7599C0.29303 11.1649 0.29303 11.5729 0.29303 11.9794V21.8618C0.29303 22.1185 0.395022 22.3648 0.576569 22.5463C0.758116 22.7278 1.00435 22.8298 1.26109 22.8298H5.07915C5.31809 22.8284 5.54817 22.7393 5.72578 22.5794C5.90338 22.4196 6.01615 22.2001 6.0427 21.9626C6.06782 21.8699 6.08097 21.7742 6.08184 21.6781V21.4493C6.07959 21.4318 6.07959 21.4141 6.08184 21.3966V21.371C6.10788 21.3779 6.1324 21.3896 6.15411 21.4056C7.58223 22.1953 9.16388 22.6678 10.7912 22.7907C11.443 22.8389 12.0977 22.8324 12.7484 22.7711C14.2802 22.63 15.7669 22.1768 17.117 21.4394C18.467 20.702 19.6518 19.696 20.5983 18.4833C21.9474 16.7862 22.773 14.7328 22.974 12.5741C23.0421 11.9213 23.0497 11.2636 22.9966 10.6093ZM13.6924 16.9236C13.6856 16.9584 13.6668 16.9897 13.6393 17.012C13.6118 17.0343 13.5772 17.0462 13.5418 17.0455H9.77794C9.74251 17.0462 9.70798 17.0343 9.68045 17.012C9.65291 16.9897 9.63412 16.9584 9.62739 16.9236V16.8995V16.7595C9.62656 16.5867 9.64576 16.4144 9.6846 16.2461C9.70869 16.1889 9.72375 16.1211 9.74783 16.0579C9.77192 15.9947 9.79601 15.936 9.8201 15.8742C9.84419 15.8125 9.88333 15.7568 9.91645 15.7041L9.97065 15.6228C10.006 15.5702 10.0448 15.5199 10.0866 15.4723C10.1302 15.4181 10.1739 15.3714 10.2176 15.3217C10.4441 15.0989 10.7193 14.9319 11.0215 14.8339C10.7612 14.6922 10.5554 14.4678 10.4366 14.1962C10.3178 13.9247 10.2928 13.6213 10.3654 13.3339C10.438 13.0465 10.6042 12.7915 10.8378 12.6089C11.0713 12.4264 11.3589 12.3267 11.6554 12.3257C12.0093 12.3283 12.3481 12.4694 12.5993 12.7186C12.7448 12.865 12.8543 13.0431 12.9192 13.239C12.9842 13.4349 13.0028 13.6432 12.9736 13.8475C12.9444 14.0518 12.8683 14.2465 12.7511 14.4164C12.6339 14.5862 12.4789 14.7266 12.2982 14.8264C12.7048 14.9604 13.0586 15.2195 13.309 15.5667C13.5593 15.9139 13.6935 16.3314 13.6924 16.7595C13.6924 16.8137 13.6924 16.8724 13.6924 16.9236ZM20.1812 8.72441H3.14453C3.11259 8.72419 3.08117 8.7164 3.05283 8.70166C3.0245 8.68693 3.00007 8.66568 2.98155 8.63967C2.96303 8.61365 2.95095 8.58361 2.9463 8.55202C2.94166 8.52042 2.94458 8.48817 2.95483 8.45793C3.59052 6.65639 4.76936 5.09639 6.32886 3.99294C7.88836 2.88949 9.75173 2.29693 11.6621 2.29693C13.5725 2.29693 15.4359 2.88949 16.9954 3.99294C18.5549 5.09639 19.7337 6.65639 20.3694 8.45793C20.3796 8.48806 20.3826 8.52017 20.378 8.55165C20.3735 8.58313 20.3615 8.61308 20.3432 8.63907C20.3248 8.66505 20.3006 8.68633 20.2724 8.70116C20.2443 8.71599 20.213 8.72396 20.1812 8.72441Z" fill="#011B33"/>
    </g>
    <defs>
    <clipPath id="clip0">
    <rect width="120.301" height="22.8571" fill="white" transform="translate(0.300781 0.142822)"/>
    </clipPath>
    </defs>
</svg>