<svg width="32" height="32" viewBox="0 0 32 32" fill="none" xmlns="http://www.w3.org/2000/svg">
<g clipPath="url(#clip0)">
<path d="M13.8672 21.3355C17.9917 21.3355 21.3353 17.992 21.3353 13.8675C21.3353 9.74298 17.9917 6.39941 13.8672 6.39941C9.74273 6.39941 6.39917 9.74298 6.39917 13.8675C6.39917 17.992 9.74273 21.3355 13.8672 21.3355Z" fill="#FCE476"/>
<path d="M14.8391 13.3619C14.7342 13.3248 14.6346 13.2892 14.5401 13.2552V11.2469C14.7875 11.3223 14.9588 11.4482 15.043 11.568C15.2412 11.8506 15.6311 11.9189 15.9136 11.7206C16.1961 11.5224 16.2645 11.1325 16.0661 10.85C15.7715 10.43 15.2373 10.0795 14.5401 9.96605V9.83398C14.5401 9.4888 14.2603 9.20898 13.9151 9.20898C13.57 9.20898 13.2901 9.4888 13.2901 9.83398V10.0136C13.1952 10.0347 13.0987 10.0598 13.0008 10.0893C12.2166 10.3255 11.6246 11.0874 11.5613 11.9419C11.4988 12.7857 11.9481 13.5189 12.7631 13.9032C12.8788 13.9577 13.0598 14.033 13.2901 14.1229V16.5277C12.9686 16.4316 12.6733 16.2707 12.4815 16.0325C12.2648 15.7635 11.8715 15.7213 11.6026 15.9378C11.3338 16.1543 11.2914 16.5478 11.5079 16.8166C11.9633 17.382 12.6356 17.6844 13.2901 17.8129V17.9011C13.2901 18.2463 13.57 18.5261 13.9151 18.5261C14.2603 18.5261 14.5401 18.2463 14.5401 17.9011V17.8606C15.9212 17.6858 16.5241 16.7874 16.626 15.9855C16.7685 14.863 16.0337 13.7842 14.8391 13.3619ZM12.8079 12.0343C12.831 11.7235 13.0328 11.4273 13.2901 11.3127V12.7697C12.8618 12.5652 12.7913 12.2572 12.8079 12.0343ZM15.3859 15.828C15.3362 16.2195 15.0324 16.4908 14.5401 16.594V14.5863C15.193 14.8664 15.4383 15.4154 15.3859 15.828Z" fill="#101010"/>
<path d="M21.7281 6.00612C19.6284 3.90637 16.8367 2.75 13.8671 2.75C10.8976 2.75 8.10588 3.90637 6.00612 6.00612C3.90637 8.10588 2.75 10.8976 2.75 13.8671C2.75 16.8366 3.90637 19.6284 6.00612 21.7281C8.10594 23.8279 10.8977 24.9842 13.8671 24.9842C16.8366 24.9842 19.6284 23.8279 21.7281 21.7281C23.8279 19.6284 24.9842 16.8366 24.9842 13.8671C24.9842 10.8976 23.8279 8.10588 21.7281 6.00612ZM20.8442 20.8442C18.9806 22.7079 16.5027 23.7342 13.8671 23.7342C11.2316 23.7342 8.75375 22.7079 6.89 20.8442C5.02637 18.9806 4 16.5027 4 13.8671C4 11.2316 5.02637 8.75369 6.89 6.89006C8.75375 5.02637 11.2316 4 13.8671 4C16.5027 4 18.9806 5.02631 20.8442 6.89C22.7079 8.75362 23.7342 11.2315 23.7342 13.8671C23.7342 16.5027 22.7079 18.9806 20.8442 20.8442Z" fill="#101010"/>
<path d="M31.3283 28.085L27.2444 24.0011C27.1271 23.8839 26.9682 23.8181 26.8024 23.8181C26.6367 23.8181 26.4778 23.8839 26.3605 24.0011L25.6228 24.7389L24.1049 23.2211C26.4501 20.6597 27.7343 17.3621 27.7343 13.8672C27.7343 10.1631 26.2919 6.68081 23.6728 4.06169C21.0535 1.44244 17.5712 0 13.8671 0C10.1631 0 6.68081 1.44244 4.06156 4.06156C1.44244 6.68075 0 10.1631 0 13.8671C0 17.5712 1.44244 21.0535 4.06156 23.6727C6.68075 26.2918 10.1631 27.7342 13.8671 27.7342C17.3621 27.7342 20.6597 26.4501 23.221 24.1049L24.7389 25.6228L24.0011 26.3606C23.7571 26.6046 23.7571 27.0004 24.0011 27.2444L28.0851 31.3283C28.5182 31.7615 29.0941 32.0001 29.7067 32.0001C30.3193 32.0001 30.8952 31.7615 31.3283 31.3284C31.7615 30.8952 32 30.3193 32 29.7067C32 29.0941 31.7615 28.5182 31.3283 28.085ZM4.9455 22.7888C2.56244 20.4058 1.25 17.2372 1.25 13.8671C1.25 10.497 2.56244 7.32856 4.9455 4.9455C7.32856 2.56244 10.497 1.25 13.8671 1.25C17.2373 1.25 20.4057 2.56244 22.7887 4.9455C25.1718 7.32856 26.4842 10.497 26.4842 13.8671C26.4842 17.2372 25.1718 20.4058 22.7887 22.7888C20.4057 25.1718 17.2373 26.4842 13.8671 26.4842C10.497 26.4842 7.32856 25.1719 4.9455 22.7888ZM30.4444 30.4444C30.2474 30.6414 29.9853 30.75 29.7066 30.75C29.4279 30.75 29.1659 30.6415 28.9689 30.4444L25.3269 26.8024L26.8024 25.3269L30.4443 28.9689C30.6414 29.1659 30.7499 29.4279 30.7499 29.7066C30.75 29.9854 30.6415 30.2474 30.4444 30.4444Z" fill="#101010"/>
</g>
<defs>
<clipPath id="clip0">
<rect width="32" height="32" fill="white"/>
</clipPath>
</defs>
</svg>
