<svg width="32" height="32" viewBox="0 0 32 32" fill="none" xmlns="http://www.w3.org/2000/svg">
    <g clipPath="url(#clip0)">
        <path d="M12.0547 24.8284C11.2955 26.0619 9.79191 27.9159 7.28104 28.5071L7.85766 26.6093C7.85766 26.6093 5.63142 28.091 3.4928 28.5071C3.90886 26.3612 5.39061 24.1422 5.39061 24.1422L3.4928 24.7189C4.08398 22.208 5.93798 20.7044 7.17154 19.9452L12.4276 18.8416L12.0547 24.8284Z" fill="#FCC400"/>
        <path d="M20.3591 29.8757C17.6166 32.6182 13.2255 32.7051 10.3791 30.1375C11.5027 30.0184 12.714 29.1247 12.8835 27.5519C12.9541 26.8987 12.8442 26.1278 12.4735 25.2466L6.75349 19.5265C5.87224 19.1558 5.10137 19.0459 4.44812 19.1166C2.87537 19.286 1.98163 20.4973 1.86256 21.6209C-0.704995 18.7745 -0.618245 14.3835 2.12431 11.6409C3.74606 10.0192 5.94562 9.32634 8.06086 9.56266C9.03074 9.67116 9.98261 9.97397 10.8532 10.4734L21.5265 21.1467C22.026 22.0173 22.3293 22.9696 22.4373 23.9391C22.6737 26.0543 21.9808 28.254 20.3591 29.8757Z" fill="#E30E08"/>
        <path d="M22.4373 23.9393C19.5965 25.8366 16.3475 27.0331 12.8835 27.552C12.9541 26.8987 12.8442 26.1278 12.4735 25.2466L6.75349 19.5265C5.87224 19.1559 5.10137 19.046 4.44812 19.1166C4.96699 15.6525 6.16356 12.4036 8.0608 9.56274C9.03067 9.67124 9.98255 9.97406 10.8532 10.4735L21.5265 21.1468C22.026 22.0175 22.3293 22.9698 22.4373 23.9393Z" fill="#C40606"/>
        <path d="M12.4728 25.2466C16.925 24.2241 21.1534 21.9793 24.6218 18.5109C29.7158 13.4168 32.1714 6.6839 31.9901 0.00935047C25.3155 -0.171962 18.5826 2.28353 13.4886 7.37759C10.0201 10.8461 7.77537 15.0743 6.75281 19.5266L12.4728 25.2466Z" fill="#E3E8EC"/>
        <path d="M16.3827 10.2709C12.9145 13.7391 10.154 17.4524 8.24046 21.013L6.75403 19.5266C7.77603 15.0746 10.0214 10.8461 13.4896 7.3779C18.5836 2.28378 25.3166 -0.171586 31.9912 0.00985164C27.0979 1.60985 21.4767 5.1769 16.3827 10.2709Z" fill="#D5D8DB"/>
        <path d="M30.5023 9.27145C29.0108 8.37545 27.5318 7.22595 26.1533 5.84758C25.4877 5.18195 24.8759 4.49358 24.3202 3.79196C23.7242 3.03902 23.1919 2.27046 22.7275 1.49859C25.6972 0.425276 28.8285 -0.0709727 31.9473 0.00846469C31.962 0.00940219 31.9768 0.00940219 31.9911 0.00983969L31.9907 0.0102772C32.0756 3.1429 31.5803 6.28795 30.5023 9.27145Z" fill="#E30E08"/>
        <path d="M31.0128 21.4983C31.0122 21.4978 31.0128 21.4971 31.0122 21.4966L31.0128 21.4983Z" fill="#E30E08"/>
        <path d="M31.9902 0.00983969L31.9897 0.0102772C29.5611 0.803838 26.9529 2.08252 24.3193 3.79196C23.7233 3.03902 23.1911 2.27046 22.7267 1.49859C25.6963 0.425276 28.8276 -0.0709727 31.9464 0.00846469C31.9611 0.00940219 31.9759 0.00940219 31.9902 0.00983969Z" fill="#C40606"/>
        <path d="M20.8031 15.9006C23.4009 15.9006 25.5068 13.7947 25.5068 11.1969C25.5068 8.5991 23.4009 6.49316 20.8031 6.49316C18.2053 6.49316 16.0994 8.5991 16.0994 11.1969C16.0994 13.7947 18.2053 15.9006 20.8031 15.9006Z" fill="#E30E08"/>
        <path d="M20.8035 14.3644C22.5529 14.3644 23.9711 12.9462 23.9711 11.1969C23.9711 9.44746 22.5529 8.0293 20.8035 8.0293C19.0541 8.0293 17.636 9.44746 17.636 11.1969C17.636 12.9462 19.0541 14.3644 20.8035 14.3644Z" fill="#A0D9F2"/>
    </g>
    <defs>
        <clipPath id="clip0">
            <rect width="32" height="32" fill="white"/>
        </clipPath>
    </defs>
</svg>
