<svg width="98" height="25" viewBox="0 0 98 25" fill="none" xmlns="http://www.w3.org/2000/svg">
<g style="mix-blend-mode:luminosity" clip-path="url(#clip0)">
<path fill-rule="evenodd" clip-rule="evenodd" d="M12.225 24.0982C18.6324 24.0982 23.8266 18.9051 23.8266 12.4991C23.8266 6.09302 18.6324 0.899902 12.225 0.899902C5.81764 0.899902 0.623413 6.09302 0.623413 12.4991C0.623413 18.9051 5.81764 24.0982 12.225 24.0982ZM16.412 18.5692C15.2209 19.3959 13.7748 19.8803 12.2157 19.8803C8.1434 19.8803 4.8422 16.5756 4.8422 12.4991C4.8422 8.42252 8.1434 5.11782 12.2157 5.11782C16.2879 5.11782 19.5891 8.42252 19.5891 12.4991C19.5891 13.4091 19.4246 14.2807 19.1237 15.0856C17.9568 14.662 16.6561 14.5354 15.4651 14.8214C15.9392 14.1599 16.2183 13.3489 16.2183 12.4727C16.2183 10.2451 14.4145 8.43932 12.1893 8.43932C9.96408 8.43932 8.16021 10.2451 8.16021 12.4727C8.16021 14.7002 9.96408 16.506 12.1893 16.506C12.7022 16.506 13.1927 16.4101 13.6439 16.2351C14.7729 16.8901 15.7463 17.8302 16.412 18.5692ZM20.2511 17.5682C19.7251 18.3989 19.0736 19.1424 18.3233 19.7719C17.5015 18.6877 15.8401 17.0505 14.0063 16.0052C15.7008 14.7352 18.3256 15.5473 20.2511 17.5682Z" fill="#101010"/>
<g opacity="0.15">
<path opacity="0.15" d="M22.8702 7.87965C21.0866 3.7769 16.9997 0.906444 12.2414 0.899902C7.42787 0.906522 3.30138 3.84395 1.55142 8.02304C2.6048 9.02297 3.79968 9.87525 5.10294 10.5467C5.95805 7.41757 8.81861 5.11779 12.2157 5.11779C15.5866 5.11779 18.4292 7.38218 19.3083 10.4743C20.6192 9.78189 21.818 8.90553 22.8702 7.87965Z" fill="#F8F8F8"/>
<path opacity="0.15" d="M16.1479 11.7172C15.7947 9.8507 14.1567 8.43921 12.1894 8.43921C10.2126 8.43921 8.56836 9.86428 8.22585 11.7441C9.47446 12.0715 10.785 12.2458 12.1363 12.2458C13.5241 12.2458 14.869 12.0619 16.1479 11.7172Z" fill="#F8F8F8"/>
</g>
<path d="M35.3474 6.51953C33.7066 6.51953 32.3577 7.08152 31.3011 8.18298C30.2673 9.28446 29.7502 10.7456 29.7502 12.5664C29.7502 14.3872 30.2673 15.8483 31.3011 16.9498C32.3577 18.0513 33.7066 18.6132 35.3474 18.6132C36.8087 18.6132 37.8877 18.2086 38.6295 17.3769V24.0981H41.8889V6.74432H38.8091V7.95819C38.09 6.99159 36.9435 6.51953 35.3474 6.51953ZM35.8869 9.32941C37.5278 9.32941 38.6295 10.4758 38.6295 12.2966V12.8361C38.6295 14.6569 37.5278 15.8034 35.8869 15.8034C34.2009 15.8034 33.0771 14.612 33.0771 12.5664C33.0771 10.5208 34.2009 9.32941 35.8869 9.32941Z" fill="#101010"/>
<path d="M54.2831 6.74438H51.0011V13.3082C51.0011 14.657 50.2595 15.5562 49.0231 15.5562C47.7868 15.5562 47.1574 14.8144 47.1574 13.3532V6.74438H43.8754V14.05C43.8754 16.9049 45.4938 18.6133 48.1688 18.6133C49.585 18.6133 50.5967 18.1412 51.181 17.1971V18.366H54.2831V6.74438Z" fill="#101010"/>
<path d="M57.9855 0.967121C56.3447 0.877205 55.3332 3.21502 56.5918 4.33896C57.3337 5.08076 58.6374 5.08076 59.3792 4.33896C59.7615 3.95683 59.9638 3.48477 59.9638 2.94527C59.9638 1.8438 59.0872 0.967121 57.9855 0.967121ZM59.6267 6.74421H56.3447V18.3658H59.6267V6.74421Z" fill="#101010"/>
<path d="M73.2302 0.899902H69.9706V7.75598C69.2512 6.92427 68.1498 6.51964 66.6888 6.51964C65.0477 6.51964 63.6991 7.08163 62.6425 8.18308C61.6084 9.28457 61.0913 10.7457 61.0913 12.5665C61.0913 14.3873 61.6084 15.8484 62.6425 16.9499C63.6991 18.0514 65.0477 18.6133 66.6888 18.6133C68.2398 18.6133 69.4987 18.0064 70.1505 17.1747V18.3661H73.2302V0.899902ZM67.2283 9.32952C68.8692 9.32952 69.9706 10.476 69.9706 12.2967V12.8137C69.9706 14.6795 68.8692 15.781 67.2283 15.781C65.5423 15.781 64.4182 14.6121 64.4182 12.5665C64.4182 10.5209 65.5423 9.32952 67.2283 9.32952Z" fill="#101010"/>
<path d="M79.8699 6.51953C78.4537 6.51953 77.2848 6.94664 76.3631 7.80085C75.464 8.63256 75.0145 9.59916 75.0145 10.6781L78.2962 10.813C78.2962 9.98131 78.8584 9.28446 79.9147 9.28446C80.9264 9.28446 81.4208 9.89138 81.4208 11.0828V11.5323L79.3528 11.6447C76.2507 11.7796 74.6997 12.9485 74.6997 15.1739C74.6997 17.3994 76.1607 18.6132 78.5661 18.6132C79.7799 18.6132 80.7689 18.2086 81.5332 17.4218V18.3659H84.7028V11.1952C84.7028 8.13803 83.0168 6.51953 79.8699 6.51953ZM81.4208 14.1849C81.4208 15.3763 80.5666 16.0731 79.3304 16.0731C78.4313 16.0731 77.9815 15.7134 77.9815 15.0166C77.9815 14.2523 78.5437 13.8477 79.6675 13.8027L81.4208 13.6903V14.1849Z" fill="#101010"/>
<path d="M97.1513 6.74438H93.42L91.2621 10.2961L89.1041 6.74438H85.3725L88.9466 12.499L85.3274 18.366H89.059L91.2621 14.7469L93.4873 18.366H97.2413L93.5548 12.499L97.1513 6.74438Z" fill="#101010"/>
</g>
<defs>
<clipPath id="clip0">
<rect width="96.6338" height="23.1983" fill="white" transform="translate(0.623413 0.899902)"/>
</clipPath>
</defs>
</svg>
