<svg width="33" height="32" viewBox="0 0 33 32" fill="none" xmlns="http://www.w3.org/2000/svg">
<path d="M10.4137 16.2358V10.6611C7.33238 10.6611 4.83447 13.157 4.83447 16.2358C4.83447 19.3146 7.33238 21.8104 10.4137 21.8104C13.4949 21.8104 15.9929 19.3146 15.9929 16.2358H10.4137Z" fill="#FCE476"/>
<path d="M12.3389 8.7373V14.312H17.9181C17.9181 11.2332 15.4201 8.7373 12.3389 8.7373Z" fill="#FCE476"/>
<path d="M32.0933 0H0.63931C0.286283 0 0 0.286219 0 0.63931V4.03219C0 4.38528 0.286283 4.6715 0.63931 4.6715H1.43135V24.2755C1.43135 25.5113 2.43647 26.5166 3.67187 26.5166H15.727V27.402C14.7427 27.6806 14.0196 28.586 14.0196 29.6568C14.0196 30.9488 15.0724 32 16.3663 32C17.6603 32 18.713 30.9488 18.713 29.6568C18.713 28.586 17.9899 27.6806 17.0056 27.402V26.5166H29.0606C30.2961 26.5166 31.3013 25.5112 31.3013 24.2755V4.6715H32.0933C32.4464 4.6715 32.7327 4.38528 32.7327 4.03219V0.63931C32.7327 0.286219 32.4464 0 32.0933 0ZM17.4344 29.6568C17.4344 30.2438 16.9553 30.7214 16.3663 30.7214C15.7774 30.7214 15.2982 30.2438 15.2982 29.6568C15.2982 29.0698 15.7774 28.5922 16.3663 28.5922C16.9553 28.5922 17.4344 29.0698 17.4344 29.6568ZM30.0227 24.2755C30.0227 24.8062 29.5911 25.238 29.0606 25.238H3.67187C3.1415 25.238 2.70997 24.8062 2.70997 24.2755V4.6715H30.0227V24.2755H30.0227ZM31.454 3.39288H1.27862V1.27862H31.454V3.39288Z" fill="#101010"/>
<path d="M20.7941 11.3626H27.3232C27.6763 11.3626 27.9625 11.0764 27.9625 10.7233C27.9625 10.3702 27.6763 10.084 27.3232 10.084H20.7941C20.4411 10.084 20.1548 10.3702 20.1548 10.7233C20.1548 11.0764 20.441 11.3626 20.7941 11.3626Z" fill="#101010"/>
<path d="M20.7941 14.0315H27.3232C27.6763 14.0315 27.9625 13.7453 27.9625 13.3922C27.9625 13.0391 27.6763 12.7529 27.3232 12.7529H20.7941C20.4411 12.7529 20.1548 13.0391 20.1548 13.3922C20.1548 13.7453 20.441 14.0315 20.7941 14.0315Z" fill="#101010"/>
<path d="M18.8678 19.4046H27.323C27.676 19.4046 27.9623 19.1184 27.9623 18.7653C27.9623 18.4122 27.676 18.126 27.323 18.126H18.8678C18.5148 18.126 18.2285 18.4122 18.2285 18.7653C18.2285 19.1184 18.5147 19.4046 18.8678 19.4046Z" fill="#101010"/>
</svg>
