<svg width="29" height="32" viewBox="0 0 29 32" fill="none" xmlns="http://www.w3.org/2000/svg">
<path d="M28.0654 31.9941H23.0352V20.9647H28.0654V31.9941Z" fill="#FCE476"/>
<path d="M13.3262 31.9951H8.29598V16.0014H13.3262V31.9951Z" fill="#FCE476"/>
<path d="M23.8334 6.10519C23.6169 5.83631 23.2236 5.794 22.9546 6.01044C22.6858 6.227 22.6434 6.62044 22.8599 6.88925C23.264 7.39094 23.8533 7.66619 24.4328 7.78956V7.81287C24.4328 8.158 24.7126 8.43787 25.0578 8.43787C25.3953 8.43787 25.6703 8.17031 25.6824 7.83581C26.7046 7.68138 27.4257 7.02106 27.5408 6.11456C27.6718 5.08231 26.9987 4.09113 25.9038 3.70412C25.8269 3.67694 25.7533 3.65075 25.6828 3.62544V1.97825C25.839 2.04013 25.9487 2.12631 26.0069 2.20925C26.2053 2.49181 26.595 2.56013 26.8776 2.36181C27.1601 2.16356 27.2284 1.77381 27.0302 1.49119C26.7665 1.11537 26.2956 0.799563 25.6828 0.6855V0.625C25.6828 0.279875 25.403 0 25.0578 0C24.7126 0 24.4328 0.279875 24.4328 0.625V0.730812C24.3639 0.74725 24.2941 0.766 24.2236 0.78725C23.4984 1.00569 22.9511 1.70925 22.8926 2.49813C22.8348 3.27919 23.2496 3.95738 24.0023 4.31231C24.099 4.35787 24.2464 4.41956 24.4329 4.49281V6.49625C24.1934 6.41275 23.9782 6.28487 23.8334 6.10519ZM26.3008 5.95706C26.2632 6.25275 26.0426 6.46475 25.6828 6.56187V4.96656C26.161 5.21194 26.3416 5.63506 26.3008 5.95706ZM24.1392 2.5905C24.1549 2.37781 24.2726 2.17388 24.4328 2.05969V3.12631C24.2212 2.99581 24.1224 2.816 24.1392 2.5905Z" fill="#101010"/>
<path d="M20.6952 13.5186H15.665C15.3199 13.5186 15.04 13.7984 15.04 14.1436V31.3754C15.04 31.7206 15.3199 32.0004 15.665 32.0004H20.6952C21.0404 32.0004 21.3202 31.7206 21.3202 31.3754V14.1436C21.3202 13.7984 21.0404 13.5186 20.6952 13.5186ZM20.0702 30.7504H16.29V14.7686H20.0702V30.7504Z" fill="#101010"/>
<path d="M5.95597 10.4229H0.925781C0.580594 10.4229 0.300781 10.7027 0.300781 11.0479V31.3749C0.300781 31.72 0.580594 31.9999 0.925781 31.9999H5.95597C6.30116 31.9999 6.58097 31.72 6.58097 31.3749V11.0479C6.58097 10.7027 6.30116 10.4229 5.95597 10.4229ZM5.33097 30.7499H1.55078V11.6729H5.33097V30.7499Z" fill="#101010"/>
<path d="M28.4353 16.1197L27.9088 13.1617C27.8483 12.8218 27.5238 12.5954 27.1839 12.6558C26.844 12.7164 26.6176 13.0409 26.6781 13.3807L26.851 14.3521L18.6159 6.34332C18.4304 6.16282 18.1529 6.11544 17.9179 6.22407L10.3022 9.74463L1.04254 1.43138C0.785668 1.20082 0.390543 1.22213 0.159918 1.47894C-0.0706447 1.73576 -0.0493947 2.13101 0.20748 2.36157L9.77348 10.9497C9.95929 11.1164 10.2265 11.1566 10.4533 11.0519L18.0525 7.53901L25.8277 15.1004L25.0468 14.9101C24.7114 14.8285 24.3733 15.034 24.2916 15.3694C24.2099 15.7048 24.4155 16.0428 24.7509 16.1246L27.672 16.8364C27.721 16.8484 27.7707 16.8542 27.82 16.8542C27.9771 16.8542 28.1307 16.7949 28.2479 16.6848C28.4018 16.5403 28.4724 16.3276 28.4353 16.1197Z" fill="#101010"/>
</svg>
