<svg width="25" height="40" viewBox="0 0 25 40" fill="none" xmlns="http://www.w3.org/2000/svg">
<path d="M16.2809 21.7082C18.5533 19.4359 18.5533 15.7516 16.2809 13.4793C14.0085 11.2069 10.3243 11.2069 8.05197 13.4793C5.77961 15.7516 5.77961 19.4359 8.05197 21.7082C10.3243 23.9806 14.0085 23.9806 16.2809 21.7082Z" fill="#FCE476"/>
<path d="M23.9141 25.3384L20.771 23.7346C21.2209 21.0931 21.5702 18.3736 21.5702 16.2949C21.5702 10.4468 19.1248 6.35825 17.0734 3.95809C14.8497 1.35637 12.6346 0.14418 12.5413 0.0938673C12.3097 -0.0312891 12.0306 -0.0312891 11.799 0.0938673C11.7058 0.144102 9.49061 1.35637 7.26686 3.95809C5.21545 6.35825 2.77014 10.4468 2.77014 16.2949C2.77014 18.3735 3.11928 21.093 3.56928 23.7346L0.42623 25.3384C0.117324 25.4961 -0.0506458 25.8383 0.013573 26.1791L1.76264 35.4529C1.81131 35.7107 1.98608 35.9269 2.22803 36.0284C2.32522 36.0692 2.42803 36.0893 2.53029 36.0893C2.68279 36.0893 2.83428 36.0447 2.96475 35.9573L6.45225 33.6244H8.43897C8.38179 33.8887 8.35257 34.1599 8.35257 34.4335C8.35257 36.3326 11.0671 39.2076 11.6113 39.7647C11.7583 39.9152 11.9598 40 12.1701 40C12.3805 40 12.582 39.9152 12.729 39.7647C13.2732 39.2076 15.9877 36.3325 15.9877 34.4335C15.9877 34.1599 15.9585 33.8887 15.9013 33.6244H17.888L21.3756 35.9573C21.5062 36.0446 21.6576 36.0893 21.8101 36.0893C21.9124 36.0893 22.0152 36.0692 22.1123 36.0284C22.3543 35.9269 22.5291 35.7107 22.5777 35.4529L24.3268 26.1791C24.3911 25.8383 24.223 25.4961 23.9141 25.3384ZM8.41397 5.02122C9.93811 3.22536 11.4817 2.13379 12.1702 1.69371C12.8594 2.13418 14.4026 3.22559 15.9265 5.02122C16.3709 5.54497 16.7794 6.08497 17.1519 6.64067H7.18858C7.56092 6.08497 7.96944 5.54497 8.41397 5.02122ZM6.25842 8.20317H18.082C19.3616 10.6441 20.0077 13.3527 20.0077 16.2949C20.0077 21.0709 18.0041 29.7305 17.443 32.0619H6.89741C6.33624 29.7308 4.3328 21.0726 4.3328 16.2949C4.3328 13.3527 4.97881 10.6441 6.25842 8.20317ZM1.65756 26.4643L3.85655 25.3422C4.441 28.4777 5.0992 31.2802 5.38498 32.4586L3.07904 34.0012L1.65756 26.4643ZM14.4253 34.4336C14.4253 35.2264 13.2423 36.8616 12.1702 38.0707C11.098 36.8616 9.91514 35.2263 9.91514 34.4336C9.91514 34.1551 9.96624 33.881 10.0648 33.6244H14.2758C14.3742 33.881 14.4253 34.1551 14.4253 34.4336ZM21.2615 34.0012L18.9555 32.4587C19.2413 31.2804 19.8995 28.4778 20.484 25.3423L22.683 26.4644L21.2615 34.0012Z" fill="#101010"/>
<path d="M12.1703 20.0877C13.546 20.0877 14.6653 18.9684 14.6653 17.5926C14.6653 16.2168 13.546 15.0977 12.1703 15.0977C10.7946 15.0977 9.67529 16.2169 9.67529 17.5927C9.67529 18.9684 10.7946 20.0877 12.1703 20.0877ZM12.1703 16.6602C12.6845 16.6602 13.1028 17.0785 13.1028 17.5927C13.1028 18.1069 12.6845 18.5252 12.1703 18.5252C11.6561 18.5252 11.2378 18.1069 11.2378 17.5927C11.2378 17.0784 11.6561 16.6602 12.1703 16.6602Z" fill="#101010"/>
</svg>
