<svg width="44" height="60" viewBox="0 0 41 40" fill="none" xmlns="http://www.w3.org/2000/svg">
    <path d="M20.0132 24.5347C22.5091 24.5347 24.5325 22.5113 24.5325 20.0154C24.5325 17.5194 22.5091 15.4961 20.0132 15.4961C17.5173 15.4961 15.4939 17.5194 15.4939 20.0154C15.4939 22.5113 17.5173 24.5347 20.0132 24.5347Z" fill="#FCE476"/>
    <path d="M37.3813 10.0386C38.209 9.32779 38.7358 8.27609 38.7358 7.10176C38.7358 4.96543 36.9985 3.22812 34.8622 3.22812C33.835 3.22812 32.9021 3.63293 32.2081 4.28754C28.6282 1.52044 24.3221 0 20.0133 0C15.7594 0 11.716 1.32093 8.28904 3.80516C7.7674 3.44293 7.13662 3.22799 6.45556 3.22799C4.67568 3.22799 3.22757 4.67609 3.22757 6.45597C3.22757 7.13194 3.43811 7.75816 3.79441 8.27719C1.31707 11.7011 0 15.738 0 19.9862C0 26.0096 2.62574 31.5645 7.23211 35.3826C7.15467 35.628 7.10107 35.8843 7.10107 36.1547C7.10107 37.579 8.25928 38.7372 9.68355 38.7372C10.3504 38.7372 10.9535 38.4764 11.4119 38.06C14.1086 39.3454 17.0015 40 20.014 40C31.05 40 40.0278 31.0222 40.0278 19.9862C40.0276 16.4895 39.1114 13.0523 37.3813 10.0386ZM34.8621 4.51998C36.2863 4.51998 37.4445 5.67819 37.4445 7.10245C37.4445 8.52672 36.2863 9.68493 34.8621 9.68493C33.4378 9.68493 32.2796 8.52672 32.2796 7.10245C32.2796 5.67819 33.4379 4.51998 34.8621 4.51998ZM6.45542 4.51998C7.52324 4.51998 8.39224 5.38898 8.39224 6.4568C8.39224 7.52462 7.52324 8.39362 6.45542 8.39362C5.3876 8.39362 4.5186 7.52462 4.5186 6.4568C4.5186 5.38898 5.3876 4.51998 6.45542 4.51998ZM9.68341 37.4459C8.97134 37.4459 8.39224 36.8668 8.39224 36.1547C8.39224 35.4427 8.97134 34.8636 9.68341 34.8636C10.3955 34.8636 10.9746 35.4427 10.9746 36.1547C10.9746 36.8668 10.3956 37.4459 9.68341 37.4459ZM20.0138 38.7087C17.2532 38.7087 14.601 38.1186 12.1233 36.9637C12.2086 36.7074 12.266 36.4389 12.266 36.1547C12.266 34.7305 11.1078 33.5723 9.68355 33.5723C8.99987 33.5723 8.38136 33.8441 7.91909 34.2792C3.69356 30.7109 1.29117 25.5622 1.29117 19.9862C1.29117 16.0712 2.48947 12.3512 4.73933 9.17995C5.23769 9.49506 5.82327 9.68479 6.45529 9.68479C8.23517 9.68479 9.68327 8.23668 9.68327 6.4568C9.68327 5.83058 9.49602 5.25009 9.18615 4.75435C12.3619 2.49539 16.0902 1.29199 20.013 1.29199C24.041 1.29199 28.0656 2.72976 31.4229 5.32767C31.1472 5.86034 30.9884 6.46259 30.9884 7.10245C30.9884 9.23878 32.7257 10.9761 34.8621 10.9761C35.3611 10.9761 35.8363 10.878 36.2746 10.7056C37.8835 13.5179 38.7363 16.724 38.7363 19.9863C38.7364 30.3094 30.337 38.7087 20.0138 38.7087Z" fill="#101010"/>
    <path d="M20.0131 4.51953C11.4699 4.51953 4.51855 11.4708 4.51855 20.0141C4.51855 28.5573 11.4699 35.5086 20.0131 35.5086C22.1605 35.5086 24.3296 34.9928 26.4736 33.9759C26.9475 34.5151 27.6338 34.863 28.4059 34.863C29.8302 34.863 30.9884 33.7048 30.9884 32.2805C30.9884 31.8156 30.8554 31.3851 30.6391 31.0074C33.8252 28.0376 35.5077 24.2518 35.5077 20.014C35.5077 11.4708 28.5564 4.51953 20.0131 4.51953ZM28.406 33.5718C27.694 33.5718 27.1149 32.9927 27.1149 32.2807C27.1149 31.5686 27.694 30.9895 28.406 30.9895C29.1181 30.9895 29.6972 31.5686 29.6972 32.2807C29.6972 32.9927 29.1181 33.5718 28.406 33.5718ZM29.7405 30.0804C29.3499 29.8429 28.896 29.6982 28.406 29.6982C26.9818 29.6982 25.8236 30.8564 25.8236 32.2807C25.8236 32.4679 25.8462 32.6494 25.8842 32.8256C23.9255 33.7482 21.955 34.2175 20.0131 34.2175C12.1812 34.2175 5.80972 27.846 5.80972 20.0141C5.80972 12.1822 12.1812 5.8107 20.0131 5.8107C27.845 5.8107 34.2165 12.1822 34.2165 20.0141C34.2164 23.8903 32.6696 27.3566 29.7405 30.0804Z" fill="#101010"/>
    <path d="M20.0132 9.03906C13.9614 9.03906 9.03796 13.9625 9.03796 20.0143C9.03796 21.6987 9.35307 23.2372 9.96566 24.6072C9.38848 25.2838 9.03796 26.1592 9.03796 27.1161C9.03796 29.2524 10.7753 30.9897 12.9116 30.9897C13.9814 30.9897 14.9511 30.5539 15.6522 29.8503C17.2554 30.6224 18.6537 30.9897 20.0134 30.9897C26.0652 30.9897 30.9886 26.0663 30.9886 20.0145C30.9886 13.9626 26.0651 9.03906 20.0132 9.03906ZM12.9116 29.6984C11.4873 29.6984 10.3291 28.5402 10.3291 27.116C10.3291 25.6917 11.4873 24.5335 12.9116 24.5335C14.3359 24.5335 15.4941 25.6917 15.4941 27.116C15.4941 28.5402 14.3357 29.6984 12.9116 29.6984ZM20.0132 29.6984C18.906 29.6984 17.7452 29.4047 16.4043 28.7804C16.6457 28.2755 16.7852 27.7126 16.7852 27.116C16.7852 24.9796 15.0479 23.2423 12.9116 23.2423C12.2163 23.2423 11.5649 23.4289 11 23.751C10.5545 22.6296 10.3293 21.3777 10.3293 20.0142C10.3293 14.6744 14.6736 10.3301 20.0134 10.3301C25.3532 10.3301 29.6975 14.6744 29.6975 20.0142C29.6975 25.354 25.3537 29.6984 20.0132 29.6984Z" fill="#101010"/>
</svg>