<svg width="37" height="40" viewBox="0 0 37 40" fill="none" xmlns="http://www.w3.org/2000/svg">
<path d="M31.7536 32.761V25.4209C30.2507 25.4209 29.0324 24.2109 29.0324 22.7183C29.0324 22.6666 29.0339 22.6154 29.0368 22.5645H7.2793C7.28219 22.6154 7.28368 22.6666 7.28368 22.7183C7.28368 24.2109 6.06539 25.4209 4.5625 25.4209V32.761C6.06539 32.761 7.28368 33.971 7.28368 35.4636H29.0324C29.0325 33.971 30.2508 32.761 31.7536 32.761Z" fill="#FCE476"/>
<path d="M13.0245 9.5958H15.051V14.6035C15.051 15.035 15.4009 15.3848 15.8323 15.3848H20.4841C20.9155 15.3848 21.2653 15.035 21.2653 14.6035V9.5958H23.2919C23.5773 9.5958 23.84 9.44018 23.9771 9.18986C24.1142 8.93955 24.1039 8.63439 23.9503 8.39392L18.8166 0.360548C18.673 0.135938 18.4248 0 18.1582 0C17.8916 0 17.6434 0.135938 17.4999 0.360548L12.3661 8.39385C12.2124 8.63431 12.2021 8.93947 12.3392 9.18978C12.4763 9.4401 12.7391 9.5958 13.0245 9.5958ZM18.1582 2.23204L21.8656 8.0333H20.4841C20.0527 8.0333 19.7028 8.38314 19.7028 8.81455V13.8223H16.6135V8.81455C16.6135 8.38314 16.2637 8.0333 15.8323 8.0333H14.4508L18.1582 2.23204Z" fill="#101010"/>
<path d="M33.8045 18.0273H2.51211C1.12696 18.0273 0 19.1543 0 20.5395V37.4886C0 38.8737 1.12696 40.0007 2.51211 40.0007H33.8046C35.1898 40.0007 36.3167 38.8737 36.3167 37.4886V20.5395C36.3167 19.1543 35.1898 18.0273 33.8045 18.0273ZM34.7542 37.4886C34.7542 38.0122 34.3282 38.4382 33.8046 38.4382H2.51211C1.98852 38.4382 1.5625 38.0122 1.5625 37.4886V20.5395C1.5625 20.0159 1.98852 19.5898 2.51211 19.5898H33.8046C34.3282 19.5898 34.7542 20.0159 34.7542 20.5395V37.4886Z" fill="#101010"/>
<path d="M18.1581 24.3984C15.6139 24.3984 13.5439 26.4683 13.5439 29.0125C13.5439 31.5567 15.6138 33.6267 18.1581 33.6267C20.7024 33.6267 22.7722 31.5568 22.7722 29.0125C22.7722 26.4683 20.7023 24.3984 18.1581 24.3984ZM18.1581 32.0641C16.4754 32.0641 15.1064 30.6952 15.1064 29.0124C15.1064 27.3298 16.4754 25.9609 18.1581 25.9609C19.8408 25.9609 21.2097 27.3298 21.2097 29.0124C21.2097 30.6951 19.8408 32.0641 18.1581 32.0641Z" fill="#101010"/>
</svg>
