<svg width="30" height="32" viewBox="0 0 30 32" fill="none" xmlns="http://www.w3.org/2000/svg">
<path d="M18.3184 4.29625H24.7896L24.0522 1.29238C23.8289 0.382501 22.9102 -0.174061 22.0003 0.0493139L17.6362 1.12056L18.3184 4.29625Z" fill="#FCE476"/>
<path d="M13.2454 2.19824L1.29241 5.13243C0.38254 5.3558 -0.174023 6.27449 0.0492899 7.18437L4.42304 25.0017V5.82443C4.42304 4.9803 5.10729 4.29605 5.95141 4.29605H12.7947L13.2454 2.19824Z" fill="#FCE476"/>
<path d="M5.95119 29.1753C5.766 29.1753 5.58857 29.1423 5.42432 29.082L5.82344 30.708C6.04682 31.6179 6.9655 32.1745 7.87538 31.9511L19.1831 29.1753H5.95119Z" fill="#FCE476"/>
<path d="M29.8264 24.8161L26.6899 12.0391V27.3327L28.5833 26.868C29.4932 26.6447 30.0498 25.726 29.8264 24.8161Z" fill="#FCE476"/>
<path d="M25.1617 3.67073H18.8234L18.3113 1.28711H19.0745C19.4197 1.28711 19.6995 1.00723 19.6995 0.662109C19.6995 0.316984 19.4197 0.0371094 19.0745 0.0371094H12.0383C11.6931 0.0371094 11.4133 0.316984 11.4133 0.662109C11.4133 1.0073 11.6931 1.28711 12.0383 1.28711H12.8015L12.2895 3.67073H5.95123C4.76385 3.67073 3.79785 4.63673 3.79785 5.82411V27.646C3.79785 28.8334 4.76385 29.7994 5.95123 29.7994H25.1617C26.349 29.7994 27.315 28.8334 27.315 27.646V5.82411C27.315 4.63673 26.349 3.67073 25.1617 3.67073ZM19.0747 7.1073V8.78442H12.0381V7.1073H19.0747ZM17.0327 1.28711L18.0145 5.85723H13.0983L14.0801 1.28711H17.0327ZM26.065 27.646C26.065 28.1442 25.6598 28.5494 25.1617 28.5494H5.95123C5.4531 28.5494 5.04785 28.1442 5.04785 27.646V5.82411C5.04785 5.32598 5.4531 4.92073 5.95123 4.92073H12.021L11.8198 5.85723H11.4131C11.0679 5.85723 10.7881 6.13711 10.7881 6.48223V9.40936C10.7881 9.75448 11.0679 10.0344 11.4131 10.0344H14.9314V13.1346C14.9314 13.4797 15.2113 13.7596 15.5564 13.7596C15.9015 13.7596 16.1814 13.4797 16.1814 13.1346V10.0344H19.6997C20.0448 10.0344 20.3247 9.75448 20.3247 9.40936V6.48223C20.3247 6.13711 20.0448 5.85723 19.6997 5.85723H19.293L19.0919 4.92073H25.1616C25.6597 4.92073 26.065 5.32598 26.065 5.82411V27.646H26.065Z" fill="#101010"/>
<path d="M22.4624 15.375H8.65137C8.30624 15.375 8.02637 15.6548 8.02637 16C8.02637 16.3451 8.30624 16.625 8.65137 16.625H22.4624C22.8076 16.625 23.0874 16.3451 23.0874 16C23.0874 15.6548 22.8076 15.375 22.4624 15.375Z" fill="#101010"/>
<path d="M22.4624 19.7598H8.65137C8.30624 19.7598 8.02637 20.0396 8.02637 20.3848C8.02637 20.7299 8.30624 21.0098 8.65137 21.0098H22.4624C22.8076 21.0098 23.0874 20.7299 23.0874 20.3848C23.0874 20.0396 22.8076 19.7598 22.4624 19.7598Z" fill="#101010"/>
</svg>
