<svg width="56" height="56" viewBox="0 0 56 56" fill="none" xmlns="http://www.w3.org/2000/svg">
<path d="M41.0674 18.5356C41.0987 25.5854 35.3772 31.5914 28.0104 31.6009C20.8234 31.6093 14.9244 25.8156 14.93 18.5221C14.9356 11.1335 20.9522 5.43999 28.0227 5.45511C35.2618 5.47023 41.1026 11.3799 41.0674 18.5356ZM28.515 13.3741C28.492 15.483 30.2599 17.1921 32.3319 17.1916C34.3126 17.1916 36.1455 15.5922 36.15 13.3685C36.1545 11.124 34.321 9.53583 32.351 9.53191C30.3148 9.52799 28.4909 11.2248 28.515 13.3741Z" fill="#DB353A"/>
<path d="M53.3161 44.1183C53.273 44.1038 53.2601 44.1133 53.2467 44.1357C52.9258 44.68 52.4224 44.9757 51.8271 45.0922C50.7737 45.301 49.7926 45.0989 48.9258 44.4538C48.2112 43.9218 47.8102 43.1876 47.6938 42.3129C47.5646 41.4282 47.7035 40.5251 48.0925 39.7201C48.6598 38.5441 49.6006 37.8357 50.8689 37.5613C51.3829 37.4431 51.9137 37.4165 52.4369 37.4829C53.7423 37.6615 54.6304 38.3671 55.1126 39.5851C55.2813 39.9972 55.3688 40.4379 55.3702 40.8832C55.3607 42.1942 55.4167 43.5034 55.4396 44.8138C55.4505 45.3311 55.3623 45.8456 55.1798 46.3298C54.7598 47.4408 53.9864 48.1979 52.8614 48.5731C51.9552 48.8788 50.9778 48.9042 50.0569 48.6459C49.7168 48.5567 49.3956 48.4067 49.1089 48.203C48.6245 47.8546 48.3518 47.3982 48.3809 46.7839C48.391 46.5678 48.3809 46.3505 48.3837 46.1338C48.3837 46.0912 48.3932 46.0464 48.4369 46.0324C48.4575 46.028 48.479 46.0295 48.4988 46.0367C48.5186 46.0439 48.536 46.0566 48.5489 46.0733C48.7447 46.2577 48.9692 46.409 49.2136 46.5213C49.5507 46.6778 49.9075 46.7876 50.2742 46.8478C50.6482 46.9105 51.0279 46.9315 51.4065 46.9105C51.7165 46.9004 52.0224 46.8372 52.3109 46.7234C52.862 46.4994 53.1913 46.089 53.3066 45.5116C53.3685 45.2171 53.3832 44.9147 53.3503 44.6156C53.3324 44.4493 53.3273 44.2785 53.3161 44.1183ZM53.2764 41.3183C53.2764 40.811 53.2204 40.4951 53.0809 40.186C52.8054 39.5661 52.2773 39.2799 51.6171 39.3135C50.9569 39.3471 50.4411 39.6753 50.1185 40.2594C49.941 40.5691 49.8347 40.9146 49.8074 41.2705C49.7801 41.6265 49.8324 41.9841 49.9606 42.3174C50.2277 43.0454 50.9126 43.5538 51.8965 43.3489C52.5125 43.2201 52.9045 42.8191 53.1246 42.2418C53.2322 41.9466 53.2837 41.634 53.2764 41.32V41.3183Z" fill="#686767"/>
<path d="M7.76931 38.0988C7.69203 38.0921 7.65731 38.0344 7.61419 37.9935C7.04635 37.4694 6.36483 37.2095 5.60771 37.1166C5.15668 37.0612 4.70052 37.0621 4.24971 37.1194C3.94087 37.1486 3.63962 37.2322 3.35987 37.3663C2.90123 37.6015 2.67835 37.9745 2.69347 38.493C2.695 38.6121 2.72226 38.7293 2.7734 38.8368C2.82454 38.9443 2.89833 39.0395 2.98971 39.1158C3.13207 39.2355 3.29182 39.333 3.46347 39.4047C3.85304 39.5693 4.25679 39.6981 4.66971 39.7894C5.02028 39.8734 5.3742 39.9462 5.72195 40.042C6.1922 40.1665 6.63598 40.3752 7.0318 40.658C7.60075 41.0713 7.98379 41.6162 8.06779 42.3173C8.25651 43.8685 7.63883 45.3575 5.93252 45.9814C5.1642 46.2614 4.36451 46.3286 3.55363 46.2647C3.15166 46.2421 2.75394 46.1707 2.36923 46.0519C2.1034 45.9692 1.85044 45.8497 1.61771 45.6969C1.08403 45.334 0.806275 44.8306 0.792835 44.1849C0.786675 43.8959 0.792835 43.607 0.792835 43.318C0.792835 43.2536 0.845475 43.2262 0.895315 43.262C0.961395 43.3113 1.02355 43.3662 1.08851 43.4166C2.07523 44.1827 3.19019 44.4806 4.42779 44.3361C4.69542 44.3117 4.95814 44.2489 5.20787 44.1496C5.4834 44.0331 5.70852 43.8584 5.83452 43.5807C5.98628 43.2447 5.98963 42.8991 5.90563 42.5508C5.86307 42.375 5.73763 42.2456 5.59539 42.1375C5.43578 42.023 5.26084 41.9316 5.07572 41.8659C4.60128 41.694 4.11457 41.5581 3.61971 41.4594C3.2455 41.3848 2.87733 41.2826 2.51819 41.1536C2.11912 41.0109 1.74735 40.801 1.41891 40.5331C0.776035 39.9922 0.503875 39.291 0.569955 38.4729C0.689795 37.0331 1.49003 36.0834 2.78587 35.5205C3.24232 35.3247 3.73144 35.2163 4.22787 35.2008C4.82708 35.1778 5.42459 35.1885 6.01203 35.3313C6.33466 35.4034 6.64424 35.5249 6.92987 35.6913C7.22782 35.8608 7.47138 36.1116 7.63211 36.4143C7.72368 36.577 7.77746 36.7583 7.78947 36.9446C7.79899 37.3053 7.80179 37.6665 7.80459 38.0277C7.80459 38.0501 7.78387 38.0758 7.76931 38.0988Z" fill="#686767"/>
<path d="M18.4693 42.769C18.088 42.769 17.706 42.769 17.3241 42.769C17.2076 42.769 17.1768 42.8094 17.2015 42.9219C17.2623 43.2056 17.3919 43.4701 17.5789 43.6919C17.9183 44.0957 18.3595 44.323 18.8669 44.4367C19.2858 44.5308 19.7069 44.5146 20.1303 44.4793C20.4493 44.4536 20.7644 44.3916 21.0694 44.2945C21.435 44.1814 21.775 43.9978 22.0701 43.7541C22.1339 43.6981 22.1972 43.7283 22.1972 43.8073C22.1972 44.1063 22.2151 44.4048 22.1659 44.7033C22.1351 44.9131 22.0609 45.1143 21.948 45.2938C21.835 45.4733 21.6859 45.6274 21.5101 45.746C21.2102 45.9496 20.8704 46.0873 20.5133 46.1498C19.8833 46.273 19.2494 46.325 18.6059 46.2405C17.0676 46.0394 15.6088 44.9295 15.1524 43.2282C15.0109 42.6993 14.9624 42.1498 15.0091 41.6042C15.0405 41.1202 15.1329 40.6421 15.284 40.1813C15.5904 39.2954 16.1084 38.569 16.908 38.0617C17.4406 37.7257 18.0252 37.5459 18.6507 37.4754C19.2983 37.3929 19.9561 37.4867 20.5547 37.747C21.5549 38.1882 22.1955 38.9392 22.4313 40.0144C22.5199 40.387 22.5327 40.7736 22.4688 41.1512C22.3865 41.5992 22.1659 41.9565 21.7811 42.2074C21.5 42.3817 21.1905 42.5054 20.8667 42.573C20.3731 42.6837 19.8698 42.7452 19.3642 42.7567C19.0651 42.7657 18.7661 42.7567 18.4682 42.7567L18.4693 42.769ZM18.2184 41.2806C18.6362 41.2761 19.0892 41.2806 19.5395 41.2162C19.7542 41.1914 19.9646 41.1377 20.165 41.0566C20.2768 41.0136 20.3725 40.937 20.4388 40.8373C20.5051 40.7375 20.5388 40.6196 20.5351 40.4999C20.5419 40.0211 20.3515 39.5994 19.8631 39.3799C19.4268 39.1836 18.936 39.1441 18.4738 39.2679C17.9166 39.4124 17.552 39.7876 17.3258 40.3062C17.2166 40.5554 17.1852 40.8214 17.1617 41.0902C17.1472 41.252 17.1645 41.2755 17.3191 41.2772C17.6069 41.2828 17.8953 41.2806 18.2184 41.2806Z" fill="#686767"/>
<path d="M46.3544 43.3146C46.3544 44.0986 46.3544 44.8826 46.3544 45.6666C46.3544 45.7288 46.3544 45.7909 46.3544 45.8525C46.3494 46.086 46.3455 46.0911 46.1075 46.0933C45.86 46.0933 45.6119 46.1023 45.3683 46.0446C44.8352 45.9186 44.4594 45.619 44.3004 45.0808C44.2528 44.9201 44.2589 44.7538 44.2589 44.5886C44.2589 43.5459 44.2589 42.5034 44.2589 41.461C44.2627 41.1406 44.2278 40.821 44.1548 40.509C44.1135 40.3383 44.0483 40.1742 43.961 40.0218C43.8083 39.7483 43.5619 39.5393 43.2672 39.4332C42.9074 39.2954 42.5137 39.2725 42.1404 39.3677C41.8164 39.448 41.5349 39.6481 41.3525 39.9277C41.192 40.1693 41.0894 40.4447 41.0529 40.7324C41.0218 40.9574 41.0061 41.1841 41.0059 41.4112C41.0085 42.8567 41.0085 44.3019 41.0059 45.7467C41.0059 46.1252 41.0305 46.0933 40.6508 46.0933C40.4447 46.1011 40.2382 46.0876 40.0348 46.053C39.397 45.9231 38.996 45.493 38.9277 44.8512C38.9166 44.7383 38.9114 44.6248 38.912 44.5113C38.912 43.4063 38.912 42.3018 38.912 41.1978C38.912 40.7498 38.954 40.3108 39.094 39.8846C39.4569 38.7809 40.181 38.026 41.2904 37.6659C42.1242 37.3954 42.9704 37.3568 43.8204 37.6009C45.1549 37.9857 45.9484 38.8805 46.2542 40.2234C46.3253 40.5682 46.3587 40.9197 46.3539 41.2717C46.3572 41.9516 46.3544 42.6331 46.3544 43.3146Z" fill="#676767"/>
<path d="M9.51405 40.5216C9.51405 39.6643 9.51405 38.8075 9.51405 37.9507C9.51038 37.7856 9.51936 37.6205 9.54093 37.4568C9.64789 36.7685 10.0545 36.2774 10.6049 35.8922C10.8749 35.704 11.1885 35.7079 11.5009 35.7331C11.5272 35.7347 11.5517 35.7466 11.5693 35.7662C11.5868 35.7858 11.5958 35.8116 11.5945 35.8378C11.5984 35.9101 11.5984 35.9823 11.5984 36.0546C11.5984 36.4673 11.5984 36.8805 11.5984 37.2933C11.5984 37.3655 11.5984 37.4377 11.5984 37.51C11.5963 37.5255 11.5978 37.5412 11.6026 37.5561C11.6074 37.571 11.6155 37.5846 11.6262 37.5959C11.6369 37.6073 11.65 37.6162 11.6646 37.6218C11.6791 37.6275 11.6948 37.6298 11.7104 37.6287C11.7933 37.6287 11.8756 37.6321 11.9579 37.6321H14.1262C14.1884 37.6321 14.25 37.6321 14.3121 37.6321C14.5132 37.6365 14.5177 37.6399 14.521 37.8443C14.521 38.0201 14.521 38.1954 14.521 38.3707C14.5171 38.9677 14.1559 39.3882 13.5645 39.4739C13.411 39.4938 13.2563 39.5033 13.1014 39.5025C12.7195 39.5064 12.3376 39.5025 11.9557 39.5025C11.8834 39.5025 11.8112 39.5025 11.7389 39.5025C11.6387 39.5081 11.6062 39.5377 11.6001 39.629C11.5956 39.6906 11.5967 39.7528 11.5967 39.8149C11.5967 40.7953 11.5967 41.776 11.5967 42.7572C11.5887 42.9947 11.6138 43.2321 11.6712 43.4627C11.8157 43.9667 12.1253 44.2467 12.6663 44.296C13.2448 44.3453 13.8221 44.3151 14.3637 44.0597C14.4785 44.0037 14.5177 44.03 14.5193 44.1504C14.5193 44.3744 14.5277 44.6051 14.5193 44.8314C14.493 45.3768 14.2304 45.7655 13.7286 45.99C13.5403 46.0756 13.3392 46.1297 13.1333 46.1502C12.5543 46.2062 11.9781 46.1838 11.4164 46.0124C10.4789 45.7274 9.89037 45.1035 9.64061 44.1594C9.55204 43.8193 9.50836 43.4692 9.51069 43.1178C9.51069 42.2509 9.51069 41.3839 9.51069 40.5166L9.51405 40.5216Z" fill="#686868"/>
<path d="M29.4624 39.4427C29.4624 37.9979 29.4624 36.5535 29.4624 35.1095C29.4624 34.8127 29.4529 34.8244 29.7513 34.8255C29.9065 34.8255 30.061 34.8255 30.2156 34.8289C30.3913 34.8335 30.5649 34.868 30.7291 34.9308C31.1519 35.0831 31.405 35.3861 31.5131 35.8178C31.553 35.9993 31.5707 36.1849 31.5657 36.3706C31.5657 38.6195 31.5657 40.8685 31.5657 43.1174C31.5657 43.2619 31.5657 43.407 31.5752 43.5503C31.6105 43.9849 31.8368 44.2565 32.2534 44.3679C32.4329 44.4161 32.618 44.4402 32.8039 44.4396C33.0105 44.4396 33.2166 44.4396 33.4232 44.4429C33.4921 44.4429 33.5459 44.4698 33.5481 44.5471C33.556 44.8271 33.5677 45.1071 33.4921 45.377C33.4546 45.5334 33.378 45.6777 33.2696 45.7965C33.1612 45.9153 33.0245 46.0047 32.8722 46.0563C32.728 46.1099 32.5774 46.144 32.4242 46.1577C31.9606 46.2001 31.4932 46.1516 31.0483 46.0149C30.1999 45.7461 29.7172 45.1547 29.5363 44.2968C29.4856 44.0332 29.4627 43.765 29.468 43.4966C29.4646 42.1455 29.4627 40.7942 29.4624 39.4427Z" fill="#686868"/>
<path d="M25.8463 43.3997C25.8463 44.2057 25.8463 45.0112 25.8463 45.8161C25.8463 46.0961 25.8429 46.0961 25.5769 46.0961C25.3109 46.0961 25.0399 46.1017 24.7756 46.0401C24.3001 45.9337 23.9445 45.6839 23.7933 45.2001C23.745 45.0419 23.721 44.8772 23.7222 44.7118C23.7222 43.4109 23.716 42.11 23.7261 40.8091C23.7215 40.2598 23.8361 39.716 24.0621 39.2154C24.4872 38.3026 25.2023 37.7762 26.1901 37.6121C26.5975 37.5365 27.0154 37.5382 27.4221 37.6171C27.615 37.6545 27.7998 37.7254 27.9681 37.8266C28.1573 37.9353 28.3148 38.0917 28.4249 38.2801C28.535 38.4685 28.594 38.6824 28.5959 38.9006C28.6037 39.1067 28.5998 39.3134 28.5959 39.52C28.5959 39.6701 28.5555 39.6936 28.4027 39.6454C28.3338 39.6242 28.2666 39.5967 28.1977 39.5749C27.8027 39.4496 27.3849 39.4129 26.9741 39.4674C26.5026 39.5301 26.1772 39.7843 26.0025 40.2262C25.9237 40.4176 25.8779 40.6209 25.867 40.8276C25.8569 41.0645 25.8485 41.3019 25.848 41.5394C25.8446 42.1593 25.8463 42.7787 25.8463 43.3997Z" fill="#686868"/>
<path d="M34.3604 40.9495C34.3604 39.999 34.3604 39.049 34.3604 38.0997C34.3604 37.8247 34.3604 37.8241 34.6275 37.8197C34.8751 37.8092 35.1232 37.824 35.3678 37.8639C35.9222 37.9759 36.2638 38.3041 36.3976 38.8489C36.4439 39.0509 36.4655 39.2578 36.462 39.4649C36.4594 40.704 36.4594 41.9431 36.462 43.1822C36.462 43.3161 36.4587 43.451 36.4715 43.5843C36.5113 43.9903 36.6922 44.2972 37.1844 44.3974C37.4083 44.4343 37.6353 44.4489 37.862 44.4411C38.1381 44.4411 38.137 44.4383 38.1353 44.7133C38.1433 44.9403 38.1266 45.1675 38.0854 45.3909C37.997 45.7829 37.7679 46.0276 37.3731 46.1189C37.2427 46.1494 37.1095 46.1667 36.9755 46.1704C36.645 46.1811 36.3146 46.1434 35.995 46.0584C35.211 45.8434 34.716 45.3349 34.4908 44.561C34.4002 44.2427 34.3561 43.913 34.3598 43.5821C34.3598 42.7045 34.3598 41.827 34.3598 40.9501L34.3604 40.9495Z" fill="#686868"/>
<path d="M34.1736 35.804C34.1743 35.4813 34.3028 35.172 34.5309 34.9437C34.7591 34.7155 35.0683 34.5868 35.391 34.5859C36.0697 34.5859 36.6521 35.1577 36.6309 35.823C36.6265 36.1468 36.4955 36.4561 36.266 36.6846C36.0365 36.9131 35.7266 37.0426 35.4028 37.0455C35.24 37.0467 35.0786 37.0152 34.9282 36.9531C34.7777 36.891 34.6412 36.7994 34.5267 36.6837C34.4121 36.568 34.3219 36.4306 34.2613 36.2795C34.2006 36.1284 34.1708 35.9667 34.1736 35.804Z" fill="#686868"/>
<path d="M34.1324 49.0047C34.1929 48.9487 34.2444 48.9006 34.3004 48.8591C34.6583 48.592 35.2306 48.7359 35.3084 49.2394C35.3236 49.31 35.3335 49.3817 35.3381 49.4538C35.3415 49.7529 35.3381 50.0525 35.3381 50.3498C35.3381 50.412 35.3381 50.4814 35.2563 50.4943C35.2203 50.5001 35.1833 50.4949 35.1503 50.4795C35.1172 50.464 35.0896 50.4389 35.071 50.4075C35.0414 50.3525 35.0291 50.2899 35.0357 50.2278C35.0357 50.001 35.0357 49.7736 35.0357 49.5462C35.0392 49.4324 35.0189 49.3192 34.9763 49.2136C34.9142 49.0697 34.805 49.0098 34.6252 49.0182C34.4572 49.026 34.3385 49.105 34.3032 49.2556C34.2798 49.3661 34.2679 49.4787 34.2679 49.5916C34.2629 49.8397 34.2679 50.0872 34.2679 50.3353C34.2679 50.3958 34.2747 50.4658 34.2013 50.4927C34.1558 50.5036 34.1078 50.4967 34.0671 50.4735C34.0264 50.4503 33.9961 50.4125 33.9823 50.3678C33.9683 50.2971 33.9616 50.2253 33.9622 50.1533C33.9594 49.9674 33.9622 49.7814 33.9594 49.5933C33.9585 49.4902 33.9469 49.3876 33.9247 49.287C33.9075 49.2052 33.8611 49.1324 33.7942 49.0824C33.7274 49.0323 33.6445 49.0083 33.5612 49.0148C33.3859 49.0182 33.2857 49.0994 33.2252 49.2802C33.1957 49.3897 33.1838 49.5031 33.1899 49.6162C33.1899 49.8744 33.1899 50.1326 33.1855 50.3907C33.1857 50.4085 33.1813 50.4261 33.1727 50.4417C33.1641 50.4573 33.1515 50.4703 33.1363 50.4796C33.1211 50.4889 33.1038 50.494 33.086 50.4946C33.0682 50.4951 33.0505 50.4909 33.0348 50.4826C32.9183 50.44 32.887 50.3465 32.8864 50.2373C32.8864 49.9685 32.8803 49.7002 32.8903 49.432C32.896 49.329 32.9196 49.2278 32.9603 49.133C33.0303 48.9697 33.1611 48.84 33.325 48.7715C33.4889 48.7031 33.6731 48.7011 33.8384 48.7662C33.9583 48.8194 34.0383 48.9146 34.1324 49.0047Z" fill="#706E6E"/>
<path d="M40.7366 49.3469C40.7517 49.4029 40.8026 49.4185 40.8418 49.4471C41.1778 49.689 41.0709 50.16 40.8133 50.3582C40.7566 50.4028 40.6925 50.4371 40.624 50.4596C40.3558 50.5387 40.0712 50.5439 39.8002 50.4747C39.6233 50.4333 39.5253 50.2994 39.504 50.1169C39.4991 50.0655 39.4972 50.0139 39.4984 49.9623C39.4984 49.5081 39.4984 49.054 39.4984 48.5998C39.4984 48.3557 39.5012 48.3534 39.7498 48.3053C39.9939 48.2589 40.244 48.2542 40.4896 48.2913C40.7903 48.3349 41.0317 48.5461 41.0014 48.9151C40.9969 49.0296 40.9486 49.1381 40.8665 49.2181C40.825 49.2601 40.7578 49.2802 40.7366 49.3469ZM39.7997 49.7949C39.7997 49.8464 39.7997 49.8973 39.7997 49.9489C39.7986 49.9694 39.7986 49.9899 39.7997 50.0105C39.8131 50.1376 39.8624 50.2098 39.9772 50.2305C40.1585 50.2716 40.3477 50.2617 40.5238 50.202C40.6918 50.1376 40.7584 50.0105 40.7416 49.8055C40.7276 49.6375 40.6537 49.5434 40.4818 49.5104C40.3607 49.4886 40.238 49.4773 40.115 49.4768C39.7851 49.4729 39.798 49.4617 39.7997 49.796V49.7949ZM40.1458 49.2349C40.2583 49.2293 40.3705 49.2175 40.4818 49.1996C40.6229 49.1699 40.6985 49.0596 40.7058 48.9067C40.7114 48.7449 40.6498 48.6429 40.5165 48.5886C40.3907 48.5448 40.2572 48.5278 40.1245 48.5388C39.8187 48.5483 39.7991 48.5673 39.7997 48.8748C39.7963 49.2511 39.77 49.2242 40.1458 49.2337V49.2349Z" fill="#737070"/>
<path d="M19.5846 49.4448C19.5762 49.589 19.5494 49.7317 19.5051 49.8692C19.3499 50.2976 19.01 50.5412 18.5665 50.5323C18.3587 50.5315 18.1569 50.4624 17.9922 50.3357C17.8275 50.2091 17.709 50.0318 17.6548 49.8312C17.5629 49.5334 17.5704 49.2138 17.6761 48.9206C17.8346 48.4698 18.1801 48.2452 18.6779 48.2682C19.094 48.2872 19.4216 48.5588 19.5353 48.9878C19.5757 49.1366 19.5924 49.2908 19.5846 49.4448ZM17.8912 49.3675C17.8867 49.5015 17.9056 49.6353 17.9472 49.7628C18.0351 50.0792 18.2792 50.2567 18.6091 50.2556C18.9171 50.2556 19.1489 50.0742 19.2391 49.7651C19.3063 49.5271 19.3063 49.2751 19.2391 49.0371C19.1539 48.7134 18.9271 48.5392 18.5872 48.5331C18.2663 48.5331 18.0362 48.6955 17.9432 49.0035C17.9033 49.1205 17.8856 49.244 17.8912 49.3675Z" fill="#706E6E"/>
<path d="M23.187 50.1097C23.2402 50.2889 23.1635 50.3857 23.033 50.4535C22.599 50.6775 22.0384 50.4692 21.8777 50.0111C21.8209 49.8604 21.8001 49.6985 21.817 49.5384C21.834 49.3782 21.8881 49.2243 21.9751 49.0888C22.0742 48.9228 22.2345 48.8024 22.4214 48.7535C22.6084 48.7046 22.8071 48.7311 22.9747 48.8272C23.0796 48.8847 23.1644 48.973 23.2176 49.0801C23.2708 49.1873 23.2898 49.3081 23.2721 49.4265C23.2676 49.4833 23.2476 49.5379 23.2143 49.5843C23.1811 49.6307 23.1358 49.6671 23.0834 49.6897C22.9695 49.7402 22.8461 49.7654 22.7216 49.7636C22.557 49.7636 22.3918 49.7636 22.2266 49.7703C22.2139 49.7711 22.2017 49.7748 22.1907 49.7811C22.1797 49.7874 22.1704 49.7961 22.1633 49.8066C22.1563 49.8171 22.1518 49.8291 22.1501 49.8417C22.1484 49.8542 22.1497 49.867 22.1538 49.8789C22.2098 50.0934 22.3873 50.234 22.6298 50.253C22.7877 50.2653 22.8947 50.2385 23.187 50.1097ZM22.5458 49.5194C22.5951 49.5161 22.7194 49.5144 22.8403 49.4959C22.9462 49.4797 22.9904 49.3985 22.9764 49.2909C22.9724 49.2339 22.9515 49.1793 22.9162 49.1342C22.881 49.0891 22.8331 49.0555 22.7787 49.0378C22.5318 48.9549 22.2344 49.0322 22.1471 49.3553C22.1179 49.4629 22.1499 49.5144 22.2563 49.5189C22.3279 49.5222 22.3991 49.5194 22.5458 49.5194Z" fill="#737070"/>
<path d="M37.1193 50.0879C37.1451 50.3299 37.0387 50.4357 36.8802 50.4833C36.2939 50.6575 35.8453 50.364 35.7462 49.8494C35.6931 49.5933 35.7407 49.3266 35.8789 49.1046C36.0772 48.7809 36.4569 48.6448 36.7906 48.7786C36.8937 48.8149 36.9852 48.8781 37.0555 48.9618C37.1258 49.0454 37.1724 49.1463 37.1905 49.2541C37.2241 49.4372 37.172 49.6646 36.9004 49.7251C36.8203 49.7436 36.7388 49.7558 36.6568 49.7615C36.533 49.7682 36.4087 49.7615 36.2855 49.7676C36.2166 49.7676 36.1259 49.7379 36.0873 49.8091C36.0374 49.902 36.0985 49.9871 36.1578 50.0594C36.2961 50.2274 36.4809 50.2705 36.687 50.2492C36.8411 50.2272 36.9885 50.1722 37.1193 50.0879ZM36.0553 49.5039C36.2785 49.532 36.5044 49.5309 36.7273 49.5005C36.8875 49.4803 36.9435 49.3527 36.8707 49.2048C36.8511 49.1629 36.8229 49.1257 36.788 49.0954C36.7531 49.0651 36.7122 49.0425 36.668 49.029C36.3426 48.9254 36.0665 49.1337 36.0581 49.5044L36.0553 49.5039Z" fill="#737070"/>
<path d="M41.487 49.1795C41.445 49.0569 41.4976 48.9645 41.5867 48.8844C41.8191 48.6761 42.2979 48.6705 42.5387 48.8732C42.592 48.9146 42.636 48.9668 42.6678 49.0263C42.6997 49.0858 42.7187 49.1514 42.7235 49.2187C42.7353 49.4987 42.7398 49.7754 42.7235 50.0526C42.7198 50.1465 42.6873 50.237 42.6304 50.3119C42.5735 50.3867 42.495 50.4422 42.4054 50.4709C42.1924 50.5565 41.9542 50.5549 41.7424 50.4664C41.5352 50.3802 41.4024 50.2334 41.4064 49.9971C41.4036 49.893 41.434 49.7906 41.4932 49.7049C41.5524 49.6191 41.6373 49.5544 41.7357 49.52C41.8219 49.4868 41.9117 49.4639 42.0033 49.4517C42.0946 49.4377 42.1881 49.4394 42.2833 49.4326C42.4071 49.4237 42.448 49.3705 42.4233 49.2557C42.4147 49.1937 42.3849 49.1366 42.339 49.094C42.293 49.0515 42.2338 49.0261 42.1713 49.0222C41.9973 48.9909 41.8178 49.0179 41.6606 49.0989C41.6046 49.1275 41.566 49.184 41.487 49.1795ZM42.2066 49.6936C42.0045 49.6936 41.916 49.7126 41.8241 49.7754C41.7945 49.7954 41.7696 49.8218 41.7514 49.8526C41.7331 49.8833 41.7218 49.9178 41.7184 49.9534C41.715 49.989 41.7195 50.025 41.7315 50.0587C41.7436 50.0924 41.763 50.123 41.7883 50.1483C41.9233 50.2682 42.0823 50.2794 42.2481 50.2267C42.4026 50.1774 42.4329 50.0509 42.4351 49.9098C42.4351 49.8795 42.4351 49.8487 42.4351 49.8179C42.4295 49.7255 42.4021 49.6998 42.2996 49.6942C42.2682 49.6925 42.2374 49.6936 42.2066 49.6936Z" fill="#737070"/>
<path d="M45.338 49.4228C45.45 49.4105 45.4752 49.3489 45.5161 49.3058C45.6432 49.1714 45.7687 49.0342 45.8952 48.8993C45.9478 48.8376 46.0182 48.7936 46.0967 48.7736C46.1752 48.7535 46.258 48.7583 46.3337 48.7873C46.3337 48.8589 46.2777 48.8802 46.2452 48.9149C46.0946 49.0701 45.9389 49.2207 45.7916 49.3786C45.6024 49.5813 45.6024 49.5466 45.7844 49.7796C45.949 49.9907 46.1125 50.2029 46.3416 50.3519C46.3847 50.3799 46.3667 50.4577 46.3169 50.4784C46.2657 50.5038 46.208 50.513 46.1514 50.5049C46.0948 50.4968 46.042 50.4718 46 50.4331C45.9167 50.3564 45.8385 50.2745 45.7659 50.1878C45.6584 50.0629 45.5564 49.933 45.4523 49.8053C45.4443 49.7926 45.4322 49.7831 45.418 49.7783C45.4039 49.7735 45.3885 49.7737 45.3744 49.779C45.3341 49.793 45.3408 49.8283 45.3403 49.8563C45.3364 50.0416 45.3369 50.227 45.3313 50.4123C45.33 50.4276 45.325 50.4423 45.3167 50.4552C45.3084 50.4681 45.297 50.4787 45.2837 50.4862C45.2703 50.4937 45.2553 50.4979 45.24 50.4983C45.2247 50.4987 45.2095 50.4953 45.1958 50.4885C45.1657 50.4809 45.1383 50.4653 45.1164 50.4433C45.0945 50.4213 45.0789 50.3937 45.0715 50.3636C45.0591 50.3032 45.0525 50.2417 45.0519 50.1799C45.0519 49.5725 45.0519 48.9646 45.0519 48.3561C45.0519 48.3359 45.0519 48.3152 45.0519 48.2945C45.0552 48.2312 45.0592 48.1657 45.1426 48.1606C45.1788 48.1557 45.2155 48.1633 45.2468 48.1822C45.2781 48.201 45.302 48.23 45.3145 48.2642C45.3319 48.3233 45.3394 48.3847 45.3369 48.4462C45.3369 48.673 45.3369 48.8998 45.3369 49.1266L45.338 49.4228Z" fill="#706E6E"/>
<path d="M13.4789 49.6325C13.4825 49.7615 13.4608 49.8899 13.415 50.0105C13.3086 50.3067 13.1104 50.4938 12.7839 50.524C12.4574 50.5542 12.1522 50.4092 12.0106 50.1197C11.9266 49.9585 11.8859 49.7783 11.8923 49.5966C11.8986 49.415 11.9519 49.2381 12.047 49.0831C12.1937 48.8278 12.439 48.7186 12.7251 48.7303C12.8662 48.7303 13.0043 48.7717 13.1221 48.8495C13.2398 48.9273 13.3322 49.0379 13.3876 49.1677C13.4545 49.3132 13.4858 49.4725 13.4789 49.6325ZM13.1737 49.6476C13.1832 49.5086 13.1529 49.3697 13.0863 49.2472C12.9267 48.9583 12.4927 48.9342 12.309 49.2024C12.1483 49.4359 12.164 49.8565 12.3438 50.0738C12.3956 50.1383 12.4637 50.1879 12.5411 50.2174C12.6184 50.2469 12.7022 50.2553 12.7839 50.2418C12.9637 50.2188 13.0746 50.1051 13.1334 49.9343C13.1632 49.8418 13.1769 49.7448 13.1737 49.6476Z" fill="#706E6E"/>
<path d="M32.4931 49.6162C32.4956 49.758 32.4701 49.8988 32.4181 50.0306C32.3117 50.3151 32.114 50.4915 31.8021 50.5212C31.4902 50.5509 31.2342 50.4428 31.0567 50.1785C30.8411 49.8559 30.8652 49.3161 31.1038 49.0103C31.4342 48.587 32.133 48.6519 32.3828 49.1291C32.4563 49.2809 32.4941 49.4475 32.4931 49.6162ZM32.189 49.6549C32.195 49.5053 32.1594 49.357 32.086 49.2265C31.918 48.9571 31.5064 48.9398 31.3255 49.1951C31.1609 49.4275 31.1721 49.8486 31.3502 50.067C31.559 50.3224 32.011 50.3308 32.1426 49.9416C32.1749 49.8503 32.1906 49.754 32.189 49.6571V49.6549Z" fill="#706E6E"/>
<path d="M13.8749 49.327C13.8749 49.1825 13.8749 49.0386 13.8749 48.8941C13.8749 48.8381 13.8866 48.7877 13.946 48.7726C13.9711 48.7661 13.9974 48.7653 14.0228 48.7705C14.0482 48.7756 14.0721 48.7865 14.0927 48.8023C14.1135 48.8175 14.1309 48.8369 14.1436 48.8593C14.1563 48.8817 14.1642 48.9065 14.1667 48.9322C14.1739 49.0039 14.1779 49.0755 14.1784 49.1478C14.1784 49.3124 14.1751 49.4776 14.1812 49.6422C14.1821 49.745 14.1952 49.8473 14.2204 49.9469C14.2338 49.9997 14.2578 50.0491 14.2911 50.0922C14.3244 50.1353 14.3661 50.1711 14.4138 50.1973C14.4615 50.2236 14.5141 50.2398 14.5683 50.2449C14.6225 50.2499 14.6772 50.2438 14.7289 50.2269C14.7848 50.2142 14.8362 50.1867 14.8778 50.1473C14.9194 50.1079 14.9496 50.058 14.9652 50.0029C14.9962 49.8937 15.0105 49.7804 15.0078 49.6669C15.0078 49.4093 15.0078 49.1517 15.0078 48.8941C15.0078 48.8426 15.0078 48.7866 15.0744 48.7726C15.0994 48.7656 15.1257 48.7647 15.1512 48.77C15.1766 48.7752 15.2004 48.7865 15.2206 48.8028C15.2509 48.83 15.274 48.8642 15.2878 48.9025C15.3036 48.9513 15.3118 49.0023 15.3119 49.0537C15.3119 49.3012 15.3119 49.5482 15.3119 49.7957C15.3102 49.8368 15.3057 49.8778 15.2984 49.9183C15.2228 50.41 14.772 50.6687 14.3083 50.4839C14.2113 50.447 14.1248 50.3869 14.0565 50.3088C13.9881 50.2307 13.94 50.137 13.9163 50.0359C13.8898 49.9257 13.8742 49.8132 13.8698 49.6999C13.862 49.5767 13.8698 49.453 13.8698 49.3292L13.8749 49.327Z" fill="#737070"/>
<path d="M25.9686 48.7342C25.902 48.7342 25.8656 48.6748 25.8141 48.6462C25.7093 48.5844 25.5915 48.5482 25.4701 48.5406C25.3487 48.5331 25.2272 48.5544 25.1156 48.6028C25.004 48.6512 24.9054 48.7253 24.828 48.8191C24.7505 48.9129 24.6964 49.0237 24.67 49.1424C24.6179 49.3656 24.6426 49.5997 24.74 49.8071C24.8968 50.165 25.2905 50.3296 25.6713 50.2143C25.7586 50.1832 25.8416 50.1411 25.9182 50.0888C25.9262 50.0847 25.935 50.0826 25.944 50.0826C25.953 50.0826 25.9618 50.0847 25.9698 50.0888C25.9762 50.0966 25.9809 50.1055 25.9838 50.1151C25.9867 50.1247 25.9876 50.1348 25.9866 50.1448C25.9809 50.2016 25.962 50.2563 25.9312 50.3044C25.9005 50.3524 25.8588 50.3926 25.8096 50.4215C25.7401 50.4662 25.6625 50.4969 25.5811 50.5116C25.3824 50.5528 25.1758 50.5325 24.9889 50.4535C24.8019 50.3745 24.6434 50.2405 24.5345 50.0692C24.2758 49.6487 24.2651 49.2107 24.5042 48.7762C24.6952 48.4295 25.0771 48.2016 25.5839 48.2772C25.672 48.2862 25.7558 48.3198 25.8257 48.3742C25.8956 48.4285 25.9488 48.5015 25.9793 48.5846C25.9906 48.6084 25.9956 48.6346 25.9937 48.6608C25.9918 48.687 25.9832 48.7123 25.9686 48.7342Z" fill="#737070"/>
<path d="M44.6074 49.8996C44.6074 50.0542 44.6074 50.2087 44.6074 50.3633C44.6074 50.4254 44.6035 50.491 44.5178 50.4977C44.4819 50.5048 44.4447 50.4994 44.4122 50.4825C44.3797 50.4656 44.354 50.4382 44.3392 50.4047C44.3187 50.3467 44.3088 50.2854 44.3101 50.2238C44.3061 50.0178 44.3101 49.8117 44.3067 49.6078C44.3066 49.5048 44.2978 49.402 44.2804 49.3004C44.2468 49.1324 44.1325 49.0417 43.9544 49.0204C43.7461 48.9986 43.6117 49.059 43.5344 49.2086C43.4889 49.3014 43.4673 49.4043 43.4717 49.5076C43.4717 49.7551 43.4717 50.0026 43.4717 50.2502C43.4729 50.3119 43.4695 50.3737 43.4616 50.435C43.4538 50.4803 43.4129 50.4954 43.3687 50.4966C43.3323 50.4986 43.2963 50.4888 43.266 50.4686C43.2357 50.4484 43.2127 50.4189 43.2007 50.3846C43.1831 50.3365 43.1744 50.2857 43.1749 50.2345C43.1727 49.9769 43.1727 49.7193 43.1749 49.4617C43.179 49.3367 43.2138 49.2146 43.2764 49.1063C43.339 48.9981 43.4273 48.9069 43.5335 48.8409C43.6398 48.7749 43.7607 48.7362 43.8855 48.7281C44.0103 48.7201 44.1352 48.743 44.249 48.7947C44.3434 48.8379 44.4244 48.9058 44.4836 48.9911C44.5427 49.0764 44.5777 49.1761 44.585 49.2797C44.608 49.4835 44.608 49.6907 44.6181 49.8957L44.6074 49.8996Z" fill="#706E6E"/>
<path d="M26.3042 49.3544C26.3042 49.1898 26.3042 49.0251 26.3042 48.8605C26.3042 48.7922 26.3641 48.758 26.433 48.7714C26.4742 48.7777 26.5121 48.7977 26.5406 48.8282C26.569 48.8587 26.5864 48.8979 26.5898 48.9394C26.5986 49.0211 26.6023 49.1032 26.601 49.1853C26.6049 49.4014 26.5982 49.6182 26.6122 49.8338C26.6239 50.0225 26.7163 50.1659 26.9079 50.2258C26.9564 50.2438 27.0081 50.2514 27.0598 50.2481C27.1114 50.2448 27.1618 50.2307 27.2077 50.2067C27.2535 50.1826 27.2938 50.1492 27.3259 50.1086C27.358 50.068 27.3811 50.0211 27.3939 49.971C27.4153 49.8809 27.4249 49.7885 27.4225 49.696C27.4264 49.439 27.4225 49.1814 27.4258 48.9238C27.4258 48.8644 27.4174 48.7944 27.4986 48.7748C27.5389 48.7654 27.5813 48.7704 27.6182 48.789C27.6552 48.8077 27.6844 48.8387 27.7008 48.8767C27.7143 48.9044 27.7222 48.9345 27.7243 48.9652C27.7243 49.2743 27.7406 49.5812 27.7193 49.8914C27.6907 50.2958 27.4286 50.5243 27.0266 50.5327C26.6396 50.5405 26.3546 50.3031 26.312 49.9099C26.3001 49.725 26.2988 49.5395 26.3081 49.3544H26.3042Z" fill="#737070"/>
<path d="M21.4084 49.8663C21.4084 50.0522 21.4118 50.2376 21.4084 50.4229C21.4084 50.4862 21.3524 50.5047 21.2964 50.498C21.1973 50.4862 21.1391 50.4386 21.1245 50.3496C21.1162 50.2883 21.1126 50.2265 21.1139 50.1648C21.1139 49.9794 21.1139 49.7935 21.1139 49.6076C21.1156 49.5355 21.1138 49.4633 21.1083 49.3914C21.0752 49.0773 20.7751 48.916 20.4922 49.0605C20.4411 49.086 20.3972 49.1238 20.3644 49.1705C20.3315 49.2173 20.3108 49.2714 20.3041 49.3281C20.292 49.421 20.2868 49.5145 20.2884 49.6081C20.2884 49.8557 20.2884 50.1032 20.2884 50.3507C20.2884 50.4117 20.2884 50.48 20.2106 50.498C20.17 50.5068 20.1275 50.5011 20.0907 50.4817C20.054 50.4624 20.0252 50.4306 20.0095 50.3921C19.9963 50.3533 19.9891 50.3127 19.9882 50.2717C19.9882 49.9917 19.9782 49.7117 19.9882 49.4362C20.0179 48.7771 20.6261 48.6248 21.0282 48.7855C21.2768 48.8846 21.3843 49.0924 21.4067 49.3455C21.4219 49.5191 21.4095 49.6955 21.4095 49.8708L21.4084 49.8663Z" fill="#747373"/>
<path d="M28.1668 50.0865C28.2853 50.1514 28.4113 50.2015 28.542 50.2355C28.6631 50.2638 28.7899 50.2552 28.906 50.2108C28.9453 50.1977 28.9796 50.1726 29.004 50.1391C29.0284 50.1055 29.0417 50.0652 29.0421 50.0238C29.0492 49.9825 29.042 49.9401 29.0216 49.9035C29.0012 49.8669 28.9689 49.8384 28.9301 49.8227C28.8254 49.7819 28.7162 49.7516 28.6087 49.7175C28.5186 49.6962 28.4303 49.6683 28.3443 49.634C28.1461 49.5377 28.0778 49.354 28.1472 49.1412C28.1716 49.0621 28.2144 48.99 28.2721 48.9306C28.4771 48.7218 28.878 48.6613 29.1339 48.8052C29.1866 48.8371 29.2334 48.8778 29.2723 48.9256C29.3283 48.9906 29.3316 49.0992 29.2907 49.1227C29.2347 49.1558 29.1944 49.1104 29.1513 49.0902C29.0095 49.026 28.8523 49.0039 28.6983 49.0264C28.6257 49.0341 28.5574 49.0642 28.5028 49.1126C28.481 49.1301 28.4639 49.1527 28.453 49.1784C28.4421 49.2041 28.4378 49.2321 28.4405 49.2599C28.4432 49.2877 28.4527 49.3144 28.4683 49.3376C28.4839 49.3608 28.505 49.3797 28.5297 49.3927C28.5953 49.4216 28.6631 49.4454 28.7324 49.4638C28.8495 49.5019 28.9704 49.531 29.0841 49.5758C29.4599 49.7287 29.3966 50.1963 29.1877 50.371C28.9788 50.5457 28.5459 50.5849 28.3124 50.4348C28.2774 50.4131 28.2464 50.3857 28.2206 50.3536C28.1955 50.3204 28.1777 50.2822 28.1685 50.2416C28.1633 50.1901 28.1627 50.1382 28.1668 50.0865Z" fill="#737070"/>
<path d="M11.6815 48.4221C11.6659 48.512 11.6323 48.5979 11.5829 48.6747C11.4496 48.9297 11.2952 49.1732 11.1215 49.4027C11.0309 49.515 10.9863 49.6575 10.9966 49.8014C11.0044 49.9868 10.9966 50.1721 10.9966 50.3581C10.9966 50.4202 10.9904 50.4869 10.9075 50.4953C10.8665 50.5024 10.8242 50.4952 10.7879 50.4748C10.7516 50.4544 10.7234 50.422 10.7082 50.3833C10.6962 50.3334 10.6904 50.2822 10.6908 50.2309C10.6908 50.0764 10.6841 49.9218 10.6908 49.7673C10.6958 49.6438 10.6578 49.5225 10.5833 49.424C10.3813 49.1376 10.2095 48.8311 10.0703 48.5095C10.0474 48.4635 10.0299 48.415 10.0182 48.365C10.0162 48.3549 10.0165 48.3446 10.019 48.3346C10.0216 48.3247 10.0263 48.3155 10.033 48.3077C10.0396 48.2998 10.0479 48.2936 10.0573 48.2895C10.0667 48.2854 10.0769 48.2834 10.0871 48.2838C10.1385 48.2753 10.1913 48.2834 10.2378 48.3068C10.2843 48.3303 10.3221 48.3679 10.3458 48.4143C10.4018 48.5134 10.4422 48.6192 10.4976 48.7178C10.5928 48.8886 10.6925 49.0572 10.795 49.2218C10.8381 49.2918 10.8891 49.2884 10.9383 49.2179C11.089 48.9963 11.2223 48.7634 11.3371 48.5212C11.3663 48.4556 11.3988 48.3915 11.4345 48.3291C11.4743 48.267 11.5392 48.2731 11.6025 48.2933C11.6284 48.3025 11.6503 48.3203 11.6647 48.3438C11.6791 48.3672 11.685 48.3948 11.6815 48.4221Z" fill="#747373"/>
<path d="M30.0587 48.4366C30.1265 48.534 30.0218 48.6886 30.1427 48.7457C30.2284 48.7866 30.3444 48.7625 30.4468 48.767C30.4776 48.767 30.5084 48.767 30.5392 48.767C30.602 48.767 30.6714 48.767 30.6737 48.8543C30.6787 48.8912 30.6701 48.9286 30.6495 48.9596C30.6289 48.9905 30.5976 49.0128 30.5616 49.0223C30.4915 49.0375 30.4204 49.0476 30.3488 49.0526C30.2979 49.0576 30.2458 49.0526 30.1943 49.0593C30.1427 49.066 30.0946 49.0935 30.094 49.1528C30.094 49.4328 30.0839 49.7095 30.0979 49.9867C30.1058 50.1547 30.2161 50.242 30.3852 50.2476C30.4365 50.2456 30.4875 50.2406 30.5381 50.2325C30.6261 50.2247 30.6675 50.2773 30.6451 50.3591C30.6362 50.3942 30.6183 50.4263 30.5931 50.4523C30.568 50.4784 30.5365 50.4974 30.5017 50.5075C30.1724 50.6195 29.865 50.4448 29.7983 50.1065C29.7889 50.0559 29.7842 50.0045 29.7843 49.9531C29.7843 49.5823 29.7843 49.2116 29.7843 48.8403C29.7766 48.7262 29.8106 48.6132 29.8801 48.5223C29.926 48.4663 29.9775 48.4125 30.0587 48.4366Z" fill="#737070"/>
<path d="M37.6088 49.8257C37.6088 49.6919 37.6026 49.558 37.6088 49.4248C37.6127 49.2904 37.6476 49.1588 37.7107 49.04C37.771 48.9307 37.8675 48.8459 37.9836 48.8001C38.0997 48.7543 38.2282 48.7504 38.3468 48.7892C38.3968 48.8037 38.44 48.8355 38.4688 48.8789C38.4976 48.9222 38.5101 48.9743 38.5042 49.026C38.5042 49.0664 38.4863 49.1067 38.428 49.0944C38.3685 49.0786 38.3078 49.0673 38.2466 49.0608C38.0657 49.0501 37.9739 49.1168 37.9392 49.2909C37.9214 49.3921 37.9126 49.4946 37.9128 49.5972C37.9095 49.8548 37.9128 50.1119 37.9128 50.3695C37.9128 50.421 37.9084 50.4747 37.8507 50.4971C37.8157 50.5062 37.7789 50.5049 37.7446 50.4934C37.7103 50.482 37.6801 50.4609 37.6575 50.4328C37.6227 50.3812 37.6047 50.3202 37.606 50.258C37.606 50.1136 37.606 49.9696 37.606 49.8257H37.6088Z" fill="#747373"/>
<path d="M15.7777 49.8194C15.7777 49.6856 15.7777 49.5518 15.7777 49.4185C15.7782 49.2733 15.8197 49.1312 15.8975 49.0086C15.9579 48.9115 16.0483 48.8368 16.155 48.7957C16.2618 48.7547 16.379 48.7496 16.4889 48.7812C16.5245 48.788 16.5579 48.8033 16.5863 48.8259C16.6147 48.8484 16.6371 48.8775 16.6518 48.9106C16.665 48.9329 16.6731 48.9578 16.6754 48.9836C16.6777 49.0093 16.6743 49.0353 16.6653 49.0596C16.6333 49.1223 16.5785 49.0881 16.5314 49.0775C16.5015 49.0695 16.4709 49.0637 16.4401 49.0601C16.2189 49.0433 16.1148 49.1256 16.0901 49.3507C16.0773 49.4734 16.0823 49.5977 16.0812 49.7209C16.0812 49.9449 16.0812 50.1734 16.0756 50.3996C16.0756 50.4797 16.0123 50.5166 15.9205 50.4925C15.8796 50.484 15.843 50.4614 15.8171 50.4287C15.7912 50.3959 15.7776 50.3551 15.7788 50.3133C15.7738 50.1487 15.7788 49.9841 15.7788 49.8194H15.7777Z" fill="#747373"/>
<path d="M28.5175 13.3744C28.4934 11.2251 30.3173 9.52831 32.3534 9.53223C34.3235 9.53615 36.1569 11.1243 36.1525 13.3688C36.148 15.5926 34.3151 17.1919 32.3344 17.1919C30.2624 17.1919 28.4945 15.4834 28.5175 13.3744Z" fill="#FFFEFE"/>
<path d="M18.2197 41.2812C17.8966 41.2812 17.6082 41.2812 17.3198 41.2812C17.1652 41.2812 17.1479 41.256 17.1624 41.0942C17.186 40.8271 17.2184 40.5611 17.3265 40.3102C17.5505 39.7916 17.9173 39.4142 18.4745 39.2719C18.9367 39.1481 19.4275 39.1876 19.8639 39.3839C20.3528 39.6012 20.5432 40.0229 20.5359 40.5039C20.5396 40.6237 20.5059 40.7416 20.4396 40.8413C20.3733 40.941 20.2776 41.0177 20.1657 41.0606C19.9654 41.1405 19.7552 41.1931 19.5408 41.2168C19.0905 41.2829 18.6375 41.2768 18.2197 41.2812Z" fill="#FCFCFC"/>
<path d="M39.7995 49.7953C39.7995 49.4593 39.7849 49.4721 40.117 49.4772C40.24 49.4777 40.3627 49.489 40.4838 49.5108C40.6557 49.5438 40.7296 49.6368 40.7436 49.8059C40.7604 50.0108 40.6927 50.138 40.5258 50.2024C40.3497 50.2621 40.1606 50.272 39.9792 50.2309C39.8672 50.2102 39.8152 50.138 39.8017 50.0108C39.8006 49.9903 39.8006 49.9698 39.8017 49.9493C39.7989 49.8955 39.7995 49.8468 39.7995 49.7953Z" fill="#F7F8F8"/>
<path d="M40.1442 49.2342C39.7684 49.2253 39.7947 49.2516 39.7947 48.8764C39.7947 48.5667 39.8138 48.5476 40.1195 48.5404C40.2522 48.5294 40.3858 48.5463 40.5115 48.5902C40.6471 48.6462 40.7064 48.7464 40.7008 48.9083C40.6947 49.0612 40.6191 49.1715 40.4768 49.2012C40.3666 49.2183 40.2556 49.2293 40.1442 49.2342Z" fill="#F7F8F8"/>
<path d="M17.8918 49.3677C17.8875 49.2439 17.9065 49.1204 17.9478 49.0036C18.0408 48.6956 18.2709 48.5304 18.5918 48.5332C18.9317 48.5366 19.1585 48.7108 19.2436 49.0372C19.3109 49.2753 19.3109 49.5272 19.2436 49.7653C19.1535 50.0744 18.9216 50.2541 18.6136 50.2558C18.2838 50.2558 18.0396 50.0794 17.9517 49.763C17.9088 49.6357 17.8886 49.5019 17.8918 49.3677Z" fill="#F7F8F8"/>
<path d="M22.5473 49.5187C22.4017 49.5187 22.3294 49.5215 22.2578 49.5187C22.1514 49.5142 22.1194 49.4627 22.1486 49.3552C22.2359 49.0321 22.5333 48.9548 22.7803 49.0377C22.8347 49.0554 22.8826 49.0889 22.9178 49.134C22.953 49.1791 22.9739 49.2337 22.9779 49.2908C22.9919 49.3983 22.9477 49.4795 22.8419 49.4957C22.7209 49.5136 22.5966 49.5153 22.5473 49.5187Z" fill="#F7F8F8"/>
<path d="M36.06 49.5044C36.0684 49.1342 36.34 48.9259 36.6709 49.0295C36.7152 49.043 36.756 49.0656 36.791 49.0959C36.8259 49.1262 36.854 49.1635 36.8737 49.2053C36.9465 49.3532 36.8905 49.4809 36.7303 49.501C36.508 49.5312 36.2826 49.5324 36.06 49.5044Z" fill="#F7F8F8"/>
<path d="M42.2064 49.6943C42.2372 49.6943 42.268 49.6943 42.2982 49.6943C42.4007 49.6999 42.4281 49.7257 42.4337 49.8181C42.4337 49.8489 42.4337 49.8797 42.4337 49.9099C42.4337 50.051 42.4013 50.1776 42.2467 50.2269C42.0787 50.2795 41.9219 50.2683 41.7869 50.1485C41.7617 50.1231 41.7423 50.0925 41.7302 50.0588C41.7181 50.0251 41.7136 49.9892 41.7171 49.9536C41.7205 49.9179 41.7317 49.8835 41.75 49.8527C41.7683 49.822 41.7931 49.7956 41.8228 49.7755C41.9157 49.7134 42.0042 49.6943 42.2064 49.6943Z" fill="#F7F8F8"/>
<path d="M13.1719 49.6479C13.1754 49.7458 13.1617 49.8436 13.1316 49.9369C13.0728 50.1049 12.9636 50.2214 12.7822 50.2443C12.7005 50.2579 12.6167 50.2495 12.5393 50.22C12.462 50.1904 12.3939 50.1409 12.342 50.0763C12.1623 49.859 12.1466 49.4385 12.3073 49.2049C12.491 48.9367 12.9233 48.9608 13.0846 49.2497C13.1508 49.3715 13.1811 49.5096 13.1719 49.6479Z" fill="#F7F8F8"/>
<path d="M32.1904 49.6579C32.1922 49.7555 32.1765 49.8526 32.1439 49.9446C32.0123 50.3338 31.5604 50.3254 31.3515 50.07C31.1734 49.8516 31.1622 49.4305 31.3268 49.1981C31.5077 48.9428 31.9182 48.9601 32.0874 49.2295C32.1607 49.36 32.1964 49.5083 32.1904 49.6579Z" fill="#F7F8F8"/>
</svg>
