<svg width="40" height="40" viewBox="0 0 40 40" fill="none" xmlns="http://www.w3.org/2000/svg">
<path d="M30.6787 3.62234H22.7373V2.52039C22.7373 1.13063 21.6066 0 20.2169 0H13.5543C12.1645 0 11.0338 1.13063 11.0338 2.52039V3.62227H3.09258C1.38734 3.62234 0 5.00969 0 6.71492V27.0702C0 28.7755 1.38734 30.1628 3.09258 30.1628H26.6738C27.1052 30.1628 27.4551 29.813 27.4551 29.3816C27.4551 28.9501 27.1052 28.6003 26.6738 28.6003H3.09258C2.24891 28.6003 1.5625 27.9139 1.5625 27.0702V17.6317C2.47375 18.5059 3.71 19.0438 5.06945 19.0438H6.03523V21.3888C6.03523 21.8203 6.385 22.1701 6.81648 22.1701H10.5454C10.9769 22.1701 11.3266 21.8203 11.3266 21.3888V19.0438H22.4445V21.3888C22.4445 21.8203 22.7944 22.1701 23.2258 22.1701H26.9547C27.3861 22.1701 27.7359 21.8203 27.7359 21.3888V19.0438H28.7017C30.0612 19.0438 31.2974 18.5059 32.2088 17.6317V24.6825C32.2088 25.114 32.5586 25.4638 32.99 25.4638C33.4214 25.4638 33.7713 25.114 33.7713 24.6825V6.71492C33.7713 5.00969 32.384 3.62234 30.6787 3.62234ZM12.5964 2.52039C12.5964 1.99219 13.0261 1.5625 13.5544 1.5625H20.217C20.7452 1.5625 21.1749 1.99219 21.1749 2.52039V3.62227H12.5964V2.52039ZM9.76422 20.6076H7.59781V15.9176H9.76422V20.6076ZM26.1735 20.6076H24.0071V15.9176H26.1735V20.6076ZM28.7018 17.4813H27.736V15.1363C27.736 14.7048 27.3862 14.3551 26.9548 14.3551H23.2259C22.7945 14.3551 22.4446 14.7048 22.4446 15.1363V17.4813H11.3267V15.1363C11.3267 14.7048 10.977 14.3551 10.5455 14.3551H6.81656C6.38508 14.3551 6.03531 14.7048 6.03531 15.1363V17.4813H5.06945C3.1357 17.4813 1.5625 15.9081 1.5625 13.9744V6.715C1.5625 5.87133 2.24891 5.18492 3.09258 5.18492H30.6786C31.5223 5.18492 32.2088 5.87133 32.2088 6.715V13.9744C32.2088 15.9081 30.6355 17.4813 28.7018 17.4813Z" fill="#101010"/>
<path d="M31.4105 39.9998C36.154 39.9998 39.9993 36.1545 39.9993 31.411C39.9993 26.6676 36.154 22.8223 31.4105 22.8223C26.6671 22.8223 22.8218 26.6676 22.8218 31.411C22.8218 36.1545 26.6671 39.9998 31.4105 39.9998Z" fill="#FCE476"/>
<path d="M32.6251 30.7791C32.494 30.7327 32.3694 30.6882 32.2514 30.6457V28.1354C32.5606 28.2296 32.7748 28.387 32.8799 28.5368C33.1277 28.89 33.615 28.9755 33.9682 28.7275C34.3214 28.4797 34.4068 27.9924 34.1589 27.6392C33.7905 27.1143 33.1227 26.6763 32.2514 26.5343V26.3691C32.2514 25.9377 31.9016 25.5879 31.4701 25.5879C31.0387 25.5879 30.6889 25.9377 30.6889 26.3691V26.5937C30.5702 26.62 30.4496 26.6514 30.3273 26.6883C29.347 26.9836 28.607 27.9359 28.5279 29.004C28.4497 30.0588 29.0113 30.9752 30.0301 31.4557C30.1746 31.5238 30.401 31.618 30.6889 31.7302V34.7362C30.287 34.6162 29.9179 34.4149 29.6781 34.1173C29.4073 33.7812 28.9156 33.7283 28.5795 33.9989C28.2435 34.2695 28.1905 34.7614 28.4612 35.0974C29.0305 35.8041 29.8708 36.1821 30.6889 36.3428V36.453C30.6889 36.8845 31.0387 37.2343 31.4701 37.2343C31.9016 37.2343 32.2514 36.8845 32.2514 36.453V36.4024C33.9778 36.1838 34.7314 35.0609 34.8587 34.0584C35.0369 32.6555 34.1184 31.307 32.6251 30.7791ZM30.0861 29.1196C30.1149 28.7311 30.3673 28.3609 30.6889 28.2177V30.0389C30.1536 29.7833 30.0655 29.3983 30.0861 29.1196ZM33.3087 33.8617C33.2465 34.3511 32.8667 34.6903 32.2514 34.8194V32.3096C33.0675 32.6598 33.3741 33.3459 33.3087 33.8617Z" fill="#101010"/>
</svg>
