<svg width="29" height="40" viewBox="0 0 29 40" fill="none" xmlns="http://www.w3.org/2000/svg">
<path d="M4.73218 11.7676H24.1205V23.503H4.73218V11.7676Z" fill="#FCE476"/>
<path d="M28.0728 0H3.32203C1.49023 0 0 1.49023 0 3.32195V36.678C0 38.5098 1.49023 40 3.32195 40H28.0727C28.5042 40 28.854 39.6502 28.854 39.2188V0.78125C28.8541 0.349766 28.5042 0 28.0728 0ZM22.2363 1.5625V6.30531L20.5714 5.62156C20.4763 5.5825 20.3755 5.56297 20.2746 5.56297C20.1738 5.56297 20.0729 5.5825 19.9778 5.62156L18.3129 6.30531V1.5625H22.2363ZM27.2916 38.4375H3.32203C2.35188 38.4375 1.56258 37.6482 1.56258 36.678V3.32195C1.5625 2.3518 2.3518 1.5625 3.32195 1.5625H16.7505V7.4707C16.7505 7.73117 16.8803 7.97461 17.0967 8.11961C17.313 8.26461 17.5874 8.29227 17.8285 8.19336L20.2747 7.18883L22.7209 8.19336C22.8164 8.23258 22.9172 8.25195 23.0176 8.25195C23.1704 8.25195 23.3221 8.20719 23.4527 8.11961C23.6691 7.97461 23.7989 7.73117 23.7989 7.4707V1.5625H27.2916V38.4375Z" fill="#101010"/>
<path d="M11.6164 21.0609C12.0196 21.2145 12.471 21.0121 12.6246 20.6089L12.8729 19.9571H14.6323L14.8775 20.6067C14.9955 20.9196 15.2928 21.1123 15.6085 21.1123C15.7001 21.1123 15.7934 21.0961 15.8842 21.0618C16.2879 20.9095 16.4916 20.4587 16.3393 20.055L14.5889 15.4171C14.5863 15.41 14.5835 15.4029 14.5806 15.3959C14.4432 15.0616 14.1209 14.8457 13.7595 14.8457H13.7587C13.3969 14.846 13.0746 15.0626 12.9377 15.3975C12.9353 15.4034 12.9329 15.4092 12.9307 15.4152L11.1644 20.0529C11.0108 20.456 11.2132 20.9073 11.6164 21.0609ZM14.0426 18.3946H13.4679L13.7566 17.6367L14.0426 18.3946Z" fill="#101010"/>
<path d="M17.2472 20.9697C17.384 21.066 17.541 21.1124 17.6964 21.1124C17.942 21.1124 18.1836 20.9969 18.3358 20.781L19.4713 19.1692L20.6048 20.7805C20.7569 20.9968 20.9988 21.1123 21.2445 21.1123C21.3998 21.1123 21.5567 21.0661 21.6933 20.97C22.0462 20.7218 22.131 20.2343 21.8827 19.8814L20.4271 17.8123L21.6496 16.077C21.8981 15.7243 21.8136 15.2369 21.4609 14.9883C21.1081 14.7399 20.6208 14.8243 20.3722 15.1771L19.4721 16.4547L18.5736 15.1775C18.3252 14.8246 17.8381 14.7398 17.4851 14.9881C17.1322 15.2364 17.0474 15.7237 17.2956 16.0766L18.5162 17.8117L17.0583 19.8811C16.8099 20.2339 16.8945 20.7213 17.2472 20.9697Z" fill="#101010"/>
<path d="M7.60905 16.4082H8.12147V20.3309C8.12147 20.7623 8.47124 21.1121 8.90272 21.1121C9.33421 21.1121 9.68397 20.7623 9.68397 20.3309V16.4082H10.2069C10.6384 16.4082 10.9881 16.0584 10.9881 15.627C10.9881 15.1955 10.6384 14.8457 10.2069 14.8457H7.60913C7.17765 14.8457 6.82788 15.1955 6.82788 15.627C6.82788 16.0584 7.17757 16.4082 7.60905 16.4082Z" fill="#101010"/>
<path d="M22.558 27.5352H6.29468C5.86319 27.5352 5.51343 27.8849 5.51343 28.3164C5.51343 28.7479 5.86319 29.0977 6.29468 29.0977H22.558C22.9894 29.0977 23.3392 28.7479 23.3392 28.3164C23.3392 27.8849 22.9894 27.5352 22.558 27.5352Z" fill="#101010"/>
<path d="M19.4504 30.8809H9.4021C8.97062 30.8809 8.62085 31.2306 8.62085 31.6621C8.62085 32.0936 8.97062 32.4434 9.4021 32.4434H19.4503C19.8818 32.4434 20.2316 32.0936 20.2316 31.6621C20.2316 31.2306 19.8819 30.8809 19.4504 30.8809Z" fill="#101010"/>
</svg>
