<svg width="39" height="32" viewBox="0 0 39 32" fill="none" xmlns="http://www.w3.org/2000/svg">
<path d="M37.8368 20.1024L31.6464 3.64C31.6448 3.6368 31.6448 3.6336 31.6432 3.6304L31.6416 3.6288C30.8256 1.4576 28.7184 0 26.4 0C24.0816 0 21.9744 1.4576 21.1568 3.6304C20.92 4.2608 20.8 4.9248 20.8 5.6V12.8H17.6V5.6C17.6 2.512 15.088 0 12 0C9.6816 0 7.5744 1.4576 6.7568 3.6304C6.7552 3.6336 6.7552 3.6368 6.7536 3.64L0.5632 20.0976C0.5632 20.0992 0.5616 20.0992 0.5616 20.0992C0.1888 21.0928 0 22.1344 0 23.2C0 28.0528 3.9488 32 8.8 32C13.6512 32 17.6 28.0528 17.6 23.2V22.4H20.8V23.2C20.8 28.0528 24.7488 32 29.6 32C34.4512 32 38.4 28.0528 38.4 23.2C38.4 22.1344 38.2112 21.0928 37.8368 20.1024ZM8.8 28.8C5.712 28.8 3.2 26.288 3.2 23.2C3.2 22.5216 3.32 21.8576 3.5568 21.2288C4.3728 19.0592 6.48 17.6 8.8 17.6C11.888 17.6 14.4 20.112 14.4 23.2C14.4 26.288 11.888 28.8 8.8 28.8ZM29.6 28.8C26.512 28.8 24 26.288 24 23.2C24 20.112 26.512 17.6 29.6 17.6C31.92 17.6 34.0272 19.0592 34.8432 21.2288C35.08 21.8576 35.2 22.5216 35.2 23.2C35.2 26.288 32.688 28.8 29.6 28.8Z" fill="#101010"/>
</svg>
