<svg width="32" height="34" viewBox="0 0 32 34" fill="none" xmlns="http://www.w3.org/2000/svg">
    <path d="M4.35905 17.7612H3.52401C3.15828 17.7612 2.86169 17.4646 2.86169 17.0988C2.86169 16.7331 3.15828 16.4365 3.52401 16.4365H4.35905C4.72478 16.4365 5.02137 16.7331 5.02137 17.0988C5.02137 17.4646 4.72485 17.7612 4.35905 17.7612Z" fill="#101010"/>
    <path d="M15.221 4.55579C15.5344 4.08343 15.7117 3.52146 15.7117 2.93398C15.7116 1.31615 14.3955 0 12.7777 0C11.1599 0 9.84371 1.31615 9.84371 2.93398C9.84371 3.52152 10.021 4.0835 10.3343 4.55586C4.4534 5.69921 0 10.8888 0 17.0992C0 24.1449 5.73206 29.8769 12.7778 29.8769C15.7953 29.8769 18.7241 28.8053 21.0248 26.8595C21.3041 26.6234 21.339 26.2054 21.1028 25.9261C20.8666 25.6468 20.4486 25.6119 20.1693 25.8481C18.1075 27.5919 15.4825 28.5522 12.7778 28.5522C6.46246 28.5522 1.32463 23.4144 1.32463 17.0991C1.32463 10.7838 6.46246 5.64603 12.7777 5.64603C19.0929 5.64603 24.2308 10.7839 24.2308 17.0992C24.2308 18.2993 24.0462 19.4812 23.6822 20.612C23.5702 20.9602 23.7615 21.3333 24.1097 21.4454C24.4579 21.5576 24.831 21.3661 24.9431 21.0179C25.3495 19.7557 25.5555 18.4372 25.5555 17.0992C25.5555 10.8888 21.102 5.69908 15.221 4.55579ZM12.0025 4.34471C11.4921 4.0635 11.1683 3.52205 11.1683 2.93398C11.1684 2.04655 11.8903 1.32463 12.7777 1.32463C13.665 1.32463 14.387 2.04655 14.387 2.93398C14.387 3.52199 14.0632 4.06356 13.5529 4.34471C13.2965 4.32928 13.038 4.3214 12.7777 4.3214C12.5174 4.3214 12.259 4.32928 12.0025 4.34471Z" fill="#101010"/>
    <path d="M13.438 8.67998V7.84493C13.438 7.4792 13.1414 7.18262 12.7757 7.18262C12.41 7.18262 12.1134 7.4792 12.1134 7.84493V8.67998C12.1134 9.04571 12.41 9.34229 12.7757 9.34229C13.1414 9.34229 13.438 9.04571 13.438 8.67998Z" fill="#101010"/>
    <path d="M12.1134 25.5185V26.3536C12.1134 26.7194 12.41 27.0159 12.7757 27.0159C13.1414 27.0159 13.438 26.7194 13.438 26.3536V25.5185C13.438 25.1528 13.1414 24.8562 12.7757 24.8562C12.41 24.8562 12.1134 25.1528 12.1134 25.5185Z" fill="#101010"/>
    <path d="M22.0312 16.4365H21.1961C20.8304 16.4365 20.5338 16.7331 20.5338 17.0988C20.5338 17.4646 20.8304 17.7612 21.1961 17.7612H22.0312C22.3969 17.7612 22.6935 17.4646 22.6935 17.0988C22.6935 16.7331 22.3969 16.4365 22.0312 16.4365Z" fill="#101010"/>
    <path d="M18.8523 10.087L18.2618 10.6775C18.0032 10.9361 18.0032 11.3555 18.2618 11.6142C18.3912 11.7435 18.5607 11.8082 18.7302 11.8082C18.8997 11.8082 19.0691 11.7435 19.1985 11.6142L19.7889 11.0238C20.0476 10.7651 20.0476 10.3457 19.7889 10.087C19.5302 9.82841 19.111 9.82841 18.8523 10.087Z" fill="#101010"/>
    <path d="M5.76771 24.1113C5.89706 24.2406 6.06655 24.3053 6.23604 24.3053C6.40552 24.3053 6.57501 24.2406 6.70436 24.1113L7.29488 23.5208C7.55351 23.2621 7.55351 22.8428 7.29488 22.5841C7.03618 22.3255 6.61693 22.3255 6.35817 22.5841L5.76765 23.1746C5.50908 23.4333 5.50908 23.8527 5.76771 24.1113Z" fill="#101010"/>
    <path d="M6.35835 11.6142C6.48763 11.7436 6.65712 11.8082 6.8266 11.8082C6.99609 11.8082 7.16564 11.7435 7.29493 11.6142C7.55356 11.3555 7.55356 10.9362 7.29486 10.6775L6.70434 10.0871C6.44577 9.82836 6.02633 9.82842 5.7677 10.0871C5.50906 10.3458 5.50906 10.7651 5.76776 11.0238L6.35835 11.6142Z" fill="#101010"/>
    <path d="M14.4651 18.3709L15.5405 15.1749C15.6208 14.9364 15.559 14.6732 15.3812 14.4953C15.2033 14.3173 14.94 14.2556 14.7016 14.3359L11.5056 15.4113C11.3093 15.4774 11.1551 15.6315 11.0891 15.8278L10.0136 19.0238C9.93336 19.2623 9.99515 19.5255 10.173 19.7034C10.2992 19.8297 10.4685 19.8974 10.6414 19.8974C10.712 19.8974 10.7834 19.8861 10.8525 19.8629L14.0486 18.7874C14.2449 18.7213 14.3991 18.5672 14.4651 18.3709ZM13.3145 17.6368L11.6946 18.1818L12.2397 16.5619L13.8596 16.0168L13.3145 17.6368Z" fill="#101010"/>
    <path d="M24.4646 33.9106C28.626 33.9106 31.9995 30.5371 31.9995 26.3757C31.9995 22.2143 28.626 18.8408 24.4646 18.8408C20.3032 18.8408 16.9297 22.2143 16.9297 26.3757C16.9297 30.5371 20.3032 33.9106 24.4646 33.9106Z" fill="#FCE476"/>
    <path d="M25.4945 25.8398C25.3833 25.8004 25.2777 25.7627 25.1776 25.7267V23.5986C25.4398 23.6784 25.6214 23.812 25.7104 23.9389C25.9206 24.2384 26.3337 24.3108 26.633 24.1006C26.9325 23.8905 27.0049 23.4774 26.7947 23.178C26.4824 22.733 25.9163 22.3616 25.1776 22.2412V22.1013C25.1776 21.7355 24.881 21.439 24.5153 21.439C24.1496 21.439 23.853 21.7355 23.853 22.1013V22.2916C23.7524 22.3139 23.6501 22.3406 23.5464 22.3718C22.7153 22.6221 22.088 23.4295 22.021 24.335C21.9547 25.2292 22.4308 26.0061 23.2944 26.4134C23.4167 26.4712 23.6087 26.551 23.853 26.6462V29.1946C23.5124 29.0928 23.1993 28.9222 22.9961 28.6698C22.7665 28.385 22.3497 28.3401 22.0647 28.5694C21.7799 28.7989 21.735 29.2159 21.9644 29.5008C22.447 30.0999 23.1594 30.4203 23.853 30.5566V30.65C23.853 31.0158 24.1496 31.3123 24.5154 31.3123C24.8811 31.3123 25.1777 31.0158 25.1777 30.65V30.6072C26.6412 30.4219 27.2801 29.4699 27.388 28.62C27.539 27.4306 26.7603 26.2873 25.4945 25.8398ZM23.3419 24.433C23.3664 24.1036 23.5804 23.7897 23.853 23.6684V25.2123C23.3992 24.9956 23.3245 24.6692 23.3419 24.433ZM26.0739 28.4532C26.0212 28.8681 25.6992 29.1556 25.1776 29.2651V27.1374C25.8694 27.4342 26.1294 28.0159 26.0739 28.4532Z" fill="#101010"/>
</svg>