<svg width="56" height="26" viewBox="0 0 56 26" fill="none" xmlns="http://www.w3.org/2000/svg">
<path d="M0.874438 21.6457L0.464481 23.7775C0.409821 23.9414 0.409821 24.0781 0.409821 24.2421C0.409821 24.7067 0.683125 24.9253 1.06575 24.9253C1.5577 24.9253 1.91299 24.5974 2.04964 23.7775L2.48693 21.6457H2.92422L2.51426 23.7775C2.32295 24.8433 1.80367 25.2806 1.03842 25.2806C0.409821 25.2806 -0.0274658 24.9527 -0.0274658 24.2147L-0.000135416 23.6955L0.38249 21.6183H0.874438V21.6457ZM3.55282 25.2806L3.88078 23.4495C3.96277 23.1489 3.96277 22.9029 4.01743 22.6842H4.40006L4.31807 23.1762C4.53671 22.7936 4.89201 22.6022 5.27463 22.6022C5.57527 22.6022 5.90323 22.7936 5.90323 23.3128L5.8759 23.7501L5.57527 25.226H5.11065L5.38395 23.7501L5.41128 23.3948C5.41128 23.1489 5.30196 22.9575 5.00133 22.9575C4.70069 22.9575 4.23608 23.3128 4.12676 23.9688L3.88078 25.226H3.55282V25.2806ZM6.8598 25.2806L7.35174 22.6842H7.81636L7.32441 25.2806H6.8598ZM7.43373 21.9463C7.43373 21.8097 7.59772 21.6457 7.73437 21.6457C7.89835 21.6457 8.00767 21.755 8.00767 21.919C8.00767 22.1103 7.89835 22.2196 7.70704 22.2196C7.54306 22.2196 7.43373 22.1103 7.43373 21.9463ZM9.72949 22.001L9.62017 22.6842H10.2214L10.1394 23.0122H9.53818L9.31953 24.2694C9.26487 24.4334 9.26487 24.5427 9.26487 24.7067C9.26487 24.8433 9.34686 24.9253 9.51085 24.9253H9.70216L9.6475 25.2806L9.31953 25.308C8.93691 25.308 8.77292 25.0893 8.77292 24.816L8.80025 24.3241L9.07356 23.0122H8.69093L8.77292 22.6842H9.15555L9.26487 22.1103L9.72949 22.001ZM12.5992 25.1166C12.4079 25.226 12.0799 25.308 11.7519 25.308C11.0687 25.308 10.768 24.8433 10.768 24.2694C10.768 23.5041 11.342 22.6022 12.1619 22.6022C12.6538 22.6022 12.9271 22.9029 12.9271 23.2582C12.9271 23.9414 12.1619 24.1327 11.2053 24.0781C11.178 24.2147 11.2053 24.4334 11.26 24.5974C11.3693 24.816 11.5606 24.9253 11.8339 24.9253C12.1346 24.9253 12.3532 24.816 12.5172 24.734L12.5992 25.1166ZM12.0799 22.9575C11.6699 22.9575 11.3693 23.3675 11.26 23.7501C11.9433 23.7501 12.4625 23.6681 12.4625 23.2582C12.4625 23.0669 12.3259 22.9575 12.0799 22.9575ZM16.3708 21.4544L15.7968 24.4334C15.7422 24.7067 15.6875 25.0073 15.6875 25.226H15.2502L15.3322 24.734C15.1136 25.1166 14.7583 25.308 14.4303 25.308C13.911 25.308 13.6651 24.898 13.6651 24.3514C13.6651 23.4495 14.3483 22.6022 15.2502 22.6022C15.4142 22.6022 15.6055 22.6296 15.7148 22.6842L15.9335 21.4544H16.3708ZM15.6329 23.0669C15.5509 22.9849 15.4142 22.9575 15.2229 22.9575C14.6216 22.9575 14.1024 23.5861 14.1024 24.2694C14.1024 24.5974 14.239 24.9253 14.6216 24.9253C14.9496 24.9253 15.3869 24.5427 15.4962 23.9688L15.6329 23.0669ZM19.0218 21.7003C19.2678 21.6457 19.5411 21.6183 19.7871 21.6183C20.1697 21.6183 20.443 21.7003 20.6343 21.8643C20.7983 22.0283 20.9076 22.2196 20.9076 22.4383C20.9076 22.9029 20.525 23.2582 20.1424 23.3675C20.4977 23.4768 20.7436 23.7501 20.7436 24.1601C20.7436 24.5427 20.5523 24.816 20.3337 25.0073C20.0604 25.226 19.6504 25.308 19.1585 25.308L18.3932 25.2806L19.0218 21.7003ZM18.8852 24.898L19.2678 24.9253C19.7871 24.9253 20.3064 24.7067 20.3064 24.1327C20.3064 23.6955 19.9511 23.5041 19.5411 23.5041H19.1858L18.8852 24.898ZM19.2131 23.1762H19.5684C20.0604 23.1762 20.4977 22.9029 20.4977 22.4929C20.4977 22.1376 20.2244 22.001 19.8417 22.001L19.4591 22.0283L19.2131 23.1762ZM23.3127 25.2806L23.3947 24.6247C23.1214 25.144 22.7388 25.3353 22.3835 25.3353C21.9462 25.3353 21.6729 24.9527 21.6729 24.5154C21.6729 23.5861 22.3288 22.6842 23.4494 22.6842C23.6953 22.6842 23.996 22.7116 24.1599 22.7936L23.8866 24.1327C23.8046 24.5974 23.7773 25.0347 23.7773 25.308H23.3127V25.2806ZM23.6133 22.9849L23.3127 22.9575C22.6568 22.9575 22.0828 23.6408 22.0828 24.3514C22.0828 24.652 22.1922 24.9253 22.5474 24.9253C22.9301 24.9253 23.34 24.4334 23.4494 23.7501L23.6133 22.9849ZM24.8705 25.2806L25.2258 23.4495L25.3351 22.6842H25.7178L25.6358 23.1762C25.8544 22.7936 26.2097 22.6022 26.5923 22.6022C26.893 22.6022 27.2483 22.7936 27.2483 23.3128L27.1936 23.7501L26.893 25.226H26.4284L26.7017 23.7501L26.729 23.3948C26.729 23.1489 26.6197 22.9575 26.319 22.9575C26.0184 22.9575 25.5538 23.3128 25.4445 23.9688L25.2258 25.226H24.8705V25.2806ZM28.2322 25.2806L28.9428 21.509H29.38L28.9154 23.8594C28.9974 23.7775 29.1067 23.6681 29.1341 23.5861L30.0633 22.6842H30.5826L29.462 23.7501L30.2 25.2806H29.708L29.1067 24.0234L28.7514 24.3241L28.5601 25.308H28.2322V25.2806ZM32.6597 25.2806L33.0697 23.0122H32.7417L32.7963 22.6842H33.1516L33.179 22.5203C33.261 22.1376 33.3703 21.837 33.6163 21.6183C33.7529 21.4544 33.9989 21.3724 34.2175 21.3724C34.4088 21.3724 34.5182 21.427 34.5728 21.4544L34.4362 21.8097C34.3815 21.755 34.2995 21.755 34.1902 21.755C33.8349 21.755 33.6436 22.1103 33.5616 22.5203V22.6842H34.1355L34.0535 23.0122H33.5069L33.0697 25.2806H32.6597ZM37.0326 23.6955C37.0326 24.5154 36.4586 25.3353 35.584 25.3353C34.9555 25.3353 34.6002 24.8433 34.6002 24.2694C34.6002 23.4495 35.2014 22.6296 36.0487 22.6296C36.7319 22.6022 37.0326 23.1489 37.0326 23.6955ZM35.0648 24.2421C35.0648 24.652 35.2834 24.9527 35.666 24.9527C36.2127 24.9527 36.5953 24.2694 36.5953 23.6955C36.5953 23.3948 36.4313 22.9849 35.9667 22.9849C35.4474 22.9575 35.0648 23.6408 35.0648 24.2421ZM37.8525 25.2806L38.1531 23.5861C38.2351 23.2582 38.2624 22.9029 38.2898 22.6842H38.6724L38.6177 23.2582C38.7544 22.9029 39.055 22.6296 39.4103 22.6296H39.5196L39.4376 23.0669H39.3283C38.9457 23.0669 38.6177 23.5041 38.4811 24.1327L38.2624 25.2806H37.8525ZM42.2253 24.1327L41.6514 25.2806H41.1868L43.0726 21.7003H43.5919L44.1111 25.2806H43.6465L43.4825 24.1327H42.2253ZM43.4552 23.7501L43.2912 22.7116C43.2639 22.5203 43.2639 22.2469 43.2092 22.0556L42.9086 22.7116L42.3893 23.7501H43.4552ZM45.013 25.2806L45.423 23.0122H45.095L45.177 22.6842H45.505L45.5596 22.5203C45.6143 22.1376 45.751 21.837 45.9696 21.6183C46.1063 21.4544 46.3522 21.3724 46.5709 21.3724C46.7622 21.3724 46.8715 21.427 46.9262 21.4544L46.8168 21.8097C46.7349 21.755 46.6529 21.755 46.5435 21.755C46.1882 21.755 45.9969 22.1103 45.9423 22.5203L45.8876 22.6296H46.4616L46.3796 22.9849H45.8056L45.3957 25.226H45.013V25.2806ZM46.9535 25.2806L47.2541 23.5861L47.4181 22.6842H47.8007L47.7188 23.2582C47.8827 22.9029 48.1834 22.6296 48.5113 22.6296H48.648L48.566 23.0669H48.4567C48.074 23.0669 47.7188 23.5041 47.6094 24.1327L47.3908 25.2806H46.9535ZM49.1399 25.2806L49.6319 22.6842H50.0965L49.6045 25.2806H49.1399ZM49.7139 21.9463C49.7139 21.8097 49.8232 21.6457 50.0145 21.6457C50.1512 21.6457 50.2878 21.755 50.2878 21.919C50.2878 22.1103 50.1512 22.2196 49.9598 22.2196C49.8232 22.2196 49.7139 22.1103 49.7139 21.9463ZM52.6109 25.144C52.4469 25.226 52.1736 25.308 51.8456 25.308C51.1624 25.308 50.8617 24.8433 50.8617 24.3241C50.8617 23.4495 51.4903 22.6296 52.4196 22.6296C52.6382 22.6296 52.8842 22.7116 52.9389 22.7662L52.8295 23.0942C52.7202 23.0669 52.6109 22.9849 52.4196 22.9849C51.7363 22.9849 51.299 23.6408 51.299 24.2421C51.299 24.652 51.545 24.9253 51.955 24.9253C52.2283 24.9253 52.4196 24.8433 52.5562 24.7613L52.6109 25.144ZM55.2073 25.2806L55.2619 24.6247C55.016 25.144 54.6333 25.3353 54.278 25.3353C53.8134 25.3353 53.5675 24.9527 53.5675 24.5154C53.5675 23.5861 54.1961 22.6842 55.3439 22.6842C55.5899 22.6842 55.8905 22.7116 56.0272 22.7936L55.7812 24.1327C55.6992 24.5974 55.6446 25.0347 55.6446 25.308H55.2073V25.2806ZM55.5079 22.9849L55.2073 22.9575C54.5513 22.9575 53.9774 23.6408 53.9774 24.3514C53.9774 24.652 54.0867 24.9253 54.442 24.9253C54.8247 24.9253 55.2346 24.4334 55.3439 23.7501L55.5079 22.9849ZM11.096 6.34065L9.45618 13.9385C8.96424 15.5783 8.06233 16.7262 6.14921 16.8082C4.50938 16.8082 3.85345 15.715 4.26341 13.4192L5.71192 6.34065H3.30684L1.63969 14.4578C1.33905 17.5735 3.17019 18.448 5.95789 18.366C8.60894 18.284 10.4401 17.0815 11.4786 14.6764L13.3098 6.34065H11.096ZM31.3478 10.1669L32.3044 14.1025H28.7514L31.3478 10.1669ZM32.0858 6.34065L24.0233 18.0927H26.2097L27.7402 15.8243H32.769L33.261 18.0927H35.8574L32.9877 6.34065H32.0858ZM39.9296 18.1747H44.5484C48.7026 17.9834 49.6045 16.0976 48.2654 12.9546L43.2092 3.08834L39.9296 18.1747ZM51.2717 0C47.1175 0.191313 46.2429 2.10444 47.5821 5.22011L52.6109 15.0864L55.8905 0H51.2717ZM16.4801 16.6169L17.3273 12.654H18.2839C19.6778 12.654 20.853 13.1459 20.853 14.4578C20.853 16.0429 19.2951 16.6989 17.546 16.6989L16.4801 16.6169ZM18.3112 7.84383H19.4591C20.7163 7.84383 21.4816 8.14446 21.4816 9.15569C21.4816 10.3582 20.3337 11.1235 18.6119 11.1235H17.6553L18.3112 7.84383ZM16.4801 6.34065L16.2888 6.36798L13.8564 18.1474H18.5299C20.115 18.1474 21.0169 17.7101 21.6182 17.3548C22.5748 16.7262 23.258 15.715 23.504 14.4851C23.8046 12.818 22.6568 11.9434 21.2356 11.8067C22.6841 11.4788 23.914 10.4129 23.996 8.88238C24.1873 6.34065 21.3176 6.34065 21.3176 6.34065H16.4801Z" fill="#D71920"/>
</svg>
