<svg width="56" height="56" viewBox="0 0 56 56" fill="none" xmlns="http://www.w3.org/2000/svg">
<path d="M16.736 21.8401C16.1586 21.7841 15.5964 21.9207 15.0319 21.9985C14.9832 21.9465 15.0263 21.9078 15.0464 21.8748C16.4173 19.6309 18.3112 18.1021 20.9354 17.5768C21.8594 17.3886 22.8084 17.3557 23.7432 17.4793C24.1196 17.5303 24.46 17.392 24.8168 17.3393C25.1578 17.2889 25.225 17.3393 25.0536 17.6373C24.7176 18.2219 24.9204 18.7931 25.015 19.3733C25.1808 20.3831 25.3542 21.3921 25.5352 22.4001C25.5683 22.5871 25.5302 22.7294 25.3952 22.852C25.1376 23.0866 24.9164 23.3834 24.4847 23.2406C24.2047 23.1488 23.9896 23.0357 23.9807 22.7014C23.9766 22.6266 23.949 22.555 23.9017 22.497C23.5226 22.0613 23.1502 21.6172 22.691 21.2605C22.4194 21.0493 22.2632 21.0785 22.0688 21.368C21.8488 21.6956 21.7278 22.0702 21.5861 22.4348C21.2501 23.2944 20.9197 24.1546 20.3726 24.9111C20.264 25.0612 20.157 25.1278 19.9599 25.1088C19.211 25.031 18.4573 25.0101 17.7053 25.0461C17.721 25.1497 17.7888 25.1469 17.8548 25.1553C18.5946 25.246 19.3332 25.3412 20.073 25.4302C20.656 25.5008 21.025 26.1123 20.7876 26.6438C20.3183 27.6685 19.793 28.6666 19.214 29.6336C19.1407 29.764 19.033 29.8717 18.9026 29.945C18.5935 30.1167 18.286 30.2918 17.9803 30.4702C17.8582 30.5414 17.7781 30.5262 17.7165 30.3907C17.5744 30.0845 17.521 29.7446 17.5625 29.4096C17.59 29.1906 17.9506 29.0176 18.2172 29.0764C18.5481 29.1509 18.6993 29.0271 18.6853 28.6844C18.6786 28.5231 18.7564 28.3971 18.8343 28.2717C19.1003 27.845 19.3736 27.4227 19.6401 26.996C19.6961 26.9047 19.8014 26.8062 19.7292 26.6947C19.6569 26.5833 19.5248 26.6169 19.4167 26.6264C18.9188 26.6701 18.4328 26.707 17.9607 26.935C17.1588 27.3214 16.2807 27.4787 15.402 27.6002C14.2608 27.7576 13.101 27.743 11.9513 27.9754C11.9883 27.4546 12.0364 26.9529 11.948 26.3968C11.813 26.5603 11.804 26.6992 11.7884 26.8319C11.5952 28.4957 10.6756 29.7002 9.36524 30.6534C8.5686 31.2265 7.6668 31.637 6.7114 31.8613C6.04332 32.0243 5.5662 32.3922 5.2358 32.9964C4.86004 33.6835 4.56828 34.4138 4.17908 35.0908C3.77196 35.7998 3.14644 36.2534 2.32044 36.3822C1.89932 36.4477 1.83212 36.362 1.95588 35.9532C2.0074 35.7852 2.07292 35.6172 2.13228 35.4526C2.26668 35.0729 2.4386 34.7526 2.93588 34.8142C3.12348 34.8377 3.22484 34.7022 3.29092 34.5235C3.67228 33.4931 4.06876 32.4689 4.44676 31.4374C4.47339 31.3492 4.52057 31.2686 4.58444 31.2022C4.64831 31.1358 4.72703 31.0855 4.81412 31.0555C5.26212 30.8875 5.71012 30.7312 6.14356 30.5447C6.89284 30.225 7.10676 29.8727 7.05468 29.0686C7.01156 28.3904 6.92644 27.7128 7.07092 27.0363C7.35932 25.6806 8.24692 24.8081 9.40164 24.1562C10.4354 23.5738 11.5705 23.2748 12.7056 22.9802C13.95 22.6607 15.1935 22.3387 16.4364 22.0142C16.5416 21.9868 16.6441 21.9504 16.7477 21.9185L16.736 21.8401Z" fill="#03B1F0"/>
<path d="M28.1253 34.1084C29.4346 34.1084 30.4577 35.1164 30.4482 36.3915C30.4381 37.6835 29.4021 38.6875 28.0895 38.678C26.792 38.6685 25.7857 37.6773 25.7845 36.4067C25.7834 35.1119 26.8099 34.1039 28.1253 34.1084ZM26.7853 36.368C26.7819 37.1856 27.3413 37.7915 28.1052 37.7971C28.8858 37.8027 29.4559 37.2142 29.4559 36.4022C29.4559 35.6047 28.8713 34.9899 28.1119 34.9859C27.338 34.982 26.7886 35.5555 26.7853 36.368Z" fill="#06B4F1"/>
<path d="M19.3606 34.8439C19.6574 34.4591 19.9878 34.2094 20.4352 34.131C21.3844 33.963 22.1987 34.5538 22.2474 35.5159C22.2916 36.3889 22.2681 37.2659 22.2614 38.1412C22.2614 38.4335 22.0609 38.5992 21.7714 38.597C21.4819 38.5948 21.2842 38.4228 21.2724 38.1115C21.259 37.7396 21.2685 37.3667 21.2679 36.9915C21.2679 36.6656 21.2741 36.3391 21.2635 36.0137C21.2433 35.3742 20.9056 35.0107 20.3423 35.0102C19.7632 35.0102 19.3634 35.4022 19.3494 36.0266C19.3343 36.7059 19.3494 37.3863 19.3421 38.0661C19.3393 38.4021 19.164 38.5858 18.8594 38.5931C18.5548 38.6004 18.352 38.4251 18.3504 38.1255C18.3425 36.9614 18.3425 35.7972 18.3504 34.6327C18.3479 34.5097 18.3937 34.3906 18.478 34.3009C18.5622 34.2112 18.6782 34.1581 18.8012 34.1528C18.9279 34.1432 19.0536 34.1818 19.1531 34.2609C19.2526 34.3401 19.3185 34.4539 19.3376 34.5795C19.35 34.6512 19.3505 34.7195 19.3606 34.8439Z" fill="#06B4F1"/>
<path d="M32.5839 34.8283C33.0364 34.238 33.5975 34.0079 34.2986 34.1484C34.9566 34.2806 35.432 34.7986 35.4516 35.4745C35.4768 36.3677 35.4651 37.2621 35.4606 38.1558C35.4606 38.4269 35.2629 38.6083 34.9997 38.6156C34.9367 38.6189 34.8737 38.6098 34.8142 38.5887C34.7547 38.5676 34.7 38.5349 34.6532 38.4926C34.6064 38.4503 34.5683 38.3992 34.5413 38.3422C34.5143 38.2852 34.4988 38.2234 34.4957 38.1603C34.4767 37.8075 34.489 37.453 34.4856 37.0963C34.4817 36.687 34.4974 36.2759 34.4644 35.8688C34.4212 35.3379 34.1082 35.045 33.607 35.0125C33.1058 34.9801 32.7261 35.2651 32.599 35.7557C32.5184 36.0681 32.5632 36.3857 32.5576 36.701C32.5497 37.149 32.5576 37.597 32.5548 38.0416C32.5548 38.3938 32.3476 38.619 32.0452 38.6128C31.7557 38.6078 31.558 38.3888 31.5569 38.0478C31.553 36.9586 31.5569 35.8688 31.5569 34.7796C31.5569 34.3836 31.7294 34.1636 32.0368 34.1518C32.3442 34.14 32.529 34.3472 32.5581 34.7404C32.5642 34.7704 32.5728 34.7998 32.5839 34.8283Z" fill="#05B3F1"/>
<path d="M15.9873 37.9825C15.8982 37.9971 15.8719 38.0643 15.8322 38.1113C15.3623 38.6713 14.6718 38.757 14.02 38.5475C13.4387 38.3605 13.0926 37.7943 13.0876 37.0915C13.082 36.2902 13.0842 35.4883 13.0876 34.6869C13.0876 34.3509 13.2685 34.1594 13.5653 34.156C13.8727 34.1527 14.0726 34.3537 14.0766 34.6925C14.0827 35.2889 14.0766 35.8853 14.0766 36.4845C14.0766 36.5965 14.0766 36.7085 14.0844 36.8205C14.1236 37.4158 14.463 37.7507 15.0202 37.7479C15.5774 37.7451 15.9722 37.376 15.9906 36.8037C16.0119 36.1144 16.0007 35.4244 15.9996 34.7317C15.9996 34.4612 16.0948 34.2524 16.3664 34.1717C16.7024 34.0715 16.9947 34.305 16.9964 34.6757C17.0009 35.8036 17.0009 36.9314 16.9964 38.0592C16.9964 38.3857 16.8088 38.6002 16.5282 38.613C16.2477 38.6259 16.0478 38.4322 16.0013 38.1091C15.9974 38.0699 15.9929 38.0273 15.9873 37.9825Z" fill="#06B4F1"/>
<path d="M0.265295 29.7758C0.200813 29.494 0.217117 29.1998 0.312335 28.9269C0.790575 27.4294 1.89546 26.6678 3.35986 26.3273C3.89074 26.2041 4.43002 26.1935 4.97042 26.2069C5.65642 26.2237 6.32842 26.1739 6.95618 25.8619C7.01554 25.8323 7.08666 25.7942 7.13818 25.8457C7.20146 25.909 7.12305 25.9627 7.09114 26.0137C6.92121 26.2585 6.78415 26.5245 6.68345 26.805C6.63026 26.9612 6.4953 27.0038 6.37545 27.0659C5.16138 27.6943 3.86554 28.0863 2.53834 28.396C2.07522 28.5046 1.62162 28.6384 1.2005 28.8664C0.804878 29.0692 0.479133 29.386 0.265295 29.7758Z" fill="#05B3F1"/>
<path d="M22.0744 25.527C21.8795 25.5438 21.6773 25.5332 21.492 25.583C21.1353 25.6804 20.895 25.5046 20.652 25.2963C20.582 25.2369 20.5915 25.1972 20.6296 25.135C20.7024 25.0157 20.7746 24.8964 20.8429 24.7749C21.1728 24.1903 21.1728 24.1886 21.8459 24.2709C22.2525 24.3202 22.6585 24.3745 23.0645 24.4272C23.5001 24.4832 23.8401 25.0331 23.6637 25.438C23.2484 26.406 22.7535 27.3378 22.1841 28.224C21.9316 28.6121 21.4438 28.7358 21.0473 28.952C20.9628 28.9985 20.9174 28.9038 20.8872 28.8372C20.7644 28.574 20.717 28.2818 20.7506 27.9933C20.7763 27.79 21.0753 27.6304 21.3245 27.6741C21.6549 27.7301 21.7524 27.6522 21.7563 27.3101C21.7563 27.1706 21.8246 27.0603 21.8929 26.9505C22.1298 26.5714 22.374 26.1973 22.6086 25.8171C22.7598 25.5729 22.7273 25.5208 22.4373 25.5158C22.3723 25.5158 22.3073 25.5186 22.2418 25.5214C22.1858 25.5214 22.1298 25.5287 22.0738 25.5326L22.0744 25.527Z" fill="#06B4F1"/>
<path d="M37.4929 35.1411C37.9146 34.5666 38.4449 34.1891 39.1796 34.1936C39.6988 34.1917 40.1977 34.3952 40.5673 34.7598C41.3967 35.5561 41.4633 37.021 40.7073 37.893C40.4273 38.2189 40.0807 38.458 39.659 38.5476C39.2577 38.6436 38.8371 38.6197 38.4494 38.4787C38.0468 38.3247 37.7589 38.0268 37.428 37.7272C37.428 37.8907 37.428 38.0542 37.428 38.2178C37.428 38.369 37.442 38.5459 37.2224 38.5375C37.0326 38.5302 37.0292 38.3729 37.0298 38.2256C37.0298 37.7412 37.0298 37.2568 37.0298 36.7696C37.0298 35.6698 37.0298 34.5701 37.0298 33.4707C37.0298 33.3962 37.0298 33.3217 37.0326 33.2467C37.0404 33.1285 37.1048 33.049 37.2241 33.0479C37.3608 33.0479 37.4168 33.1313 37.4173 33.2662C37.4173 33.7786 37.4235 34.291 37.4268 34.8034C37.4268 34.9031 37.4268 35.0028 37.4268 35.1025L37.4929 35.1411ZM40.7935 36.3994C40.7868 35.3354 40.0874 34.5744 39.1225 34.5806C38.1576 34.5867 37.4072 35.3914 37.4106 36.4168C37.414 37.4422 38.1806 38.234 39.1466 38.2329C40.1215 38.2318 40.8003 37.4774 40.7935 36.3994Z" fill="#0AB8F2"/>
<path d="M45.3608 37.8332C44.6535 38.6788 43.6953 38.7292 42.9819 38.466C42.3933 38.2481 42.1032 37.8108 42.115 37.234C42.1262 36.6829 42.4454 36.2613 43.0227 36.058C43.7166 35.8099 44.4228 35.8793 45.1172 36.0328C45.3272 36.0787 45.3703 36.0406 45.3641 35.8356C45.3423 35.1284 44.8988 34.6669 44.168 34.6137C43.7198 34.5813 43.2706 34.6602 42.8603 34.8433C42.7282 34.8993 42.5803 34.9738 42.5075 34.7873C42.4347 34.6009 42.5899 34.5477 42.722 34.4933C43.282 34.2626 43.8639 34.1641 44.4704 34.2727C45.2286 34.4088 45.7253 34.9447 45.7455 35.713C45.7684 36.5692 45.7528 37.4272 45.755 38.284C45.755 38.4178 45.727 38.5388 45.5713 38.546C45.3983 38.5544 45.3585 38.4307 45.3608 38.2834C45.3608 38.1512 45.3608 38.0241 45.3608 37.8332ZM44.2408 36.2691C43.7468 36.2596 43.4119 36.2691 43.1 36.418C42.764 36.5771 42.5563 36.8313 42.5434 37.2177C42.5305 37.6136 42.7114 37.902 43.0586 38.0717C43.6432 38.3568 44.2184 38.2834 44.7638 37.9648C45.2756 37.6663 45.4123 37.1858 45.3753 36.6247C45.3658 36.4836 45.3193 36.4304 45.1883 36.4007C44.8192 36.3268 44.4524 36.2696 44.2363 36.2691H44.2408Z" fill="#0AB8F2"/>
<path d="M53.8001 36.4661C53.473 36.7864 53.1628 37.0944 52.8481 37.3968C52.7641 37.4774 52.7517 37.5698 52.7534 37.6768C52.7534 37.8913 52.7534 38.1057 52.7534 38.3197C52.7534 38.4529 52.6974 38.5353 52.5552 38.5325C52.4129 38.5297 52.3586 38.4462 52.3569 38.3152C52.3569 38.2777 52.3569 38.2407 52.3569 38.2032C52.3569 36.6094 52.3569 35.0155 52.3569 33.4213C52.3537 33.3561 52.3556 33.2908 52.3625 33.2259C52.3654 33.1783 52.3867 33.1338 52.4218 33.1016C52.4569 33.0694 52.5031 33.0521 52.5507 33.0534C52.5766 33.0512 52.6026 33.0546 52.627 33.0636C52.6514 33.0725 52.6736 33.0867 52.6919 33.1051C52.7102 33.1235 52.7243 33.1457 52.7331 33.1702C52.7418 33.1946 52.7452 33.2207 52.7428 33.2466C52.7467 33.4051 52.7529 33.563 52.7529 33.7215C52.7529 34.7004 52.7529 35.6793 52.7529 36.6581V36.9337C52.8861 36.9185 52.9287 36.8261 52.9892 36.7657C53.7105 36.0238 54.4299 35.2803 55.1474 34.5352C55.1995 34.4792 55.2527 34.4293 55.3037 34.375C55.3966 34.2748 55.5092 34.2221 55.6201 34.3224C55.7405 34.4316 55.6688 34.5402 55.5764 34.6343C55.2886 34.9266 54.9996 35.2178 54.7134 35.5113C54.5051 35.7246 54.1579 35.9257 54.1327 36.1597C54.1047 36.419 54.4609 36.6441 54.649 36.8844C54.9772 37.3021 55.3149 37.7121 55.6509 38.1237C55.7438 38.2357 55.843 38.3757 55.7142 38.4893C55.573 38.6142 55.4454 38.5056 55.3418 38.3773C54.8299 37.735 54.313 37.0994 53.8001 36.4661Z" fill="#0AB8F2"/>
<path d="M47.5868 34.9547C48.0471 34.3773 48.6211 34.1315 49.3396 34.2065C50.1566 34.2911 50.748 34.8673 50.7804 35.6888C50.8146 36.554 50.7933 37.4214 50.7967 38.2878C50.7967 38.4233 50.7659 38.533 50.6001 38.5302C50.4198 38.5269 50.3974 38.4031 50.3974 38.2603C50.3974 37.5428 50.3974 36.8252 50.3974 36.1077C50.4013 35.9681 50.3941 35.8284 50.3761 35.6899C50.2563 34.9502 49.7316 34.5263 48.9873 34.5599C48.2263 34.594 47.6226 35.1714 47.5963 35.9347C47.5722 36.6419 47.589 37.3503 47.5879 38.0587C47.5879 38.1332 47.5879 38.2077 47.5879 38.2827C47.5879 38.416 47.556 38.5269 47.3919 38.5308C47.2278 38.5347 47.1836 38.4356 47.1824 38.2962C47.1824 38.2586 47.1824 38.2217 47.1824 38.1842V34.6338C47.1824 34.5873 47.1824 34.5408 47.1824 34.4943C47.1897 34.3711 47.2306 34.2703 47.3751 34.2703C47.5324 34.2703 47.5806 34.3762 47.5845 34.5106C47.5901 34.6573 47.5868 34.8057 47.5868 34.9547Z" fill="#0AB8F2"/>
<path d="M24.62 36.3837C24.62 36.9437 24.62 37.5004 24.62 38.0587C24.62 38.4064 24.4599 38.584 24.1541 38.5963C23.8355 38.6086 23.6305 38.4283 23.6277 38.0822C23.6195 36.9473 23.6195 35.8119 23.6277 34.6762C23.6305 34.352 23.8439 34.1521 24.1283 34.1543C24.4268 34.1543 24.6167 34.366 24.6189 34.7087C24.6228 35.2671 24.62 35.8254 24.62 36.3837Z" fill="#06B4F1"/>
<path d="M5.72352 34.5609C5.61152 34.576 5.54712 34.4814 5.61152 34.2876C5.67312 34.1028 5.74424 33.9208 5.80528 33.7355C5.90328 33.4359 6.06288 33.2315 6.42127 33.2494C6.60887 33.2589 6.73319 33.1503 6.76847 32.9559C6.87487 32.3663 7.20023 31.9843 7.79439 31.8286C7.97918 31.7805 8.14494 31.6606 8.32022 31.5738C8.36838 31.5498 8.41822 31.5027 8.47254 31.5458C8.52686 31.589 8.48878 31.6472 8.4647 31.6942C8.1287 32.3584 7.84871 33.0607 7.40071 33.6509C7.01879 34.1493 6.49519 34.5105 5.72352 34.5609Z" fill="#06B4F1"/>
</svg>
