<svg width="36" height="40" viewBox="0 0 36 40" fill="none" xmlns="http://www.w3.org/2000/svg">
<path d="M29.0081 12.0412C29.0081 11.9966 29.0094 11.9522 29.0119 11.9082H12.6128V22.4528H29.0081C29.0081 21.162 30.0545 20.1155 31.3454 20.1155V14.3785C30.0545 14.3785 29.0081 13.332 29.0081 12.0412Z" fill="#FCE476"/>
<path d="M13.4173 35.0781H11.7866C11.3551 35.0781 11.0054 35.4279 11.0054 35.8594C11.0054 36.2909 11.3551 36.6406 11.7866 36.6406H13.4173C13.8488 36.6406 14.1986 36.2909 14.1986 35.8594C14.1986 35.4279 13.8488 35.0781 13.4173 35.0781Z" fill="#101010"/>
<path d="M33.6507 7.32984H25.2038V4.65781C25.2038 2.08945 23.1143 0 20.5459 0H4.65781C2.08945 0 0 2.08953 0 4.65781V35.3422C0 37.9105 2.08953 40 4.65789 40H20.546C23.1144 40 25.2039 37.9105 25.2039 35.3422V27.0309H33.6508C34.9041 27.0309 35.9238 26.0112 35.9238 24.7579V9.60289C35.9237 8.34953 34.9041 7.32984 33.6507 7.32984ZM20.5459 38.4375H4.65781C2.95102 38.4375 1.56242 37.049 1.56242 35.3422V33.5887H23.6413V35.3422C23.6413 37.049 22.2527 38.4375 20.5459 38.4375ZM23.6413 32.0262H1.5625V4.65781C1.5625 2.95102 2.95109 1.5625 4.65781 1.5625H20.5459C22.2527 1.5625 23.6413 2.95102 23.6413 4.65781V7.32984H13.3941V6.27828C13.3941 5.8468 13.0444 5.49703 12.6129 5.49703C12.1814 5.49703 11.8316 5.8468 11.8316 6.27828V28.0602C11.8316 28.4916 12.1814 28.8414 12.6129 28.8414C13.0444 28.8414 13.3941 28.4916 13.3941 28.0602V27.0309H23.6413V32.0262ZM34.3612 24.7579C34.3612 25.1497 34.0425 25.4684 33.6507 25.4684H13.3941V8.89234H33.6507C34.0425 8.89234 34.3612 9.21109 34.3612 9.60289V24.7579Z" fill="#101010"/>
<path d="M20.8073 14.5488C19.356 14.5488 18.1753 15.7295 18.1753 17.1809C18.1753 18.6322 19.356 19.8129 20.8073 19.8129C22.2587 19.8129 23.4394 18.6322 23.4394 17.1809C23.4394 15.7295 22.2587 14.5488 20.8073 14.5488ZM20.8073 18.2504C20.2176 18.2504 19.7378 17.7706 19.7378 17.1809C19.7378 16.5911 20.2176 16.1113 20.8073 16.1113C21.3971 16.1113 21.8769 16.5911 21.8769 17.1809C21.8769 17.7706 21.3971 18.2504 20.8073 18.2504Z" fill="#101010"/>
</svg>
