<svg width="143" height="143" viewBox="0 0 143 143" fill="none" xmlns="http://www.w3.org/2000/svg">
    <circle cx="71.2177" cy="71.2177" r="66.2177" fill="#00ACE6" stroke="white" strokeWidth="10"/>
    <path fillRule="evenodd" clipRule="evenodd" d="M61.7814 73.9288C61.47 73.3761 61.2922 72.7372 61.2922 72.0568C61.2922 69.9585 62.9835 68.255 65.0668 68.255H67.2461L64.027 62.6416C63.3875 61.4565 62.1405 60.6514 60.7082 60.6514C58.625 60.6514 56.9336 62.3549 56.9336 64.4532C56.9336 65.1512 57.1209 65.8056 57.4474 66.3682L61.7814 73.9288Z" stroke="white" strokeWidth="2" strokeMiterlimit="1.5" strokeLinecap="round" strokeLinejoin="round"/>
    <path fillRule="evenodd" clipRule="evenodd" d="M70.465 73.8727L67.2447 68.2549H65.06C62.9767 68.2549 61.2907 69.9584 61.2907 72.0567C61.2907 72.7575 61.4794 73.4141 61.8083 73.9782L66.1052 81.4718C65.8145 80.9331 65.6494 80.316 65.6494 79.6603C65.6494 77.562 67.3408 75.8585 69.424 75.8585H73.7827C72.3504 75.8585 71.1034 75.0533 70.4638 73.8682L70.465 73.8727Z" stroke="white" strokeWidth="2" strokeMiterlimit="1.5" strokeLinecap="round" strokeLinejoin="round"/>
    <path fillRule="evenodd" clipRule="evenodd" d="M72.7449 81.4718L77.0127 74.0273C76.3503 75.1248 75.152 75.8584 73.7848 75.8584H69.4262C67.3429 75.8584 65.6515 77.562 65.6515 79.6602C65.6515 81.7585 67.3429 83.462 69.4262 83.462C70.8584 83.462 72.1054 82.6569 72.7449 81.4718Z" stroke="white" strokeWidth="2" strokeMiterlimit="1.5" strokeLinecap="round" strokeLinejoin="round"/>
    <path fillRule="evenodd" clipRule="evenodd" d="M77.0688 73.9288C76.4199 75.0807 75.1911 75.8585 73.7834 75.8585C72.3511 75.8585 71.1041 75.0534 70.4645 73.8683L67.2454 68.2549H78.1418C79.509 68.2549 80.7074 67.5213 81.3697 66.4238L77.0688 73.9288Z" stroke="white" strokeWidth="2" strokeMiterlimit="1.5" strokeLinecap="round" strokeLinejoin="round"/>
    <path fillRule="evenodd" clipRule="evenodd" d="M63.9361 62.4825C63.2737 61.385 62.0754 60.6514 60.7082 60.6514H69.4254C70.7926 60.6514 71.9909 61.385 72.6533 62.4825L74.8492 66.311C75.496 67.4707 76.7291 68.255 78.1425 68.255H67.2461L63.9361 62.4825Z" stroke="white" strokeWidth="2" strokeMiterlimit="1.5" strokeLinecap="round" strokeLinejoin="round"/>
    <path fillRule="evenodd" clipRule="evenodd" d="M69.4259 60.6513C70.7931 60.6513 71.9914 61.385 72.6538 62.4824L74.8498 66.311C75.4965 67.4707 76.7296 68.255 78.143 68.255C79.5103 68.255 80.7086 67.5213 81.371 66.4239L85.6314 58.9935V58.9746C84.9527 59.9859 83.8038 60.6513 82.5018 60.6513H69.4259Z" stroke="white" strokeWidth="2" strokeMiterlimit="1.5" strokeLinecap="round" strokeLinejoin="round"/>
</svg>