<svg width="29" height="32" viewBox="0 0 29 32" fill="none" xmlns="http://www.w3.org/2000/svg">
<path d="M14.0929 20.1716C17.6478 20.1716 20.5296 17.2952 20.5296 13.747C20.5296 10.1987 17.6478 7.32227 14.0929 7.32227C10.5381 7.32227 7.65625 10.1987 7.65625 13.747C7.65625 17.2952 10.5381 20.1716 14.0929 20.1716Z" fill="#FCE476"/>
<path d="M14.0928 1.69631C14.438 1.69631 14.7178 1.4165 14.7178 1.07131V0.625C14.7178 0.279813 14.438 0 14.0928 0C13.7476 0 13.4678 0.279813 13.4678 0.625V1.07131C13.4678 1.4165 13.7476 1.69631 14.0928 1.69631Z" fill="#101010"/>
<path d="M3.96426 6.52227C4.12451 6.52227 4.2847 6.46102 4.40682 6.33858C4.65057 6.09414 4.65001 5.69839 4.40557 5.4547L3.82413 4.87483C3.5797 4.63108 3.18401 4.63164 2.94026 4.87608C2.69651 5.12052 2.69707 5.51627 2.94151 5.75995L3.52301 6.33977C3.64495 6.46145 3.80463 6.52227 3.96426 6.52227Z" fill="#101010"/>
<path d="M27.5596 15.3818H27.1113C26.7661 15.3818 26.4863 15.6616 26.4863 16.0068C26.4863 16.352 26.7661 16.6318 27.1113 16.6318H27.5596C27.9048 16.6318 28.1846 16.352 28.1846 16.0068C28.1846 15.6616 27.9048 15.3818 27.5596 15.3818Z" fill="#101010"/>
<path d="M1.07325 15.3818H0.625C0.279813 15.3818 0 15.6616 0 16.0068C0 16.352 0.279813 16.6318 0.625 16.6318H1.07325C1.41844 16.6318 1.69825 16.352 1.69825 16.0068C1.69825 15.6616 1.41844 15.3818 1.07325 15.3818Z" fill="#101010"/>
<path d="M24.3609 4.87481L23.7794 5.45462C23.535 5.69831 23.5344 6.09406 23.7781 6.33849C23.9003 6.46093 24.0605 6.52218 24.2207 6.52218C24.3803 6.52218 24.54 6.46137 24.662 6.33974L25.2435 5.75993C25.488 5.51624 25.4885 5.12049 25.2448 4.87606C25.0011 4.63168 24.6053 4.63106 24.3609 4.87481Z" fill="#101010"/>
<path d="M14.0923 2.99805C8.15478 2.99805 3.32422 7.82017 3.32422 13.7473C3.32422 16.3527 4.26984 18.8659 5.98697 20.8241C7.56691 22.626 9.69659 23.8468 12.0307 24.2995V25.0904H11.1911C10.8459 25.0904 10.5661 25.3702 10.5661 25.7154V28.5454C10.5661 28.8905 10.8459 29.1704 11.1911 29.1704H11.4712V31.3754C11.4712 31.7205 11.751 32.0004 12.0962 32.0004H16.0884C16.4336 32.0004 16.7134 31.7205 16.7134 31.3754V29.1704H16.9935C17.3387 29.1704 17.6185 28.8905 17.6185 28.5454V25.7154C17.6185 25.3702 17.3387 25.0904 16.9935 25.0904H16.1332V24.3035C18.4719 23.8548 20.6063 22.6354 22.1907 20.8322C23.9123 18.8726 24.8604 16.3565 24.8604 13.7473C24.8605 7.82017 20.0299 2.99805 14.0923 2.99805ZM15.4635 30.7504H12.7213V29.1704H15.4635V30.7504ZM16.3686 27.9204H11.8161V26.3404H16.3686V27.9204ZM15.4219 23.1547C15.1131 23.1978 14.8832 23.4619 14.8832 23.7737V25.0904H13.2806V23.7707C13.2806 23.4594 13.0514 23.1955 12.7432 23.1519C8.08609 22.4929 4.57422 18.4497 4.57422 13.7473C4.57422 8.50936 8.84403 4.24805 14.0923 4.24805C19.3407 4.24805 23.6105 8.50942 23.6105 13.7473C23.6105 18.4596 20.0902 22.5039 15.4219 23.1547Z" fill="#101010"/>
<path d="M14.9255 13.314C14.8206 13.2769 14.7209 13.2413 14.6265 13.2073V11.1991C14.8739 11.2744 15.0453 11.4004 15.1293 11.5203C15.3276 11.8028 15.7173 11.8711 15.9999 11.6728C16.2825 11.4746 16.3508 11.0848 16.1525 10.8022C15.8578 10.3823 15.3236 10.0317 14.6264 9.91813V9.78613C14.6264 9.44095 14.3466 9.16113 14.0014 9.16113C13.6563 9.16113 13.3764 9.44095 13.3764 9.78613V9.9657C13.2815 9.98676 13.1851 10.0119 13.0872 10.0414C12.303 10.2776 11.711 11.0394 11.6476 11.8939C11.5851 12.7377 12.0344 13.4709 12.8494 13.8553C12.965 13.9098 13.1461 13.9851 13.3765 14.0749V16.4797C13.0549 16.3837 12.7596 16.2227 12.5678 15.9846C12.3513 15.7158 11.9579 15.6734 11.689 15.8899C11.4202 16.1064 11.3778 16.4999 11.5943 16.7687C12.0498 17.3341 12.722 17.6364 13.3765 17.765V17.8532C13.3765 18.1984 13.6563 18.4782 14.0015 18.4782C14.3467 18.4782 14.6265 18.1984 14.6265 17.8532V17.8127C16.0076 17.6378 16.6105 16.7395 16.7124 15.9375C16.8549 14.8151 16.1201 13.7363 14.9255 13.314ZM12.8943 11.9864C12.9174 11.6756 13.1193 11.3794 13.3766 11.2649V12.7219C12.9483 12.5173 12.8778 12.2093 12.8943 11.9864ZM15.4723 15.7801C15.4226 16.1716 15.1188 16.4429 14.6265 16.5462V14.5384C15.2794 14.8186 15.5248 15.3675 15.4723 15.7801Z" fill="#101010"/>
</svg>
