<svg width="50" height="40" viewBox="0 0 50 40" fill="none" xmlns="http://www.w3.org/2000/svg">
<path d="M13.8917 23.6993H9.50949C8.97568 23.6993 8.54297 23.2666 8.54297 22.7328V15.5271C8.54297 14.9933 8.97568 14.5605 9.50949 14.5605H13.8917C14.4255 14.5605 14.8582 14.9933 14.8582 15.5271V22.7328C14.8582 23.2666 14.4255 23.6993 13.8917 23.6993ZM10.476 21.7663H12.9252V16.4936H10.476V21.7663Z" fill="#101010"/>
<path d="M39.9708 23.7002H35.5886C35.0548 23.7002 34.6221 23.2675 34.6221 22.7337V9.01926C34.6221 8.48545 35.0548 8.05273 35.5886 8.05273H39.9708C40.5046 8.05273 40.9373 8.48545 40.9373 9.01926V22.7337C40.9373 23.2675 40.5046 23.7002 39.9708 23.7002ZM36.5551 21.7672H39.0043V9.98578H36.5551V21.7672Z" fill="#101010"/>
<path d="M22.5841 23.7004H18.2019C17.6681 23.7004 17.2354 23.2677 17.2354 22.7339V12.1228C17.2354 11.589 17.6681 11.1562 18.2019 11.1562H22.5841C23.1179 11.1562 23.5506 11.589 23.5506 12.1228V22.7339C23.5506 23.2677 23.1179 23.7004 22.5841 23.7004ZM19.1684 21.7674H21.6176V13.0893H19.1684V21.7674Z" fill="#101010"/>
<path d="M31.2774 23.7009H26.8952C26.3614 23.7009 25.9287 23.2682 25.9287 22.7344V17.0759C25.9287 16.5421 26.3614 16.1094 26.8952 16.1094H31.2774C31.8113 16.1094 32.244 16.5421 32.244 17.0759V22.7344C32.244 23.2682 31.8113 23.7009 31.2774 23.7009ZM27.8618 21.7679H30.3109V18.0424H27.8618V21.7679Z" fill="#101010"/>
<path d="M2.91113 21.7871H46.5722V27.6842H2.91113V21.7871Z" fill="#FCE476"/>
<path d="M48.5194 31.2704H47.5399V2.56815C47.5399 1.15209 46.3878 0 44.9718 0H4.51414C3.09809 0 1.946 1.15209 1.946 2.56815V31.2705H0.966522C0.432712 31.2705 0 31.7032 0 32.237V36.349C0 38.3622 1.63787 40 3.65104 40H45.8348C47.8481 40 49.4858 38.3621 49.4858 36.349V32.237C49.4859 31.7031 49.0532 31.2704 48.5194 31.2704ZM3.87904 2.56815C3.87904 2.21788 4.16397 1.93304 4.51414 1.93304H44.9718C45.3221 1.93304 45.6069 2.21797 45.6069 2.56815V31.2705H3.87904V2.56815ZM47.5529 36.3489C47.5529 37.2962 46.7822 38.0669 45.8349 38.0669H3.65104C2.70375 38.0669 1.93304 37.2962 1.93304 36.3489V33.2034H47.5529V36.3489Z" fill="#101010"/>
<path d="M27.6047 34.668H21.8796C21.3458 34.668 20.9131 35.1007 20.9131 35.6345C20.9131 36.1683 21.3458 36.601 21.8796 36.601H27.6047C28.1385 36.601 28.5712 36.1683 28.5712 35.6345C28.5712 35.1007 28.1385 34.668 27.6047 34.668Z" fill="#101010"/>
</svg>
