<svg width="56" height="56" viewBox="0 0 56 56" fill="none" xmlns="http://www.w3.org/2000/svg">
<path d="M31.2487 30.8948C31.2722 30.8517 31.2913 30.8063 31.312 30.7621L38.8322 14.4179C38.8938 14.2846 38.956 14.1519 39.0165 14.0181C39.0377 13.9721 39.059 13.9318 39.1206 13.9324C39.2589 13.9324 39.3978 13.9324 39.5557 13.9324C39.521 14.0164 39.4997 14.0785 39.4706 14.1385C36.7893 19.9841 34.1082 25.8296 31.4273 31.6749C31.3204 31.9078 31.2101 32.1402 31.107 32.3749C31.0163 32.5821 31.0297 32.7837 31.1798 32.9595C31.2451 33.0416 31.3326 33.1031 31.4319 33.1369C31.5312 33.1707 31.638 33.1752 31.7398 33.1499C31.9638 33.1045 32.0758 32.9494 32.1632 32.7579C34.8389 26.935 37.5136 21.1133 40.1874 15.2926C40.4428 14.7371 40.6914 14.1799 40.9546 13.6266C41.0991 13.3197 40.982 12.888 40.5788 12.8045V12.7676H38.5595C38.5615 12.7733 38.5622 12.7793 38.5616 12.7853C38.561 12.7913 38.5591 12.7971 38.5561 12.8023C38.3366 12.8505 38.2201 13.0056 38.13 13.1943C37.8313 13.8446 37.5326 14.4948 37.234 15.1448C35.1105 19.7793 32.9847 24.4128 30.8567 29.0451C30.8265 29.1117 30.7945 29.1773 30.7581 29.2545C30.6741 29.1985 30.673 29.1056 30.6277 29.0401C30.472 28.8161 30.5101 28.6094 30.6226 28.3647C32.8133 23.5998 34.9973 18.8322 37.1746 14.0617C37.2429 13.9117 37.3135 13.7621 37.3813 13.6137C37.5414 13.2576 37.3706 12.9014 36.9926 12.7989C36.9908 12.7883 36.9866 12.7781 36.9803 12.7693H35.0007C35.0038 12.7808 35.0021 12.7931 34.9962 12.8034C34.7778 12.8477 34.6485 12.9921 34.56 13.1853C34.2188 13.9301 33.877 14.6746 33.5346 15.4186L29.035 25.2186C29.0143 25.2629 28.993 25.3065 28.965 25.3637C28.8743 25.2673 28.853 25.1441 28.7914 25.0461C28.6761 24.8636 28.6945 24.7006 28.7858 24.5029C30.4337 20.9342 32.0764 17.3633 33.7138 13.7901C33.7838 13.6378 33.8365 13.4861 33.7978 13.313C33.7762 13.2013 33.7201 13.0991 33.6374 13.0209C33.5548 12.9426 33.4497 12.8922 33.3369 12.8768C33.27 12.8688 33.2027 12.8657 33.1353 12.8673C32.6213 12.8673 32.1072 12.8768 31.5937 12.8633C31.261 12.8544 31.0555 12.9966 30.9217 13.2923C30.0197 15.265 29.1142 17.2368 28.2051 19.2076C27.8837 19.9076 27.5622 20.6076 27.2408 21.3076C27.2184 21.3574 27.1915 21.405 27.1545 21.4784C27.0649 21.2824 26.9865 21.1065 26.9031 20.9301C26.8723 20.8624 26.9199 20.8125 26.944 20.7621C27.2094 20.1775 27.4762 19.5936 27.7442 19.0105C28.5536 17.2431 29.3628 15.4756 30.1718 13.7078C30.2838 13.4648 30.2508 13.2234 30.0839 13.0431C30.038 12.9894 29.9811 12.9461 29.9171 12.9161C29.853 12.8862 29.7833 12.8703 29.7126 12.8695C29.1067 12.8695 28.5008 12.8645 27.8949 12.8695C27.6345 12.8695 27.4659 13.0235 27.3606 13.2525L26.7558 14.5691C26.3201 15.5189 25.8839 16.4677 25.4471 17.4156C25.4253 17.4637 25.4158 17.522 25.3547 17.5573L24.9017 16.5756C24.4094 15.5037 23.9133 14.433 23.4283 13.3578C23.3163 13.1053 23.1842 12.8835 22.9193 12.7693H22.6622C22.6158 12.8297 22.5379 12.8398 22.4797 12.8813C22.2898 13.0179 22.1946 13.1965 22.2232 13.4329C22.2401 13.5168 22.2698 13.5976 22.3111 13.6725C23.0951 15.3846 23.8791 17.0962 24.6631 18.8072C24.6893 18.8543 24.7036 18.9071 24.7047 18.961C24.7057 19.0149 24.6936 19.0682 24.6693 19.1163C23.7169 21.1805 22.7675 23.2456 21.8211 25.3116C21.8068 25.358 21.7812 25.4001 21.7466 25.4342C21.7002 25.3732 21.6639 25.3051 21.6391 25.2326C19.8146 21.2611 17.9904 17.2892 16.1662 13.3169C16.1379 13.2494 16.1042 13.1842 16.0654 13.1221C15.8974 12.8712 15.5928 12.7861 15.3425 12.9205C15.0513 13.075 14.9426 13.3685 15.0686 13.6653C15.0905 13.7162 15.1146 13.7655 15.137 13.8159L21.1558 26.9535C21.1796 27.0108 21.2063 27.0669 21.2359 27.1215C21.4638 27.5135 21.9751 27.5236 22.2187 27.1445C22.2621 27.0708 22.3004 26.9943 22.3335 26.9154L25.2651 20.5516C25.2877 20.4855 25.321 20.4237 25.3637 20.3685C25.4494 20.4911 25.4874 20.6345 25.5602 20.7605C25.6196 20.8624 25.6056 20.9503 25.5574 21.0528C25.3032 21.5954 25.0534 22.1409 24.8059 22.6852C23.9099 24.6351 23.0139 26.585 22.1179 28.5349C22.0791 28.6115 22.0586 28.696 22.0581 28.7819C22.0576 28.8677 22.0772 28.9524 22.1151 29.0294C22.1627 29.1291 22.2081 29.2293 22.2534 29.3296C22.4926 29.8588 22.7328 30.3874 22.9691 30.9177C23.0486 31.0958 23.1685 31.2241 23.3611 31.2733C23.6708 31.3523 23.9273 31.2302 24.0673 30.9301C24.3585 30.3034 24.6458 29.6757 24.9347 29.0479C25.644 27.5038 26.3545 25.9601 27.0661 24.4167C27.089 24.3669 27.0969 24.3047 27.1635 24.2722C27.2234 24.4027 27.2716 24.5293 27.3371 24.6457C27.4026 24.7622 27.3897 24.8546 27.3371 24.9705C26.2115 27.4185 25.0874 29.8679 23.9648 32.3189C23.9368 32.3799 23.906 32.4404 23.8842 32.5037C23.8566 32.5772 23.8452 32.6557 23.8507 32.7341C23.8561 32.8124 23.8783 32.8886 23.9157 32.9576C23.9532 33.0266 24.0049 33.0868 24.0676 33.134C24.1303 33.1813 24.2023 33.2146 24.279 33.2317C24.5506 33.3017 24.8042 33.1757 24.9342 32.8957C25.2328 32.2517 25.5289 31.6073 25.8223 30.9625C26.5272 29.4296 27.2324 27.8969 27.938 26.3644C27.9637 26.3084 27.9716 26.2361 28.0466 26.2031C28.0909 26.2977 28.1323 26.3862 28.1732 26.4747C28.2577 26.6578 28.3367 26.8443 28.4285 27.0235C28.4735 27.1184 28.5442 27.1988 28.6326 27.2554C28.7211 27.3121 28.8236 27.3427 28.9286 27.3438C29.1588 27.3522 29.3206 27.2318 29.4382 27.0409C29.4711 26.9822 29.5009 26.9218 29.5273 26.86L35.0343 14.8956C35.1646 14.6122 35.2953 14.329 35.4263 14.0461C35.4521 13.9901 35.4694 13.929 35.5501 13.9341C35.6833 13.9402 35.8177 13.9223 35.9538 13.9458C35.9594 14.0427 35.9034 14.1138 35.8693 14.1883C34.1273 17.9896 32.3842 21.7901 30.64 25.5899C30.2013 26.5456 29.7625 27.5012 29.3234 28.4565C29.2871 28.5241 29.2664 28.599 29.2627 28.6756C29.259 28.7523 29.2725 28.8287 29.3021 28.8995C29.6008 29.5637 29.9006 30.2265 30.2015 30.8881C30.304 31.1121 30.491 31.2101 30.7329 31.2117C30.8405 31.2152 30.9467 31.187 31.0384 31.1306C31.13 31.0743 31.2032 30.9923 31.2487 30.8948ZM26.0519 18.8335C26.2852 18.3228 26.5201 17.8122 26.7564 17.3019C27.2374 16.2586 27.7207 15.2165 28.1956 14.1704C28.2516 14.0438 28.321 13.9934 28.456 14.0091C28.5645 14.0149 28.6733 14.0149 28.7819 14.0091L26.2541 19.5195C26.1622 19.3207 26.09 19.1611 26.0155 19.0032C25.9847 18.9371 26.0301 18.8867 26.0541 18.8335H26.0519ZM26.459 23.0044C26.123 23.738 25.787 24.4708 25.451 25.2029C24.8533 26.5074 24.2552 27.8129 23.6568 29.1196C23.6243 29.1907 23.5907 29.2607 23.5476 29.3531C23.5354 29.3403 23.5242 29.3266 23.514 29.3122C23.4362 29.1397 23.3124 28.9723 23.2945 28.7937C23.2777 28.6257 23.416 28.4683 23.4894 28.3081C24.3756 26.3672 25.2634 24.4277 26.1527 22.4897C26.1756 22.4185 26.2138 22.3531 26.2647 22.2982C26.3487 22.4819 26.4327 22.6572 26.5089 22.8336C26.5357 22.8985 26.4887 22.9506 26.4613 23.0044H26.459ZM28.0449 23.421C27.9553 23.2273 27.8853 23.0716 27.8109 22.917C27.7717 22.8358 27.8181 22.7742 27.8478 22.7098C28.1357 22.0815 28.4246 21.4539 28.7147 20.8271C29.7317 18.617 30.7484 16.4066 31.765 14.1961C31.7829 14.1575 31.8031 14.1194 31.821 14.0797C31.829 14.057 31.8444 14.0378 31.8648 14.025C31.8851 14.0123 31.9092 14.0069 31.933 14.0097C32.0669 14.0097 32.2001 14.0097 32.3614 14.0097L28.0449 23.421Z" fill="#990D81"/>
<path d="M9.27221 38.0931L7.73893 42.2729L7.25565 43.5553C7.24949 43.5727 6.28573 43.6079 6.28573 43.6079C6.28212 43.5842 6.2765 43.5608 6.26893 43.5379C5.82242 42.4336 5.37517 41.3295 4.92717 40.2255C4.91429 40.1936 4.90869 40.1555 4.86669 40.146C4.8599 40.1565 4.85373 40.1673 4.84821 40.1785L3.45885 43.6079H2.50685C2.51973 43.5363 2.47773 43.478 2.45533 43.4164C2.20183 42.7332 1.94815 42.0517 1.69429 41.3719C1.34821 40.4385 1.00194 39.5063 0.655486 38.5752L0.651006 38.5629L0.503166 38.1692L0.477966 38.1009C0.883406 38.1009 1.28997 38.1009 1.69541 38.0908C1.80237 38.0908 1.82701 38.1468 1.85669 38.2263C2.13445 38.957 2.41351 39.6874 2.69389 40.4176C2.79917 40.6898 2.90389 40.9619 3.02317 41.2716C3.05733 41.1943 3.07917 41.1484 3.09765 41.1036C3.4833 40.1565 3.86914 39.2104 4.25517 38.2655C4.33693 38.0662 4.29381 38.0975 4.51781 38.0936C4.79781 38.0936 5.07781 38.0936 5.36173 38.0936C5.52357 38.0936 5.52413 38.0936 5.58573 38.2459C5.95421 39.1901 6.3225 40.1346 6.69061 41.0795C6.71189 41.1355 6.73709 41.1915 6.77349 41.2767C6.80541 41.2016 6.82949 41.1557 6.84517 41.1087L7.97525 38.2644C8.04301 38.0931 8.04357 38.0931 8.21941 38.0931H9.27221Z" fill="#990D81"/>
<path d="M22.0497 41.5925C22.0497 40.4617 22.0497 39.3307 22.0497 38.1995C22.0497 38.0371 22.0497 38.036 21.8907 38.0354C21.5547 38.0354 21.2187 38.0438 20.8827 38.031C20.7231 38.0248 20.6341 38.073 20.5523 38.2158C20.0388 39.1118 19.5146 40.0016 18.9927 40.8925C18.9608 40.9485 18.9406 41.0124 18.8717 41.051C18.8353 40.9889 18.8034 40.939 18.7743 40.883C18.2703 39.9803 17.7697 39.0787 17.2729 38.1732C17.2539 38.1262 17.22 38.0867 17.1764 38.0608C17.1328 38.0349 17.082 38.024 17.0316 38.0298C16.6648 38.0388 16.298 38.0298 15.9312 38.0338C15.696 38.0338 15.7178 38.0058 15.7178 38.251C15.7178 39.9202 15.7178 41.5894 15.7178 43.2585C15.7178 43.3745 15.7206 43.4909 15.7223 43.6069H16.8983V40.3337C16.9577 40.346 16.9661 40.3846 16.9823 40.4143C17.5557 41.4369 18.1288 42.4596 18.7015 43.4825C18.7149 43.5096 18.7265 43.5374 18.7362 43.566C18.7894 43.5979 18.8113 43.5609 18.8342 43.5223L19.1988 42.9063C19.6841 42.085 20.1704 41.2653 20.6576 40.4474C20.6834 40.3826 20.7273 40.3266 20.7841 40.2861V40.435C20.7841 41.4251 20.7841 42.4144 20.7841 43.403C20.7841 43.4702 20.7875 43.5374 20.7892 43.6046H22.038C22.0542 43.5393 22.0586 43.4716 22.0508 43.4047C22.0505 42.8021 22.0501 42.1981 22.0497 41.5925Z" fill="#990D81"/>
<path d="M14.6949 42.503C13.5637 42.503 12.4323 42.503 11.3008 42.503C11.1283 42.503 11.1272 42.503 11.1266 42.339C11.1266 42.0455 11.1266 41.7515 11.1266 41.4581C11.1266 41.299 11.1266 41.2985 11.2862 41.2968H11.3775C12.0931 41.2968 12.8088 41.2968 13.5245 41.2968C13.6656 41.2968 13.6679 41.2968 13.6684 41.1585C13.6684 40.8958 13.6684 40.6326 13.6684 40.3694C13.6684 40.1975 13.6684 40.2126 13.5043 40.2115C13.0765 40.2087 12.6481 40.2115 12.2203 40.2115C11.9022 40.2115 11.5841 40.2115 11.2683 40.2115C11.1316 40.2115 11.1294 40.2081 11.1283 40.0676C11.1283 39.8229 11.1283 39.5781 11.1283 39.3334C11.1283 39.2069 11.1316 39.2041 11.2627 39.2041C11.6782 39.2041 12.0943 39.2041 12.5103 39.2041C13.238 39.2041 13.966 39.2041 14.6943 39.2041C14.8338 39.2041 14.8355 39.2041 14.8366 39.0624C14.8366 38.8053 14.8366 38.5483 14.8366 38.2918C14.8366 38.0852 14.8612 38.0958 14.6378 38.0958C13.1209 38.0958 11.6043 38.0958 10.0878 38.0958C9.81395 38.0958 9.85091 38.0656 9.85091 38.3254C9.85091 40.0864 9.85091 41.8478 9.85091 43.6096H14.9178C14.9178 43.3162 14.9245 43.0227 14.9245 42.7293C14.9211 42.4706 14.948 42.5058 14.6949 42.503Z" fill="#990D81"/>
<path d="M52.9808 40.199C53.8275 39.4878 54.6738 38.7761 55.5198 38.0637V38.0273C55.0158 38.0273 54.5168 38.0363 54.0156 38.0307C53.8823 38.0258 53.752 38.0716 53.6511 38.1589C52.8831 38.785 52.1124 39.4074 51.3388 40.026C51.2952 40.0607 51.2621 40.1246 51.1809 40.1055V39.9571C51.1809 39.3635 51.1809 38.7701 51.1809 38.1769C51.1809 38.0374 51.1781 38.0352 51.0381 38.0346C50.7077 38.0346 50.3775 38.0346 50.0475 38.0346C49.9064 38.0346 49.9064 38.0346 49.903 38.1752C49.903 38.2116 49.903 38.2485 49.903 38.2872V43.0035C49.903 43.1503 49.9069 43.2975 49.903 43.4437C49.8997 43.5372 49.9299 43.5725 50.0273 43.5714C50.3701 43.5663 50.7122 43.5669 51.0549 43.5714C51.1462 43.5714 51.1955 43.549 51.1837 43.4487C51.1814 43.4115 51.1814 43.374 51.1837 43.3367C51.1837 42.8286 51.1837 42.3209 51.1837 41.8135C51.1837 41.7575 51.1692 41.6909 51.2302 41.6455C51.4363 41.4928 51.6416 41.3388 51.8462 41.1835C51.8538 41.176 51.863 41.1704 51.8732 41.1671C51.8833 41.1639 51.8941 41.1631 51.9047 41.1647C51.9152 41.1664 51.9252 41.1706 51.9338 41.1769C51.9424 41.1832 51.9494 41.1914 51.9543 41.2009C51.9767 41.23 52.0002 41.2569 52.0237 41.2866C52.6177 42.0097 53.2113 42.7331 53.8045 43.4566C53.8302 43.4932 53.8649 43.5227 53.9051 43.5423C53.9454 43.5619 53.99 43.5709 54.0347 43.5686C54.4631 43.5624 54.8915 43.5686 55.3193 43.5647C55.3574 43.5647 55.405 43.5882 55.4313 43.5389C55.4074 43.4825 55.3719 43.4317 55.3271 43.3899C54.5364 42.4096 53.7451 41.4292 52.9533 40.4488C52.8441 40.3138 52.8172 40.3362 52.9808 40.199Z" fill="#990D81"/>
<path d="M28.3474 42.9096C27.6138 41.3651 26.8818 39.8203 26.1516 38.2751C26.0833 38.1295 26.0054 38.0791 25.8492 38.0891C25.6295 38.1026 25.4092 38.1026 25.1895 38.0891C25.0417 38.0807 24.9655 38.1283 24.9017 38.2678C24.3098 39.5614 23.7083 40.8505 23.1097 42.1419C22.8857 42.6291 22.6617 43.1185 22.4405 43.6068H23.6518C23.855 43.1958 24.06 42.7864 24.2582 42.3748C24.3014 42.2858 24.3613 42.2707 24.4481 42.2712C24.9739 42.2712 25.5003 42.2712 26.0267 42.2712C26.1981 42.2712 26.3695 42.2712 26.5408 42.2712C26.5708 42.2678 26.6011 42.2742 26.6271 42.2896C26.6531 42.3049 26.6733 42.3284 26.6847 42.3563C26.8818 42.7567 27.0829 43.1549 27.2817 43.5547C27.2866 43.573 27.2883 43.5919 27.2867 43.6107H28.6453C28.6722 43.5547 28.6318 43.5183 28.6122 43.4763C28.526 43.2871 28.4364 43.0972 28.3474 42.9096ZM24.7404 41.2856L25.4914 39.8151C25.7484 40.3263 25.9847 40.7984 26.2311 41.289L24.7404 41.2856Z" fill="#990D81"/>
<path d="M35.8748 40.7852C35.8155 40.7455 35.7421 40.7236 35.6973 40.6648C35.7018 40.6548 35.7029 40.6486 35.7068 40.6452C35.7309 40.6262 35.755 40.6077 35.7796 40.5892C36.091 40.3652 36.2747 40.0662 36.3004 39.682C36.3564 38.8874 35.9644 38.2983 35.1978 38.1101C34.9589 38.0563 34.7145 38.0313 34.4698 38.0356C33.3684 38.0356 32.2671 38.0356 31.1657 38.0356C31.0044 38.0356 31.0022 38.0356 31.0022 38.1941C31.0022 39.9316 31.0022 41.6693 31.0022 43.4071C31.0022 43.5667 31.0022 43.5667 31.1629 43.5684H31.2363C32.2645 43.5684 33.2924 43.5684 34.3202 43.5684C34.5404 43.5697 34.7605 43.5582 34.9794 43.5337C35.8603 43.4323 36.5188 42.8337 36.4729 41.8431C36.469 41.6309 36.4122 41.4231 36.3078 41.2384C36.2034 41.0537 36.0545 40.898 35.8748 40.7852ZM32.2796 39.2928C32.2796 39.159 32.2829 39.1545 32.4073 39.1545C33.0613 39.1545 33.7158 39.1555 34.3706 39.1573C34.4931 39.1557 34.6151 39.1729 34.7324 39.2083C34.9424 39.2755 35.0342 39.4149 35.0309 39.6563C35.0275 39.8842 34.9301 40.0203 34.7274 40.083C34.5793 40.1221 34.4262 40.1391 34.2732 40.1334C33.9977 40.1362 33.7227 40.1334 33.4472 40.1334C33.105 40.1334 32.7623 40.1334 32.4196 40.1334C32.2824 40.1334 32.2807 40.13 32.2796 39.9889C32.2781 39.7575 32.2781 39.5254 32.2796 39.2928ZM34.8808 42.3443C34.6641 42.4445 34.4294 42.4484 34.1976 42.4563C33.9467 42.463 33.6936 42.4563 33.4449 42.4563C33.1089 42.4563 32.7729 42.4563 32.4369 42.4563C32.2829 42.4563 32.2807 42.4563 32.2801 42.3096C32.2801 41.9971 32.2801 41.6852 32.2801 41.3732C32.2801 41.2859 32.3087 41.2568 32.3961 41.2573C33.0681 41.2612 33.7401 41.2573 34.4121 41.2652C34.5594 41.2665 34.7053 41.2936 34.8433 41.3452C35.0628 41.4276 35.1681 41.5928 35.1793 41.8235C35.1905 42.0542 35.1026 42.2424 34.8808 42.3443Z" fill="#990D81"/>
<path d="M48.9882 38.0328C48.7004 38.0379 48.4131 38.0328 48.1253 38.0328C47.9147 38.0328 47.9298 38.0155 47.9298 38.2333C47.9298 39.2118 47.9298 40.1905 47.9298 41.1694C47.9298 41.2304 47.9506 41.2987 47.8906 41.371C47.8386 41.3116 47.796 41.259 47.749 41.2114C46.7503 40.1937 45.7522 39.176 44.7546 38.1583C44.7177 38.1149 44.6711 38.0807 44.6186 38.0584C44.5661 38.0361 44.5091 38.0264 44.4522 38.03C44.2137 38.039 43.9751 38.03 43.7366 38.0328C43.5126 38.0328 43.5243 38.0088 43.5243 38.2356V43.3556C43.5243 43.3926 43.5243 43.429 43.5243 43.4676C43.5204 43.5348 43.5462 43.5684 43.6184 43.5679C43.9488 43.5679 44.2792 43.5679 44.6096 43.5679C44.6779 43.5679 44.7132 43.5449 44.7109 43.4738C44.7109 43.4245 44.7109 43.3758 44.7109 43.3265C44.7109 42.342 44.7109 41.3572 44.7109 40.3719C44.7025 40.3058 44.7072 40.2386 44.7249 40.1743C44.7877 40.1804 44.8112 40.2303 44.8437 40.2611C45.0638 40.4817 45.2822 40.7046 45.5017 40.9263C46.335 41.7708 47.1682 42.6159 48.0015 43.4615C48.033 43.4977 48.0724 43.5263 48.1167 43.5449C48.1609 43.5636 48.2089 43.5718 48.2569 43.569C48.4809 43.5617 48.7099 43.569 48.9362 43.569C49.1148 43.569 49.1148 43.569 49.1165 43.3887V38.2669C49.1165 38.23 49.1137 38.193 49.1165 38.1549C49.1254 38.0608 49.0829 38.0311 48.9882 38.0328Z" fill="#990D81"/>
<path d="M41.8282 41.1878C41.3511 40.1832 40.8747 39.1785 40.3991 38.1739C40.3515 38.0725 40.2966 38.0272 40.1801 38.0317C39.9298 38.0406 39.6761 38.0417 39.4286 38.0317C39.306 38.0266 39.2461 38.0669 39.1945 38.1789C38.3919 39.9209 37.5868 41.6618 36.7792 43.4015C36.7574 43.4491 36.7154 43.4933 36.7406 43.5695C37.1024 43.5695 37.4686 43.5695 37.8332 43.5695C37.9233 43.5695 37.9452 43.5084 37.9726 43.4496C38.1557 43.0834 38.3428 42.7216 38.5197 42.3498C38.5362 42.3051 38.5673 42.2674 38.608 42.2427C38.6487 42.218 38.6965 42.2078 38.7437 42.2137C39.4101 42.2188 40.0765 42.2199 40.7429 42.2137C40.8706 42.2137 40.9378 42.2496 40.9933 42.3683C41.1646 42.7328 41.3511 43.0907 41.532 43.4508C41.5617 43.5107 41.5818 43.5706 41.6714 43.57C42.0869 43.5661 42.5025 43.57 42.932 43.57C42.9278 43.5071 42.9086 43.446 42.876 43.392C42.5262 42.6561 42.1769 41.9214 41.8282 41.1878ZM39.0489 41.2438C39.0629 41.1206 39.6089 40.0269 39.7769 39.7878L40.5089 41.2438H39.0489Z" fill="#990D81"/>
</svg>
