<svg width="38" height="40" viewBox="0 0 38 40" fill="none" xmlns="http://www.w3.org/2000/svg">
<path fillRule="evenodd" clipRule="evenodd" d="M3.82839 11.0231L3.8944 10.7591L3.9604 10.429L6.86469 0L37.7558 0.0660066L3.63037 27.8548L19.2079 9.0429H7.52476L6.86469 9.10891C5.47856 9.17492 4.22443 10.033 3.82839 11.0231Z" fill="#808285"/>
<path fillRule="evenodd" clipRule="evenodd" d="M36.1056 19.0756C36.1056 18.9435 35.1155 24.9501 33.4653 31.1548L1.18811 31.3528L36.0396 3.16797L20.396 22.1119H32.1452L32.8053 22.0459C34.1914 21.9799 35.6436 20.0657 36.1056 19.0756Z" fill="#ED1C24"/>
<path fillRule="evenodd" clipRule="evenodd" d="M5.47855 40.0001H0L3.76238 34.8516H1.25413L1.45215 33.3994H6.66667L2.90429 38.548H5.67657L5.47855 40.0001ZM6.53465 40.0001L7.39274 33.3994H11.1551L10.9571 34.8516H8.84488L8.71287 35.9737H10.6931L10.5611 37.4258H8.51485L8.38284 38.548H10.495L10.297 40.0001H6.53465ZM11.4191 40.0001L12.2772 33.3994H13.9274L15.8416 36.8318L15.9736 37.2278L16.2376 37.9539C16.2415 37.5351 16.2636 37.1167 16.3036 36.6998L16.6997 33.3994H18.3498L17.4917 40.0001H15.9076L13.9934 36.6338L13.7954 36.1717L13.5314 35.4456C13.528 35.8864 13.5059 36.3268 13.4653 36.7658L13.0693 40.0001H11.4191ZM18.8779 40.0001L19.736 33.3994H21.4521L20.5941 40.0001H18.8779ZM22.8383 40.0001L23.4984 34.9836H22.1122L22.3102 33.3994H26.7987L26.6007 34.9836H25.2145L24.5545 40.0001H22.8383ZM26.7327 40.0001L27.5908 33.3994H29.3069L28.9769 35.9737H31.2211L31.5512 33.3994H33.2673L32.4092 40.0001H30.6931L31.0231 37.2938H28.7789L28.4488 40.0001H26.7327Z" fill="#808285"/>
</svg>
